%TF.GenerationSoftware,KiCad,Pcbnew,10.0.1*%
%TF.CreationDate,2026-05-29T21:24:13+08:00*%
%TF.ProjectId,USB_HUB,5553425f-4855-4422-9e6b-696361645f70,rev?*%
%TF.SameCoordinates,Original*%
%TF.FileFunction,Paste,Top*%
%TF.FilePolarity,Positive*%
%FSLAX46Y46*%
G04 Gerber Fmt 4.6, Leading zero omitted, Abs format (unit mm)*
G04 Created by KiCad (PCBNEW 10.0.1) date 2026-05-29 21:24:13*
%MOMM*%
%LPD*%
G01*
G04 APERTURE LIST*
G04 Aperture macros list*
%AMRoundRect*
0 Rectangle with rounded corners*
0 $1 Rounding radius*
0 $2 $3 $4 $5 $6 $7 $8 $9 X,Y pos of 4 corners*
0 Add a 4 corners polygon primitive as box body*
4,1,4,$2,$3,$4,$5,$6,$7,$8,$9,$2,$3,0*
0 Add four circle primitives for the rounded corners*
1,1,$1+$1,$2,$3*
1,1,$1+$1,$4,$5*
1,1,$1+$1,$6,$7*
1,1,$1+$1,$8,$9*
0 Add four rect primitives between the rounded corners*
20,1,$1+$1,$2,$3,$4,$5,0*
20,1,$1+$1,$4,$5,$6,$7,0*
20,1,$1+$1,$6,$7,$8,$9,0*
20,1,$1+$1,$8,$9,$2,$3,0*%
G04 Aperture macros list end*
%ADD10RoundRect,0.140000X0.140000X0.170000X-0.140000X0.170000X-0.140000X-0.170000X0.140000X-0.170000X0*%
%ADD11RoundRect,0.200000X0.200000X0.275000X-0.200000X0.275000X-0.200000X-0.275000X0.200000X-0.275000X0*%
%ADD12RoundRect,0.200000X-0.275000X0.200000X-0.275000X-0.200000X0.275000X-0.200000X0.275000X0.200000X0*%
%ADD13R,1.100000X0.550000*%
%ADD14R,1.100000X0.300000*%
%ADD15RoundRect,0.140000X-0.140000X-0.170000X0.140000X-0.170000X0.140000X0.170000X-0.140000X0.170000X0*%
%ADD16R,2.880000X1.120000*%
%ADD17RoundRect,0.140000X-0.170000X0.140000X-0.170000X-0.140000X0.170000X-0.140000X0.170000X0.140000X0*%
%ADD18R,0.550000X1.100000*%
%ADD19R,0.300000X1.100000*%
%ADD20RoundRect,0.200000X-0.200000X-0.275000X0.200000X-0.275000X0.200000X0.275000X-0.200000X0.275000X0*%
%ADD21R,0.250000X1.200000*%
G04 APERTURE END LIST*
D10*
%TO.C,C9*%
X157960000Y-100000000D03*
X157000000Y-100000000D03*
%TD*%
D11*
%TO.C,R2*%
X163248706Y-118724005D03*
X161598706Y-118724005D03*
%TD*%
D10*
%TO.C,C4*%
X125000000Y-113500000D03*
X124040000Y-113500000D03*
%TD*%
D12*
%TO.C,R4*%
X142000000Y-132500000D03*
X142000000Y-134150000D03*
%TD*%
D13*
%TO.C,USB6*%
X166136206Y-128424005D03*
X166136206Y-127624005D03*
D14*
X166136206Y-126974005D03*
X166136206Y-126474005D03*
X166136206Y-125974005D03*
X166136206Y-125474005D03*
X166136206Y-124974005D03*
X166136206Y-124474005D03*
X166136206Y-123974005D03*
X166136206Y-123474005D03*
D13*
X166136206Y-122824005D03*
X166136206Y-122024005D03*
%TD*%
D15*
%TO.C,C3*%
X137130000Y-80940000D03*
X138090000Y-80940000D03*
%TD*%
D10*
%TO.C,C8*%
X157980000Y-101000000D03*
X157020000Y-101000000D03*
%TD*%
%TO.C,C11*%
X148440000Y-118000000D03*
X147480000Y-118000000D03*
%TD*%
D11*
%TO.C,R5*%
X127825000Y-121641901D03*
X126175000Y-121641901D03*
%TD*%
D10*
%TO.C,C10*%
X148480000Y-116000000D03*
X147520000Y-116000000D03*
%TD*%
D16*
%TO.C,USB8*%
X156110000Y-84500000D03*
X156110000Y-82000000D03*
X156110000Y-80000000D03*
X156110000Y-77500000D03*
%TD*%
D17*
%TO.C,C2*%
X154500000Y-134040000D03*
X154500000Y-135000000D03*
%TD*%
D12*
%TO.C,R3*%
X152500000Y-134000000D03*
X152500000Y-135650000D03*
%TD*%
D18*
%TO.C,USB2*%
X139946282Y-138248782D03*
X140746282Y-138248782D03*
D19*
X141396282Y-138248782D03*
X141896282Y-138248782D03*
X142396282Y-138248782D03*
X142896282Y-138248782D03*
X143396282Y-138248782D03*
X143896282Y-138248782D03*
X144396282Y-138248782D03*
X144896282Y-138248782D03*
D18*
X145546282Y-138248782D03*
X146346282Y-138248782D03*
%TD*%
D10*
%TO.C,C6*%
X153460000Y-103500000D03*
X152500000Y-103500000D03*
%TD*%
%TO.C,C1*%
X163558706Y-129224005D03*
X162598706Y-129224005D03*
%TD*%
D16*
%TO.C,USB5*%
X133890000Y-81221218D03*
X133890000Y-83721218D03*
X133890000Y-85721218D03*
X133890000Y-88221218D03*
%TD*%
D10*
%TO.C,C7*%
X153460000Y-102500000D03*
X152500000Y-102500000D03*
%TD*%
D15*
%TO.C,C5*%
X153520000Y-87500000D03*
X154480000Y-87500000D03*
%TD*%
D13*
%TO.C,USB7*%
X121462500Y-115183119D03*
X121462500Y-115983119D03*
D14*
X121462500Y-116633119D03*
X121462500Y-117133119D03*
X121462500Y-117633119D03*
X121462500Y-118133119D03*
X121462500Y-118633119D03*
X121462500Y-119133119D03*
X121462500Y-119633119D03*
X121462500Y-120133119D03*
D13*
X121462500Y-120783119D03*
X121462500Y-121583119D03*
%TD*%
D11*
%TO.C,R1*%
X163423706Y-126116923D03*
X161773706Y-126116923D03*
%TD*%
D20*
%TO.C,R6*%
X128675000Y-110000000D03*
X130325000Y-110000000D03*
%TD*%
D21*
%TO.C,U1*%
X144650000Y-111441218D03*
X145180000Y-111441218D03*
X145700000Y-111441218D03*
X146240000Y-111441218D03*
X146760000Y-111441218D03*
X147300000Y-111441218D03*
X147830000Y-111441218D03*
X148350000Y-111441218D03*
X148350000Y-107841218D03*
X147830000Y-107841218D03*
X147300000Y-107841218D03*
X146760000Y-107841218D03*
X146240000Y-107841218D03*
X145700000Y-107841218D03*
X145180000Y-107841218D03*
X144650000Y-107841218D03*
%TD*%
M02*
