%TF.GenerationSoftware,KiCad,Pcbnew,10.0.1*%
%TF.CreationDate,2026-05-29T21:24:13+08:00*%
%TF.ProjectId,USB_HUB,5553425f-4855-4422-9e6b-696361645f70,rev?*%
%TF.SameCoordinates,Original*%
%TF.FileFunction,Copper,L2,Bot*%
%TF.FilePolarity,Positive*%
%FSLAX46Y46*%
G04 Gerber Fmt 4.6, Leading zero omitted, Abs format (unit mm)*
G04 Created by KiCad (PCBNEW 10.0.1) date 2026-05-29 21:24:13*
%MOMM*%
%LPD*%
G01*
G04 APERTURE LIST*
%TA.AperFunction,NonConductor*%
%ADD10C,0.200000*%
%TD*%
%TA.AperFunction,ComponentPad*%
%ADD11O,2.000000X1.100000*%
%TD*%
%TA.AperFunction,ComponentPad*%
%ADD12O,1.800000X1.200000*%
%TD*%
%TA.AperFunction,ComponentPad*%
%ADD13O,3.100000X1.200000*%
%TD*%
%TA.AperFunction,ComponentPad*%
%ADD14O,1.100000X2.000000*%
%TD*%
%TA.AperFunction,ComponentPad*%
%ADD15O,1.200000X1.800000*%
%TD*%
%TA.AperFunction,ViaPad*%
%ADD16C,0.600000*%
%TD*%
G04 APERTURE END LIST*
D10*
X101500000Y-52000000D02*
X188000000Y-52000000D01*
X188000000Y-156500000D01*
X101500000Y-156500000D01*
X101500000Y-52000000D01*
D11*
%TO.P,USB6,13,SHELL_13*%
%TO.N,GND*%
X166686206Y-129544005D03*
D12*
X170896206Y-129544005D03*
D11*
%TO.P,USB6,14,SHELL_14*%
X166686206Y-120904005D03*
D12*
X170896206Y-120904005D03*
%TD*%
D13*
%TO.P,USB8,5,5_5*%
%TO.N,GND*%
X164890000Y-87450000D03*
%TO.P,USB8,6,6_6*%
X164890000Y-74550000D03*
%TD*%
D14*
%TO.P,USB2,13,SHELL_13*%
%TO.N,GND*%
X138826282Y-138798782D03*
D15*
X138826282Y-143008782D03*
D14*
%TO.P,USB2,14,SHELL_14*%
X147466282Y-138798782D03*
D15*
X147466282Y-143008782D03*
%TD*%
D13*
%TO.P,USB5,5,5_5*%
%TO.N,GND*%
X125110000Y-78271218D03*
%TO.P,USB5,6,6_6*%
X125110000Y-91171218D03*
%TD*%
D11*
%TO.P,USB7,13,SHELL_13*%
%TO.N,GND*%
X120912500Y-114063119D03*
D12*
X116702500Y-114063119D03*
D11*
%TO.P,USB7,14,SHELL_14*%
X120912500Y-122703119D03*
D12*
X116702500Y-122703119D03*
%TD*%
D16*
%TO.N,GND*%
X151000000Y-102500000D03*
X165098706Y-128724005D03*
X156000000Y-101500000D03*
X151000000Y-103500000D03*
X149500000Y-111000000D03*
X154500000Y-136500000D03*
X140000000Y-136500000D03*
X153390000Y-77550000D03*
X148000000Y-110500000D03*
X162598706Y-130724005D03*
X139110000Y-80940000D03*
X157000000Y-99000000D03*
X161598706Y-124724005D03*
X149500000Y-111000000D03*
X154500000Y-88500000D03*
X136610000Y-88940000D03*
X147000000Y-109000000D03*
X164598706Y-121724005D03*
X146500000Y-137000000D03*
X123000000Y-114641901D03*
X123000000Y-113500000D03*
X147500000Y-114500000D03*
X161598706Y-117224005D03*
X147500000Y-119500000D03*
X123000000Y-121641901D03*
%TO.N,+5V*%
X141000000Y-136000000D03*
X141000000Y-136000000D03*
%TD*%
%TA.AperFunction,Conductor*%
%TO.N,GND*%
G36*
X147301972Y-59574913D02*
G01*
X147314136Y-59576124D01*
X148979423Y-59825476D01*
X148990994Y-59827776D01*
X150630213Y-60235597D01*
X150640967Y-60238796D01*
X152110334Y-60749416D01*
X152252514Y-60798825D01*
X152262340Y-60802716D01*
X153844469Y-61508708D01*
X153853304Y-61513080D01*
X154122033Y-61659620D01*
X155285370Y-62293998D01*
X155404096Y-62358740D01*
X155411953Y-62363408D01*
X156929511Y-63342441D01*
X156936444Y-63347256D01*
X158418689Y-64453239D01*
X158424779Y-64458087D01*
X159869747Y-65684631D01*
X159875084Y-65689434D01*
X161280689Y-67030028D01*
X161285364Y-67034733D01*
X162649545Y-68482828D01*
X162653647Y-68487404D01*
X163974387Y-70036461D01*
X163977993Y-70040893D01*
X165253286Y-71684345D01*
X165256466Y-71688630D01*
X166441443Y-73359453D01*
X166464169Y-73425524D01*
X166447566Y-73493392D01*
X166396907Y-73541511D01*
X166328275Y-73554603D01*
X166284003Y-73541672D01*
X166262257Y-73530592D01*
X166097584Y-73477085D01*
X165926571Y-73450000D01*
X165140000Y-73450000D01*
X165140000Y-74199988D01*
X164640000Y-74199988D01*
X164640000Y-73450000D01*
X163853429Y-73450000D01*
X163682415Y-73477085D01*
X163517742Y-73530591D01*
X163363475Y-73609195D01*
X163223397Y-73710967D01*
X163100967Y-73833397D01*
X162999195Y-73973475D01*
X162920591Y-74127744D01*
X162867085Y-74292415D01*
X162865884Y-74299999D01*
X162865885Y-74300000D01*
X163745023Y-74300000D01*
X163709935Y-74335088D01*
X163663855Y-74414901D01*
X163640002Y-74503920D01*
X163640002Y-74596080D01*
X163663855Y-74685099D01*
X163709935Y-74764912D01*
X163745023Y-74800000D01*
X162865885Y-74800000D01*
X162867085Y-74807584D01*
X162920591Y-74972255D01*
X162999195Y-75126524D01*
X163100967Y-75266602D01*
X163223397Y-75389032D01*
X163363475Y-75490804D01*
X163517742Y-75569408D01*
X163682415Y-75622914D01*
X163853429Y-75650000D01*
X164640000Y-75650000D01*
X164640000Y-74900012D01*
X165140000Y-74900012D01*
X165140000Y-75650000D01*
X165926571Y-75650000D01*
X166097584Y-75622914D01*
X166262257Y-75569408D01*
X166416524Y-75490804D01*
X166556602Y-75389032D01*
X166679032Y-75266602D01*
X166780804Y-75126524D01*
X166859408Y-74972255D01*
X166912914Y-74807584D01*
X166914115Y-74800000D01*
X166034977Y-74800000D01*
X166070065Y-74764912D01*
X166116145Y-74685099D01*
X166139998Y-74596080D01*
X166139998Y-74503920D01*
X166116145Y-74414901D01*
X166070065Y-74335088D01*
X166034977Y-74300000D01*
X166935427Y-74300000D01*
X166945753Y-74293258D01*
X167015621Y-74292756D01*
X167074669Y-74330106D01*
X167085502Y-74344390D01*
X167623163Y-75171353D01*
X167665477Y-75236434D01*
X167667972Y-75240436D01*
X168024829Y-75837972D01*
X168794909Y-77127425D01*
X168797139Y-77131318D01*
X169870655Y-79086214D01*
X169872652Y-79090005D01*
X170644566Y-80618592D01*
X170863381Y-81051903D01*
X170890826Y-81106250D01*
X170892621Y-81109956D01*
X171853478Y-83180866D01*
X171855097Y-83184506D01*
X172756748Y-85303571D01*
X172758211Y-85307164D01*
X173598673Y-87467636D01*
X173599997Y-87471201D01*
X174377366Y-89666507D01*
X174378566Y-89670066D01*
X175090919Y-91893573D01*
X175092004Y-91897145D01*
X175737427Y-94142226D01*
X175738405Y-94145833D01*
X176314971Y-96405796D01*
X176315847Y-96409460D01*
X176821681Y-98677785D01*
X176822456Y-98681530D01*
X177255649Y-100951566D01*
X177256321Y-100955418D01*
X177614959Y-103220424D01*
X177615524Y-103224407D01*
X177897739Y-105477906D01*
X177898187Y-105482051D01*
X178102081Y-107717248D01*
X178102400Y-107721583D01*
X178226102Y-109931903D01*
X178226273Y-109936462D01*
X178267921Y-112115290D01*
X178267921Y-112120039D01*
X178227017Y-114252061D01*
X178226828Y-114256933D01*
X178105345Y-116330781D01*
X178104949Y-116335792D01*
X177904718Y-118350730D01*
X177904099Y-118355869D01*
X177626960Y-120311278D01*
X177626100Y-120316533D01*
X177273878Y-122211836D01*
X177272759Y-122217195D01*
X176847295Y-124051719D01*
X176845902Y-124057163D01*
X176349019Y-125830318D01*
X176347335Y-125835829D01*
X175780892Y-127546914D01*
X175778906Y-127552468D01*
X175144683Y-129201004D01*
X175142382Y-129206577D01*
X174442228Y-130791876D01*
X174439604Y-130797439D01*
X173675337Y-132318905D01*
X173672385Y-132324430D01*
X172845820Y-133781453D01*
X172842538Y-133786907D01*
X171955464Y-135178924D01*
X171951854Y-135184276D01*
X171006077Y-136510668D01*
X171002147Y-136515883D01*
X169999462Y-137776052D01*
X169995222Y-137781099D01*
X168937419Y-138974442D01*
X168932885Y-138979289D01*
X167821740Y-140105207D01*
X167816931Y-140109825D01*
X166654219Y-141167712D01*
X166649158Y-141172074D01*
X165436622Y-142161339D01*
X165431335Y-142165420D01*
X164170765Y-143085424D01*
X164165281Y-143089205D01*
X162858425Y-143939341D01*
X162852773Y-143942806D01*
X161501390Y-144722439D01*
X161495603Y-144725576D01*
X160101449Y-145434072D01*
X160095557Y-145436874D01*
X158660362Y-146073605D01*
X158654398Y-146076067D01*
X157179992Y-146640352D01*
X157173985Y-146642476D01*
X155662040Y-147133696D01*
X155656019Y-147135485D01*
X154108346Y-147552965D01*
X154102338Y-147554426D01*
X152520668Y-147897508D01*
X152514696Y-147898651D01*
X150900831Y-148166660D01*
X150894918Y-148167496D01*
X149250644Y-148359763D01*
X149244810Y-148360306D01*
X147571871Y-148476162D01*
X147566131Y-148476426D01*
X145866317Y-148515194D01*
X145860670Y-148515194D01*
X144156393Y-148476424D01*
X144150711Y-148476164D01*
X142464697Y-148360292D01*
X142458975Y-148359765D01*
X140793619Y-148167457D01*
X140787867Y-148166656D01*
X139145525Y-147898574D01*
X139139756Y-147897492D01*
X137522727Y-147554288D01*
X137516956Y-147552918D01*
X135927660Y-147135268D01*
X135921901Y-147133605D01*
X134362629Y-146642153D01*
X134356898Y-146640192D01*
X132830030Y-146075603D01*
X132824346Y-146073340D01*
X131332230Y-145436275D01*
X131326610Y-145433708D01*
X129871542Y-144724800D01*
X129866007Y-144721929D01*
X128450373Y-143941848D01*
X128444943Y-143938674D01*
X127434136Y-143312849D01*
X127071052Y-143088051D01*
X127065751Y-143084578D01*
X126538054Y-142719294D01*
X126397804Y-142622210D01*
X137726282Y-142622210D01*
X137726282Y-142758782D01*
X138526283Y-142758782D01*
X138526283Y-143258782D01*
X137726282Y-143258782D01*
X137726282Y-143395353D01*
X137753367Y-143566366D01*
X137806873Y-143731039D01*
X137885477Y-143885306D01*
X137987249Y-144025384D01*
X138109679Y-144147814D01*
X138249757Y-144249586D01*
X138404026Y-144328190D01*
X138568697Y-144381696D01*
X138568696Y-144381696D01*
X138576281Y-144382897D01*
X138576282Y-144382896D01*
X138576282Y-143475767D01*
X138586223Y-143492986D01*
X138642078Y-143548841D01*
X138710487Y-143588337D01*
X138786786Y-143608781D01*
X138865778Y-143608781D01*
X138942077Y-143588337D01*
X139010486Y-143548841D01*
X139066341Y-143492986D01*
X139076282Y-143475767D01*
X139076282Y-144382897D01*
X139083866Y-144381696D01*
X139248537Y-144328190D01*
X139402806Y-144249586D01*
X139542884Y-144147814D01*
X139665314Y-144025384D01*
X139767086Y-143885306D01*
X139845690Y-143731039D01*
X139899196Y-143566366D01*
X139926282Y-143395353D01*
X139926282Y-143258782D01*
X139126281Y-143258782D01*
X139126281Y-142758782D01*
X139926282Y-142758782D01*
X139926282Y-142622210D01*
X146366282Y-142622210D01*
X146366282Y-142758782D01*
X147166283Y-142758782D01*
X147166283Y-143258782D01*
X146366282Y-143258782D01*
X146366282Y-143395353D01*
X146393367Y-143566366D01*
X146446873Y-143731039D01*
X146525477Y-143885306D01*
X146627249Y-144025384D01*
X146749679Y-144147814D01*
X146889757Y-144249586D01*
X147044026Y-144328190D01*
X147208697Y-144381696D01*
X147208696Y-144381696D01*
X147216281Y-144382897D01*
X147216282Y-144382896D01*
X147216282Y-143475767D01*
X147226223Y-143492986D01*
X147282078Y-143548841D01*
X147350487Y-143588337D01*
X147426786Y-143608781D01*
X147505778Y-143608781D01*
X147582077Y-143588337D01*
X147650486Y-143548841D01*
X147706341Y-143492986D01*
X147716282Y-143475767D01*
X147716282Y-144382897D01*
X147723866Y-144381696D01*
X147888537Y-144328190D01*
X148042806Y-144249586D01*
X148182884Y-144147814D01*
X148305314Y-144025384D01*
X148407086Y-143885306D01*
X148485690Y-143731039D01*
X148539196Y-143566366D01*
X148566282Y-143395353D01*
X148566282Y-143258782D01*
X147766281Y-143258782D01*
X147766281Y-142758782D01*
X148566282Y-142758782D01*
X148566282Y-142622210D01*
X148539196Y-142451197D01*
X148485690Y-142286524D01*
X148407086Y-142132257D01*
X148305314Y-141992179D01*
X148182884Y-141869749D01*
X148042806Y-141767977D01*
X147888539Y-141689373D01*
X147723871Y-141635869D01*
X147723863Y-141635867D01*
X147716282Y-141634666D01*
X147716282Y-142541796D01*
X147706341Y-142524578D01*
X147650486Y-142468723D01*
X147582077Y-142429227D01*
X147505778Y-142408783D01*
X147426786Y-142408783D01*
X147350487Y-142429227D01*
X147282078Y-142468723D01*
X147226223Y-142524578D01*
X147216282Y-142541796D01*
X147216282Y-141634666D01*
X147216281Y-141634666D01*
X147208700Y-141635867D01*
X147208692Y-141635869D01*
X147044024Y-141689373D01*
X146889757Y-141767977D01*
X146749679Y-141869749D01*
X146627249Y-141992179D01*
X146525477Y-142132257D01*
X146446873Y-142286524D01*
X146393367Y-142451197D01*
X146366282Y-142622210D01*
X139926282Y-142622210D01*
X139899196Y-142451197D01*
X139845690Y-142286524D01*
X139767086Y-142132257D01*
X139665314Y-141992179D01*
X139542884Y-141869749D01*
X139402806Y-141767977D01*
X139248539Y-141689373D01*
X139083871Y-141635869D01*
X139083863Y-141635867D01*
X139076282Y-141634666D01*
X139076282Y-142541796D01*
X139066341Y-142524578D01*
X139010486Y-142468723D01*
X138942077Y-142429227D01*
X138865778Y-142408783D01*
X138786786Y-142408783D01*
X138710487Y-142429227D01*
X138642078Y-142468723D01*
X138586223Y-142524578D01*
X138576282Y-142541796D01*
X138576282Y-141634666D01*
X138576281Y-141634666D01*
X138568700Y-141635867D01*
X138568692Y-141635869D01*
X138404024Y-141689373D01*
X138249757Y-141767977D01*
X138109679Y-141869749D01*
X137987249Y-141992179D01*
X137885477Y-142132257D01*
X137806873Y-142286524D01*
X137753367Y-142451197D01*
X137726282Y-142622210D01*
X126397804Y-142622210D01*
X125735962Y-142164068D01*
X125730811Y-142160303D01*
X124447450Y-141170541D01*
X124442472Y-141166492D01*
X123383222Y-140258431D01*
X123207862Y-140108100D01*
X123203086Y-140103786D01*
X122134989Y-139087242D01*
X122019570Y-138977394D01*
X122015007Y-138972819D01*
X121401290Y-138324521D01*
X121326353Y-138245361D01*
X137776282Y-138245361D01*
X137776282Y-138548782D01*
X138526283Y-138548782D01*
X138526283Y-139048782D01*
X137776282Y-139048782D01*
X137776282Y-139352202D01*
X137816630Y-139555048D01*
X137816632Y-139555056D01*
X137895782Y-139746140D01*
X137895787Y-139746150D01*
X138010692Y-139918117D01*
X138010695Y-139918121D01*
X138156942Y-140064368D01*
X138156946Y-140064371D01*
X138328913Y-140179276D01*
X138328923Y-140179281D01*
X138520005Y-140258430D01*
X138520007Y-140258431D01*
X138576282Y-140269624D01*
X138576282Y-139415767D01*
X138586223Y-139432986D01*
X138642078Y-139488841D01*
X138710487Y-139528337D01*
X138786786Y-139548781D01*
X138865778Y-139548781D01*
X138942077Y-139528337D01*
X139010486Y-139488841D01*
X139066341Y-139432986D01*
X139076282Y-139415767D01*
X139076282Y-140269624D01*
X139132556Y-140258431D01*
X139132558Y-140258430D01*
X139323640Y-140179281D01*
X139323650Y-140179276D01*
X139495617Y-140064371D01*
X139495621Y-140064368D01*
X139641868Y-139918121D01*
X139641874Y-139918113D01*
X139699925Y-139831235D01*
X139753537Y-139786429D01*
X139822862Y-139777722D01*
X139880425Y-139805262D01*
X139881121Y-139804356D01*
X139885408Y-139807646D01*
X139885889Y-139807876D01*
X139886657Y-139808604D01*
X139887563Y-139809299D01*
X139887566Y-139809302D01*
X139887569Y-139809303D01*
X139887572Y-139809306D01*
X139925555Y-139831235D01*
X140024498Y-139888359D01*
X140177225Y-139929282D01*
X140177227Y-139929282D01*
X140335337Y-139929282D01*
X140335339Y-139929282D01*
X140488066Y-139888359D01*
X140624998Y-139809302D01*
X140736802Y-139697498D01*
X140815859Y-139560566D01*
X140856782Y-139407839D01*
X140856782Y-139249725D01*
X145435782Y-139249725D01*
X145435782Y-139407839D01*
X145475227Y-139555048D01*
X145476705Y-139560565D01*
X145476708Y-139560572D01*
X145555757Y-139697491D01*
X145555761Y-139697496D01*
X145555762Y-139697498D01*
X145667566Y-139809302D01*
X145667568Y-139809303D01*
X145667572Y-139809306D01*
X145705555Y-139831235D01*
X145804498Y-139888359D01*
X145957225Y-139929282D01*
X145957227Y-139929282D01*
X146115337Y-139929282D01*
X146115339Y-139929282D01*
X146268066Y-139888359D01*
X146404998Y-139809302D01*
X146405001Y-139809298D01*
X146411448Y-139804353D01*
X146412993Y-139806367D01*
X146463156Y-139778964D01*
X146532848Y-139783935D01*
X146588790Y-139825796D01*
X146592639Y-139831235D01*
X146650689Y-139918113D01*
X146650695Y-139918121D01*
X146796942Y-140064368D01*
X146796946Y-140064371D01*
X146968913Y-140179276D01*
X146968923Y-140179281D01*
X147160005Y-140258430D01*
X147160007Y-140258431D01*
X147216282Y-140269624D01*
X147216282Y-139415779D01*
X147226223Y-139432998D01*
X147282078Y-139488853D01*
X147350487Y-139528349D01*
X147426786Y-139548793D01*
X147505778Y-139548793D01*
X147582077Y-139528349D01*
X147650486Y-139488853D01*
X147706341Y-139432998D01*
X147716282Y-139415779D01*
X147716282Y-140269624D01*
X147772556Y-140258431D01*
X147772558Y-140258430D01*
X147963640Y-140179281D01*
X147963650Y-140179276D01*
X148135617Y-140064371D01*
X148135621Y-140064368D01*
X148281868Y-139918121D01*
X148281871Y-139918117D01*
X148396776Y-139746150D01*
X148396781Y-139746140D01*
X148475931Y-139555056D01*
X148475933Y-139555048D01*
X148516281Y-139352202D01*
X148516282Y-139352199D01*
X148516282Y-139048782D01*
X147766281Y-139048782D01*
X147766281Y-138548782D01*
X148516282Y-138548782D01*
X148516282Y-138245365D01*
X148516281Y-138245361D01*
X148475933Y-138042515D01*
X148475931Y-138042507D01*
X148396781Y-137851423D01*
X148396776Y-137851413D01*
X148281871Y-137679446D01*
X148281868Y-137679442D01*
X148135621Y-137533195D01*
X148135617Y-137533192D01*
X147963650Y-137418287D01*
X147963640Y-137418282D01*
X147772554Y-137339131D01*
X147772549Y-137339129D01*
X147716282Y-137327937D01*
X147716282Y-138181784D01*
X147706341Y-138164566D01*
X147650486Y-138108711D01*
X147582077Y-138069215D01*
X147505778Y-138048771D01*
X147426786Y-138048771D01*
X147350487Y-138069215D01*
X147282078Y-138108711D01*
X147226223Y-138164566D01*
X147216282Y-138181784D01*
X147216282Y-137327938D01*
X147216281Y-137327937D01*
X147160014Y-137339129D01*
X147160009Y-137339131D01*
X146968923Y-137418282D01*
X146968913Y-137418287D01*
X146796946Y-137533192D01*
X146796942Y-137533195D01*
X146650695Y-137679442D01*
X146650692Y-137679446D01*
X146535787Y-137851413D01*
X146535782Y-137851423D01*
X146456632Y-138042507D01*
X146456630Y-138042515D01*
X146416282Y-138245361D01*
X146416282Y-138647319D01*
X146396597Y-138714358D01*
X146343793Y-138760113D01*
X146274635Y-138770057D01*
X146260189Y-138767094D01*
X146176354Y-138744631D01*
X146115339Y-138728282D01*
X145957225Y-138728282D01*
X145804498Y-138769205D01*
X145804491Y-138769208D01*
X145667572Y-138848257D01*
X145667564Y-138848263D01*
X145555763Y-138960064D01*
X145555757Y-138960072D01*
X145476708Y-139096991D01*
X145476705Y-139096998D01*
X145435782Y-139249725D01*
X140856782Y-139249725D01*
X140815859Y-139096998D01*
X140806109Y-139080110D01*
X140736806Y-138960072D01*
X140736800Y-138960064D01*
X140624999Y-138848263D01*
X140624991Y-138848257D01*
X140488072Y-138769208D01*
X140488068Y-138769206D01*
X140488066Y-138769205D01*
X140335339Y-138728282D01*
X140177225Y-138728282D01*
X140032375Y-138767094D01*
X139962525Y-138765431D01*
X139904663Y-138726268D01*
X139877159Y-138662040D01*
X139876282Y-138647319D01*
X139876282Y-138245365D01*
X139876281Y-138245361D01*
X139835933Y-138042515D01*
X139835931Y-138042507D01*
X139756781Y-137851423D01*
X139756776Y-137851413D01*
X139641871Y-137679446D01*
X139641868Y-137679442D01*
X139495621Y-137533195D01*
X139495617Y-137533192D01*
X139323650Y-137418287D01*
X139323640Y-137418282D01*
X139132554Y-137339131D01*
X139132549Y-137339129D01*
X139076282Y-137327937D01*
X139076282Y-138181796D01*
X139066341Y-138164578D01*
X139010486Y-138108723D01*
X138942077Y-138069227D01*
X138865778Y-138048783D01*
X138786786Y-138048783D01*
X138710487Y-138069227D01*
X138642078Y-138108723D01*
X138586223Y-138164578D01*
X138576282Y-138181796D01*
X138576282Y-137327938D01*
X138576281Y-137327937D01*
X138520014Y-137339129D01*
X138520009Y-137339131D01*
X138328923Y-137418282D01*
X138328913Y-137418287D01*
X138156946Y-137533192D01*
X138156942Y-137533195D01*
X138010695Y-137679442D01*
X138010692Y-137679446D01*
X137895787Y-137851413D01*
X137895782Y-137851423D01*
X137816632Y-138042507D01*
X137816630Y-138042515D01*
X137776282Y-138245361D01*
X121326353Y-138245361D01*
X120884945Y-137779081D01*
X120880621Y-137774267D01*
X120024483Y-136769737D01*
X119806319Y-136513758D01*
X119802258Y-136508735D01*
X119703025Y-136379185D01*
X119352182Y-135921153D01*
X140199500Y-135921153D01*
X140199500Y-136078846D01*
X140230261Y-136233489D01*
X140230264Y-136233501D01*
X140290602Y-136379172D01*
X140290609Y-136379185D01*
X140378210Y-136510288D01*
X140378213Y-136510292D01*
X140489707Y-136621786D01*
X140489711Y-136621789D01*
X140620814Y-136709390D01*
X140620827Y-136709397D01*
X140766498Y-136769735D01*
X140766503Y-136769737D01*
X140921153Y-136800499D01*
X140921156Y-136800500D01*
X140921158Y-136800500D01*
X141078844Y-136800500D01*
X141078845Y-136800499D01*
X141233497Y-136769737D01*
X141379179Y-136709394D01*
X141510289Y-136621789D01*
X141621789Y-136510289D01*
X141709394Y-136379179D01*
X141769737Y-136233497D01*
X141800500Y-136078842D01*
X141800500Y-135921158D01*
X141800500Y-135921155D01*
X141800499Y-135921153D01*
X141769738Y-135766510D01*
X141769737Y-135766503D01*
X141769735Y-135766498D01*
X141709397Y-135620827D01*
X141709390Y-135620814D01*
X141621789Y-135489711D01*
X141621786Y-135489707D01*
X141510292Y-135378213D01*
X141510288Y-135378210D01*
X141379185Y-135290609D01*
X141379172Y-135290602D01*
X141233501Y-135230264D01*
X141233489Y-135230261D01*
X141078845Y-135199500D01*
X141078842Y-135199500D01*
X140921158Y-135199500D01*
X140921155Y-135199500D01*
X140766510Y-135230261D01*
X140766498Y-135230264D01*
X140620827Y-135290602D01*
X140620814Y-135290609D01*
X140489711Y-135378210D01*
X140489707Y-135378213D01*
X140378213Y-135489707D01*
X140378210Y-135489711D01*
X140290609Y-135620814D01*
X140290602Y-135620827D01*
X140230264Y-135766498D01*
X140230261Y-135766510D01*
X140199500Y-135921153D01*
X119352182Y-135921153D01*
X118786066Y-135182078D01*
X118782280Y-135176859D01*
X117889666Y-133876610D01*
X117826558Y-133784682D01*
X117823066Y-133779303D01*
X116980655Y-132404607D01*
X116930149Y-132322187D01*
X116926959Y-132316666D01*
X116142294Y-130874419D01*
X116099238Y-130795280D01*
X116096358Y-130789648D01*
X116013520Y-130616919D01*
X115379068Y-129294005D01*
X165215363Y-129294005D01*
X166069220Y-129294005D01*
X166052002Y-129303946D01*
X165996147Y-129359801D01*
X165956651Y-129428210D01*
X165936207Y-129504509D01*
X165936207Y-129583501D01*
X165956651Y-129659800D01*
X165996147Y-129728209D01*
X166052002Y-129784064D01*
X166069220Y-129794005D01*
X165215363Y-129794005D01*
X165226556Y-129850279D01*
X165226557Y-129850281D01*
X165305706Y-130041363D01*
X165305711Y-130041373D01*
X165420616Y-130213340D01*
X165420619Y-130213344D01*
X165566866Y-130359591D01*
X165566870Y-130359594D01*
X165738837Y-130474499D01*
X165738847Y-130474504D01*
X165929931Y-130553654D01*
X165929939Y-130553656D01*
X166132785Y-130594004D01*
X166132789Y-130594005D01*
X166436206Y-130594005D01*
X166436206Y-129844004D01*
X166936206Y-129844004D01*
X166936206Y-130594005D01*
X167239623Y-130594005D01*
X167239626Y-130594004D01*
X167442472Y-130553656D01*
X167442480Y-130553654D01*
X167633564Y-130474504D01*
X167633574Y-130474499D01*
X167805541Y-130359594D01*
X167805545Y-130359591D01*
X167951792Y-130213344D01*
X167951795Y-130213340D01*
X168066700Y-130041373D01*
X168066705Y-130041363D01*
X168145854Y-129850281D01*
X168145855Y-129850279D01*
X168157049Y-129794005D01*
X167303192Y-129794005D01*
X167320410Y-129784064D01*
X167376265Y-129728209D01*
X167415761Y-129659800D01*
X167436205Y-129583501D01*
X167436205Y-129504509D01*
X167415761Y-129428210D01*
X167376265Y-129359801D01*
X167320410Y-129303946D01*
X167303192Y-129294005D01*
X168157049Y-129294005D01*
X168157049Y-129294004D01*
X169522090Y-129294004D01*
X169522091Y-129294005D01*
X170429220Y-129294005D01*
X170412002Y-129303946D01*
X170356147Y-129359801D01*
X170316651Y-129428210D01*
X170296207Y-129504509D01*
X170296207Y-129583501D01*
X170316651Y-129659800D01*
X170356147Y-129728209D01*
X170412002Y-129784064D01*
X170429220Y-129794005D01*
X169522091Y-129794005D01*
X169523291Y-129801589D01*
X169576797Y-129966260D01*
X169655401Y-130120529D01*
X169757173Y-130260607D01*
X169879603Y-130383037D01*
X170019681Y-130484809D01*
X170173948Y-130563413D01*
X170338621Y-130616919D01*
X170509635Y-130644005D01*
X170646206Y-130644005D01*
X170646206Y-129844004D01*
X171146206Y-129844004D01*
X171146206Y-130644005D01*
X171282777Y-130644005D01*
X171453790Y-130616919D01*
X171618463Y-130563413D01*
X171772730Y-130484809D01*
X171912808Y-130383037D01*
X172035238Y-130260607D01*
X172137010Y-130120529D01*
X172215614Y-129966260D01*
X172269120Y-129801589D01*
X172270321Y-129794005D01*
X171363192Y-129794005D01*
X171380410Y-129784064D01*
X171436265Y-129728209D01*
X171475761Y-129659800D01*
X171496205Y-129583501D01*
X171496205Y-129504509D01*
X171475761Y-129428210D01*
X171436265Y-129359801D01*
X171380410Y-129303946D01*
X171363192Y-129294005D01*
X172270321Y-129294005D01*
X172270321Y-129294004D01*
X172269120Y-129286420D01*
X172215614Y-129121749D01*
X172137010Y-128967480D01*
X172035238Y-128827402D01*
X171912808Y-128704972D01*
X171772730Y-128603200D01*
X171618463Y-128524596D01*
X171453790Y-128471090D01*
X171282777Y-128444005D01*
X171146206Y-128444005D01*
X171146206Y-129244006D01*
X170646206Y-129244006D01*
X170646206Y-128444005D01*
X170509635Y-128444005D01*
X170338621Y-128471090D01*
X170173948Y-128524596D01*
X170019681Y-128603200D01*
X169879603Y-128704972D01*
X169757173Y-128827402D01*
X169655401Y-128967480D01*
X169576797Y-129121749D01*
X169523291Y-129286420D01*
X169522090Y-129294004D01*
X168157049Y-129294004D01*
X168145855Y-129237730D01*
X168145854Y-129237728D01*
X168066705Y-129046646D01*
X168066700Y-129046636D01*
X167951795Y-128874669D01*
X167951792Y-128874665D01*
X167805545Y-128728418D01*
X167805537Y-128728412D01*
X167718659Y-128670362D01*
X167673853Y-128616750D01*
X167665146Y-128547425D01*
X167692683Y-128489866D01*
X167691777Y-128489171D01*
X167695069Y-128484880D01*
X167695300Y-128484398D01*
X167696030Y-128483627D01*
X167696722Y-128482724D01*
X167696726Y-128482721D01*
X167775783Y-128345789D01*
X167816706Y-128193062D01*
X167816706Y-128034948D01*
X167775783Y-127882221D01*
X167775779Y-127882214D01*
X167696730Y-127745295D01*
X167696724Y-127745287D01*
X167584923Y-127633486D01*
X167584915Y-127633480D01*
X167447996Y-127554431D01*
X167447992Y-127554429D01*
X167447990Y-127554428D01*
X167295263Y-127513505D01*
X167137149Y-127513505D01*
X166984422Y-127554428D01*
X166984415Y-127554431D01*
X166847496Y-127633480D01*
X166847488Y-127633486D01*
X166735687Y-127745287D01*
X166735681Y-127745295D01*
X166656632Y-127882214D01*
X166656629Y-127882221D01*
X166615706Y-128034948D01*
X166615706Y-128193062D01*
X166654518Y-128337914D01*
X166652856Y-128407761D01*
X166613694Y-128465624D01*
X166549465Y-128493128D01*
X166534744Y-128494005D01*
X166132785Y-128494005D01*
X165929939Y-128534353D01*
X165929931Y-128534355D01*
X165738847Y-128613505D01*
X165738837Y-128613510D01*
X165566870Y-128728415D01*
X165566866Y-128728418D01*
X165420619Y-128874665D01*
X165420616Y-128874669D01*
X165305711Y-129046636D01*
X165305706Y-129046646D01*
X165226557Y-129237728D01*
X165226556Y-129237730D01*
X165215363Y-129294005D01*
X115379068Y-129294005D01*
X115336148Y-129204511D01*
X115333588Y-129198806D01*
X114643289Y-127550581D01*
X114641054Y-127544847D01*
X114023009Y-125834072D01*
X114021080Y-125828290D01*
X113477691Y-124055623D01*
X113476086Y-124049894D01*
X113070044Y-122453118D01*
X115328384Y-122453118D01*
X115328385Y-122453119D01*
X116235514Y-122453119D01*
X116218296Y-122463060D01*
X116162441Y-122518915D01*
X116122945Y-122587324D01*
X116102501Y-122663623D01*
X116102501Y-122742615D01*
X116122945Y-122818914D01*
X116162441Y-122887323D01*
X116218296Y-122943178D01*
X116235514Y-122953119D01*
X115328385Y-122953119D01*
X115329585Y-122960703D01*
X115383091Y-123125374D01*
X115461695Y-123279643D01*
X115563467Y-123419721D01*
X115685897Y-123542151D01*
X115825975Y-123643923D01*
X115980242Y-123722527D01*
X116144915Y-123776033D01*
X116315929Y-123803119D01*
X116452500Y-123803119D01*
X116452500Y-123003118D01*
X116952500Y-123003118D01*
X116952500Y-123803119D01*
X117089071Y-123803119D01*
X117260084Y-123776033D01*
X117424757Y-123722527D01*
X117579024Y-123643923D01*
X117719102Y-123542151D01*
X117841532Y-123419721D01*
X117943304Y-123279643D01*
X118021908Y-123125374D01*
X118075414Y-122960703D01*
X118076615Y-122953119D01*
X117169486Y-122953119D01*
X117186704Y-122943178D01*
X117242559Y-122887323D01*
X117282055Y-122818914D01*
X117302499Y-122742615D01*
X117302499Y-122663623D01*
X117282055Y-122587324D01*
X117242559Y-122518915D01*
X117186704Y-122463060D01*
X117169486Y-122453119D01*
X118076615Y-122453119D01*
X119441657Y-122453119D01*
X120295502Y-122453119D01*
X120278284Y-122463060D01*
X120222429Y-122518915D01*
X120182933Y-122587324D01*
X120162489Y-122663623D01*
X120162489Y-122742615D01*
X120182933Y-122818914D01*
X120222429Y-122887323D01*
X120278284Y-122943178D01*
X120295502Y-122953119D01*
X119441657Y-122953119D01*
X119452850Y-123009393D01*
X119452851Y-123009395D01*
X119532000Y-123200477D01*
X119532005Y-123200487D01*
X119646910Y-123372454D01*
X119646913Y-123372458D01*
X119793160Y-123518705D01*
X119793164Y-123518708D01*
X119965131Y-123633613D01*
X119965141Y-123633618D01*
X120156225Y-123712768D01*
X120156233Y-123712770D01*
X120359079Y-123753118D01*
X120359083Y-123753119D01*
X120662500Y-123753119D01*
X120662500Y-123003118D01*
X121162500Y-123003118D01*
X121162500Y-123753119D01*
X121465917Y-123753119D01*
X121465920Y-123753118D01*
X121668766Y-123712770D01*
X121668774Y-123712768D01*
X121859858Y-123633618D01*
X121859868Y-123633613D01*
X122031835Y-123518708D01*
X122031839Y-123518705D01*
X122178086Y-123372458D01*
X122178089Y-123372454D01*
X122292994Y-123200487D01*
X122292999Y-123200477D01*
X122372148Y-123009395D01*
X122372149Y-123009393D01*
X122383343Y-122953119D01*
X121529498Y-122953119D01*
X121546716Y-122943178D01*
X121602571Y-122887323D01*
X121642067Y-122818914D01*
X121662511Y-122742615D01*
X121662511Y-122663623D01*
X121642067Y-122587324D01*
X121602571Y-122518915D01*
X121546716Y-122463060D01*
X121529498Y-122453119D01*
X122383343Y-122453119D01*
X122372149Y-122396844D01*
X122372148Y-122396842D01*
X122292999Y-122205760D01*
X122292994Y-122205750D01*
X122178089Y-122033783D01*
X122178086Y-122033779D01*
X122031839Y-121887532D01*
X122031835Y-121887529D01*
X121859868Y-121772624D01*
X121859858Y-121772619D01*
X121668774Y-121693469D01*
X121668766Y-121693467D01*
X121465920Y-121653119D01*
X121063962Y-121653119D01*
X120996923Y-121633434D01*
X120951168Y-121580630D01*
X120941224Y-121511472D01*
X120944184Y-121497039D01*
X120983000Y-121352176D01*
X120983000Y-121194062D01*
X120942077Y-121041335D01*
X120885593Y-120943501D01*
X120863024Y-120904409D01*
X120863018Y-120904401D01*
X120751217Y-120792600D01*
X120751213Y-120792597D01*
X120614284Y-120713542D01*
X120461557Y-120672619D01*
X120303443Y-120672619D01*
X120150716Y-120713542D01*
X120150709Y-120713545D01*
X120013790Y-120792594D01*
X120013782Y-120792600D01*
X119901981Y-120904401D01*
X119901975Y-120904409D01*
X119822926Y-121041328D01*
X119822924Y-121041333D01*
X119822923Y-121041335D01*
X119782000Y-121194062D01*
X119782000Y-121352176D01*
X119795183Y-121401373D01*
X119822923Y-121504902D01*
X119822926Y-121504909D01*
X119901975Y-121641828D01*
X119906926Y-121648280D01*
X119904915Y-121649823D01*
X119932322Y-121700015D01*
X119927338Y-121769707D01*
X119885466Y-121825640D01*
X119880048Y-121829475D01*
X119793160Y-121887532D01*
X119646913Y-122033779D01*
X119646910Y-122033783D01*
X119532005Y-122205750D01*
X119532000Y-122205760D01*
X119452851Y-122396842D01*
X119452850Y-122396844D01*
X119441657Y-122453119D01*
X118076615Y-122453119D01*
X118076615Y-122453118D01*
X118075414Y-122445534D01*
X118021908Y-122280863D01*
X117943304Y-122126594D01*
X117841532Y-121986516D01*
X117719102Y-121864086D01*
X117579024Y-121762314D01*
X117424757Y-121683710D01*
X117260084Y-121630204D01*
X117089071Y-121603119D01*
X116952500Y-121603119D01*
X116952500Y-122403120D01*
X116452500Y-122403120D01*
X116452500Y-121603119D01*
X116315929Y-121603119D01*
X116144915Y-121630204D01*
X115980242Y-121683710D01*
X115825975Y-121762314D01*
X115685897Y-121864086D01*
X115563467Y-121986516D01*
X115461695Y-122126594D01*
X115383091Y-122280863D01*
X115329585Y-122445534D01*
X115328384Y-122453118D01*
X113070044Y-122453118D01*
X113009728Y-122215925D01*
X113008426Y-122210241D01*
X112690604Y-120654005D01*
X165215363Y-120654005D01*
X166069208Y-120654005D01*
X166051990Y-120663946D01*
X165996135Y-120719801D01*
X165956639Y-120788210D01*
X165936195Y-120864509D01*
X165936195Y-120943501D01*
X165956639Y-121019800D01*
X165996135Y-121088209D01*
X166051990Y-121144064D01*
X166069208Y-121154005D01*
X165215363Y-121154005D01*
X165226556Y-121210279D01*
X165226557Y-121210281D01*
X165305706Y-121401363D01*
X165305711Y-121401373D01*
X165420616Y-121573340D01*
X165420619Y-121573344D01*
X165566866Y-121719591D01*
X165566870Y-121719594D01*
X165738837Y-121834499D01*
X165738847Y-121834504D01*
X165929931Y-121913654D01*
X165929939Y-121913656D01*
X166132785Y-121954004D01*
X166132789Y-121954005D01*
X166534744Y-121954005D01*
X166601783Y-121973690D01*
X166647538Y-122026494D01*
X166657482Y-122095652D01*
X166654521Y-122110084D01*
X166615706Y-122254948D01*
X166615706Y-122254950D01*
X166615706Y-122413061D01*
X166656629Y-122565788D01*
X166656632Y-122565795D01*
X166735681Y-122702714D01*
X166735685Y-122702719D01*
X166735686Y-122702721D01*
X166847490Y-122814525D01*
X166847492Y-122814526D01*
X166847496Y-122814529D01*
X166973581Y-122887323D01*
X166984422Y-122893582D01*
X167137149Y-122934505D01*
X167137151Y-122934505D01*
X167295261Y-122934505D01*
X167295263Y-122934505D01*
X167447990Y-122893582D01*
X167584922Y-122814525D01*
X167696726Y-122702721D01*
X167775783Y-122565789D01*
X167816706Y-122413062D01*
X167816706Y-122254948D01*
X167775783Y-122102221D01*
X167736271Y-122033783D01*
X167696730Y-121965295D01*
X167696727Y-121965292D01*
X167696726Y-121965289D01*
X167696723Y-121965286D01*
X167691780Y-121958844D01*
X167693790Y-121957301D01*
X167666383Y-121907108D01*
X167671367Y-121837416D01*
X167713239Y-121781483D01*
X167718659Y-121777648D01*
X167805537Y-121719597D01*
X167805545Y-121719591D01*
X167951792Y-121573344D01*
X167951795Y-121573340D01*
X168066700Y-121401373D01*
X168066705Y-121401363D01*
X168145854Y-121210281D01*
X168145855Y-121210279D01*
X168157049Y-121154005D01*
X167303204Y-121154005D01*
X167320422Y-121144064D01*
X167376277Y-121088209D01*
X167415773Y-121019800D01*
X167436217Y-120943501D01*
X167436217Y-120864509D01*
X167415773Y-120788210D01*
X167376277Y-120719801D01*
X167320422Y-120663946D01*
X167303204Y-120654005D01*
X168157049Y-120654005D01*
X168157049Y-120654004D01*
X169522090Y-120654004D01*
X169522091Y-120654005D01*
X170429220Y-120654005D01*
X170412002Y-120663946D01*
X170356147Y-120719801D01*
X170316651Y-120788210D01*
X170296207Y-120864509D01*
X170296207Y-120943501D01*
X170316651Y-121019800D01*
X170356147Y-121088209D01*
X170412002Y-121144064D01*
X170429220Y-121154005D01*
X169522091Y-121154005D01*
X169523291Y-121161589D01*
X169576797Y-121326260D01*
X169655401Y-121480529D01*
X169757173Y-121620607D01*
X169879603Y-121743037D01*
X170019681Y-121844809D01*
X170173948Y-121923413D01*
X170338621Y-121976919D01*
X170509635Y-122004005D01*
X170646206Y-122004005D01*
X170646206Y-121204004D01*
X171146206Y-121204004D01*
X171146206Y-122004005D01*
X171282777Y-122004005D01*
X171453790Y-121976919D01*
X171618463Y-121923413D01*
X171772730Y-121844809D01*
X171912808Y-121743037D01*
X172035238Y-121620607D01*
X172137010Y-121480529D01*
X172215614Y-121326260D01*
X172269120Y-121161589D01*
X172270321Y-121154005D01*
X171363192Y-121154005D01*
X171380410Y-121144064D01*
X171436265Y-121088209D01*
X171475761Y-121019800D01*
X171496205Y-120943501D01*
X171496205Y-120864509D01*
X171475761Y-120788210D01*
X171436265Y-120719801D01*
X171380410Y-120663946D01*
X171363192Y-120654005D01*
X172270321Y-120654005D01*
X172270321Y-120654004D01*
X172269120Y-120646420D01*
X172215614Y-120481749D01*
X172137010Y-120327480D01*
X172035238Y-120187402D01*
X171912808Y-120064972D01*
X171772730Y-119963200D01*
X171618463Y-119884596D01*
X171453790Y-119831090D01*
X171282777Y-119804005D01*
X171146206Y-119804005D01*
X171146206Y-120604006D01*
X170646206Y-120604006D01*
X170646206Y-119804005D01*
X170509635Y-119804005D01*
X170338621Y-119831090D01*
X170173948Y-119884596D01*
X170019681Y-119963200D01*
X169879603Y-120064972D01*
X169757173Y-120187402D01*
X169655401Y-120327480D01*
X169576797Y-120481749D01*
X169523291Y-120646420D01*
X169522090Y-120654004D01*
X168157049Y-120654004D01*
X168145855Y-120597730D01*
X168145854Y-120597728D01*
X168066705Y-120406646D01*
X168066700Y-120406636D01*
X167951795Y-120234669D01*
X167951792Y-120234665D01*
X167805545Y-120088418D01*
X167805541Y-120088415D01*
X167633574Y-119973510D01*
X167633564Y-119973505D01*
X167442480Y-119894355D01*
X167442472Y-119894353D01*
X167239626Y-119854005D01*
X166936206Y-119854005D01*
X166936206Y-120604006D01*
X166436206Y-120604006D01*
X166436206Y-119854005D01*
X166132785Y-119854005D01*
X165929939Y-119894353D01*
X165929931Y-119894355D01*
X165738847Y-119973505D01*
X165738837Y-119973510D01*
X165566870Y-120088415D01*
X165566866Y-120088418D01*
X165420619Y-120234665D01*
X165420616Y-120234669D01*
X165305711Y-120406636D01*
X165305706Y-120406646D01*
X165226557Y-120597728D01*
X165226556Y-120597730D01*
X165215363Y-120654005D01*
X112690604Y-120654005D01*
X112621485Y-120315557D01*
X112620470Y-120309915D01*
X112315348Y-118355181D01*
X112314603Y-118349576D01*
X112093689Y-116335375D01*
X112093214Y-116329940D01*
X111958903Y-114256866D01*
X111958674Y-114251532D01*
X111949355Y-113813118D01*
X115328384Y-113813118D01*
X115328385Y-113813119D01*
X116235514Y-113813119D01*
X116218296Y-113823060D01*
X116162441Y-113878915D01*
X116122945Y-113947324D01*
X116102501Y-114023623D01*
X116102501Y-114102615D01*
X116122945Y-114178914D01*
X116162441Y-114247323D01*
X116218296Y-114303178D01*
X116235514Y-114313119D01*
X115328385Y-114313119D01*
X115329585Y-114320703D01*
X115383091Y-114485374D01*
X115461695Y-114639643D01*
X115563467Y-114779721D01*
X115685897Y-114902151D01*
X115825975Y-115003923D01*
X115980242Y-115082527D01*
X116144915Y-115136033D01*
X116315929Y-115163119D01*
X116452500Y-115163119D01*
X116452500Y-114363118D01*
X116952500Y-114363118D01*
X116952500Y-115163119D01*
X117089071Y-115163119D01*
X117260084Y-115136033D01*
X117424757Y-115082527D01*
X117579024Y-115003923D01*
X117719102Y-114902151D01*
X117841532Y-114779721D01*
X117943304Y-114639643D01*
X118021908Y-114485374D01*
X118075414Y-114320703D01*
X118076615Y-114313119D01*
X117169486Y-114313119D01*
X117186704Y-114303178D01*
X117242559Y-114247323D01*
X117282055Y-114178914D01*
X117302499Y-114102615D01*
X117302499Y-114023623D01*
X117282055Y-113947324D01*
X117242559Y-113878915D01*
X117186704Y-113823060D01*
X117169486Y-113813119D01*
X118076615Y-113813119D01*
X119441657Y-113813119D01*
X120295514Y-113813119D01*
X120278296Y-113823060D01*
X120222441Y-113878915D01*
X120182945Y-113947324D01*
X120162501Y-114023623D01*
X120162501Y-114102615D01*
X120182945Y-114178914D01*
X120222441Y-114247323D01*
X120278296Y-114303178D01*
X120295514Y-114313119D01*
X119441657Y-114313119D01*
X119452850Y-114369393D01*
X119452851Y-114369395D01*
X119532000Y-114560477D01*
X119532005Y-114560487D01*
X119646910Y-114732454D01*
X119646913Y-114732458D01*
X119793161Y-114878706D01*
X119880046Y-114936760D01*
X119924852Y-114990372D01*
X119933559Y-115059697D01*
X119906020Y-115117257D01*
X119906928Y-115117953D01*
X119903634Y-115122245D01*
X119903405Y-115122725D01*
X119902677Y-115123492D01*
X119901979Y-115124402D01*
X119822926Y-115261328D01*
X119822923Y-115261335D01*
X119782000Y-115414062D01*
X119782000Y-115572175D01*
X119822923Y-115724902D01*
X119822926Y-115724909D01*
X119901975Y-115861828D01*
X119901979Y-115861833D01*
X119901980Y-115861835D01*
X120013784Y-115973639D01*
X120013786Y-115973640D01*
X120013790Y-115973643D01*
X120150709Y-116052692D01*
X120150716Y-116052696D01*
X120303443Y-116093619D01*
X120303445Y-116093619D01*
X120461555Y-116093619D01*
X120461557Y-116093619D01*
X120614284Y-116052696D01*
X120751216Y-115973639D01*
X120863020Y-115861835D01*
X120942077Y-115724903D01*
X120983000Y-115572176D01*
X120983000Y-115414062D01*
X120944187Y-115269209D01*
X120945850Y-115199363D01*
X120985012Y-115141500D01*
X121049241Y-115113996D01*
X121063962Y-115113119D01*
X121465917Y-115113119D01*
X121465920Y-115113118D01*
X121668766Y-115072770D01*
X121668774Y-115072768D01*
X121859858Y-114993618D01*
X121859868Y-114993613D01*
X122031835Y-114878708D01*
X122031839Y-114878705D01*
X122178086Y-114732458D01*
X122178089Y-114732454D01*
X122292994Y-114560487D01*
X122292999Y-114560477D01*
X122372148Y-114369395D01*
X122372149Y-114369393D01*
X122383343Y-114313119D01*
X121529486Y-114313119D01*
X121546704Y-114303178D01*
X121602559Y-114247323D01*
X121642055Y-114178914D01*
X121662499Y-114102615D01*
X121662499Y-114023623D01*
X121642055Y-113947324D01*
X121602559Y-113878915D01*
X121546704Y-113823060D01*
X121529486Y-113813119D01*
X122383343Y-113813119D01*
X122372149Y-113756844D01*
X122372148Y-113756842D01*
X122292999Y-113565760D01*
X122292994Y-113565750D01*
X122178089Y-113393783D01*
X122178086Y-113393779D01*
X122031839Y-113247532D01*
X122031835Y-113247529D01*
X121859868Y-113132624D01*
X121859858Y-113132619D01*
X121668774Y-113053469D01*
X121668766Y-113053467D01*
X121465920Y-113013119D01*
X121162500Y-113013119D01*
X121162500Y-113763120D01*
X120662500Y-113763120D01*
X120662500Y-113013119D01*
X120359079Y-113013119D01*
X120156233Y-113053467D01*
X120156225Y-113053469D01*
X119965141Y-113132619D01*
X119965131Y-113132624D01*
X119793164Y-113247529D01*
X119793160Y-113247532D01*
X119646913Y-113393779D01*
X119646910Y-113393783D01*
X119532005Y-113565750D01*
X119532000Y-113565760D01*
X119452851Y-113756842D01*
X119452850Y-113756844D01*
X119441657Y-113813119D01*
X118076615Y-113813119D01*
X118076615Y-113813118D01*
X118075414Y-113805534D01*
X118021908Y-113640863D01*
X117943304Y-113486594D01*
X117841532Y-113346516D01*
X117719102Y-113224086D01*
X117579024Y-113122314D01*
X117424757Y-113043710D01*
X117260084Y-112990204D01*
X117089071Y-112963119D01*
X116952500Y-112963119D01*
X116952500Y-113763120D01*
X116452500Y-113763120D01*
X116452500Y-112963119D01*
X116315929Y-112963119D01*
X116144915Y-112990204D01*
X115980242Y-113043710D01*
X115825975Y-113122314D01*
X115685897Y-113224086D01*
X115563467Y-113346516D01*
X115461695Y-113486594D01*
X115383091Y-113640863D01*
X115329585Y-113805534D01*
X115328384Y-113813118D01*
X111949355Y-113813118D01*
X111913410Y-112122167D01*
X111913482Y-112114601D01*
X112090402Y-107724358D01*
X112091121Y-107715120D01*
X112093353Y-107695810D01*
X112609731Y-103227312D01*
X112610997Y-103218900D01*
X112617025Y-103186451D01*
X113453383Y-98684494D01*
X113455091Y-98676712D01*
X114603133Y-94148817D01*
X114605272Y-94141373D01*
X114613603Y-94115442D01*
X115639770Y-90921217D01*
X123085884Y-90921217D01*
X123085885Y-90921218D01*
X123965023Y-90921218D01*
X123929935Y-90956306D01*
X123883855Y-91036119D01*
X123860002Y-91125138D01*
X123860002Y-91217298D01*
X123883855Y-91306317D01*
X123929935Y-91386130D01*
X123965023Y-91421218D01*
X123085885Y-91421218D01*
X123087085Y-91428802D01*
X123140591Y-91593473D01*
X123219195Y-91747742D01*
X123320967Y-91887820D01*
X123443397Y-92010250D01*
X123583475Y-92112022D01*
X123737742Y-92190626D01*
X123902415Y-92244132D01*
X124073429Y-92271218D01*
X124860000Y-92271218D01*
X124860000Y-91521230D01*
X125360000Y-91521230D01*
X125360000Y-92271218D01*
X126146571Y-92271218D01*
X126317584Y-92244132D01*
X126482257Y-92190626D01*
X126636524Y-92112022D01*
X126776602Y-92010250D01*
X126899032Y-91887820D01*
X127000804Y-91747742D01*
X127079408Y-91593473D01*
X127132914Y-91428802D01*
X127134115Y-91421218D01*
X126254977Y-91421218D01*
X126290065Y-91386130D01*
X126336145Y-91306317D01*
X126359998Y-91217298D01*
X126359998Y-91125138D01*
X126336145Y-91036119D01*
X126290065Y-90956306D01*
X126254977Y-90921218D01*
X127134115Y-90921218D01*
X127134115Y-90921217D01*
X127132914Y-90913633D01*
X127079408Y-90748962D01*
X127000804Y-90594693D01*
X126899032Y-90454615D01*
X126776602Y-90332185D01*
X126636524Y-90230413D01*
X126482257Y-90151809D01*
X126317584Y-90098303D01*
X126146571Y-90071218D01*
X125360000Y-90071218D01*
X125360000Y-90821206D01*
X124860000Y-90821206D01*
X124860000Y-90071218D01*
X124073429Y-90071218D01*
X123902415Y-90098303D01*
X123737742Y-90151809D01*
X123583475Y-90230413D01*
X123443397Y-90332185D01*
X123320967Y-90454615D01*
X123219195Y-90594693D01*
X123140591Y-90748962D01*
X123087085Y-90913633D01*
X123085884Y-90921217D01*
X115639770Y-90921217D01*
X116040727Y-89673128D01*
X116043297Y-89665908D01*
X117008340Y-87199999D01*
X162865884Y-87199999D01*
X162865885Y-87200000D01*
X163745023Y-87200000D01*
X163709935Y-87235088D01*
X163663855Y-87314901D01*
X163640002Y-87403920D01*
X163640002Y-87496080D01*
X163663855Y-87585099D01*
X163709935Y-87664912D01*
X163745023Y-87700000D01*
X162865885Y-87700000D01*
X162867085Y-87707584D01*
X162920591Y-87872255D01*
X162999195Y-88026524D01*
X163100967Y-88166602D01*
X163223397Y-88289032D01*
X163363475Y-88390804D01*
X163517742Y-88469408D01*
X163682415Y-88522914D01*
X163853429Y-88550000D01*
X164640000Y-88550000D01*
X164640000Y-87800012D01*
X165140000Y-87800012D01*
X165140000Y-88550000D01*
X165926571Y-88550000D01*
X166097584Y-88522914D01*
X166262257Y-88469408D01*
X166416524Y-88390804D01*
X166556602Y-88289032D01*
X166679032Y-88166602D01*
X166780804Y-88026524D01*
X166859408Y-87872255D01*
X166912914Y-87707584D01*
X166914115Y-87700000D01*
X166034977Y-87700000D01*
X166070065Y-87664912D01*
X166116145Y-87585099D01*
X166139998Y-87496080D01*
X166139998Y-87403920D01*
X166116145Y-87314901D01*
X166070065Y-87235088D01*
X166034977Y-87200000D01*
X166914115Y-87200000D01*
X166914115Y-87199999D01*
X166912914Y-87192415D01*
X166859408Y-87027744D01*
X166780804Y-86873475D01*
X166679032Y-86733397D01*
X166556602Y-86610967D01*
X166416524Y-86509195D01*
X166262257Y-86430591D01*
X166097584Y-86377085D01*
X165926571Y-86350000D01*
X165140000Y-86350000D01*
X165140000Y-87099988D01*
X164640000Y-87099988D01*
X164640000Y-86350000D01*
X163853429Y-86350000D01*
X163682415Y-86377085D01*
X163517742Y-86430591D01*
X163363475Y-86509195D01*
X163223397Y-86610967D01*
X163100967Y-86733397D01*
X162999195Y-86873475D01*
X162920591Y-87027744D01*
X162867085Y-87192415D01*
X162865884Y-87199999D01*
X117008340Y-87199999D01*
X117747884Y-85310293D01*
X117750971Y-85303088D01*
X119706306Y-81113120D01*
X119710043Y-81105765D01*
X121409170Y-78021217D01*
X123085884Y-78021217D01*
X123085885Y-78021218D01*
X123965023Y-78021218D01*
X123929935Y-78056306D01*
X123883855Y-78136119D01*
X123860002Y-78225138D01*
X123860002Y-78317298D01*
X123883855Y-78406317D01*
X123929935Y-78486130D01*
X123965023Y-78521218D01*
X123085885Y-78521218D01*
X123087085Y-78528802D01*
X123140591Y-78693473D01*
X123219195Y-78847742D01*
X123320967Y-78987820D01*
X123443397Y-79110250D01*
X123583475Y-79212022D01*
X123737742Y-79290626D01*
X123902415Y-79344132D01*
X124073429Y-79371218D01*
X124860000Y-79371218D01*
X124860000Y-78621230D01*
X125360000Y-78621230D01*
X125360000Y-79371218D01*
X126146571Y-79371218D01*
X126317584Y-79344132D01*
X126482257Y-79290626D01*
X126636524Y-79212022D01*
X126776602Y-79110250D01*
X126899032Y-78987820D01*
X127000804Y-78847742D01*
X127079408Y-78693473D01*
X127132914Y-78528802D01*
X127134115Y-78521218D01*
X126254977Y-78521218D01*
X126290065Y-78486130D01*
X126336145Y-78406317D01*
X126359998Y-78317298D01*
X126359998Y-78225138D01*
X126336145Y-78136119D01*
X126290065Y-78056306D01*
X126254977Y-78021218D01*
X127134115Y-78021218D01*
X127134115Y-78021217D01*
X127132914Y-78013633D01*
X127079408Y-77848962D01*
X127000804Y-77694693D01*
X126899032Y-77554615D01*
X126776602Y-77432185D01*
X126636524Y-77330413D01*
X126482257Y-77251809D01*
X126317584Y-77198303D01*
X126146571Y-77171218D01*
X125360000Y-77171218D01*
X125360000Y-77921206D01*
X124860000Y-77921206D01*
X124860000Y-77171218D01*
X124073429Y-77171218D01*
X123902415Y-77198303D01*
X123737742Y-77251809D01*
X123583475Y-77330413D01*
X123443397Y-77432185D01*
X123320967Y-77554615D01*
X123219195Y-77694693D01*
X123140591Y-77848962D01*
X123087085Y-78013633D01*
X123085884Y-78021217D01*
X121409170Y-78021217D01*
X121897607Y-77134522D01*
X121902204Y-77126849D01*
X124303411Y-73427259D01*
X124309113Y-73419199D01*
X126905211Y-70044178D01*
X126912435Y-70035619D01*
X129686349Y-67035936D01*
X129693034Y-67029241D01*
X131137278Y-65689990D01*
X131142515Y-65685402D01*
X132625310Y-64458533D01*
X132631251Y-64453916D01*
X134148424Y-63347556D01*
X134155163Y-63342977D01*
X134184626Y-63324350D01*
X141924500Y-63324350D01*
X141924500Y-63675649D01*
X141958933Y-64025267D01*
X142027464Y-64369802D01*
X142027467Y-64369813D01*
X142129449Y-64706003D01*
X142263889Y-65030569D01*
X142263891Y-65030574D01*
X142429486Y-65340379D01*
X142429503Y-65340407D01*
X142624655Y-65632474D01*
X142624672Y-65632497D01*
X142847538Y-65904060D01*
X143095939Y-66152461D01*
X143095944Y-66152465D01*
X143095945Y-66152466D01*
X143367508Y-66375332D01*
X143367515Y-66375337D01*
X143367525Y-66375344D01*
X143659592Y-66570496D01*
X143659597Y-66570499D01*
X143659609Y-66570507D01*
X143659618Y-66570511D01*
X143659620Y-66570513D01*
X143969425Y-66736108D01*
X143969427Y-66736108D01*
X143969433Y-66736112D01*
X144293998Y-66870551D01*
X144630177Y-66972530D01*
X144630183Y-66972531D01*
X144630186Y-66972532D01*
X144630197Y-66972535D01*
X144949047Y-67035957D01*
X144974732Y-67041066D01*
X145324347Y-67075500D01*
X145324350Y-67075500D01*
X145675650Y-67075500D01*
X145675653Y-67075500D01*
X146025268Y-67041066D01*
X146092339Y-67027724D01*
X146369802Y-66972535D01*
X146369813Y-66972532D01*
X146369813Y-66972531D01*
X146369823Y-66972530D01*
X146706002Y-66870551D01*
X147030567Y-66736112D01*
X147340391Y-66570507D01*
X147632492Y-66375332D01*
X147904055Y-66152466D01*
X148152466Y-65904055D01*
X148375332Y-65632492D01*
X148570507Y-65340391D01*
X148736112Y-65030567D01*
X148870551Y-64706002D01*
X148972530Y-64369823D01*
X148972532Y-64369813D01*
X148972535Y-64369802D01*
X149041066Y-64025267D01*
X149075500Y-63675653D01*
X149075500Y-63324347D01*
X149041066Y-62974732D01*
X148972535Y-62630197D01*
X148972532Y-62630186D01*
X148972531Y-62630183D01*
X148972530Y-62630177D01*
X148870551Y-62293998D01*
X148736112Y-61969433D01*
X148570507Y-61659609D01*
X148471158Y-61510922D01*
X148375344Y-61367525D01*
X148375337Y-61367515D01*
X148375332Y-61367508D01*
X148152466Y-61095945D01*
X148152465Y-61095944D01*
X148152461Y-61095939D01*
X147904060Y-60847538D01*
X147632497Y-60624672D01*
X147632474Y-60624655D01*
X147340407Y-60429503D01*
X147340379Y-60429486D01*
X147030574Y-60263891D01*
X147030569Y-60263889D01*
X146962261Y-60235595D01*
X146823524Y-60178128D01*
X146706003Y-60129449D01*
X146369813Y-60027467D01*
X146369802Y-60027464D01*
X146025267Y-59958933D01*
X145761952Y-59932999D01*
X145675653Y-59924500D01*
X145324347Y-59924500D01*
X145244608Y-59932353D01*
X144974732Y-59958933D01*
X144630197Y-60027464D01*
X144630186Y-60027467D01*
X144293996Y-60129449D01*
X143969430Y-60263889D01*
X143969425Y-60263891D01*
X143659620Y-60429486D01*
X143659592Y-60429503D01*
X143367525Y-60624655D01*
X143367502Y-60624672D01*
X143095939Y-60847538D01*
X142847538Y-61095939D01*
X142624672Y-61367502D01*
X142624655Y-61367525D01*
X142429503Y-61659592D01*
X142429486Y-61659620D01*
X142263891Y-61969425D01*
X142263889Y-61969430D01*
X142129449Y-62293996D01*
X142027467Y-62630186D01*
X142027464Y-62630197D01*
X141958933Y-62974732D01*
X141924500Y-63324350D01*
X134184626Y-63324350D01*
X135704270Y-62363605D01*
X135711922Y-62359144D01*
X137290511Y-61513193D01*
X137299142Y-61508990D01*
X138904908Y-60802766D01*
X138914524Y-60799007D01*
X140545210Y-60238799D01*
X140555770Y-60235689D01*
X142209159Y-59827765D01*
X142220576Y-59825511D01*
X143894678Y-59576115D01*
X143906735Y-59574919D01*
X145599710Y-59490365D01*
X145612053Y-59490365D01*
X147301972Y-59574913D01*
G37*
%TD.AperFunction*%
%TD*%
M02*
