%TF.GenerationSoftware,KiCad,Pcbnew,10.0.1*%
%TF.CreationDate,2026-05-29T21:24:14+08:00*%
%TF.ProjectId,USB_HUB,5553425f-4855-4422-9e6b-696361645f70,rev?*%
%TF.SameCoordinates,Original*%
%TF.FileFunction,Legend,Top*%
%TF.FilePolarity,Positive*%
%FSLAX46Y46*%
G04 Gerber Fmt 4.6, Leading zero omitted, Abs format (unit mm)*
G04 Created by KiCad (PCBNEW 10.0.1) date 2026-05-29 21:24:14*
%MOMM*%
%LPD*%
G01*
G04 APERTURE LIST*
%ADD10C,0.187500*%
%ADD11C,0.200000*%
%ADD12C,0.600000*%
%ADD13C,0.150000*%
%ADD14C,0.120000*%
%ADD15C,0.250000*%
%ADD16C,0.060000*%
G04 APERTURE END LIST*
D10*
X123980497Y-103520964D02*
X124194783Y-103592392D01*
X124194783Y-103592392D02*
X124266212Y-103663821D01*
X124266212Y-103663821D02*
X124337640Y-103806678D01*
X124337640Y-103806678D02*
X124337640Y-104020964D01*
X124337640Y-104020964D02*
X124266212Y-104163821D01*
X124266212Y-104163821D02*
X124194783Y-104235250D01*
X124194783Y-104235250D02*
X124051926Y-104306678D01*
X124051926Y-104306678D02*
X123480497Y-104306678D01*
X123480497Y-104306678D02*
X123480497Y-102806678D01*
X123480497Y-102806678D02*
X123980497Y-102806678D01*
X123980497Y-102806678D02*
X124123355Y-102878107D01*
X124123355Y-102878107D02*
X124194783Y-102949535D01*
X124194783Y-102949535D02*
X124266212Y-103092392D01*
X124266212Y-103092392D02*
X124266212Y-103235250D01*
X124266212Y-103235250D02*
X124194783Y-103378107D01*
X124194783Y-103378107D02*
X124123355Y-103449535D01*
X124123355Y-103449535D02*
X123980497Y-103520964D01*
X123980497Y-103520964D02*
X123480497Y-103520964D01*
X124837640Y-103306678D02*
X125194783Y-104306678D01*
X125551926Y-103306678D02*
X125194783Y-104306678D01*
X125194783Y-104306678D02*
X125051926Y-104663821D01*
X125051926Y-104663821D02*
X124980497Y-104735250D01*
X124980497Y-104735250D02*
X124837640Y-104806678D01*
X127266211Y-104306678D02*
X127266211Y-102806678D01*
X128123354Y-104306678D02*
X127480497Y-103449535D01*
X128123354Y-102806678D02*
X127266211Y-103663821D01*
X129409069Y-104306678D02*
X129409069Y-103520964D01*
X129409069Y-103520964D02*
X129337640Y-103378107D01*
X129337640Y-103378107D02*
X129194783Y-103306678D01*
X129194783Y-103306678D02*
X128909069Y-103306678D01*
X128909069Y-103306678D02*
X128766211Y-103378107D01*
X129409069Y-104235250D02*
X129266211Y-104306678D01*
X129266211Y-104306678D02*
X128909069Y-104306678D01*
X128909069Y-104306678D02*
X128766211Y-104235250D01*
X128766211Y-104235250D02*
X128694783Y-104092392D01*
X128694783Y-104092392D02*
X128694783Y-103949535D01*
X128694783Y-103949535D02*
X128766211Y-103806678D01*
X128766211Y-103806678D02*
X128909069Y-103735250D01*
X128909069Y-103735250D02*
X129266211Y-103735250D01*
X129266211Y-103735250D02*
X129409069Y-103663821D01*
X130123354Y-104306678D02*
X130123354Y-103306678D01*
X130123354Y-103592392D02*
X130194783Y-103449535D01*
X130194783Y-103449535D02*
X130266212Y-103378107D01*
X130266212Y-103378107D02*
X130409069Y-103306678D01*
X130409069Y-103306678D02*
X130551926Y-103306678D01*
X132194782Y-104306678D02*
X132194782Y-102806678D01*
X132194782Y-103520964D02*
X133051925Y-103520964D01*
X133051925Y-104306678D02*
X133051925Y-102806678D01*
X133766211Y-104306678D02*
X133766211Y-103306678D01*
X133766211Y-102806678D02*
X133694783Y-102878107D01*
X133694783Y-102878107D02*
X133766211Y-102949535D01*
X133766211Y-102949535D02*
X133837640Y-102878107D01*
X133837640Y-102878107D02*
X133766211Y-102806678D01*
X133766211Y-102806678D02*
X133766211Y-102949535D01*
X134480497Y-103306678D02*
X134480497Y-104306678D01*
X134480497Y-103449535D02*
X134551926Y-103378107D01*
X134551926Y-103378107D02*
X134694783Y-103306678D01*
X134694783Y-103306678D02*
X134909069Y-103306678D01*
X134909069Y-103306678D02*
X135051926Y-103378107D01*
X135051926Y-103378107D02*
X135123355Y-103520964D01*
X135123355Y-103520964D02*
X135123355Y-104306678D01*
D11*
X171081504Y-116761904D02*
X171652933Y-118285713D01*
X171652933Y-118285713D02*
X172224361Y-116761904D01*
X172414838Y-115809523D02*
X170414838Y-115809523D01*
X172414838Y-114857142D02*
X170414838Y-114857142D01*
X170414838Y-114857142D02*
X172414838Y-113714285D01*
X172414838Y-113714285D02*
X170414838Y-113714285D01*
D12*
X123609021Y-100030228D02*
X124609021Y-100030228D01*
X125037593Y-101601657D02*
X123609021Y-101601657D01*
X123609021Y-101601657D02*
X123609021Y-98601657D01*
X123609021Y-98601657D02*
X125037593Y-98601657D01*
X127894736Y-98744514D02*
X127609022Y-98601657D01*
X127609022Y-98601657D02*
X127180450Y-98601657D01*
X127180450Y-98601657D02*
X126751879Y-98744514D01*
X126751879Y-98744514D02*
X126466164Y-99030228D01*
X126466164Y-99030228D02*
X126323307Y-99315942D01*
X126323307Y-99315942D02*
X126180450Y-99887371D01*
X126180450Y-99887371D02*
X126180450Y-100315942D01*
X126180450Y-100315942D02*
X126323307Y-100887371D01*
X126323307Y-100887371D02*
X126466164Y-101173085D01*
X126466164Y-101173085D02*
X126751879Y-101458800D01*
X126751879Y-101458800D02*
X127180450Y-101601657D01*
X127180450Y-101601657D02*
X127466164Y-101601657D01*
X127466164Y-101601657D02*
X127894736Y-101458800D01*
X127894736Y-101458800D02*
X128037593Y-101315942D01*
X128037593Y-101315942D02*
X128037593Y-100315942D01*
X128037593Y-100315942D02*
X127466164Y-100315942D01*
X129323307Y-101601657D02*
X129323307Y-98601657D01*
X129323307Y-100030228D02*
X131037593Y-100030228D01*
X131037593Y-101601657D02*
X131037593Y-98601657D01*
X133751879Y-99601657D02*
X133751879Y-101601657D01*
X132466164Y-99601657D02*
X132466164Y-101173085D01*
X132466164Y-101173085D02*
X132609021Y-101458800D01*
X132609021Y-101458800D02*
X132894736Y-101601657D01*
X132894736Y-101601657D02*
X133323307Y-101601657D01*
X133323307Y-101601657D02*
X133609021Y-101458800D01*
X133609021Y-101458800D02*
X133751879Y-101315942D01*
X135180450Y-101601657D02*
X135180450Y-98601657D01*
X135180450Y-99744514D02*
X135466165Y-99601657D01*
X135466165Y-99601657D02*
X136037593Y-99601657D01*
X136037593Y-99601657D02*
X136323307Y-99744514D01*
X136323307Y-99744514D02*
X136466165Y-99887371D01*
X136466165Y-99887371D02*
X136609022Y-100173085D01*
X136609022Y-100173085D02*
X136609022Y-101030228D01*
X136609022Y-101030228D02*
X136466165Y-101315942D01*
X136466165Y-101315942D02*
X136323307Y-101458800D01*
X136323307Y-101458800D02*
X136037593Y-101601657D01*
X136037593Y-101601657D02*
X135466165Y-101601657D01*
X135466165Y-101601657D02*
X135180450Y-101458800D01*
D13*
X159833333Y-99859580D02*
X159785714Y-99907200D01*
X159785714Y-99907200D02*
X159642857Y-99954819D01*
X159642857Y-99954819D02*
X159547619Y-99954819D01*
X159547619Y-99954819D02*
X159404762Y-99907200D01*
X159404762Y-99907200D02*
X159309524Y-99811961D01*
X159309524Y-99811961D02*
X159261905Y-99716723D01*
X159261905Y-99716723D02*
X159214286Y-99526247D01*
X159214286Y-99526247D02*
X159214286Y-99383390D01*
X159214286Y-99383390D02*
X159261905Y-99192914D01*
X159261905Y-99192914D02*
X159309524Y-99097676D01*
X159309524Y-99097676D02*
X159404762Y-99002438D01*
X159404762Y-99002438D02*
X159547619Y-98954819D01*
X159547619Y-98954819D02*
X159642857Y-98954819D01*
X159642857Y-98954819D02*
X159785714Y-99002438D01*
X159785714Y-99002438D02*
X159833333Y-99050057D01*
X160309524Y-99954819D02*
X160500000Y-99954819D01*
X160500000Y-99954819D02*
X160595238Y-99907200D01*
X160595238Y-99907200D02*
X160642857Y-99859580D01*
X160642857Y-99859580D02*
X160738095Y-99716723D01*
X160738095Y-99716723D02*
X160785714Y-99526247D01*
X160785714Y-99526247D02*
X160785714Y-99145295D01*
X160785714Y-99145295D02*
X160738095Y-99050057D01*
X160738095Y-99050057D02*
X160690476Y-99002438D01*
X160690476Y-99002438D02*
X160595238Y-98954819D01*
X160595238Y-98954819D02*
X160404762Y-98954819D01*
X160404762Y-98954819D02*
X160309524Y-99002438D01*
X160309524Y-99002438D02*
X160261905Y-99050057D01*
X160261905Y-99050057D02*
X160214286Y-99145295D01*
X160214286Y-99145295D02*
X160214286Y-99383390D01*
X160214286Y-99383390D02*
X160261905Y-99478628D01*
X160261905Y-99478628D02*
X160309524Y-99526247D01*
X160309524Y-99526247D02*
X160404762Y-99573866D01*
X160404762Y-99573866D02*
X160595238Y-99573866D01*
X160595238Y-99573866D02*
X160690476Y-99526247D01*
X160690476Y-99526247D02*
X160738095Y-99478628D01*
X160738095Y-99478628D02*
X160785714Y-99383390D01*
X159482039Y-119251742D02*
X159148706Y-118775551D01*
X158910611Y-119251742D02*
X158910611Y-118251742D01*
X158910611Y-118251742D02*
X159291563Y-118251742D01*
X159291563Y-118251742D02*
X159386801Y-118299361D01*
X159386801Y-118299361D02*
X159434420Y-118346980D01*
X159434420Y-118346980D02*
X159482039Y-118442218D01*
X159482039Y-118442218D02*
X159482039Y-118585075D01*
X159482039Y-118585075D02*
X159434420Y-118680313D01*
X159434420Y-118680313D02*
X159386801Y-118727932D01*
X159386801Y-118727932D02*
X159291563Y-118775551D01*
X159291563Y-118775551D02*
X158910611Y-118775551D01*
X159862992Y-118346980D02*
X159910611Y-118299361D01*
X159910611Y-118299361D02*
X160005849Y-118251742D01*
X160005849Y-118251742D02*
X160243944Y-118251742D01*
X160243944Y-118251742D02*
X160339182Y-118299361D01*
X160339182Y-118299361D02*
X160386801Y-118346980D01*
X160386801Y-118346980D02*
X160434420Y-118442218D01*
X160434420Y-118442218D02*
X160434420Y-118537456D01*
X160434420Y-118537456D02*
X160386801Y-118680313D01*
X160386801Y-118680313D02*
X159815373Y-119251742D01*
X159815373Y-119251742D02*
X160434420Y-119251742D01*
X124373333Y-112359580D02*
X124325714Y-112407200D01*
X124325714Y-112407200D02*
X124182857Y-112454819D01*
X124182857Y-112454819D02*
X124087619Y-112454819D01*
X124087619Y-112454819D02*
X123944762Y-112407200D01*
X123944762Y-112407200D02*
X123849524Y-112311961D01*
X123849524Y-112311961D02*
X123801905Y-112216723D01*
X123801905Y-112216723D02*
X123754286Y-112026247D01*
X123754286Y-112026247D02*
X123754286Y-111883390D01*
X123754286Y-111883390D02*
X123801905Y-111692914D01*
X123801905Y-111692914D02*
X123849524Y-111597676D01*
X123849524Y-111597676D02*
X123944762Y-111502438D01*
X123944762Y-111502438D02*
X124087619Y-111454819D01*
X124087619Y-111454819D02*
X124182857Y-111454819D01*
X124182857Y-111454819D02*
X124325714Y-111502438D01*
X124325714Y-111502438D02*
X124373333Y-111550057D01*
X125230476Y-111788152D02*
X125230476Y-112454819D01*
X124992381Y-111407200D02*
X124754286Y-112121485D01*
X124754286Y-112121485D02*
X125373333Y-112121485D01*
X142454819Y-130402152D02*
X141978628Y-130735485D01*
X142454819Y-130973580D02*
X141454819Y-130973580D01*
X141454819Y-130973580D02*
X141454819Y-130592628D01*
X141454819Y-130592628D02*
X141502438Y-130497390D01*
X141502438Y-130497390D02*
X141550057Y-130449771D01*
X141550057Y-130449771D02*
X141645295Y-130402152D01*
X141645295Y-130402152D02*
X141788152Y-130402152D01*
X141788152Y-130402152D02*
X141883390Y-130449771D01*
X141883390Y-130449771D02*
X141931009Y-130497390D01*
X141931009Y-130497390D02*
X141978628Y-130592628D01*
X141978628Y-130592628D02*
X141978628Y-130973580D01*
X141788152Y-129545009D02*
X142454819Y-129545009D01*
X141407200Y-129783104D02*
X142121485Y-130021199D01*
X142121485Y-130021199D02*
X142121485Y-129402152D01*
X167671025Y-117238094D02*
X168480548Y-117238094D01*
X168480548Y-117238094D02*
X168575786Y-117190475D01*
X168575786Y-117190475D02*
X168623406Y-117142856D01*
X168623406Y-117142856D02*
X168671025Y-117047618D01*
X168671025Y-117047618D02*
X168671025Y-116857142D01*
X168671025Y-116857142D02*
X168623406Y-116761904D01*
X168623406Y-116761904D02*
X168575786Y-116714285D01*
X168575786Y-116714285D02*
X168480548Y-116666666D01*
X168480548Y-116666666D02*
X167671025Y-116666666D01*
X168623406Y-116238094D02*
X168671025Y-116095237D01*
X168671025Y-116095237D02*
X168671025Y-115857142D01*
X168671025Y-115857142D02*
X168623406Y-115761904D01*
X168623406Y-115761904D02*
X168575786Y-115714285D01*
X168575786Y-115714285D02*
X168480548Y-115666666D01*
X168480548Y-115666666D02*
X168385310Y-115666666D01*
X168385310Y-115666666D02*
X168290072Y-115714285D01*
X168290072Y-115714285D02*
X168242453Y-115761904D01*
X168242453Y-115761904D02*
X168194834Y-115857142D01*
X168194834Y-115857142D02*
X168147215Y-116047618D01*
X168147215Y-116047618D02*
X168099596Y-116142856D01*
X168099596Y-116142856D02*
X168051977Y-116190475D01*
X168051977Y-116190475D02*
X167956739Y-116238094D01*
X167956739Y-116238094D02*
X167861501Y-116238094D01*
X167861501Y-116238094D02*
X167766263Y-116190475D01*
X167766263Y-116190475D02*
X167718644Y-116142856D01*
X167718644Y-116142856D02*
X167671025Y-116047618D01*
X167671025Y-116047618D02*
X167671025Y-115809523D01*
X167671025Y-115809523D02*
X167718644Y-115666666D01*
X168147215Y-114904761D02*
X168194834Y-114761904D01*
X168194834Y-114761904D02*
X168242453Y-114714285D01*
X168242453Y-114714285D02*
X168337691Y-114666666D01*
X168337691Y-114666666D02*
X168480548Y-114666666D01*
X168480548Y-114666666D02*
X168575786Y-114714285D01*
X168575786Y-114714285D02*
X168623406Y-114761904D01*
X168623406Y-114761904D02*
X168671025Y-114857142D01*
X168671025Y-114857142D02*
X168671025Y-115238094D01*
X168671025Y-115238094D02*
X167671025Y-115238094D01*
X167671025Y-115238094D02*
X167671025Y-114904761D01*
X167671025Y-114904761D02*
X167718644Y-114809523D01*
X167718644Y-114809523D02*
X167766263Y-114761904D01*
X167766263Y-114761904D02*
X167861501Y-114714285D01*
X167861501Y-114714285D02*
X167956739Y-114714285D01*
X167956739Y-114714285D02*
X168051977Y-114761904D01*
X168051977Y-114761904D02*
X168099596Y-114809523D01*
X168099596Y-114809523D02*
X168147215Y-114904761D01*
X168147215Y-114904761D02*
X168147215Y-115238094D01*
X167671025Y-113809523D02*
X167671025Y-113999999D01*
X167671025Y-113999999D02*
X167718644Y-114095237D01*
X167718644Y-114095237D02*
X167766263Y-114142856D01*
X167766263Y-114142856D02*
X167909120Y-114238094D01*
X167909120Y-114238094D02*
X168099596Y-114285713D01*
X168099596Y-114285713D02*
X168480548Y-114285713D01*
X168480548Y-114285713D02*
X168575786Y-114238094D01*
X168575786Y-114238094D02*
X168623406Y-114190475D01*
X168623406Y-114190475D02*
X168671025Y-114095237D01*
X168671025Y-114095237D02*
X168671025Y-113904761D01*
X168671025Y-113904761D02*
X168623406Y-113809523D01*
X168623406Y-113809523D02*
X168575786Y-113761904D01*
X168575786Y-113761904D02*
X168480548Y-113714285D01*
X168480548Y-113714285D02*
X168242453Y-113714285D01*
X168242453Y-113714285D02*
X168147215Y-113761904D01*
X168147215Y-113761904D02*
X168099596Y-113809523D01*
X168099596Y-113809523D02*
X168051977Y-113904761D01*
X168051977Y-113904761D02*
X168051977Y-114095237D01*
X168051977Y-114095237D02*
X168099596Y-114190475D01*
X168099596Y-114190475D02*
X168147215Y-114238094D01*
X168147215Y-114238094D02*
X168242453Y-114285713D01*
X140443333Y-81299580D02*
X140395714Y-81347200D01*
X140395714Y-81347200D02*
X140252857Y-81394819D01*
X140252857Y-81394819D02*
X140157619Y-81394819D01*
X140157619Y-81394819D02*
X140014762Y-81347200D01*
X140014762Y-81347200D02*
X139919524Y-81251961D01*
X139919524Y-81251961D02*
X139871905Y-81156723D01*
X139871905Y-81156723D02*
X139824286Y-80966247D01*
X139824286Y-80966247D02*
X139824286Y-80823390D01*
X139824286Y-80823390D02*
X139871905Y-80632914D01*
X139871905Y-80632914D02*
X139919524Y-80537676D01*
X139919524Y-80537676D02*
X140014762Y-80442438D01*
X140014762Y-80442438D02*
X140157619Y-80394819D01*
X140157619Y-80394819D02*
X140252857Y-80394819D01*
X140252857Y-80394819D02*
X140395714Y-80442438D01*
X140395714Y-80442438D02*
X140443333Y-80490057D01*
X140776667Y-80394819D02*
X141395714Y-80394819D01*
X141395714Y-80394819D02*
X141062381Y-80775771D01*
X141062381Y-80775771D02*
X141205238Y-80775771D01*
X141205238Y-80775771D02*
X141300476Y-80823390D01*
X141300476Y-80823390D02*
X141348095Y-80871009D01*
X141348095Y-80871009D02*
X141395714Y-80966247D01*
X141395714Y-80966247D02*
X141395714Y-81204342D01*
X141395714Y-81204342D02*
X141348095Y-81299580D01*
X141348095Y-81299580D02*
X141300476Y-81347200D01*
X141300476Y-81347200D02*
X141205238Y-81394819D01*
X141205238Y-81394819D02*
X140919524Y-81394819D01*
X140919524Y-81394819D02*
X140824286Y-81347200D01*
X140824286Y-81347200D02*
X140776667Y-81299580D01*
X159833333Y-101359580D02*
X159785714Y-101407200D01*
X159785714Y-101407200D02*
X159642857Y-101454819D01*
X159642857Y-101454819D02*
X159547619Y-101454819D01*
X159547619Y-101454819D02*
X159404762Y-101407200D01*
X159404762Y-101407200D02*
X159309524Y-101311961D01*
X159309524Y-101311961D02*
X159261905Y-101216723D01*
X159261905Y-101216723D02*
X159214286Y-101026247D01*
X159214286Y-101026247D02*
X159214286Y-100883390D01*
X159214286Y-100883390D02*
X159261905Y-100692914D01*
X159261905Y-100692914D02*
X159309524Y-100597676D01*
X159309524Y-100597676D02*
X159404762Y-100502438D01*
X159404762Y-100502438D02*
X159547619Y-100454819D01*
X159547619Y-100454819D02*
X159642857Y-100454819D01*
X159642857Y-100454819D02*
X159785714Y-100502438D01*
X159785714Y-100502438D02*
X159833333Y-100550057D01*
X160404762Y-100883390D02*
X160309524Y-100835771D01*
X160309524Y-100835771D02*
X160261905Y-100788152D01*
X160261905Y-100788152D02*
X160214286Y-100692914D01*
X160214286Y-100692914D02*
X160214286Y-100645295D01*
X160214286Y-100645295D02*
X160261905Y-100550057D01*
X160261905Y-100550057D02*
X160309524Y-100502438D01*
X160309524Y-100502438D02*
X160404762Y-100454819D01*
X160404762Y-100454819D02*
X160595238Y-100454819D01*
X160595238Y-100454819D02*
X160690476Y-100502438D01*
X160690476Y-100502438D02*
X160738095Y-100550057D01*
X160738095Y-100550057D02*
X160785714Y-100645295D01*
X160785714Y-100645295D02*
X160785714Y-100692914D01*
X160785714Y-100692914D02*
X160738095Y-100788152D01*
X160738095Y-100788152D02*
X160690476Y-100835771D01*
X160690476Y-100835771D02*
X160595238Y-100883390D01*
X160595238Y-100883390D02*
X160404762Y-100883390D01*
X160404762Y-100883390D02*
X160309524Y-100931009D01*
X160309524Y-100931009D02*
X160261905Y-100978628D01*
X160261905Y-100978628D02*
X160214286Y-101073866D01*
X160214286Y-101073866D02*
X160214286Y-101264342D01*
X160214286Y-101264342D02*
X160261905Y-101359580D01*
X160261905Y-101359580D02*
X160309524Y-101407200D01*
X160309524Y-101407200D02*
X160404762Y-101454819D01*
X160404762Y-101454819D02*
X160595238Y-101454819D01*
X160595238Y-101454819D02*
X160690476Y-101407200D01*
X160690476Y-101407200D02*
X160738095Y-101359580D01*
X160738095Y-101359580D02*
X160785714Y-101264342D01*
X160785714Y-101264342D02*
X160785714Y-101073866D01*
X160785714Y-101073866D02*
X160738095Y-100978628D01*
X160738095Y-100978628D02*
X160690476Y-100931009D01*
X160690476Y-100931009D02*
X160595238Y-100883390D01*
X150317142Y-118359580D02*
X150269523Y-118407200D01*
X150269523Y-118407200D02*
X150126666Y-118454819D01*
X150126666Y-118454819D02*
X150031428Y-118454819D01*
X150031428Y-118454819D02*
X149888571Y-118407200D01*
X149888571Y-118407200D02*
X149793333Y-118311961D01*
X149793333Y-118311961D02*
X149745714Y-118216723D01*
X149745714Y-118216723D02*
X149698095Y-118026247D01*
X149698095Y-118026247D02*
X149698095Y-117883390D01*
X149698095Y-117883390D02*
X149745714Y-117692914D01*
X149745714Y-117692914D02*
X149793333Y-117597676D01*
X149793333Y-117597676D02*
X149888571Y-117502438D01*
X149888571Y-117502438D02*
X150031428Y-117454819D01*
X150031428Y-117454819D02*
X150126666Y-117454819D01*
X150126666Y-117454819D02*
X150269523Y-117502438D01*
X150269523Y-117502438D02*
X150317142Y-117550057D01*
X151269523Y-118454819D02*
X150698095Y-118454819D01*
X150983809Y-118454819D02*
X150983809Y-117454819D01*
X150983809Y-117454819D02*
X150888571Y-117597676D01*
X150888571Y-117597676D02*
X150793333Y-117692914D01*
X150793333Y-117692914D02*
X150698095Y-117740533D01*
X152221904Y-118454819D02*
X151650476Y-118454819D01*
X151936190Y-118454819D02*
X151936190Y-117454819D01*
X151936190Y-117454819D02*
X151840952Y-117597676D01*
X151840952Y-117597676D02*
X151745714Y-117692914D01*
X151745714Y-117692914D02*
X151650476Y-117740533D01*
X130108333Y-122096720D02*
X129775000Y-121620529D01*
X129536905Y-122096720D02*
X129536905Y-121096720D01*
X129536905Y-121096720D02*
X129917857Y-121096720D01*
X129917857Y-121096720D02*
X130013095Y-121144339D01*
X130013095Y-121144339D02*
X130060714Y-121191958D01*
X130060714Y-121191958D02*
X130108333Y-121287196D01*
X130108333Y-121287196D02*
X130108333Y-121430053D01*
X130108333Y-121430053D02*
X130060714Y-121525291D01*
X130060714Y-121525291D02*
X130013095Y-121572910D01*
X130013095Y-121572910D02*
X129917857Y-121620529D01*
X129917857Y-121620529D02*
X129536905Y-121620529D01*
X131013095Y-121096720D02*
X130536905Y-121096720D01*
X130536905Y-121096720D02*
X130489286Y-121572910D01*
X130489286Y-121572910D02*
X130536905Y-121525291D01*
X130536905Y-121525291D02*
X130632143Y-121477672D01*
X130632143Y-121477672D02*
X130870238Y-121477672D01*
X130870238Y-121477672D02*
X130965476Y-121525291D01*
X130965476Y-121525291D02*
X131013095Y-121572910D01*
X131013095Y-121572910D02*
X131060714Y-121668148D01*
X131060714Y-121668148D02*
X131060714Y-121906243D01*
X131060714Y-121906243D02*
X131013095Y-122001481D01*
X131013095Y-122001481D02*
X130965476Y-122049101D01*
X130965476Y-122049101D02*
X130870238Y-122096720D01*
X130870238Y-122096720D02*
X130632143Y-122096720D01*
X130632143Y-122096720D02*
X130536905Y-122049101D01*
X130536905Y-122049101D02*
X130489286Y-122001481D01*
X150357142Y-116859580D02*
X150309523Y-116907200D01*
X150309523Y-116907200D02*
X150166666Y-116954819D01*
X150166666Y-116954819D02*
X150071428Y-116954819D01*
X150071428Y-116954819D02*
X149928571Y-116907200D01*
X149928571Y-116907200D02*
X149833333Y-116811961D01*
X149833333Y-116811961D02*
X149785714Y-116716723D01*
X149785714Y-116716723D02*
X149738095Y-116526247D01*
X149738095Y-116526247D02*
X149738095Y-116383390D01*
X149738095Y-116383390D02*
X149785714Y-116192914D01*
X149785714Y-116192914D02*
X149833333Y-116097676D01*
X149833333Y-116097676D02*
X149928571Y-116002438D01*
X149928571Y-116002438D02*
X150071428Y-115954819D01*
X150071428Y-115954819D02*
X150166666Y-115954819D01*
X150166666Y-115954819D02*
X150309523Y-116002438D01*
X150309523Y-116002438D02*
X150357142Y-116050057D01*
X151309523Y-116954819D02*
X150738095Y-116954819D01*
X151023809Y-116954819D02*
X151023809Y-115954819D01*
X151023809Y-115954819D02*
X150928571Y-116097676D01*
X150928571Y-116097676D02*
X150833333Y-116192914D01*
X150833333Y-116192914D02*
X150738095Y-116240533D01*
X151928571Y-115954819D02*
X152023809Y-115954819D01*
X152023809Y-115954819D02*
X152119047Y-116002438D01*
X152119047Y-116002438D02*
X152166666Y-116050057D01*
X152166666Y-116050057D02*
X152214285Y-116145295D01*
X152214285Y-116145295D02*
X152261904Y-116335771D01*
X152261904Y-116335771D02*
X152261904Y-116573866D01*
X152261904Y-116573866D02*
X152214285Y-116764342D01*
X152214285Y-116764342D02*
X152166666Y-116859580D01*
X152166666Y-116859580D02*
X152119047Y-116907200D01*
X152119047Y-116907200D02*
X152023809Y-116954819D01*
X152023809Y-116954819D02*
X151928571Y-116954819D01*
X151928571Y-116954819D02*
X151833333Y-116907200D01*
X151833333Y-116907200D02*
X151785714Y-116859580D01*
X151785714Y-116859580D02*
X151738095Y-116764342D01*
X151738095Y-116764342D02*
X151690476Y-116573866D01*
X151690476Y-116573866D02*
X151690476Y-116335771D01*
X151690476Y-116335771D02*
X151738095Y-116145295D01*
X151738095Y-116145295D02*
X151785714Y-116050057D01*
X151785714Y-116050057D02*
X151833333Y-116002438D01*
X151833333Y-116002438D02*
X151928571Y-115954819D01*
X154454819Y-74738094D02*
X155264342Y-74738094D01*
X155264342Y-74738094D02*
X155359580Y-74690475D01*
X155359580Y-74690475D02*
X155407200Y-74642856D01*
X155407200Y-74642856D02*
X155454819Y-74547618D01*
X155454819Y-74547618D02*
X155454819Y-74357142D01*
X155454819Y-74357142D02*
X155407200Y-74261904D01*
X155407200Y-74261904D02*
X155359580Y-74214285D01*
X155359580Y-74214285D02*
X155264342Y-74166666D01*
X155264342Y-74166666D02*
X154454819Y-74166666D01*
X155407200Y-73738094D02*
X155454819Y-73595237D01*
X155454819Y-73595237D02*
X155454819Y-73357142D01*
X155454819Y-73357142D02*
X155407200Y-73261904D01*
X155407200Y-73261904D02*
X155359580Y-73214285D01*
X155359580Y-73214285D02*
X155264342Y-73166666D01*
X155264342Y-73166666D02*
X155169104Y-73166666D01*
X155169104Y-73166666D02*
X155073866Y-73214285D01*
X155073866Y-73214285D02*
X155026247Y-73261904D01*
X155026247Y-73261904D02*
X154978628Y-73357142D01*
X154978628Y-73357142D02*
X154931009Y-73547618D01*
X154931009Y-73547618D02*
X154883390Y-73642856D01*
X154883390Y-73642856D02*
X154835771Y-73690475D01*
X154835771Y-73690475D02*
X154740533Y-73738094D01*
X154740533Y-73738094D02*
X154645295Y-73738094D01*
X154645295Y-73738094D02*
X154550057Y-73690475D01*
X154550057Y-73690475D02*
X154502438Y-73642856D01*
X154502438Y-73642856D02*
X154454819Y-73547618D01*
X154454819Y-73547618D02*
X154454819Y-73309523D01*
X154454819Y-73309523D02*
X154502438Y-73166666D01*
X154931009Y-72404761D02*
X154978628Y-72261904D01*
X154978628Y-72261904D02*
X155026247Y-72214285D01*
X155026247Y-72214285D02*
X155121485Y-72166666D01*
X155121485Y-72166666D02*
X155264342Y-72166666D01*
X155264342Y-72166666D02*
X155359580Y-72214285D01*
X155359580Y-72214285D02*
X155407200Y-72261904D01*
X155407200Y-72261904D02*
X155454819Y-72357142D01*
X155454819Y-72357142D02*
X155454819Y-72738094D01*
X155454819Y-72738094D02*
X154454819Y-72738094D01*
X154454819Y-72738094D02*
X154454819Y-72404761D01*
X154454819Y-72404761D02*
X154502438Y-72309523D01*
X154502438Y-72309523D02*
X154550057Y-72261904D01*
X154550057Y-72261904D02*
X154645295Y-72214285D01*
X154645295Y-72214285D02*
X154740533Y-72214285D01*
X154740533Y-72214285D02*
X154835771Y-72261904D01*
X154835771Y-72261904D02*
X154883390Y-72309523D01*
X154883390Y-72309523D02*
X154931009Y-72404761D01*
X154931009Y-72404761D02*
X154931009Y-72738094D01*
X154883390Y-71595237D02*
X154835771Y-71690475D01*
X154835771Y-71690475D02*
X154788152Y-71738094D01*
X154788152Y-71738094D02*
X154692914Y-71785713D01*
X154692914Y-71785713D02*
X154645295Y-71785713D01*
X154645295Y-71785713D02*
X154550057Y-71738094D01*
X154550057Y-71738094D02*
X154502438Y-71690475D01*
X154502438Y-71690475D02*
X154454819Y-71595237D01*
X154454819Y-71595237D02*
X154454819Y-71404761D01*
X154454819Y-71404761D02*
X154502438Y-71309523D01*
X154502438Y-71309523D02*
X154550057Y-71261904D01*
X154550057Y-71261904D02*
X154645295Y-71214285D01*
X154645295Y-71214285D02*
X154692914Y-71214285D01*
X154692914Y-71214285D02*
X154788152Y-71261904D01*
X154788152Y-71261904D02*
X154835771Y-71309523D01*
X154835771Y-71309523D02*
X154883390Y-71404761D01*
X154883390Y-71404761D02*
X154883390Y-71595237D01*
X154883390Y-71595237D02*
X154931009Y-71690475D01*
X154931009Y-71690475D02*
X154978628Y-71738094D01*
X154978628Y-71738094D02*
X155073866Y-71785713D01*
X155073866Y-71785713D02*
X155264342Y-71785713D01*
X155264342Y-71785713D02*
X155359580Y-71738094D01*
X155359580Y-71738094D02*
X155407200Y-71690475D01*
X155407200Y-71690475D02*
X155454819Y-71595237D01*
X155454819Y-71595237D02*
X155454819Y-71404761D01*
X155454819Y-71404761D02*
X155407200Y-71309523D01*
X155407200Y-71309523D02*
X155359580Y-71261904D01*
X155359580Y-71261904D02*
X155264342Y-71214285D01*
X155264342Y-71214285D02*
X155073866Y-71214285D01*
X155073866Y-71214285D02*
X154978628Y-71261904D01*
X154978628Y-71261904D02*
X154931009Y-71309523D01*
X154931009Y-71309523D02*
X154883390Y-71404761D01*
X154859580Y-132166666D02*
X154907200Y-132214285D01*
X154907200Y-132214285D02*
X154954819Y-132357142D01*
X154954819Y-132357142D02*
X154954819Y-132452380D01*
X154954819Y-132452380D02*
X154907200Y-132595237D01*
X154907200Y-132595237D02*
X154811961Y-132690475D01*
X154811961Y-132690475D02*
X154716723Y-132738094D01*
X154716723Y-132738094D02*
X154526247Y-132785713D01*
X154526247Y-132785713D02*
X154383390Y-132785713D01*
X154383390Y-132785713D02*
X154192914Y-132738094D01*
X154192914Y-132738094D02*
X154097676Y-132690475D01*
X154097676Y-132690475D02*
X154002438Y-132595237D01*
X154002438Y-132595237D02*
X153954819Y-132452380D01*
X153954819Y-132452380D02*
X153954819Y-132357142D01*
X153954819Y-132357142D02*
X154002438Y-132214285D01*
X154002438Y-132214285D02*
X154050057Y-132166666D01*
X154050057Y-131785713D02*
X154002438Y-131738094D01*
X154002438Y-131738094D02*
X153954819Y-131642856D01*
X153954819Y-131642856D02*
X153954819Y-131404761D01*
X153954819Y-131404761D02*
X154002438Y-131309523D01*
X154002438Y-131309523D02*
X154050057Y-131261904D01*
X154050057Y-131261904D02*
X154145295Y-131214285D01*
X154145295Y-131214285D02*
X154240533Y-131214285D01*
X154240533Y-131214285D02*
X154383390Y-131261904D01*
X154383390Y-131261904D02*
X154954819Y-131833332D01*
X154954819Y-131833332D02*
X154954819Y-131214285D01*
X152796037Y-131902152D02*
X152319846Y-132235485D01*
X152796037Y-132473580D02*
X151796037Y-132473580D01*
X151796037Y-132473580D02*
X151796037Y-132092628D01*
X151796037Y-132092628D02*
X151843656Y-131997390D01*
X151843656Y-131997390D02*
X151891275Y-131949771D01*
X151891275Y-131949771D02*
X151986513Y-131902152D01*
X151986513Y-131902152D02*
X152129370Y-131902152D01*
X152129370Y-131902152D02*
X152224608Y-131949771D01*
X152224608Y-131949771D02*
X152272227Y-131997390D01*
X152272227Y-131997390D02*
X152319846Y-132092628D01*
X152319846Y-132092628D02*
X152319846Y-132473580D01*
X151796037Y-131568818D02*
X151796037Y-130949771D01*
X151796037Y-130949771D02*
X152176989Y-131283104D01*
X152176989Y-131283104D02*
X152176989Y-131140247D01*
X152176989Y-131140247D02*
X152224608Y-131045009D01*
X152224608Y-131045009D02*
X152272227Y-130997390D01*
X152272227Y-130997390D02*
X152367465Y-130949771D01*
X152367465Y-130949771D02*
X152605560Y-130949771D01*
X152605560Y-130949771D02*
X152700798Y-130997390D01*
X152700798Y-130997390D02*
X152748418Y-131045009D01*
X152748418Y-131045009D02*
X152796037Y-131140247D01*
X152796037Y-131140247D02*
X152796037Y-131425961D01*
X152796037Y-131425961D02*
X152748418Y-131521199D01*
X152748418Y-131521199D02*
X152700798Y-131568818D01*
X149261905Y-139954819D02*
X149261905Y-140764342D01*
X149261905Y-140764342D02*
X149309524Y-140859580D01*
X149309524Y-140859580D02*
X149357143Y-140907200D01*
X149357143Y-140907200D02*
X149452381Y-140954819D01*
X149452381Y-140954819D02*
X149642857Y-140954819D01*
X149642857Y-140954819D02*
X149738095Y-140907200D01*
X149738095Y-140907200D02*
X149785714Y-140859580D01*
X149785714Y-140859580D02*
X149833333Y-140764342D01*
X149833333Y-140764342D02*
X149833333Y-139954819D01*
X150261905Y-140907200D02*
X150404762Y-140954819D01*
X150404762Y-140954819D02*
X150642857Y-140954819D01*
X150642857Y-140954819D02*
X150738095Y-140907200D01*
X150738095Y-140907200D02*
X150785714Y-140859580D01*
X150785714Y-140859580D02*
X150833333Y-140764342D01*
X150833333Y-140764342D02*
X150833333Y-140669104D01*
X150833333Y-140669104D02*
X150785714Y-140573866D01*
X150785714Y-140573866D02*
X150738095Y-140526247D01*
X150738095Y-140526247D02*
X150642857Y-140478628D01*
X150642857Y-140478628D02*
X150452381Y-140431009D01*
X150452381Y-140431009D02*
X150357143Y-140383390D01*
X150357143Y-140383390D02*
X150309524Y-140335771D01*
X150309524Y-140335771D02*
X150261905Y-140240533D01*
X150261905Y-140240533D02*
X150261905Y-140145295D01*
X150261905Y-140145295D02*
X150309524Y-140050057D01*
X150309524Y-140050057D02*
X150357143Y-140002438D01*
X150357143Y-140002438D02*
X150452381Y-139954819D01*
X150452381Y-139954819D02*
X150690476Y-139954819D01*
X150690476Y-139954819D02*
X150833333Y-140002438D01*
X151595238Y-140431009D02*
X151738095Y-140478628D01*
X151738095Y-140478628D02*
X151785714Y-140526247D01*
X151785714Y-140526247D02*
X151833333Y-140621485D01*
X151833333Y-140621485D02*
X151833333Y-140764342D01*
X151833333Y-140764342D02*
X151785714Y-140859580D01*
X151785714Y-140859580D02*
X151738095Y-140907200D01*
X151738095Y-140907200D02*
X151642857Y-140954819D01*
X151642857Y-140954819D02*
X151261905Y-140954819D01*
X151261905Y-140954819D02*
X151261905Y-139954819D01*
X151261905Y-139954819D02*
X151595238Y-139954819D01*
X151595238Y-139954819D02*
X151690476Y-140002438D01*
X151690476Y-140002438D02*
X151738095Y-140050057D01*
X151738095Y-140050057D02*
X151785714Y-140145295D01*
X151785714Y-140145295D02*
X151785714Y-140240533D01*
X151785714Y-140240533D02*
X151738095Y-140335771D01*
X151738095Y-140335771D02*
X151690476Y-140383390D01*
X151690476Y-140383390D02*
X151595238Y-140431009D01*
X151595238Y-140431009D02*
X151261905Y-140431009D01*
X152214286Y-140050057D02*
X152261905Y-140002438D01*
X152261905Y-140002438D02*
X152357143Y-139954819D01*
X152357143Y-139954819D02*
X152595238Y-139954819D01*
X152595238Y-139954819D02*
X152690476Y-140002438D01*
X152690476Y-140002438D02*
X152738095Y-140050057D01*
X152738095Y-140050057D02*
X152785714Y-140145295D01*
X152785714Y-140145295D02*
X152785714Y-140240533D01*
X152785714Y-140240533D02*
X152738095Y-140383390D01*
X152738095Y-140383390D02*
X152166667Y-140954819D01*
X152166667Y-140954819D02*
X152785714Y-140954819D01*
X148833333Y-104359580D02*
X148785714Y-104407200D01*
X148785714Y-104407200D02*
X148642857Y-104454819D01*
X148642857Y-104454819D02*
X148547619Y-104454819D01*
X148547619Y-104454819D02*
X148404762Y-104407200D01*
X148404762Y-104407200D02*
X148309524Y-104311961D01*
X148309524Y-104311961D02*
X148261905Y-104216723D01*
X148261905Y-104216723D02*
X148214286Y-104026247D01*
X148214286Y-104026247D02*
X148214286Y-103883390D01*
X148214286Y-103883390D02*
X148261905Y-103692914D01*
X148261905Y-103692914D02*
X148309524Y-103597676D01*
X148309524Y-103597676D02*
X148404762Y-103502438D01*
X148404762Y-103502438D02*
X148547619Y-103454819D01*
X148547619Y-103454819D02*
X148642857Y-103454819D01*
X148642857Y-103454819D02*
X148785714Y-103502438D01*
X148785714Y-103502438D02*
X148833333Y-103550057D01*
X149690476Y-103454819D02*
X149500000Y-103454819D01*
X149500000Y-103454819D02*
X149404762Y-103502438D01*
X149404762Y-103502438D02*
X149357143Y-103550057D01*
X149357143Y-103550057D02*
X149261905Y-103692914D01*
X149261905Y-103692914D02*
X149214286Y-103883390D01*
X149214286Y-103883390D02*
X149214286Y-104264342D01*
X149214286Y-104264342D02*
X149261905Y-104359580D01*
X149261905Y-104359580D02*
X149309524Y-104407200D01*
X149309524Y-104407200D02*
X149404762Y-104454819D01*
X149404762Y-104454819D02*
X149595238Y-104454819D01*
X149595238Y-104454819D02*
X149690476Y-104407200D01*
X149690476Y-104407200D02*
X149738095Y-104359580D01*
X149738095Y-104359580D02*
X149785714Y-104264342D01*
X149785714Y-104264342D02*
X149785714Y-104026247D01*
X149785714Y-104026247D02*
X149738095Y-103931009D01*
X149738095Y-103931009D02*
X149690476Y-103883390D01*
X149690476Y-103883390D02*
X149595238Y-103835771D01*
X149595238Y-103835771D02*
X149404762Y-103835771D01*
X149404762Y-103835771D02*
X149309524Y-103883390D01*
X149309524Y-103883390D02*
X149261905Y-103931009D01*
X149261905Y-103931009D02*
X149214286Y-104026247D01*
X160432039Y-129583585D02*
X160384420Y-129631205D01*
X160384420Y-129631205D02*
X160241563Y-129678824D01*
X160241563Y-129678824D02*
X160146325Y-129678824D01*
X160146325Y-129678824D02*
X160003468Y-129631205D01*
X160003468Y-129631205D02*
X159908230Y-129535966D01*
X159908230Y-129535966D02*
X159860611Y-129440728D01*
X159860611Y-129440728D02*
X159812992Y-129250252D01*
X159812992Y-129250252D02*
X159812992Y-129107395D01*
X159812992Y-129107395D02*
X159860611Y-128916919D01*
X159860611Y-128916919D02*
X159908230Y-128821681D01*
X159908230Y-128821681D02*
X160003468Y-128726443D01*
X160003468Y-128726443D02*
X160146325Y-128678824D01*
X160146325Y-128678824D02*
X160241563Y-128678824D01*
X160241563Y-128678824D02*
X160384420Y-128726443D01*
X160384420Y-128726443D02*
X160432039Y-128774062D01*
X161384420Y-129678824D02*
X160812992Y-129678824D01*
X161098706Y-129678824D02*
X161098706Y-128678824D01*
X161098706Y-128678824D02*
X161003468Y-128821681D01*
X161003468Y-128821681D02*
X160908230Y-128916919D01*
X160908230Y-128916919D02*
X160812992Y-128964538D01*
X132454819Y-76178094D02*
X133264342Y-76178094D01*
X133264342Y-76178094D02*
X133359580Y-76130475D01*
X133359580Y-76130475D02*
X133407200Y-76082856D01*
X133407200Y-76082856D02*
X133454819Y-75987618D01*
X133454819Y-75987618D02*
X133454819Y-75797142D01*
X133454819Y-75797142D02*
X133407200Y-75701904D01*
X133407200Y-75701904D02*
X133359580Y-75654285D01*
X133359580Y-75654285D02*
X133264342Y-75606666D01*
X133264342Y-75606666D02*
X132454819Y-75606666D01*
X133407200Y-75178094D02*
X133454819Y-75035237D01*
X133454819Y-75035237D02*
X133454819Y-74797142D01*
X133454819Y-74797142D02*
X133407200Y-74701904D01*
X133407200Y-74701904D02*
X133359580Y-74654285D01*
X133359580Y-74654285D02*
X133264342Y-74606666D01*
X133264342Y-74606666D02*
X133169104Y-74606666D01*
X133169104Y-74606666D02*
X133073866Y-74654285D01*
X133073866Y-74654285D02*
X133026247Y-74701904D01*
X133026247Y-74701904D02*
X132978628Y-74797142D01*
X132978628Y-74797142D02*
X132931009Y-74987618D01*
X132931009Y-74987618D02*
X132883390Y-75082856D01*
X132883390Y-75082856D02*
X132835771Y-75130475D01*
X132835771Y-75130475D02*
X132740533Y-75178094D01*
X132740533Y-75178094D02*
X132645295Y-75178094D01*
X132645295Y-75178094D02*
X132550057Y-75130475D01*
X132550057Y-75130475D02*
X132502438Y-75082856D01*
X132502438Y-75082856D02*
X132454819Y-74987618D01*
X132454819Y-74987618D02*
X132454819Y-74749523D01*
X132454819Y-74749523D02*
X132502438Y-74606666D01*
X132931009Y-73844761D02*
X132978628Y-73701904D01*
X132978628Y-73701904D02*
X133026247Y-73654285D01*
X133026247Y-73654285D02*
X133121485Y-73606666D01*
X133121485Y-73606666D02*
X133264342Y-73606666D01*
X133264342Y-73606666D02*
X133359580Y-73654285D01*
X133359580Y-73654285D02*
X133407200Y-73701904D01*
X133407200Y-73701904D02*
X133454819Y-73797142D01*
X133454819Y-73797142D02*
X133454819Y-74178094D01*
X133454819Y-74178094D02*
X132454819Y-74178094D01*
X132454819Y-74178094D02*
X132454819Y-73844761D01*
X132454819Y-73844761D02*
X132502438Y-73749523D01*
X132502438Y-73749523D02*
X132550057Y-73701904D01*
X132550057Y-73701904D02*
X132645295Y-73654285D01*
X132645295Y-73654285D02*
X132740533Y-73654285D01*
X132740533Y-73654285D02*
X132835771Y-73701904D01*
X132835771Y-73701904D02*
X132883390Y-73749523D01*
X132883390Y-73749523D02*
X132931009Y-73844761D01*
X132931009Y-73844761D02*
X132931009Y-74178094D01*
X132454819Y-72701904D02*
X132454819Y-73178094D01*
X132454819Y-73178094D02*
X132931009Y-73225713D01*
X132931009Y-73225713D02*
X132883390Y-73178094D01*
X132883390Y-73178094D02*
X132835771Y-73082856D01*
X132835771Y-73082856D02*
X132835771Y-72844761D01*
X132835771Y-72844761D02*
X132883390Y-72749523D01*
X132883390Y-72749523D02*
X132931009Y-72701904D01*
X132931009Y-72701904D02*
X133026247Y-72654285D01*
X133026247Y-72654285D02*
X133264342Y-72654285D01*
X133264342Y-72654285D02*
X133359580Y-72701904D01*
X133359580Y-72701904D02*
X133407200Y-72749523D01*
X133407200Y-72749523D02*
X133454819Y-72844761D01*
X133454819Y-72844761D02*
X133454819Y-73082856D01*
X133454819Y-73082856D02*
X133407200Y-73178094D01*
X133407200Y-73178094D02*
X133359580Y-73225713D01*
X148833333Y-102859580D02*
X148785714Y-102907200D01*
X148785714Y-102907200D02*
X148642857Y-102954819D01*
X148642857Y-102954819D02*
X148547619Y-102954819D01*
X148547619Y-102954819D02*
X148404762Y-102907200D01*
X148404762Y-102907200D02*
X148309524Y-102811961D01*
X148309524Y-102811961D02*
X148261905Y-102716723D01*
X148261905Y-102716723D02*
X148214286Y-102526247D01*
X148214286Y-102526247D02*
X148214286Y-102383390D01*
X148214286Y-102383390D02*
X148261905Y-102192914D01*
X148261905Y-102192914D02*
X148309524Y-102097676D01*
X148309524Y-102097676D02*
X148404762Y-102002438D01*
X148404762Y-102002438D02*
X148547619Y-101954819D01*
X148547619Y-101954819D02*
X148642857Y-101954819D01*
X148642857Y-101954819D02*
X148785714Y-102002438D01*
X148785714Y-102002438D02*
X148833333Y-102050057D01*
X149166667Y-101954819D02*
X149833333Y-101954819D01*
X149833333Y-101954819D02*
X149404762Y-102954819D01*
X157270833Y-87859580D02*
X157223214Y-87907200D01*
X157223214Y-87907200D02*
X157080357Y-87954819D01*
X157080357Y-87954819D02*
X156985119Y-87954819D01*
X156985119Y-87954819D02*
X156842262Y-87907200D01*
X156842262Y-87907200D02*
X156747024Y-87811961D01*
X156747024Y-87811961D02*
X156699405Y-87716723D01*
X156699405Y-87716723D02*
X156651786Y-87526247D01*
X156651786Y-87526247D02*
X156651786Y-87383390D01*
X156651786Y-87383390D02*
X156699405Y-87192914D01*
X156699405Y-87192914D02*
X156747024Y-87097676D01*
X156747024Y-87097676D02*
X156842262Y-87002438D01*
X156842262Y-87002438D02*
X156985119Y-86954819D01*
X156985119Y-86954819D02*
X157080357Y-86954819D01*
X157080357Y-86954819D02*
X157223214Y-87002438D01*
X157223214Y-87002438D02*
X157270833Y-87050057D01*
X158175595Y-86954819D02*
X157699405Y-86954819D01*
X157699405Y-86954819D02*
X157651786Y-87431009D01*
X157651786Y-87431009D02*
X157699405Y-87383390D01*
X157699405Y-87383390D02*
X157794643Y-87335771D01*
X157794643Y-87335771D02*
X158032738Y-87335771D01*
X158032738Y-87335771D02*
X158127976Y-87383390D01*
X158127976Y-87383390D02*
X158175595Y-87431009D01*
X158175595Y-87431009D02*
X158223214Y-87526247D01*
X158223214Y-87526247D02*
X158223214Y-87764342D01*
X158223214Y-87764342D02*
X158175595Y-87859580D01*
X158175595Y-87859580D02*
X158127976Y-87907200D01*
X158127976Y-87907200D02*
X158032738Y-87954819D01*
X158032738Y-87954819D02*
X157794643Y-87954819D01*
X157794643Y-87954819D02*
X157699405Y-87907200D01*
X157699405Y-87907200D02*
X157651786Y-87859580D01*
X118454819Y-111879995D02*
X119264342Y-111879995D01*
X119264342Y-111879995D02*
X119359580Y-111832376D01*
X119359580Y-111832376D02*
X119407200Y-111784757D01*
X119407200Y-111784757D02*
X119454819Y-111689519D01*
X119454819Y-111689519D02*
X119454819Y-111499043D01*
X119454819Y-111499043D02*
X119407200Y-111403805D01*
X119407200Y-111403805D02*
X119359580Y-111356186D01*
X119359580Y-111356186D02*
X119264342Y-111308567D01*
X119264342Y-111308567D02*
X118454819Y-111308567D01*
X119407200Y-110879995D02*
X119454819Y-110737138D01*
X119454819Y-110737138D02*
X119454819Y-110499043D01*
X119454819Y-110499043D02*
X119407200Y-110403805D01*
X119407200Y-110403805D02*
X119359580Y-110356186D01*
X119359580Y-110356186D02*
X119264342Y-110308567D01*
X119264342Y-110308567D02*
X119169104Y-110308567D01*
X119169104Y-110308567D02*
X119073866Y-110356186D01*
X119073866Y-110356186D02*
X119026247Y-110403805D01*
X119026247Y-110403805D02*
X118978628Y-110499043D01*
X118978628Y-110499043D02*
X118931009Y-110689519D01*
X118931009Y-110689519D02*
X118883390Y-110784757D01*
X118883390Y-110784757D02*
X118835771Y-110832376D01*
X118835771Y-110832376D02*
X118740533Y-110879995D01*
X118740533Y-110879995D02*
X118645295Y-110879995D01*
X118645295Y-110879995D02*
X118550057Y-110832376D01*
X118550057Y-110832376D02*
X118502438Y-110784757D01*
X118502438Y-110784757D02*
X118454819Y-110689519D01*
X118454819Y-110689519D02*
X118454819Y-110451424D01*
X118454819Y-110451424D02*
X118502438Y-110308567D01*
X118931009Y-109546662D02*
X118978628Y-109403805D01*
X118978628Y-109403805D02*
X119026247Y-109356186D01*
X119026247Y-109356186D02*
X119121485Y-109308567D01*
X119121485Y-109308567D02*
X119264342Y-109308567D01*
X119264342Y-109308567D02*
X119359580Y-109356186D01*
X119359580Y-109356186D02*
X119407200Y-109403805D01*
X119407200Y-109403805D02*
X119454819Y-109499043D01*
X119454819Y-109499043D02*
X119454819Y-109879995D01*
X119454819Y-109879995D02*
X118454819Y-109879995D01*
X118454819Y-109879995D02*
X118454819Y-109546662D01*
X118454819Y-109546662D02*
X118502438Y-109451424D01*
X118502438Y-109451424D02*
X118550057Y-109403805D01*
X118550057Y-109403805D02*
X118645295Y-109356186D01*
X118645295Y-109356186D02*
X118740533Y-109356186D01*
X118740533Y-109356186D02*
X118835771Y-109403805D01*
X118835771Y-109403805D02*
X118883390Y-109451424D01*
X118883390Y-109451424D02*
X118931009Y-109546662D01*
X118931009Y-109546662D02*
X118931009Y-109879995D01*
X118454819Y-108975233D02*
X118454819Y-108308567D01*
X118454819Y-108308567D02*
X119454819Y-108737138D01*
X159657039Y-126571742D02*
X159323706Y-126095551D01*
X159085611Y-126571742D02*
X159085611Y-125571742D01*
X159085611Y-125571742D02*
X159466563Y-125571742D01*
X159466563Y-125571742D02*
X159561801Y-125619361D01*
X159561801Y-125619361D02*
X159609420Y-125666980D01*
X159609420Y-125666980D02*
X159657039Y-125762218D01*
X159657039Y-125762218D02*
X159657039Y-125905075D01*
X159657039Y-125905075D02*
X159609420Y-126000313D01*
X159609420Y-126000313D02*
X159561801Y-126047932D01*
X159561801Y-126047932D02*
X159466563Y-126095551D01*
X159466563Y-126095551D02*
X159085611Y-126095551D01*
X160609420Y-126571742D02*
X160037992Y-126571742D01*
X160323706Y-126571742D02*
X160323706Y-125571742D01*
X160323706Y-125571742D02*
X160228468Y-125714599D01*
X160228468Y-125714599D02*
X160133230Y-125809837D01*
X160133230Y-125809837D02*
X160037992Y-125857456D01*
X132833333Y-110454819D02*
X132500000Y-109978628D01*
X132261905Y-110454819D02*
X132261905Y-109454819D01*
X132261905Y-109454819D02*
X132642857Y-109454819D01*
X132642857Y-109454819D02*
X132738095Y-109502438D01*
X132738095Y-109502438D02*
X132785714Y-109550057D01*
X132785714Y-109550057D02*
X132833333Y-109645295D01*
X132833333Y-109645295D02*
X132833333Y-109788152D01*
X132833333Y-109788152D02*
X132785714Y-109883390D01*
X132785714Y-109883390D02*
X132738095Y-109931009D01*
X132738095Y-109931009D02*
X132642857Y-109978628D01*
X132642857Y-109978628D02*
X132261905Y-109978628D01*
X133690476Y-109454819D02*
X133500000Y-109454819D01*
X133500000Y-109454819D02*
X133404762Y-109502438D01*
X133404762Y-109502438D02*
X133357143Y-109550057D01*
X133357143Y-109550057D02*
X133261905Y-109692914D01*
X133261905Y-109692914D02*
X133214286Y-109883390D01*
X133214286Y-109883390D02*
X133214286Y-110264342D01*
X133214286Y-110264342D02*
X133261905Y-110359580D01*
X133261905Y-110359580D02*
X133309524Y-110407200D01*
X133309524Y-110407200D02*
X133404762Y-110454819D01*
X133404762Y-110454819D02*
X133595238Y-110454819D01*
X133595238Y-110454819D02*
X133690476Y-110407200D01*
X133690476Y-110407200D02*
X133738095Y-110359580D01*
X133738095Y-110359580D02*
X133785714Y-110264342D01*
X133785714Y-110264342D02*
X133785714Y-110026247D01*
X133785714Y-110026247D02*
X133738095Y-109931009D01*
X133738095Y-109931009D02*
X133690476Y-109883390D01*
X133690476Y-109883390D02*
X133595238Y-109835771D01*
X133595238Y-109835771D02*
X133404762Y-109835771D01*
X133404762Y-109835771D02*
X133309524Y-109883390D01*
X133309524Y-109883390D02*
X133261905Y-109931009D01*
X133261905Y-109931009D02*
X133214286Y-110026247D01*
X149454819Y-110403122D02*
X150264342Y-110403122D01*
X150264342Y-110403122D02*
X150359580Y-110355503D01*
X150359580Y-110355503D02*
X150407200Y-110307884D01*
X150407200Y-110307884D02*
X150454819Y-110212646D01*
X150454819Y-110212646D02*
X150454819Y-110022170D01*
X150454819Y-110022170D02*
X150407200Y-109926932D01*
X150407200Y-109926932D02*
X150359580Y-109879313D01*
X150359580Y-109879313D02*
X150264342Y-109831694D01*
X150264342Y-109831694D02*
X149454819Y-109831694D01*
X150454819Y-108831694D02*
X150454819Y-109403122D01*
X150454819Y-109117408D02*
X149454819Y-109117408D01*
X149454819Y-109117408D02*
X149597676Y-109212646D01*
X149597676Y-109212646D02*
X149692914Y-109307884D01*
X149692914Y-109307884D02*
X149740533Y-109403122D01*
%TO.C,C9*%
D14*
X157587836Y-99640000D02*
X157372164Y-99640000D01*
X157587836Y-100360000D02*
X157372164Y-100360000D01*
%TO.C,R2*%
X162660964Y-118201505D02*
X162186448Y-118201505D01*
X162660964Y-119246505D02*
X162186448Y-119246505D01*
%TO.C,C4*%
X124627836Y-113140000D02*
X124412164Y-113140000D01*
X124627836Y-113860000D02*
X124412164Y-113860000D01*
%TO.C,R4*%
X141477500Y-133087742D02*
X141477500Y-133562258D01*
X142522500Y-133087742D02*
X142522500Y-133562258D01*
%TO.C,USB6*%
D15*
X169906206Y-129724005D02*
X167926206Y-129724005D01*
X169916206Y-120654005D02*
X167916206Y-120654005D01*
X173346206Y-120654005D02*
X171866206Y-120654005D01*
X173486206Y-120724005D02*
X173486206Y-129724005D01*
X173486206Y-129724005D02*
X171876206Y-129724005D01*
D16*
X165896206Y-129674005D02*
G75*
G02*
X165836206Y-129674005I-30000J0D01*
G01*
X165836206Y-129674005D02*
G75*
G02*
X165896206Y-129674005I30000J0D01*
G01*
%TO.C,C3*%
D14*
X137502164Y-80580000D02*
X137717836Y-80580000D01*
X137502164Y-81300000D02*
X137717836Y-81300000D01*
%TO.C,C8*%
X157607836Y-100640000D02*
X157392164Y-100640000D01*
X157607836Y-101360000D02*
X157392164Y-101360000D01*
%TO.C,C11*%
X148067836Y-117640000D02*
X147852164Y-117640000D01*
X148067836Y-118360000D02*
X147852164Y-118360000D01*
%TO.C,R5*%
X127237258Y-121119401D02*
X126762742Y-121119401D01*
X127237258Y-122164401D02*
X126762742Y-122164401D01*
%TO.C,C10*%
X148107836Y-115640000D02*
X147892164Y-115640000D01*
X148107836Y-116360000D02*
X147892164Y-116360000D01*
%TO.C,USB8*%
D15*
X157450000Y-74400000D02*
X157450000Y-76710000D01*
X157450000Y-79210000D02*
X157450000Y-78290000D01*
X157450000Y-81210000D02*
X157450000Y-80790000D01*
X157450000Y-83710000D02*
X157450000Y-82790000D01*
X157450000Y-85290000D02*
X157450000Y-87600000D01*
X157450000Y-87600000D02*
X163130000Y-87600000D01*
X159800000Y-82490000D02*
X165540000Y-82850000D01*
X159800000Y-82880000D02*
X159800000Y-82490000D01*
X159800000Y-85720000D02*
X164930000Y-85220000D01*
X159800000Y-86230000D02*
X159800000Y-85720000D01*
X159860000Y-79390000D02*
X159870000Y-78890000D01*
X159870000Y-75670000D02*
X165600000Y-76010000D01*
X159870000Y-76050000D02*
X159870000Y-75670000D01*
X159870000Y-78890000D02*
X164410000Y-78380000D01*
X160300000Y-76080000D02*
X159870000Y-76050000D01*
X162060000Y-85440000D02*
X162060000Y-83180000D01*
X162160000Y-78560000D02*
X162160000Y-76300000D01*
X163130000Y-74400000D02*
X157450000Y-74400000D01*
X163270000Y-85300000D02*
X163270000Y-83270000D01*
X163370000Y-78420000D02*
X163370000Y-76390000D01*
X164410000Y-78380000D02*
X165080000Y-78300000D01*
X164930000Y-83470000D02*
X159800000Y-82880000D01*
X164930000Y-85220000D02*
X164930000Y-83470000D01*
X165070000Y-76550000D02*
X160300000Y-76080000D01*
X165080000Y-78300000D02*
X165070000Y-76550000D01*
X165540000Y-82850000D02*
X165540000Y-85750000D01*
X165540000Y-85750000D02*
X159800000Y-86230000D01*
X165600000Y-76010000D02*
X165600000Y-78900000D01*
X165600000Y-78900000D02*
X159860000Y-79390000D01*
X166660000Y-87600000D02*
X167490000Y-87600000D01*
X167490000Y-74400000D02*
X166660000Y-74400000D01*
X167490000Y-87600000D02*
X167490000Y-74400000D01*
%TO.C,C2*%
D14*
X154140000Y-134412164D02*
X154140000Y-134627836D01*
X154860000Y-134412164D02*
X154860000Y-134627836D01*
%TO.C,R3*%
X151977500Y-134587742D02*
X151977500Y-135062258D01*
X153022500Y-134587742D02*
X153022500Y-135062258D01*
%TO.C,USB2*%
D15*
X138646282Y-142018782D02*
X138646282Y-140038782D01*
X138646282Y-145598782D02*
X138646282Y-143988782D01*
X147646282Y-145598782D02*
X138646282Y-145598782D01*
X147716282Y-142028782D02*
X147716282Y-140028782D01*
X147716282Y-145458782D02*
X147716282Y-143978782D01*
D16*
X138726282Y-137978782D02*
G75*
G02*
X138666282Y-137978782I-30000J0D01*
G01*
X138666282Y-137978782D02*
G75*
G02*
X138726282Y-137978782I30000J0D01*
G01*
%TO.C,C6*%
D14*
X153087836Y-103140000D02*
X152872164Y-103140000D01*
X153087836Y-103860000D02*
X152872164Y-103860000D01*
%TO.C,C1*%
X163186542Y-128864005D02*
X162970870Y-128864005D01*
X163186542Y-129584005D02*
X162970870Y-129584005D01*
%TO.C,USB5*%
D15*
X122510000Y-78121218D02*
X122510000Y-91321218D01*
X122510000Y-91321218D02*
X123340000Y-91321218D01*
X123340000Y-78121218D02*
X122510000Y-78121218D01*
X124400000Y-86821218D02*
X130140000Y-86331218D01*
X124400000Y-89711218D02*
X124400000Y-86821218D01*
X124460000Y-79971218D02*
X130200000Y-79491218D01*
X124460000Y-82871218D02*
X124460000Y-79971218D01*
X124920000Y-87421218D02*
X124930000Y-89171218D01*
X124930000Y-89171218D02*
X129700000Y-89641218D01*
X125070000Y-80501218D02*
X125070000Y-82251218D01*
X125070000Y-82251218D02*
X130200000Y-82841218D01*
X125590000Y-87341218D02*
X124920000Y-87421218D01*
X126630000Y-87301218D02*
X126630000Y-89331218D01*
X126730000Y-80421218D02*
X126730000Y-82451218D01*
X126870000Y-91321218D02*
X132550000Y-91321218D01*
X127840000Y-87161218D02*
X127840000Y-89421218D01*
X127940000Y-80281218D02*
X127940000Y-82541218D01*
X129700000Y-89641218D02*
X130130000Y-89671218D01*
X130130000Y-86831218D02*
X125590000Y-87341218D01*
X130130000Y-89671218D02*
X130130000Y-90051218D01*
X130130000Y-90051218D02*
X124400000Y-89711218D01*
X130140000Y-86331218D02*
X130130000Y-86831218D01*
X130200000Y-79491218D02*
X130200000Y-80001218D01*
X130200000Y-80001218D02*
X125070000Y-80501218D01*
X130200000Y-82841218D02*
X130200000Y-83231218D01*
X130200000Y-83231218D02*
X124460000Y-82871218D01*
X132550000Y-78121218D02*
X126870000Y-78121218D01*
X132550000Y-80431218D02*
X132550000Y-78121218D01*
X132550000Y-82011218D02*
X132550000Y-82931218D01*
X132550000Y-84511218D02*
X132550000Y-84931218D01*
X132550000Y-86511218D02*
X132550000Y-87431218D01*
X132550000Y-91321218D02*
X132550000Y-89011218D01*
D16*
X133930000Y-78121218D02*
G75*
G02*
X133870000Y-78121218I-30000J0D01*
G01*
X133870000Y-78121218D02*
G75*
G02*
X133930000Y-78121218I30000J0D01*
G01*
%TO.C,C7*%
D14*
X153087836Y-102140000D02*
X152872164Y-102140000D01*
X153087836Y-102860000D02*
X152872164Y-102860000D01*
%TO.C,C5*%
X153892164Y-87140000D02*
X154107836Y-87140000D01*
X153892164Y-87860000D02*
X154107836Y-87860000D01*
%TO.C,USB7*%
D15*
X114112500Y-113883119D02*
X115722500Y-113883119D01*
X114112500Y-122883119D02*
X114112500Y-113883119D01*
X114252500Y-122953119D02*
X115732500Y-122953119D01*
X117682500Y-122953119D02*
X119682500Y-122953119D01*
X117692500Y-113883119D02*
X119672500Y-113883119D01*
D16*
X121762500Y-113933119D02*
G75*
G02*
X121702500Y-113933119I-30000J0D01*
G01*
X121702500Y-113933119D02*
G75*
G02*
X121762500Y-113933119I30000J0D01*
G01*
%TO.C,R1*%
D14*
X162835964Y-125594423D02*
X162361448Y-125594423D01*
X162835964Y-126639423D02*
X162361448Y-126639423D01*
%TO.C,R6*%
X129262742Y-109477500D02*
X129737258Y-109477500D01*
X129262742Y-110522500D02*
X129737258Y-110522500D01*
%TO.C,U1*%
D15*
X144250000Y-108341218D02*
X144250000Y-109141218D01*
X144250000Y-108341218D02*
X144290000Y-108341218D01*
X144250000Y-110941218D02*
X144250000Y-110141218D01*
X144250000Y-110941218D02*
X144290000Y-110941218D01*
X148710000Y-108341218D02*
X148750000Y-108341218D01*
X148750000Y-108341218D02*
X148750000Y-110941218D01*
X148750000Y-110941218D02*
X148710000Y-110941218D01*
X144250000Y-109141218D02*
G75*
G02*
X144257068Y-110141168I1J-500000D01*
G01*
X144310000Y-111501218D02*
G75*
G02*
X144050000Y-111501218I-130000J0D01*
G01*
X144050000Y-111501218D02*
G75*
G02*
X144310000Y-111501218I130000J0D01*
G01*
D16*
X144260000Y-111611218D02*
G75*
G02*
X144200000Y-111611218I-30000J0D01*
G01*
X144200000Y-111611218D02*
G75*
G02*
X144260000Y-111611218I30000J0D01*
G01*
%TD*%
M02*
