%TF.GenerationSoftware,KiCad,Pcbnew,10.0.1*%
%TF.CreationDate,2026-06-14T09:23:57+08:00*%
%TF.ProjectId,USB_HUB,5553425f-4855-4422-9e6b-696361645f70,rev?*%
%TF.SameCoordinates,Original*%
%TF.FileFunction,Copper,L2,Bot*%
%TF.FilePolarity,Positive*%
%FSLAX46Y46*%
G04 Gerber Fmt 4.6, Leading zero omitted, Abs format (unit mm)*
G04 Created by KiCad (PCBNEW 10.0.1) date 2026-06-14 09:23:57*
%MOMM*%
%LPD*%
G01*
G04 APERTURE LIST*
G04 Aperture macros list*
%AMHorizOval*
0 Thick line with rounded ends*
0 $1 width*
0 $2 $3 position (X,Y) of the first rounded end (center of the circle)*
0 $4 $5 position (X,Y) of the second rounded end (center of the circle)*
0 Add line between two ends*
20,1,$1,$2,$3,$4,$5,0*
0 Add two circle primitives to create the rounded ends*
1,1,$1,$2,$3*
1,1,$1,$4,$5*%
G04 Aperture macros list end*
%TA.AperFunction,NonConductor*%
%ADD10C,0.200000*%
%TD*%
%TA.AperFunction,ComponentPad*%
%ADD11O,2.000000X1.100000*%
%TD*%
%TA.AperFunction,ComponentPad*%
%ADD12O,1.800000X1.200000*%
%TD*%
%TA.AperFunction,ComponentPad*%
%ADD13HorizOval,1.200000X0.778194X0.544898X-0.778194X-0.544898X0*%
%TD*%
%TA.AperFunction,ComponentPad*%
%ADD14O,1.100000X2.000000*%
%TD*%
%TA.AperFunction,ComponentPad*%
%ADD15O,1.200000X1.800000*%
%TD*%
%TA.AperFunction,ComponentPad*%
%ADD16HorizOval,1.200000X-0.778194X0.544898X0.778194X-0.544898X0*%
%TD*%
%TA.AperFunction,ViaPad*%
%ADD17C,0.600000*%
%TD*%
%TA.AperFunction,Conductor*%
%ADD18C,0.200000*%
%TD*%
G04 APERTURE END LIST*
D10*
X101500000Y-52000000D02*
X188000000Y-52000000D01*
X188000000Y-156500000D01*
X101500000Y-156500000D01*
X101500000Y-52000000D01*
D11*
%TO.P,USB6,13,SHELL_13*%
%TO.N,GND*%
X172587500Y-118820000D03*
D12*
X176797500Y-118820000D03*
D11*
%TO.P,USB6,14,SHELL_14*%
X172587500Y-110180000D03*
D12*
X176797500Y-110180000D03*
%TD*%
D13*
%TO.P,USB8,5,5_5*%
%TO.N,GND*%
X167419136Y-78689200D03*
%TO.P,USB8,6,6_6*%
X160020000Y-68122139D03*
%TD*%
D14*
%TO.P,USB2,13,SHELL_13*%
%TO.N,GND*%
X141180000Y-142890000D03*
D15*
X141180000Y-147100000D03*
D14*
%TO.P,USB2,14,SHELL_14*%
X149820000Y-142890000D03*
D15*
X149820000Y-147100000D03*
%TD*%
D16*
%TO.P,USB5,5,5_5*%
%TO.N,GND*%
X128912736Y-70888414D03*
%TO.P,USB5,6,6_6*%
X121513601Y-81455476D03*
%TD*%
D11*
%TO.P,USB7,13,SHELL_13*%
%TO.N,GND*%
X118412500Y-114063119D03*
D12*
X114202500Y-114063119D03*
D11*
%TO.P,USB7,14,SHELL_14*%
X118412500Y-122703119D03*
D12*
X114202500Y-122703119D03*
%TD*%
D17*
%TO.N,GND*%
X146900000Y-105800000D03*
X152000000Y-77300000D03*
X158200000Y-88300000D03*
X144900000Y-83600000D03*
X167386000Y-119126000D03*
X165200000Y-111200000D03*
X138500000Y-79200000D03*
X142240000Y-140713700D03*
X156600000Y-121600000D03*
X156600000Y-113300000D03*
X143100000Y-125900000D03*
X149400000Y-111600000D03*
X136150000Y-88298527D03*
X149800000Y-102600000D03*
X151600000Y-125700000D03*
X167600000Y-117300000D03*
X154100000Y-89900000D03*
X155800000Y-99900000D03*
X132800000Y-85900000D03*
X139900000Y-108200000D03*
X138300000Y-117700000D03*
X134600000Y-95100000D03*
X147500000Y-119300000D03*
X155700000Y-101100000D03*
X147500000Y-114800000D03*
X149900000Y-103500000D03*
%TO.N,+5V*%
X121400000Y-115200000D03*
X142600000Y-139000000D03*
%TO.N,/DP*%
X162000000Y-117400000D03*
X170300000Y-113500000D03*
X170400000Y-114750000D03*
X148800000Y-113100000D03*
%TO.N,/DN4*%
X152000000Y-82800000D03*
X141700000Y-81700000D03*
%TO.N,/DN1*%
X145850000Y-140900000D03*
X144688000Y-144400000D03*
%TO.N,/DP1*%
X145150000Y-129100000D03*
X143100000Y-124800000D03*
%TO.N,/DP2*%
X120700000Y-118033119D03*
X141400000Y-108900000D03*
X138887500Y-113400000D03*
X117400000Y-118900000D03*
%TO.N,/DN3*%
X135300000Y-87500000D03*
X145100000Y-105300000D03*
%TO.N,/DP3*%
X137500000Y-88200000D03*
X133200000Y-84500000D03*
%TD*%
%TO.N,/DP*%
D18*
X170300000Y-114650000D02*
X170400000Y-114750000D01*
X170300000Y-113500000D02*
X170300000Y-114650000D01*
X153100000Y-117400000D02*
X148800000Y-113100000D01*
X162000000Y-117400000D02*
X153100000Y-117400000D01*
%TO.N,/DN4*%
X152000000Y-82800000D02*
X142800000Y-82800000D01*
X142800000Y-82800000D02*
X141700000Y-81700000D01*
%TO.N,/DN1*%
X144688000Y-144400000D02*
X145850000Y-143238000D01*
X145850000Y-143238000D02*
X145850000Y-140900000D01*
%TO.N,/DP1*%
X141500000Y-125500000D02*
X142200000Y-124800000D01*
X141500000Y-129100000D02*
X141500000Y-125500000D01*
X145150000Y-129100000D02*
X141500000Y-129100000D01*
X142200000Y-124800000D02*
X143100000Y-124800000D01*
%TO.N,/DP2*%
X138900000Y-113387500D02*
X138887500Y-113400000D01*
X117400000Y-118900000D02*
X118100000Y-118200000D01*
X118100000Y-118200000D02*
X120533119Y-118200000D01*
X120533119Y-118200000D02*
X120700000Y-118033119D01*
X138900000Y-111400000D02*
X138900000Y-113387500D01*
X141400000Y-108900000D02*
X138900000Y-111400000D01*
%TO.N,/DN3*%
X135300000Y-95500000D02*
X145100000Y-105300000D01*
X135300000Y-87500000D02*
X135300000Y-95500000D01*
%TO.N,/DP3*%
X133200000Y-84500000D02*
X136900000Y-88200000D01*
X136900000Y-88200000D02*
X137500000Y-88200000D01*
%TD*%
%TA.AperFunction,Conductor*%
%TO.N,GND*%
G36*
X147301972Y-59574913D02*
G01*
X147314136Y-59576124D01*
X148979423Y-59825476D01*
X148990994Y-59827776D01*
X150630213Y-60235597D01*
X150640967Y-60238796D01*
X152252514Y-60798825D01*
X152262340Y-60802716D01*
X153844469Y-61508708D01*
X153853304Y-61513080D01*
X155404096Y-62358740D01*
X155411953Y-62363408D01*
X156929511Y-63342441D01*
X156936444Y-63347256D01*
X158418689Y-64453239D01*
X158424779Y-64458087D01*
X159869747Y-65684631D01*
X159875083Y-65689434D01*
X160531336Y-66315333D01*
X160566263Y-66375847D01*
X160562930Y-66445637D01*
X160522394Y-66502546D01*
X160482010Y-66523646D01*
X160393805Y-66550613D01*
X160393791Y-66550619D01*
X160238175Y-66626517D01*
X159593853Y-67077676D01*
X159593852Y-67077677D01*
X160024028Y-67692032D01*
X159614453Y-67978819D01*
X159184278Y-67364465D01*
X158539957Y-67815625D01*
X158415407Y-67935901D01*
X158415404Y-67935904D01*
X158311207Y-68074179D01*
X158229925Y-68227047D01*
X158229919Y-68227060D01*
X158173552Y-68390762D01*
X158173548Y-68390777D01*
X158143484Y-68561279D01*
X158143483Y-68561282D01*
X158140463Y-68734391D01*
X158140464Y-68734406D01*
X158164558Y-68905849D01*
X158164561Y-68905860D01*
X158215180Y-69071431D01*
X158215186Y-69071446D01*
X158218545Y-69078334D01*
X158218548Y-69078334D01*
X158938696Y-68574080D01*
X158930079Y-68622951D01*
X158938112Y-68714761D01*
X158969632Y-68801362D01*
X159022492Y-68876855D01*
X159093091Y-68936094D01*
X159176616Y-68975042D01*
X159225481Y-68983658D01*
X158505335Y-69487911D01*
X158510668Y-69493434D01*
X158648948Y-69597635D01*
X158801816Y-69678917D01*
X158801829Y-69678923D01*
X158965531Y-69735290D01*
X158965546Y-69735294D01*
X159136048Y-69765358D01*
X159136051Y-69765359D01*
X159309160Y-69768379D01*
X159309175Y-69768378D01*
X159480618Y-69744284D01*
X159480629Y-69744281D01*
X159646202Y-69693660D01*
X159646208Y-69693658D01*
X159801821Y-69617762D01*
X160446145Y-69166599D01*
X160015970Y-68552246D01*
X160425546Y-68265457D01*
X160855720Y-68879811D01*
X161500045Y-68428649D01*
X161624592Y-68308376D01*
X161624595Y-68308373D01*
X161728792Y-68170100D01*
X161810079Y-68017219D01*
X161810079Y-68017218D01*
X161850570Y-67899627D01*
X161891008Y-67842649D01*
X161955831Y-67816578D01*
X162024459Y-67829692D01*
X162058071Y-67854971D01*
X162637132Y-68469652D01*
X162649545Y-68482828D01*
X162653647Y-68487404D01*
X163974387Y-70036461D01*
X163977993Y-70040893D01*
X165253286Y-71684345D01*
X165256466Y-71688630D01*
X166484291Y-73419868D01*
X166487103Y-73424009D01*
X167623163Y-75171353D01*
X167665477Y-75236434D01*
X167667978Y-75240446D01*
X168665504Y-76910743D01*
X168682977Y-76978392D01*
X168661103Y-77044749D01*
X168606825Y-77088746D01*
X168537378Y-77096414D01*
X168518675Y-77091567D01*
X168473601Y-77076047D01*
X168473589Y-77076044D01*
X168303087Y-77045980D01*
X168303084Y-77045979D01*
X168129975Y-77042959D01*
X168129960Y-77042960D01*
X167958517Y-77067054D01*
X167958506Y-77067057D01*
X167792933Y-77117678D01*
X167792927Y-77117680D01*
X167637311Y-77193578D01*
X166992989Y-77644737D01*
X166992988Y-77644738D01*
X167423164Y-78259093D01*
X167013589Y-78545880D01*
X166583414Y-77931526D01*
X165939093Y-78382686D01*
X165814543Y-78502962D01*
X165814540Y-78502965D01*
X165710343Y-78641240D01*
X165629061Y-78794108D01*
X165629055Y-78794121D01*
X165572688Y-78957823D01*
X165572684Y-78957838D01*
X165542620Y-79128340D01*
X165542619Y-79128343D01*
X165539599Y-79301452D01*
X165539600Y-79301467D01*
X165563694Y-79472910D01*
X165563697Y-79472921D01*
X165614316Y-79638492D01*
X165614322Y-79638507D01*
X165617681Y-79645395D01*
X165617684Y-79645395D01*
X166337832Y-79141141D01*
X166329215Y-79190012D01*
X166337248Y-79281822D01*
X166368768Y-79368423D01*
X166421628Y-79443916D01*
X166492227Y-79503155D01*
X166575752Y-79542103D01*
X166624617Y-79550719D01*
X165904471Y-80054972D01*
X165909804Y-80060495D01*
X166048084Y-80164696D01*
X166200952Y-80245978D01*
X166200965Y-80245984D01*
X166364667Y-80302351D01*
X166364682Y-80302355D01*
X166535184Y-80332419D01*
X166535187Y-80332420D01*
X166708296Y-80335440D01*
X166708311Y-80335439D01*
X166879754Y-80311345D01*
X166879765Y-80311342D01*
X167045338Y-80260721D01*
X167045344Y-80260719D01*
X167200957Y-80184823D01*
X167845281Y-79733660D01*
X167415106Y-79119307D01*
X167824682Y-78832518D01*
X168254856Y-79446872D01*
X168899181Y-78995710D01*
X169023728Y-78875437D01*
X169023731Y-78875434D01*
X169127928Y-78737161D01*
X169209215Y-78584280D01*
X169209217Y-78584275D01*
X169266740Y-78417218D01*
X169307178Y-78360239D01*
X169372001Y-78334168D01*
X169440629Y-78347282D01*
X169491273Y-78395418D01*
X169492674Y-78397902D01*
X169870655Y-79086214D01*
X169872652Y-79090005D01*
X170235853Y-79809235D01*
X170863381Y-81051903D01*
X170890826Y-81106250D01*
X170892617Y-81109948D01*
X171016087Y-81376059D01*
X171853478Y-83180866D01*
X171855097Y-83184506D01*
X172756748Y-85303571D01*
X172758211Y-85307164D01*
X173598673Y-87467636D01*
X173599997Y-87471201D01*
X174377366Y-89666507D01*
X174378566Y-89670066D01*
X175090919Y-91893573D01*
X175092004Y-91897145D01*
X175737427Y-94142226D01*
X175738405Y-94145833D01*
X176314971Y-96405796D01*
X176315847Y-96409460D01*
X176821681Y-98677785D01*
X176822456Y-98681530D01*
X177255649Y-100951566D01*
X177256321Y-100955418D01*
X177614959Y-103220424D01*
X177615524Y-103224407D01*
X177897739Y-105477906D01*
X177898187Y-105482051D01*
X178102081Y-107717248D01*
X178102400Y-107721583D01*
X178198316Y-109435416D01*
X178182409Y-109503451D01*
X178132244Y-109552085D01*
X178063749Y-109565877D01*
X177998671Y-109540449D01*
X177974192Y-109515230D01*
X177936538Y-109463404D01*
X177936534Y-109463399D01*
X177814102Y-109340967D01*
X177674024Y-109239195D01*
X177519757Y-109160591D01*
X177355084Y-109107085D01*
X177184071Y-109080000D01*
X177047500Y-109080000D01*
X177047500Y-109880001D01*
X176547500Y-109880001D01*
X176547500Y-109080000D01*
X176410929Y-109080000D01*
X176239915Y-109107085D01*
X176075242Y-109160591D01*
X175920975Y-109239195D01*
X175780897Y-109340967D01*
X175658467Y-109463397D01*
X175556695Y-109603475D01*
X175478091Y-109757744D01*
X175424585Y-109922415D01*
X175423384Y-109929999D01*
X175423385Y-109930000D01*
X176330514Y-109930000D01*
X176313296Y-109939941D01*
X176257441Y-109995796D01*
X176217945Y-110064205D01*
X176197501Y-110140504D01*
X176197501Y-110219496D01*
X176217945Y-110295795D01*
X176257441Y-110364204D01*
X176313296Y-110420059D01*
X176330514Y-110430000D01*
X175423385Y-110430000D01*
X175424585Y-110437584D01*
X175478091Y-110602255D01*
X175556695Y-110756524D01*
X175658467Y-110896602D01*
X175780897Y-111019032D01*
X175920975Y-111120804D01*
X176075242Y-111199408D01*
X176239915Y-111252914D01*
X176410929Y-111280000D01*
X176547500Y-111280000D01*
X176547500Y-110479999D01*
X177047500Y-110479999D01*
X177047500Y-111280000D01*
X177184071Y-111280000D01*
X177355084Y-111252914D01*
X177519757Y-111199408D01*
X177674024Y-111120804D01*
X177814102Y-111019032D01*
X177936536Y-110896598D01*
X178019495Y-110782413D01*
X178074825Y-110739746D01*
X178144438Y-110733767D01*
X178206233Y-110766372D01*
X178240591Y-110827210D01*
X178243791Y-110852927D01*
X178267921Y-112115290D01*
X178267921Y-112120039D01*
X178227017Y-114252061D01*
X178226828Y-114256933D01*
X178105345Y-116330781D01*
X178104949Y-116335792D01*
X177954264Y-117852140D01*
X177928047Y-117916904D01*
X177870977Y-117957213D01*
X177801174Y-117960269D01*
X177757988Y-117940197D01*
X177674027Y-117879197D01*
X177519757Y-117800591D01*
X177355084Y-117747085D01*
X177184071Y-117720000D01*
X177047500Y-117720000D01*
X177047500Y-118520001D01*
X176547500Y-118520001D01*
X176547500Y-117720000D01*
X176410929Y-117720000D01*
X176239915Y-117747085D01*
X176075242Y-117800591D01*
X175920975Y-117879195D01*
X175780897Y-117980967D01*
X175658467Y-118103397D01*
X175556695Y-118243475D01*
X175478091Y-118397744D01*
X175424585Y-118562415D01*
X175423384Y-118569999D01*
X175423385Y-118570000D01*
X176330514Y-118570000D01*
X176313296Y-118579941D01*
X176257441Y-118635796D01*
X176217945Y-118704205D01*
X176197501Y-118780504D01*
X176197501Y-118859496D01*
X176217945Y-118935795D01*
X176257441Y-119004204D01*
X176313296Y-119060059D01*
X176330514Y-119070000D01*
X175423385Y-119070000D01*
X175424585Y-119077584D01*
X175478091Y-119242255D01*
X175556695Y-119396524D01*
X175658467Y-119536602D01*
X175780897Y-119659032D01*
X175920975Y-119760804D01*
X176075242Y-119839408D01*
X176239915Y-119892914D01*
X176410929Y-119920000D01*
X176547500Y-119920000D01*
X176547500Y-119119999D01*
X177047500Y-119119999D01*
X177047500Y-119920000D01*
X177184071Y-119920000D01*
X177355084Y-119892914D01*
X177513267Y-119841516D01*
X177583108Y-119839521D01*
X177642941Y-119875601D01*
X177673770Y-119938301D01*
X177674359Y-119976848D01*
X177626961Y-120311275D01*
X177626101Y-120316530D01*
X177273878Y-122211836D01*
X177272759Y-122217195D01*
X176847295Y-124051719D01*
X176845902Y-124057163D01*
X176349019Y-125830318D01*
X176347335Y-125835829D01*
X175780892Y-127546914D01*
X175778906Y-127552468D01*
X175144683Y-129201004D01*
X175142382Y-129206577D01*
X174442228Y-130791876D01*
X174439604Y-130797439D01*
X173675337Y-132318905D01*
X173672385Y-132324430D01*
X172845820Y-133781453D01*
X172842538Y-133786907D01*
X171955464Y-135178924D01*
X171951854Y-135184276D01*
X171006077Y-136510668D01*
X171002147Y-136515883D01*
X169999462Y-137776052D01*
X169995222Y-137781099D01*
X168937419Y-138974442D01*
X168932885Y-138979289D01*
X167821740Y-140105207D01*
X167816931Y-140109825D01*
X166654219Y-141167712D01*
X166649158Y-141172074D01*
X165436622Y-142161339D01*
X165431335Y-142165420D01*
X164170765Y-143085424D01*
X164165281Y-143089205D01*
X162858425Y-143939341D01*
X162852773Y-143942806D01*
X161501390Y-144722439D01*
X161495603Y-144725576D01*
X160101449Y-145434072D01*
X160095557Y-145436874D01*
X158660362Y-146073605D01*
X158654398Y-146076067D01*
X157179992Y-146640352D01*
X157173985Y-146642476D01*
X155662040Y-147133696D01*
X155656019Y-147135485D01*
X154108346Y-147552965D01*
X154102338Y-147554426D01*
X152520668Y-147897508D01*
X152514696Y-147898651D01*
X150900831Y-148166660D01*
X150894917Y-148167496D01*
X150877751Y-148169503D01*
X150808879Y-148157737D01*
X150757302Y-148110603D01*
X150739394Y-148043067D01*
X150759308Y-147981324D01*
X150758258Y-147980681D01*
X150760799Y-147976533D01*
X150839408Y-147822257D01*
X150892914Y-147657584D01*
X150920000Y-147486571D01*
X150920000Y-147350000D01*
X150119999Y-147350000D01*
X150119999Y-146850000D01*
X150920000Y-146850000D01*
X150920000Y-146713428D01*
X150892914Y-146542415D01*
X150839408Y-146377742D01*
X150760804Y-146223475D01*
X150659032Y-146083397D01*
X150536602Y-145960967D01*
X150396524Y-145859195D01*
X150242257Y-145780591D01*
X150077589Y-145727087D01*
X150077581Y-145727085D01*
X150070000Y-145725884D01*
X150070000Y-146633014D01*
X150060059Y-146615796D01*
X150004204Y-146559941D01*
X149935795Y-146520445D01*
X149859496Y-146500001D01*
X149780504Y-146500001D01*
X149704205Y-146520445D01*
X149635796Y-146559941D01*
X149579941Y-146615796D01*
X149570000Y-146633014D01*
X149570000Y-145725884D01*
X149569999Y-145725884D01*
X149562418Y-145727085D01*
X149562410Y-145727087D01*
X149397742Y-145780591D01*
X149243475Y-145859195D01*
X149103397Y-145960967D01*
X148980967Y-146083397D01*
X148879195Y-146223475D01*
X148800591Y-146377742D01*
X148747085Y-146542415D01*
X148720000Y-146713428D01*
X148720000Y-146850000D01*
X149520001Y-146850000D01*
X149520001Y-147350000D01*
X148720000Y-147350000D01*
X148720000Y-147486571D01*
X148747085Y-147657584D01*
X148800591Y-147822257D01*
X148879195Y-147976524D01*
X148980967Y-148116602D01*
X149033405Y-148169040D01*
X149066890Y-148230363D01*
X149061906Y-148300055D01*
X149020034Y-148355988D01*
X148954570Y-148380405D01*
X148954291Y-148380425D01*
X147571871Y-148476162D01*
X147566131Y-148476426D01*
X145866317Y-148515194D01*
X145860670Y-148515194D01*
X144156393Y-148476424D01*
X144150711Y-148476164D01*
X142464700Y-148360292D01*
X142458978Y-148359765D01*
X142100737Y-148318397D01*
X142036398Y-148291153D01*
X141997002Y-148233448D01*
X141995058Y-148163606D01*
X142017212Y-148121301D01*
X142016169Y-148120544D01*
X142120804Y-147976524D01*
X142199408Y-147822257D01*
X142252914Y-147657584D01*
X142280000Y-147486571D01*
X142280000Y-147350000D01*
X141479999Y-147350000D01*
X141479999Y-146850000D01*
X142280000Y-146850000D01*
X142280000Y-146713428D01*
X142252914Y-146542415D01*
X142199408Y-146377742D01*
X142120804Y-146223475D01*
X142019032Y-146083397D01*
X141896602Y-145960967D01*
X141756524Y-145859195D01*
X141602257Y-145780591D01*
X141437589Y-145727087D01*
X141437581Y-145727085D01*
X141430000Y-145725884D01*
X141430000Y-146633014D01*
X141420059Y-146615796D01*
X141364204Y-146559941D01*
X141295795Y-146520445D01*
X141219496Y-146500001D01*
X141140504Y-146500001D01*
X141064205Y-146520445D01*
X140995796Y-146559941D01*
X140939941Y-146615796D01*
X140930000Y-146633014D01*
X140930000Y-145725884D01*
X140929999Y-145725884D01*
X140922418Y-145727085D01*
X140922410Y-145727087D01*
X140757742Y-145780591D01*
X140603475Y-145859195D01*
X140463397Y-145960967D01*
X140340967Y-146083397D01*
X140239195Y-146223475D01*
X140160591Y-146377742D01*
X140107085Y-146542415D01*
X140080000Y-146713428D01*
X140080000Y-146850000D01*
X140880001Y-146850000D01*
X140880001Y-147350000D01*
X140080000Y-147350000D01*
X140080000Y-147486571D01*
X140107085Y-147657584D01*
X140160593Y-147822262D01*
X140183953Y-147868107D01*
X140196850Y-147936776D01*
X140170574Y-148001516D01*
X140113468Y-148041774D01*
X140053493Y-148046782D01*
X139145525Y-147898574D01*
X139139756Y-147897492D01*
X137522727Y-147554288D01*
X137516956Y-147552918D01*
X135927660Y-147135268D01*
X135921901Y-147133605D01*
X134948541Y-146826821D01*
X134362629Y-146642153D01*
X134356898Y-146640192D01*
X132830030Y-146075603D01*
X132824346Y-146073340D01*
X131332230Y-145436275D01*
X131326610Y-145433708D01*
X129871542Y-144724800D01*
X129866007Y-144721929D01*
X128450373Y-143941848D01*
X128444943Y-143938674D01*
X127242285Y-143194067D01*
X127242285Y-143194066D01*
X127071053Y-143088051D01*
X127065751Y-143084578D01*
X126123670Y-142432448D01*
X125985175Y-142336579D01*
X140130000Y-142336579D01*
X140130000Y-142640000D01*
X140880001Y-142640000D01*
X140880001Y-143140000D01*
X140130000Y-143140000D01*
X140130000Y-143443420D01*
X140170348Y-143646266D01*
X140170350Y-143646274D01*
X140249500Y-143837358D01*
X140249505Y-143837368D01*
X140364410Y-144009335D01*
X140364413Y-144009339D01*
X140510660Y-144155586D01*
X140510664Y-144155589D01*
X140682631Y-144270494D01*
X140682641Y-144270499D01*
X140873723Y-144349648D01*
X140873725Y-144349649D01*
X140930000Y-144360842D01*
X140930000Y-143506985D01*
X140939941Y-143524204D01*
X140995796Y-143580059D01*
X141064205Y-143619555D01*
X141140504Y-143639999D01*
X141219496Y-143639999D01*
X141295795Y-143619555D01*
X141364204Y-143580059D01*
X141420059Y-143524204D01*
X141430000Y-143506985D01*
X141430000Y-144360842D01*
X141486274Y-144349649D01*
X141486276Y-144349648D01*
X141555069Y-144321153D01*
X143887500Y-144321153D01*
X143887500Y-144478846D01*
X143918261Y-144633489D01*
X143918264Y-144633501D01*
X143978602Y-144779172D01*
X143978609Y-144779185D01*
X144066210Y-144910288D01*
X144066213Y-144910292D01*
X144177707Y-145021786D01*
X144177711Y-145021789D01*
X144308814Y-145109390D01*
X144308827Y-145109397D01*
X144454498Y-145169735D01*
X144454503Y-145169737D01*
X144609153Y-145200499D01*
X144609156Y-145200500D01*
X144609158Y-145200500D01*
X144766844Y-145200500D01*
X144766845Y-145200499D01*
X144921497Y-145169737D01*
X145067179Y-145109394D01*
X145198289Y-145021789D01*
X145309789Y-144910289D01*
X145397394Y-144779179D01*
X145457737Y-144633497D01*
X145477113Y-144536085D01*
X145488638Y-144478150D01*
X145521023Y-144416239D01*
X145522521Y-144414713D01*
X146218713Y-143718521D01*
X146218716Y-143718520D01*
X146330520Y-143606716D01*
X146380639Y-143519904D01*
X146409577Y-143469785D01*
X146444100Y-143340943D01*
X147789500Y-143340943D01*
X147789500Y-143499057D01*
X147828945Y-143646266D01*
X147830423Y-143651783D01*
X147830426Y-143651790D01*
X147909475Y-143788709D01*
X147909479Y-143788714D01*
X147909480Y-143788716D01*
X148021284Y-143900520D01*
X148021286Y-143900521D01*
X148021290Y-143900524D01*
X148094526Y-143942806D01*
X148158216Y-143979577D01*
X148310943Y-144020500D01*
X148310945Y-144020500D01*
X148469055Y-144020500D01*
X148469057Y-144020500D01*
X148621784Y-143979577D01*
X148758716Y-143900520D01*
X148758719Y-143900516D01*
X148765166Y-143895571D01*
X148766711Y-143897585D01*
X148816874Y-143870182D01*
X148886566Y-143875153D01*
X148942508Y-143917014D01*
X148946357Y-143922453D01*
X149004407Y-144009331D01*
X149004413Y-144009339D01*
X149150660Y-144155586D01*
X149150664Y-144155589D01*
X149322631Y-144270494D01*
X149322641Y-144270499D01*
X149513723Y-144349648D01*
X149513725Y-144349649D01*
X149570000Y-144360842D01*
X149570000Y-143506997D01*
X149579941Y-143524216D01*
X149635796Y-143580071D01*
X149704205Y-143619567D01*
X149780504Y-143640011D01*
X149859496Y-143640011D01*
X149935795Y-143619567D01*
X150004204Y-143580071D01*
X150060059Y-143524216D01*
X150070000Y-143506997D01*
X150070000Y-144360842D01*
X150126274Y-144349649D01*
X150126276Y-144349648D01*
X150317358Y-144270499D01*
X150317368Y-144270494D01*
X150489335Y-144155589D01*
X150489339Y-144155586D01*
X150635586Y-144009339D01*
X150635589Y-144009335D01*
X150750494Y-143837368D01*
X150750499Y-143837358D01*
X150829649Y-143646274D01*
X150829651Y-143646266D01*
X150869999Y-143443420D01*
X150870000Y-143443417D01*
X150870000Y-143140000D01*
X150119999Y-143140000D01*
X150119999Y-142640000D01*
X150870000Y-142640000D01*
X150870000Y-142336583D01*
X150869999Y-142336579D01*
X150829651Y-142133733D01*
X150829649Y-142133725D01*
X150750499Y-141942641D01*
X150750494Y-141942631D01*
X150635589Y-141770664D01*
X150635586Y-141770660D01*
X150489339Y-141624413D01*
X150489335Y-141624410D01*
X150317368Y-141509505D01*
X150317358Y-141509500D01*
X150126272Y-141430349D01*
X150126267Y-141430347D01*
X150070000Y-141419155D01*
X150070000Y-142273002D01*
X150060059Y-142255784D01*
X150004204Y-142199929D01*
X149935795Y-142160433D01*
X149859496Y-142139989D01*
X149780504Y-142139989D01*
X149704205Y-142160433D01*
X149635796Y-142199929D01*
X149579941Y-142255784D01*
X149570000Y-142273002D01*
X149570000Y-141419156D01*
X149569999Y-141419155D01*
X149513732Y-141430347D01*
X149513727Y-141430349D01*
X149322641Y-141509500D01*
X149322631Y-141509505D01*
X149150664Y-141624410D01*
X149150660Y-141624413D01*
X149004413Y-141770660D01*
X149004410Y-141770664D01*
X148889505Y-141942631D01*
X148889500Y-141942641D01*
X148810350Y-142133725D01*
X148810348Y-142133733D01*
X148770000Y-142336579D01*
X148770000Y-142738537D01*
X148750315Y-142805576D01*
X148697511Y-142851331D01*
X148628353Y-142861275D01*
X148613907Y-142858312D01*
X148530072Y-142835849D01*
X148469057Y-142819500D01*
X148310943Y-142819500D01*
X148158216Y-142860423D01*
X148158209Y-142860426D01*
X148021290Y-142939475D01*
X148021282Y-142939481D01*
X147909481Y-143051282D01*
X147909475Y-143051290D01*
X147830426Y-143188209D01*
X147830423Y-143188216D01*
X147789500Y-143340943D01*
X146444100Y-143340943D01*
X146450500Y-143317057D01*
X146450500Y-143158943D01*
X146450500Y-141479765D01*
X146470185Y-141412726D01*
X146471398Y-141410874D01*
X146559390Y-141279185D01*
X146559390Y-141279184D01*
X146559394Y-141279179D01*
X146561401Y-141274335D01*
X146619735Y-141133501D01*
X146619737Y-141133497D01*
X146650500Y-140978842D01*
X146650500Y-140821158D01*
X146650500Y-140821155D01*
X146650499Y-140821153D01*
X146619738Y-140666510D01*
X146619737Y-140666503D01*
X146619735Y-140666498D01*
X146559397Y-140520827D01*
X146559390Y-140520814D01*
X146471789Y-140389711D01*
X146471786Y-140389707D01*
X146360292Y-140278213D01*
X146360288Y-140278210D01*
X146229185Y-140190609D01*
X146229172Y-140190602D01*
X146083501Y-140130264D01*
X146083489Y-140130261D01*
X145928845Y-140099500D01*
X145928842Y-140099500D01*
X145771158Y-140099500D01*
X145771155Y-140099500D01*
X145616510Y-140130261D01*
X145616498Y-140130264D01*
X145470827Y-140190602D01*
X145470814Y-140190609D01*
X145339711Y-140278210D01*
X145339707Y-140278213D01*
X145228213Y-140389707D01*
X145228210Y-140389711D01*
X145140609Y-140520814D01*
X145140602Y-140520827D01*
X145080264Y-140666498D01*
X145080261Y-140666510D01*
X145049500Y-140821153D01*
X145049500Y-140978846D01*
X145080261Y-141133489D01*
X145080264Y-141133501D01*
X145140602Y-141279172D01*
X145140609Y-141279185D01*
X145228602Y-141410874D01*
X145249480Y-141477551D01*
X145249500Y-141479765D01*
X145249500Y-142937903D01*
X145229815Y-143004942D01*
X145213181Y-143025584D01*
X144673339Y-143565425D01*
X144612016Y-143598910D01*
X144609850Y-143599361D01*
X144454508Y-143630261D01*
X144454498Y-143630264D01*
X144308827Y-143690602D01*
X144308814Y-143690609D01*
X144177711Y-143778210D01*
X144177707Y-143778213D01*
X144066213Y-143889707D01*
X144066210Y-143889711D01*
X143978609Y-144020814D01*
X143978602Y-144020827D01*
X143918264Y-144166498D01*
X143918261Y-144166510D01*
X143887500Y-144321153D01*
X141555069Y-144321153D01*
X141677358Y-144270499D01*
X141677368Y-144270494D01*
X141764965Y-144211964D01*
X141849336Y-144155589D01*
X141995586Y-144009339D01*
X141995592Y-144009331D01*
X142053643Y-143922453D01*
X142107255Y-143877647D01*
X142176580Y-143868940D01*
X142234143Y-143896480D01*
X142234839Y-143895574D01*
X142239126Y-143898864D01*
X142239607Y-143899094D01*
X142240375Y-143899822D01*
X142241281Y-143900517D01*
X142241284Y-143900520D01*
X142241287Y-143900521D01*
X142241290Y-143900524D01*
X142314526Y-143942806D01*
X142378216Y-143979577D01*
X142530943Y-144020500D01*
X142530945Y-144020500D01*
X142689055Y-144020500D01*
X142689057Y-144020500D01*
X142841784Y-143979577D01*
X142978716Y-143900520D01*
X143090520Y-143788716D01*
X143169577Y-143651784D01*
X143210500Y-143499057D01*
X143210500Y-143340943D01*
X143169577Y-143188216D01*
X143169573Y-143188209D01*
X143090524Y-143051290D01*
X143090518Y-143051282D01*
X142978717Y-142939481D01*
X142978709Y-142939475D01*
X142841790Y-142860426D01*
X142841786Y-142860424D01*
X142841784Y-142860423D01*
X142689057Y-142819500D01*
X142530943Y-142819500D01*
X142386093Y-142858312D01*
X142316243Y-142856649D01*
X142258381Y-142817486D01*
X142230877Y-142753258D01*
X142230000Y-142738537D01*
X142230000Y-142336583D01*
X142229999Y-142336579D01*
X142189651Y-142133733D01*
X142189649Y-142133725D01*
X142110499Y-141942641D01*
X142110494Y-141942631D01*
X141995589Y-141770664D01*
X141995586Y-141770660D01*
X141849339Y-141624413D01*
X141849335Y-141624410D01*
X141677368Y-141509505D01*
X141677358Y-141509500D01*
X141486272Y-141430349D01*
X141486267Y-141430347D01*
X141430000Y-141419155D01*
X141430000Y-142273014D01*
X141420059Y-142255796D01*
X141364204Y-142199941D01*
X141295795Y-142160445D01*
X141219496Y-142140001D01*
X141140504Y-142140001D01*
X141064205Y-142160445D01*
X140995796Y-142199941D01*
X140939941Y-142255796D01*
X140930000Y-142273014D01*
X140930000Y-141419156D01*
X140929999Y-141419155D01*
X140873732Y-141430347D01*
X140873727Y-141430349D01*
X140682641Y-141509500D01*
X140682631Y-141509505D01*
X140510664Y-141624410D01*
X140510660Y-141624413D01*
X140364413Y-141770660D01*
X140364410Y-141770664D01*
X140249505Y-141942631D01*
X140249500Y-141942641D01*
X140170350Y-142133725D01*
X140170348Y-142133733D01*
X140130000Y-142336579D01*
X125985175Y-142336579D01*
X125735962Y-142164068D01*
X125730811Y-142160303D01*
X124447450Y-141170541D01*
X124442472Y-141166492D01*
X123689291Y-140520814D01*
X123207862Y-140108100D01*
X123203086Y-140103786D01*
X122048458Y-139004888D01*
X122019570Y-138977394D01*
X122015007Y-138972819D01*
X121966097Y-138921153D01*
X141799500Y-138921153D01*
X141799500Y-139078846D01*
X141830261Y-139233489D01*
X141830264Y-139233501D01*
X141890602Y-139379172D01*
X141890609Y-139379185D01*
X141978210Y-139510288D01*
X141978213Y-139510292D01*
X142089707Y-139621786D01*
X142089711Y-139621789D01*
X142220814Y-139709390D01*
X142220827Y-139709397D01*
X142366498Y-139769735D01*
X142366503Y-139769737D01*
X142521153Y-139800499D01*
X142521156Y-139800500D01*
X142521158Y-139800500D01*
X142678844Y-139800500D01*
X142678845Y-139800499D01*
X142833497Y-139769737D01*
X142979179Y-139709394D01*
X143110289Y-139621789D01*
X143221789Y-139510289D01*
X143309394Y-139379179D01*
X143369737Y-139233497D01*
X143400500Y-139078842D01*
X143400500Y-138921158D01*
X143400500Y-138921155D01*
X143400499Y-138921153D01*
X143369738Y-138766510D01*
X143369737Y-138766503D01*
X143369735Y-138766498D01*
X143309397Y-138620827D01*
X143309390Y-138620814D01*
X143221789Y-138489711D01*
X143221786Y-138489707D01*
X143110292Y-138378213D01*
X143110288Y-138378210D01*
X142979185Y-138290609D01*
X142979172Y-138290602D01*
X142833501Y-138230264D01*
X142833489Y-138230261D01*
X142678845Y-138199500D01*
X142678842Y-138199500D01*
X142521158Y-138199500D01*
X142521155Y-138199500D01*
X142366510Y-138230261D01*
X142366498Y-138230264D01*
X142220827Y-138290602D01*
X142220814Y-138290609D01*
X142089711Y-138378210D01*
X142089707Y-138378213D01*
X141978213Y-138489707D01*
X141978210Y-138489711D01*
X141890609Y-138620814D01*
X141890602Y-138620827D01*
X141830264Y-138766498D01*
X141830261Y-138766510D01*
X141799500Y-138921153D01*
X121966097Y-138921153D01*
X120884945Y-137779081D01*
X120880621Y-137774267D01*
X119894841Y-136617624D01*
X119806319Y-136513758D01*
X119802258Y-136508735D01*
X118861146Y-135280097D01*
X118786066Y-135182078D01*
X118782280Y-135176859D01*
X117889666Y-133876610D01*
X117826558Y-133784682D01*
X117823066Y-133779303D01*
X117636896Y-133475500D01*
X116930149Y-132322187D01*
X116926959Y-132316666D01*
X116587034Y-131691870D01*
X116099238Y-130795280D01*
X116096358Y-130789648D01*
X116050549Y-130694130D01*
X115535141Y-129619437D01*
X125024500Y-129619437D01*
X125024500Y-129980562D01*
X125059896Y-130339957D01*
X125130344Y-130694130D01*
X125130347Y-130694141D01*
X125235181Y-131039733D01*
X125373381Y-131373376D01*
X125373383Y-131373381D01*
X125543609Y-131691852D01*
X125543620Y-131691870D01*
X125744244Y-131992125D01*
X125744254Y-131992139D01*
X125973354Y-132271297D01*
X126228702Y-132526645D01*
X126228707Y-132526649D01*
X126228708Y-132526650D01*
X126507866Y-132755750D01*
X126808136Y-132956384D01*
X126808145Y-132956389D01*
X126808147Y-132956390D01*
X127126618Y-133126616D01*
X127126620Y-133126616D01*
X127126626Y-133126620D01*
X127460268Y-133264819D01*
X127805849Y-133369650D01*
X127805855Y-133369651D01*
X127805858Y-133369652D01*
X127805869Y-133369655D01*
X128160042Y-133440103D01*
X128519434Y-133475500D01*
X128519437Y-133475500D01*
X128880563Y-133475500D01*
X128880566Y-133475500D01*
X129239958Y-133440103D01*
X129308904Y-133426388D01*
X129594130Y-133369655D01*
X129594141Y-133369652D01*
X129594141Y-133369651D01*
X129594151Y-133369650D01*
X129939732Y-133264819D01*
X130273374Y-133126620D01*
X130591864Y-132956384D01*
X130892134Y-132755750D01*
X131171292Y-132526650D01*
X131426650Y-132271292D01*
X131655750Y-131992134D01*
X131856384Y-131691864D01*
X132026620Y-131373374D01*
X132164819Y-131039732D01*
X132269650Y-130694151D01*
X132269652Y-130694141D01*
X132269655Y-130694130D01*
X132340103Y-130339957D01*
X132375500Y-129980562D01*
X132375500Y-129619437D01*
X132374599Y-129610292D01*
X132340103Y-129260042D01*
X132328360Y-129201004D01*
X132269655Y-128905869D01*
X132269652Y-128905858D01*
X132269651Y-128905855D01*
X132269650Y-128905849D01*
X132164819Y-128560268D01*
X132026620Y-128226626D01*
X131856384Y-127908136D01*
X131655750Y-127607866D01*
X131426650Y-127328708D01*
X131426649Y-127328707D01*
X131426645Y-127328702D01*
X131171297Y-127073354D01*
X130892139Y-126844254D01*
X130892138Y-126844253D01*
X130892134Y-126844250D01*
X130591864Y-126643616D01*
X130591859Y-126643613D01*
X130591852Y-126643609D01*
X130273381Y-126473383D01*
X130273376Y-126473381D01*
X129939733Y-126335181D01*
X129594141Y-126230347D01*
X129594130Y-126230344D01*
X129239957Y-126159896D01*
X128969279Y-126133237D01*
X128880566Y-126124500D01*
X128519434Y-126124500D01*
X128437465Y-126132573D01*
X128160042Y-126159896D01*
X127805869Y-126230344D01*
X127805858Y-126230347D01*
X127460266Y-126335181D01*
X127126623Y-126473381D01*
X127126618Y-126473383D01*
X126808147Y-126643609D01*
X126808129Y-126643620D01*
X126507874Y-126844244D01*
X126507860Y-126844254D01*
X126228702Y-127073354D01*
X125973354Y-127328702D01*
X125744254Y-127607860D01*
X125744244Y-127607874D01*
X125543620Y-127908129D01*
X125543609Y-127908147D01*
X125373383Y-128226618D01*
X125373381Y-128226623D01*
X125235181Y-128560266D01*
X125130347Y-128905858D01*
X125130344Y-128905869D01*
X125059896Y-129260042D01*
X125038314Y-129479179D01*
X125025401Y-129610292D01*
X125024500Y-129619437D01*
X115535141Y-129619437D01*
X115336148Y-129204511D01*
X115333588Y-129198806D01*
X115325317Y-129179057D01*
X114643289Y-127550581D01*
X114641054Y-127544847D01*
X114023009Y-125834072D01*
X114021080Y-125828290D01*
X114012438Y-125800097D01*
X113896213Y-125420943D01*
X140899499Y-125420943D01*
X140899499Y-125579057D01*
X140899500Y-125579060D01*
X140899500Y-129020943D01*
X140899500Y-129179057D01*
X140925248Y-129275148D01*
X140940423Y-129331783D01*
X140940426Y-129331790D01*
X141019475Y-129468709D01*
X141019479Y-129468714D01*
X141019480Y-129468716D01*
X141131284Y-129580520D01*
X141131286Y-129580521D01*
X141131290Y-129580524D01*
X141211896Y-129627061D01*
X141268216Y-129659577D01*
X141420943Y-129700500D01*
X144570234Y-129700500D01*
X144637273Y-129720185D01*
X144639125Y-129721398D01*
X144770814Y-129809390D01*
X144770827Y-129809397D01*
X144916498Y-129869735D01*
X144916503Y-129869737D01*
X145071153Y-129900499D01*
X145071156Y-129900500D01*
X145071158Y-129900500D01*
X145228844Y-129900500D01*
X145228845Y-129900499D01*
X145383497Y-129869737D01*
X145529179Y-129809394D01*
X145660289Y-129721789D01*
X145762641Y-129619437D01*
X157824500Y-129619437D01*
X157824500Y-129980562D01*
X157859896Y-130339957D01*
X157930344Y-130694130D01*
X157930347Y-130694141D01*
X158035181Y-131039733D01*
X158173381Y-131373376D01*
X158173383Y-131373381D01*
X158343609Y-131691852D01*
X158343620Y-131691870D01*
X158544244Y-131992125D01*
X158544254Y-131992139D01*
X158773354Y-132271297D01*
X159028702Y-132526645D01*
X159028707Y-132526649D01*
X159028708Y-132526650D01*
X159307866Y-132755750D01*
X159608136Y-132956384D01*
X159608145Y-132956389D01*
X159608147Y-132956390D01*
X159926618Y-133126616D01*
X159926620Y-133126616D01*
X159926626Y-133126620D01*
X160260268Y-133264819D01*
X160605849Y-133369650D01*
X160605855Y-133369651D01*
X160605858Y-133369652D01*
X160605869Y-133369655D01*
X160960042Y-133440103D01*
X161319434Y-133475500D01*
X161319437Y-133475500D01*
X161680563Y-133475500D01*
X161680566Y-133475500D01*
X162039958Y-133440103D01*
X162108904Y-133426388D01*
X162394130Y-133369655D01*
X162394141Y-133369652D01*
X162394141Y-133369651D01*
X162394151Y-133369650D01*
X162739732Y-133264819D01*
X163073374Y-133126620D01*
X163391864Y-132956384D01*
X163692134Y-132755750D01*
X163971292Y-132526650D01*
X164226650Y-132271292D01*
X164455750Y-131992134D01*
X164656384Y-131691864D01*
X164826620Y-131373374D01*
X164964819Y-131039732D01*
X165069650Y-130694151D01*
X165069652Y-130694141D01*
X165069655Y-130694130D01*
X165140103Y-130339957D01*
X165175500Y-129980562D01*
X165175500Y-129619437D01*
X165174599Y-129610292D01*
X165140103Y-129260042D01*
X165128360Y-129201004D01*
X165069655Y-128905869D01*
X165069652Y-128905858D01*
X165069651Y-128905855D01*
X165069650Y-128905849D01*
X164964819Y-128560268D01*
X164826620Y-128226626D01*
X164656384Y-127908136D01*
X164455750Y-127607866D01*
X164226650Y-127328708D01*
X164226649Y-127328707D01*
X164226645Y-127328702D01*
X163971297Y-127073354D01*
X163692139Y-126844254D01*
X163692138Y-126844253D01*
X163692134Y-126844250D01*
X163391864Y-126643616D01*
X163391859Y-126643613D01*
X163391852Y-126643609D01*
X163073381Y-126473383D01*
X163073376Y-126473381D01*
X162739733Y-126335181D01*
X162394141Y-126230347D01*
X162394130Y-126230344D01*
X162039957Y-126159896D01*
X161769279Y-126133237D01*
X161680566Y-126124500D01*
X161319434Y-126124500D01*
X161237465Y-126132573D01*
X160960042Y-126159896D01*
X160605869Y-126230344D01*
X160605858Y-126230347D01*
X160260266Y-126335181D01*
X159926623Y-126473381D01*
X159926618Y-126473383D01*
X159608147Y-126643609D01*
X159608129Y-126643620D01*
X159307874Y-126844244D01*
X159307860Y-126844254D01*
X159028702Y-127073354D01*
X158773354Y-127328702D01*
X158544254Y-127607860D01*
X158544244Y-127607874D01*
X158343620Y-127908129D01*
X158343609Y-127908147D01*
X158173383Y-128226618D01*
X158173381Y-128226623D01*
X158035181Y-128560266D01*
X157930347Y-128905858D01*
X157930344Y-128905869D01*
X157859896Y-129260042D01*
X157838314Y-129479179D01*
X157825401Y-129610292D01*
X157824500Y-129619437D01*
X145762641Y-129619437D01*
X145771789Y-129610289D01*
X145785743Y-129589405D01*
X145813744Y-129547500D01*
X145813744Y-129547499D01*
X145814826Y-129545878D01*
X145859394Y-129479179D01*
X145863728Y-129468717D01*
X145919735Y-129333501D01*
X145919737Y-129333497D01*
X145950500Y-129178842D01*
X145950500Y-129021158D01*
X145950500Y-129021155D01*
X145950499Y-129021153D01*
X145919738Y-128866510D01*
X145919737Y-128866503D01*
X145919735Y-128866498D01*
X145859397Y-128720827D01*
X145859390Y-128720814D01*
X145771789Y-128589711D01*
X145771786Y-128589707D01*
X145660292Y-128478213D01*
X145660288Y-128478210D01*
X145529185Y-128390609D01*
X145529172Y-128390602D01*
X145383501Y-128330264D01*
X145383489Y-128330261D01*
X145228845Y-128299500D01*
X145228842Y-128299500D01*
X145071158Y-128299500D01*
X145071155Y-128299500D01*
X144916510Y-128330261D01*
X144916498Y-128330264D01*
X144770827Y-128390602D01*
X144770814Y-128390609D01*
X144639125Y-128478602D01*
X144572447Y-128499480D01*
X144570234Y-128499500D01*
X142224500Y-128499500D01*
X142157461Y-128479815D01*
X142111706Y-128427011D01*
X142100500Y-128375500D01*
X142100500Y-125800097D01*
X142120185Y-125733058D01*
X142136819Y-125712416D01*
X142412416Y-125436819D01*
X142439343Y-125422115D01*
X142465162Y-125405523D01*
X142471362Y-125404631D01*
X142473739Y-125403334D01*
X142500097Y-125400500D01*
X142520234Y-125400500D01*
X142587273Y-125420185D01*
X142589125Y-125421398D01*
X142720814Y-125509390D01*
X142720827Y-125509397D01*
X142866498Y-125569735D01*
X142866503Y-125569737D01*
X143021153Y-125600499D01*
X143021156Y-125600500D01*
X143021158Y-125600500D01*
X143178844Y-125600500D01*
X143178845Y-125600499D01*
X143333497Y-125569737D01*
X143479179Y-125509394D01*
X143610289Y-125421789D01*
X143721789Y-125310289D01*
X143809394Y-125179179D01*
X143869737Y-125033497D01*
X143900500Y-124878842D01*
X143900500Y-124721158D01*
X143900500Y-124721155D01*
X143900499Y-124721153D01*
X143869738Y-124566510D01*
X143869737Y-124566503D01*
X143813728Y-124431284D01*
X143809397Y-124420827D01*
X143809390Y-124420814D01*
X143721789Y-124289711D01*
X143721786Y-124289707D01*
X143610292Y-124178213D01*
X143610288Y-124178210D01*
X143479185Y-124090609D01*
X143479172Y-124090602D01*
X143333501Y-124030264D01*
X143333489Y-124030261D01*
X143178845Y-123999500D01*
X143178842Y-123999500D01*
X143021158Y-123999500D01*
X143021155Y-123999500D01*
X142866510Y-124030261D01*
X142866498Y-124030264D01*
X142720827Y-124090602D01*
X142720814Y-124090609D01*
X142589125Y-124178602D01*
X142522447Y-124199480D01*
X142520234Y-124199500D01*
X142120940Y-124199500D01*
X142080019Y-124210464D01*
X142080019Y-124210465D01*
X142042751Y-124220451D01*
X141968214Y-124240423D01*
X141968209Y-124240426D01*
X141831290Y-124319475D01*
X141831282Y-124319481D01*
X141019481Y-125131282D01*
X141019480Y-125131284D01*
X140971338Y-125214669D01*
X140940423Y-125268215D01*
X140899499Y-125420943D01*
X113896213Y-125420943D01*
X113477691Y-124055623D01*
X113476086Y-124049894D01*
X113440403Y-123909567D01*
X113442958Y-123839747D01*
X113482858Y-123782390D01*
X113547432Y-123755710D01*
X113598898Y-123761081D01*
X113644908Y-123776031D01*
X113644914Y-123776032D01*
X113815929Y-123803119D01*
X113952500Y-123803119D01*
X113952500Y-123003118D01*
X114452500Y-123003118D01*
X114452500Y-123803119D01*
X114589071Y-123803119D01*
X114760084Y-123776033D01*
X114924757Y-123722527D01*
X115079024Y-123643923D01*
X115219102Y-123542151D01*
X115341532Y-123419721D01*
X115443304Y-123279643D01*
X115521908Y-123125374D01*
X115575414Y-122960703D01*
X115576615Y-122953119D01*
X114669486Y-122953119D01*
X114686704Y-122943178D01*
X114742559Y-122887323D01*
X114782055Y-122818914D01*
X114802499Y-122742615D01*
X114802499Y-122663623D01*
X114782055Y-122587324D01*
X114742559Y-122518915D01*
X114686704Y-122463060D01*
X114669486Y-122453119D01*
X115576615Y-122453119D01*
X116941657Y-122453119D01*
X117795502Y-122453119D01*
X117778284Y-122463060D01*
X117722429Y-122518915D01*
X117682933Y-122587324D01*
X117662489Y-122663623D01*
X117662489Y-122742615D01*
X117682933Y-122818914D01*
X117722429Y-122887323D01*
X117778284Y-122943178D01*
X117795502Y-122953119D01*
X116941657Y-122953119D01*
X116952850Y-123009393D01*
X116952851Y-123009395D01*
X117032000Y-123200477D01*
X117032005Y-123200487D01*
X117146910Y-123372454D01*
X117146913Y-123372458D01*
X117293160Y-123518705D01*
X117293164Y-123518708D01*
X117465131Y-123633613D01*
X117465141Y-123633618D01*
X117656225Y-123712768D01*
X117656233Y-123712770D01*
X117859079Y-123753118D01*
X117859083Y-123753119D01*
X118162500Y-123753119D01*
X118162500Y-123003118D01*
X118662500Y-123003118D01*
X118662500Y-123753119D01*
X118965917Y-123753119D01*
X118965920Y-123753118D01*
X119168766Y-123712770D01*
X119168774Y-123712768D01*
X119359858Y-123633618D01*
X119359868Y-123633613D01*
X119531835Y-123518708D01*
X119531839Y-123518705D01*
X119678086Y-123372458D01*
X119678089Y-123372454D01*
X119792994Y-123200487D01*
X119792999Y-123200477D01*
X119872148Y-123009395D01*
X119872149Y-123009393D01*
X119883343Y-122953119D01*
X119029498Y-122953119D01*
X119046716Y-122943178D01*
X119102571Y-122887323D01*
X119142067Y-122818914D01*
X119162511Y-122742615D01*
X119162511Y-122663623D01*
X119142067Y-122587324D01*
X119102571Y-122518915D01*
X119046716Y-122463060D01*
X119029498Y-122453119D01*
X119883343Y-122453119D01*
X119872149Y-122396844D01*
X119872148Y-122396842D01*
X119792999Y-122205760D01*
X119792994Y-122205750D01*
X119678089Y-122033783D01*
X119678086Y-122033779D01*
X119531839Y-121887532D01*
X119531835Y-121887529D01*
X119359868Y-121772624D01*
X119359858Y-121772619D01*
X119168774Y-121693469D01*
X119168766Y-121693467D01*
X118965920Y-121653119D01*
X118563962Y-121653119D01*
X118496923Y-121633434D01*
X118451168Y-121580630D01*
X118441224Y-121511472D01*
X118444184Y-121497039D01*
X118483000Y-121352176D01*
X118483000Y-121194062D01*
X118442077Y-121041335D01*
X118442073Y-121041328D01*
X118363024Y-120904409D01*
X118363018Y-120904401D01*
X118251217Y-120792600D01*
X118251209Y-120792594D01*
X118114290Y-120713545D01*
X118114286Y-120713543D01*
X118114284Y-120713542D01*
X117961557Y-120672619D01*
X117803443Y-120672619D01*
X117650716Y-120713542D01*
X117650709Y-120713545D01*
X117513790Y-120792594D01*
X117513782Y-120792600D01*
X117401981Y-120904401D01*
X117401975Y-120904409D01*
X117322926Y-121041328D01*
X117322923Y-121041335D01*
X117282000Y-121194062D01*
X117282000Y-121352175D01*
X117322923Y-121504902D01*
X117322926Y-121504909D01*
X117401975Y-121641828D01*
X117406926Y-121648280D01*
X117404915Y-121649823D01*
X117432322Y-121700015D01*
X117427338Y-121769707D01*
X117385466Y-121825640D01*
X117380048Y-121829475D01*
X117293160Y-121887532D01*
X117146913Y-122033779D01*
X117146910Y-122033783D01*
X117032005Y-122205750D01*
X117032000Y-122205760D01*
X116952851Y-122396842D01*
X116952850Y-122396844D01*
X116941657Y-122453119D01*
X115576615Y-122453119D01*
X115576615Y-122453118D01*
X115575414Y-122445534D01*
X115521908Y-122280863D01*
X115443304Y-122126594D01*
X115341532Y-121986516D01*
X115219102Y-121864086D01*
X115079024Y-121762314D01*
X114924757Y-121683710D01*
X114760084Y-121630204D01*
X114589071Y-121603119D01*
X114452500Y-121603119D01*
X114452500Y-122403120D01*
X113952500Y-122403120D01*
X113952500Y-121603119D01*
X113815929Y-121603119D01*
X113644915Y-121630204D01*
X113480242Y-121683710D01*
X113325975Y-121762314D01*
X113185897Y-121864086D01*
X113142855Y-121907128D01*
X113081532Y-121940612D01*
X113011840Y-121935627D01*
X112955907Y-121893755D01*
X112933684Y-121844260D01*
X112621485Y-120315557D01*
X112620470Y-120309915D01*
X112388083Y-118821153D01*
X116599500Y-118821153D01*
X116599500Y-118978846D01*
X116630261Y-119133489D01*
X116630264Y-119133501D01*
X116690602Y-119279172D01*
X116690609Y-119279185D01*
X116778210Y-119410288D01*
X116778213Y-119410292D01*
X116889707Y-119521786D01*
X116889711Y-119521789D01*
X117020814Y-119609390D01*
X117020827Y-119609397D01*
X117166498Y-119669735D01*
X117166503Y-119669737D01*
X117321153Y-119700499D01*
X117321156Y-119700500D01*
X117321158Y-119700500D01*
X117478844Y-119700500D01*
X117478845Y-119700499D01*
X117633497Y-119669737D01*
X117779179Y-119609394D01*
X117910289Y-119521789D01*
X118021789Y-119410289D01*
X118109394Y-119279179D01*
X118169737Y-119133497D01*
X118200500Y-118978842D01*
X118200500Y-118978839D01*
X118200637Y-118978151D01*
X118233022Y-118916239D01*
X118234463Y-118914771D01*
X118312418Y-118836816D01*
X118373740Y-118803334D01*
X118400097Y-118800500D01*
X120442446Y-118800500D01*
X120466638Y-118802883D01*
X120621155Y-118833619D01*
X120621158Y-118833619D01*
X120778844Y-118833619D01*
X120778845Y-118833618D01*
X120933497Y-118802856D01*
X121079179Y-118742513D01*
X121210289Y-118654908D01*
X121295197Y-118570000D01*
X171116657Y-118570000D01*
X171970514Y-118570000D01*
X171953296Y-118579941D01*
X171897441Y-118635796D01*
X171857945Y-118704205D01*
X171837501Y-118780504D01*
X171837501Y-118859496D01*
X171857945Y-118935795D01*
X171897441Y-119004204D01*
X171953296Y-119060059D01*
X171970514Y-119070000D01*
X171116657Y-119070000D01*
X171127850Y-119126274D01*
X171127851Y-119126276D01*
X171207000Y-119317358D01*
X171207005Y-119317368D01*
X171321910Y-119489335D01*
X171321913Y-119489339D01*
X171468160Y-119635586D01*
X171468164Y-119635589D01*
X171640131Y-119750494D01*
X171640141Y-119750499D01*
X171831225Y-119829649D01*
X171831233Y-119829651D01*
X172034079Y-119869999D01*
X172034083Y-119870000D01*
X172337500Y-119870000D01*
X172337500Y-119119999D01*
X172837500Y-119119999D01*
X172837500Y-119870000D01*
X173140917Y-119870000D01*
X173140920Y-119869999D01*
X173343766Y-119829651D01*
X173343774Y-119829649D01*
X173534858Y-119750499D01*
X173534868Y-119750494D01*
X173706835Y-119635589D01*
X173706839Y-119635586D01*
X173853086Y-119489339D01*
X173853089Y-119489335D01*
X173967994Y-119317368D01*
X173967999Y-119317358D01*
X174047148Y-119126276D01*
X174047149Y-119126274D01*
X174058343Y-119070000D01*
X173204486Y-119070000D01*
X173221704Y-119060059D01*
X173277559Y-119004204D01*
X173317055Y-118935795D01*
X173337499Y-118859496D01*
X173337499Y-118780504D01*
X173317055Y-118704205D01*
X173277559Y-118635796D01*
X173221704Y-118579941D01*
X173204486Y-118570000D01*
X174058343Y-118570000D01*
X174047149Y-118513725D01*
X174047148Y-118513723D01*
X173967999Y-118322641D01*
X173967994Y-118322631D01*
X173853089Y-118150664D01*
X173853086Y-118150660D01*
X173706839Y-118004413D01*
X173706831Y-118004407D01*
X173619953Y-117946357D01*
X173575147Y-117892745D01*
X173566440Y-117823420D01*
X173593977Y-117765861D01*
X173593071Y-117765166D01*
X173596363Y-117760875D01*
X173596594Y-117760393D01*
X173597324Y-117759622D01*
X173598016Y-117758719D01*
X173598020Y-117758716D01*
X173677077Y-117621784D01*
X173718000Y-117469057D01*
X173718000Y-117310943D01*
X173677077Y-117158216D01*
X173677073Y-117158209D01*
X173598024Y-117021290D01*
X173598018Y-117021282D01*
X173486217Y-116909481D01*
X173486209Y-116909475D01*
X173349290Y-116830426D01*
X173349286Y-116830424D01*
X173349284Y-116830423D01*
X173196557Y-116789500D01*
X173038443Y-116789500D01*
X172885716Y-116830423D01*
X172885709Y-116830426D01*
X172748790Y-116909475D01*
X172748782Y-116909481D01*
X172636981Y-117021282D01*
X172636975Y-117021290D01*
X172557926Y-117158209D01*
X172557923Y-117158216D01*
X172517000Y-117310943D01*
X172517000Y-117469057D01*
X172555812Y-117613909D01*
X172554150Y-117683756D01*
X172514988Y-117741619D01*
X172450759Y-117769123D01*
X172436038Y-117770000D01*
X172034079Y-117770000D01*
X171831233Y-117810348D01*
X171831225Y-117810350D01*
X171640141Y-117889500D01*
X171640131Y-117889505D01*
X171468164Y-118004410D01*
X171468160Y-118004413D01*
X171321913Y-118150660D01*
X171321910Y-118150664D01*
X171207005Y-118322631D01*
X171207000Y-118322641D01*
X171127851Y-118513723D01*
X171127850Y-118513725D01*
X171116657Y-118570000D01*
X121295197Y-118570000D01*
X121321789Y-118543408D01*
X121409394Y-118412298D01*
X121469737Y-118266616D01*
X121500500Y-118111961D01*
X121500500Y-117954277D01*
X121500500Y-117954274D01*
X121500499Y-117954272D01*
X121485829Y-117880520D01*
X121469737Y-117799622D01*
X121461269Y-117779179D01*
X121409397Y-117653946D01*
X121409390Y-117653933D01*
X121321789Y-117522830D01*
X121321786Y-117522826D01*
X121210292Y-117411332D01*
X121210288Y-117411329D01*
X121079185Y-117323728D01*
X121079172Y-117323721D01*
X120933501Y-117263383D01*
X120933489Y-117263380D01*
X120778845Y-117232619D01*
X120778842Y-117232619D01*
X120621158Y-117232619D01*
X120621155Y-117232619D01*
X120466510Y-117263380D01*
X120466498Y-117263383D01*
X120320827Y-117323721D01*
X120320814Y-117323728D01*
X120189711Y-117411329D01*
X120189707Y-117411332D01*
X120078213Y-117522826D01*
X120078210Y-117522830D01*
X120063804Y-117544391D01*
X120010192Y-117589196D01*
X119960702Y-117599500D01*
X118020940Y-117599500D01*
X117980019Y-117610464D01*
X117980019Y-117610465D01*
X117942751Y-117620451D01*
X117868214Y-117640423D01*
X117868209Y-117640426D01*
X117731290Y-117719475D01*
X117731282Y-117719481D01*
X117385339Y-118065425D01*
X117324016Y-118098910D01*
X117321850Y-118099361D01*
X117166508Y-118130261D01*
X117166498Y-118130264D01*
X117020827Y-118190602D01*
X117020814Y-118190609D01*
X116889711Y-118278210D01*
X116889707Y-118278213D01*
X116778213Y-118389707D01*
X116778210Y-118389711D01*
X116690609Y-118520814D01*
X116690602Y-118520827D01*
X116630264Y-118666498D01*
X116630261Y-118666510D01*
X116599500Y-118821153D01*
X112388083Y-118821153D01*
X112315348Y-118355181D01*
X112314603Y-118349576D01*
X112298253Y-118200500D01*
X112093689Y-116335375D01*
X112093214Y-116329940D01*
X111958903Y-114256866D01*
X111958674Y-114251532D01*
X111949355Y-113813118D01*
X112828384Y-113813118D01*
X112828385Y-113813119D01*
X113735514Y-113813119D01*
X113718296Y-113823060D01*
X113662441Y-113878915D01*
X113622945Y-113947324D01*
X113602501Y-114023623D01*
X113602501Y-114102615D01*
X113622945Y-114178914D01*
X113662441Y-114247323D01*
X113718296Y-114303178D01*
X113735514Y-114313119D01*
X112828385Y-114313119D01*
X112829585Y-114320703D01*
X112883091Y-114485374D01*
X112961695Y-114639643D01*
X113063467Y-114779721D01*
X113185897Y-114902151D01*
X113325975Y-115003923D01*
X113480242Y-115082527D01*
X113644915Y-115136033D01*
X113815929Y-115163119D01*
X113952500Y-115163119D01*
X113952500Y-114363118D01*
X114452500Y-114363118D01*
X114452500Y-115163119D01*
X114589071Y-115163119D01*
X114760084Y-115136033D01*
X114924757Y-115082527D01*
X115079024Y-115003923D01*
X115219102Y-114902151D01*
X115341532Y-114779721D01*
X115443304Y-114639643D01*
X115521908Y-114485374D01*
X115575414Y-114320703D01*
X115576615Y-114313119D01*
X114669486Y-114313119D01*
X114686704Y-114303178D01*
X114742559Y-114247323D01*
X114782055Y-114178914D01*
X114802499Y-114102615D01*
X114802499Y-114023623D01*
X114782055Y-113947324D01*
X114742559Y-113878915D01*
X114686704Y-113823060D01*
X114669486Y-113813119D01*
X115576615Y-113813119D01*
X116941657Y-113813119D01*
X117795514Y-113813119D01*
X117778296Y-113823060D01*
X117722441Y-113878915D01*
X117682945Y-113947324D01*
X117662501Y-114023623D01*
X117662501Y-114102615D01*
X117682945Y-114178914D01*
X117722441Y-114247323D01*
X117778296Y-114303178D01*
X117795514Y-114313119D01*
X116941657Y-114313119D01*
X116952850Y-114369393D01*
X116952851Y-114369395D01*
X117032000Y-114560477D01*
X117032005Y-114560487D01*
X117146910Y-114732454D01*
X117146913Y-114732458D01*
X117293161Y-114878706D01*
X117380046Y-114936760D01*
X117424852Y-114990372D01*
X117433559Y-115059697D01*
X117406020Y-115117257D01*
X117406928Y-115117953D01*
X117403634Y-115122245D01*
X117403405Y-115122725D01*
X117402677Y-115123492D01*
X117401979Y-115124402D01*
X117322926Y-115261328D01*
X117322923Y-115261335D01*
X117282000Y-115414062D01*
X117282000Y-115572176D01*
X117283877Y-115579179D01*
X117322923Y-115724902D01*
X117322926Y-115724909D01*
X117401975Y-115861828D01*
X117401979Y-115861833D01*
X117401980Y-115861835D01*
X117513784Y-115973639D01*
X117513786Y-115973640D01*
X117513790Y-115973643D01*
X117650709Y-116052692D01*
X117650716Y-116052696D01*
X117803443Y-116093619D01*
X117803445Y-116093619D01*
X117961555Y-116093619D01*
X117961557Y-116093619D01*
X118114284Y-116052696D01*
X118251216Y-115973639D01*
X118363020Y-115861835D01*
X118442077Y-115724903D01*
X118483000Y-115572176D01*
X118483000Y-115414062D01*
X118444187Y-115269209D01*
X118445850Y-115199363D01*
X118485012Y-115141500D01*
X118532528Y-115121153D01*
X120599500Y-115121153D01*
X120599500Y-115278846D01*
X120630261Y-115433489D01*
X120630264Y-115433501D01*
X120690602Y-115579172D01*
X120690609Y-115579185D01*
X120778210Y-115710288D01*
X120778213Y-115710292D01*
X120889707Y-115821786D01*
X120889711Y-115821789D01*
X121020814Y-115909390D01*
X121020827Y-115909397D01*
X121166498Y-115969735D01*
X121166503Y-115969737D01*
X121321153Y-116000499D01*
X121321156Y-116000500D01*
X121321158Y-116000500D01*
X121478844Y-116000500D01*
X121478845Y-116000499D01*
X121633497Y-115969737D01*
X121779179Y-115909394D01*
X121910289Y-115821789D01*
X122021789Y-115710289D01*
X122109394Y-115579179D01*
X122169737Y-115433497D01*
X122200500Y-115278842D01*
X122200500Y-115121158D01*
X122200500Y-115121155D01*
X122200499Y-115121153D01*
X122190875Y-115072770D01*
X122169737Y-114966503D01*
X122143082Y-114902151D01*
X122109397Y-114820827D01*
X122109390Y-114820814D01*
X122021789Y-114689711D01*
X122021786Y-114689707D01*
X121910292Y-114578213D01*
X121910288Y-114578210D01*
X121779185Y-114490609D01*
X121779172Y-114490602D01*
X121633501Y-114430264D01*
X121633489Y-114430261D01*
X121478845Y-114399500D01*
X121478842Y-114399500D01*
X121321158Y-114399500D01*
X121321155Y-114399500D01*
X121166510Y-114430261D01*
X121166498Y-114430264D01*
X121020827Y-114490602D01*
X121020814Y-114490609D01*
X120889711Y-114578210D01*
X120889707Y-114578213D01*
X120778213Y-114689707D01*
X120778210Y-114689711D01*
X120690609Y-114820814D01*
X120690602Y-114820827D01*
X120630264Y-114966498D01*
X120630261Y-114966510D01*
X120599500Y-115121153D01*
X118532528Y-115121153D01*
X118549241Y-115113996D01*
X118563962Y-115113119D01*
X118965917Y-115113119D01*
X118965920Y-115113118D01*
X119168766Y-115072770D01*
X119168774Y-115072768D01*
X119343233Y-115000505D01*
X119343234Y-115000504D01*
X119359855Y-114993620D01*
X119359868Y-114993613D01*
X119531835Y-114878708D01*
X119531839Y-114878705D01*
X119678086Y-114732458D01*
X119678089Y-114732454D01*
X119792994Y-114560487D01*
X119792999Y-114560477D01*
X119872148Y-114369395D01*
X119872149Y-114369393D01*
X119883343Y-114313119D01*
X119029486Y-114313119D01*
X119046704Y-114303178D01*
X119102559Y-114247323D01*
X119142055Y-114178914D01*
X119162499Y-114102615D01*
X119162499Y-114023623D01*
X119142055Y-113947324D01*
X119102559Y-113878915D01*
X119046704Y-113823060D01*
X119029486Y-113813119D01*
X119883343Y-113813119D01*
X119872149Y-113756844D01*
X119872148Y-113756842D01*
X119792999Y-113565760D01*
X119792994Y-113565750D01*
X119678090Y-113393784D01*
X119678085Y-113393778D01*
X119605460Y-113321153D01*
X138087000Y-113321153D01*
X138087000Y-113478846D01*
X138117761Y-113633489D01*
X138117764Y-113633501D01*
X138178102Y-113779172D01*
X138178109Y-113779185D01*
X138265710Y-113910288D01*
X138265713Y-113910292D01*
X138377207Y-114021786D01*
X138377211Y-114021789D01*
X138508314Y-114109390D01*
X138508327Y-114109397D01*
X138653998Y-114169735D01*
X138654003Y-114169737D01*
X138808653Y-114200499D01*
X138808656Y-114200500D01*
X138808658Y-114200500D01*
X138966344Y-114200500D01*
X138966345Y-114200499D01*
X139120997Y-114169737D01*
X139266679Y-114109394D01*
X139397789Y-114021789D01*
X139509289Y-113910289D01*
X139596894Y-113779179D01*
X139657237Y-113633497D01*
X139688000Y-113478842D01*
X139688000Y-113321158D01*
X139688000Y-113321155D01*
X139687999Y-113321153D01*
X139657238Y-113166510D01*
X139657237Y-113166503D01*
X139597032Y-113021153D01*
X147999500Y-113021153D01*
X147999500Y-113178846D01*
X148030261Y-113333489D01*
X148030264Y-113333501D01*
X148090602Y-113479172D01*
X148090609Y-113479185D01*
X148178210Y-113610288D01*
X148178213Y-113610292D01*
X148289707Y-113721786D01*
X148289711Y-113721789D01*
X148420814Y-113809390D01*
X148420827Y-113809397D01*
X148525659Y-113852819D01*
X148566503Y-113869737D01*
X148631147Y-113882595D01*
X148721849Y-113900638D01*
X148783760Y-113933023D01*
X148785339Y-113934574D01*
X152615139Y-117764374D01*
X152615149Y-117764385D01*
X152619479Y-117768715D01*
X152619480Y-117768716D01*
X152731284Y-117880520D01*
X152782845Y-117910288D01*
X152818095Y-117930639D01*
X152818097Y-117930641D01*
X152868213Y-117959576D01*
X152868215Y-117959577D01*
X153020942Y-118000500D01*
X153020943Y-118000500D01*
X161420234Y-118000500D01*
X161487273Y-118020185D01*
X161489125Y-118021398D01*
X161620814Y-118109390D01*
X161620827Y-118109397D01*
X161720456Y-118150664D01*
X161766503Y-118169737D01*
X161921153Y-118200499D01*
X161921156Y-118200500D01*
X161921158Y-118200500D01*
X162078844Y-118200500D01*
X162078845Y-118200499D01*
X162233497Y-118169737D01*
X162379179Y-118109394D01*
X162510289Y-118021789D01*
X162621789Y-117910289D01*
X162709394Y-117779179D01*
X162714911Y-117765861D01*
X162724952Y-117741619D01*
X162769737Y-117633497D01*
X162800500Y-117478842D01*
X162800500Y-117321158D01*
X162800500Y-117321155D01*
X162800499Y-117321153D01*
X162789008Y-117263383D01*
X162769737Y-117166503D01*
X162769735Y-117166498D01*
X162709397Y-117020827D01*
X162709390Y-117020814D01*
X162621789Y-116889711D01*
X162621786Y-116889707D01*
X162510292Y-116778213D01*
X162510288Y-116778210D01*
X162379185Y-116690609D01*
X162379172Y-116690602D01*
X162233501Y-116630264D01*
X162233489Y-116630261D01*
X162078845Y-116599500D01*
X162078842Y-116599500D01*
X161921158Y-116599500D01*
X161921155Y-116599500D01*
X161766510Y-116630261D01*
X161766498Y-116630264D01*
X161620827Y-116690602D01*
X161620814Y-116690609D01*
X161489125Y-116778602D01*
X161422447Y-116799480D01*
X161420234Y-116799500D01*
X153400097Y-116799500D01*
X153333058Y-116779815D01*
X153312416Y-116763181D01*
X149970388Y-113421153D01*
X169499500Y-113421153D01*
X169499500Y-113578846D01*
X169530261Y-113733489D01*
X169530264Y-113733501D01*
X169590602Y-113879172D01*
X169590609Y-113879185D01*
X169678602Y-114010874D01*
X169684252Y-114028920D01*
X169694477Y-114044830D01*
X169698928Y-114075789D01*
X169699480Y-114077551D01*
X169699500Y-114079765D01*
X169699500Y-114324684D01*
X169690061Y-114372136D01*
X169630264Y-114516498D01*
X169630261Y-114516510D01*
X169599500Y-114671153D01*
X169599500Y-114828846D01*
X169630261Y-114983489D01*
X169630264Y-114983501D01*
X169690602Y-115129172D01*
X169690609Y-115129185D01*
X169778210Y-115260288D01*
X169778213Y-115260292D01*
X169889707Y-115371786D01*
X169889711Y-115371789D01*
X170020814Y-115459390D01*
X170020827Y-115459397D01*
X170166498Y-115519735D01*
X170166503Y-115519737D01*
X170321153Y-115550499D01*
X170321156Y-115550500D01*
X170321158Y-115550500D01*
X170478844Y-115550500D01*
X170478845Y-115550499D01*
X170633497Y-115519737D01*
X170779179Y-115459394D01*
X170910289Y-115371789D01*
X171021789Y-115260289D01*
X171109394Y-115129179D01*
X171112719Y-115121153D01*
X171138174Y-115059697D01*
X171169737Y-114983497D01*
X171200500Y-114828842D01*
X171200500Y-114671158D01*
X171200500Y-114671155D01*
X171200499Y-114671153D01*
X171182012Y-114578213D01*
X171169737Y-114516503D01*
X171169735Y-114516498D01*
X171109397Y-114370827D01*
X171109390Y-114370814D01*
X171021790Y-114239712D01*
X170982577Y-114200499D01*
X170941906Y-114159828D01*
X170908423Y-114098508D01*
X170913407Y-114028816D01*
X170926487Y-114003258D01*
X171009390Y-113879185D01*
X171009390Y-113879184D01*
X171009394Y-113879179D01*
X171069737Y-113733497D01*
X171100500Y-113578842D01*
X171100500Y-113421158D01*
X171100500Y-113421155D01*
X171100499Y-113421153D01*
X171095054Y-113393778D01*
X171069737Y-113266503D01*
X171061878Y-113247529D01*
X171009397Y-113120827D01*
X171009390Y-113120814D01*
X170921789Y-112989711D01*
X170921786Y-112989707D01*
X170810292Y-112878213D01*
X170810288Y-112878210D01*
X170679185Y-112790609D01*
X170679172Y-112790602D01*
X170533501Y-112730264D01*
X170533489Y-112730261D01*
X170378845Y-112699500D01*
X170378842Y-112699500D01*
X170221158Y-112699500D01*
X170221155Y-112699500D01*
X170066510Y-112730261D01*
X170066498Y-112730264D01*
X169920827Y-112790602D01*
X169920814Y-112790609D01*
X169789711Y-112878210D01*
X169789707Y-112878213D01*
X169678213Y-112989707D01*
X169678210Y-112989711D01*
X169590609Y-113120814D01*
X169590602Y-113120827D01*
X169530264Y-113266498D01*
X169530261Y-113266510D01*
X169499500Y-113421153D01*
X149970388Y-113421153D01*
X149634574Y-113085339D01*
X149601089Y-113024016D01*
X149600638Y-113021849D01*
X149574353Y-112889711D01*
X149569737Y-112866503D01*
X149538298Y-112790602D01*
X149509397Y-112720827D01*
X149509390Y-112720814D01*
X149421789Y-112589711D01*
X149421786Y-112589707D01*
X149310292Y-112478213D01*
X149310288Y-112478210D01*
X149179185Y-112390609D01*
X149179172Y-112390602D01*
X149033501Y-112330264D01*
X149033489Y-112330261D01*
X148878845Y-112299500D01*
X148878842Y-112299500D01*
X148721158Y-112299500D01*
X148721155Y-112299500D01*
X148566510Y-112330261D01*
X148566498Y-112330264D01*
X148420827Y-112390602D01*
X148420814Y-112390609D01*
X148289711Y-112478210D01*
X148289707Y-112478213D01*
X148178213Y-112589707D01*
X148178210Y-112589711D01*
X148090609Y-112720814D01*
X148090602Y-112720827D01*
X148030264Y-112866498D01*
X148030261Y-112866510D01*
X147999500Y-113021153D01*
X139597032Y-113021153D01*
X139596894Y-113020821D01*
X139519523Y-112905027D01*
X139517786Y-112902092D01*
X139509985Y-112871384D01*
X139500520Y-112841154D01*
X139500500Y-112838941D01*
X139500500Y-111700097D01*
X139520185Y-111633058D01*
X139536819Y-111612416D01*
X140153649Y-110995586D01*
X141219234Y-109930000D01*
X171116657Y-109930000D01*
X171970502Y-109930000D01*
X171953284Y-109939941D01*
X171897429Y-109995796D01*
X171857933Y-110064205D01*
X171837489Y-110140504D01*
X171837489Y-110219496D01*
X171857933Y-110295795D01*
X171897429Y-110364204D01*
X171953284Y-110420059D01*
X171970502Y-110430000D01*
X171116657Y-110430000D01*
X171127850Y-110486274D01*
X171127851Y-110486276D01*
X171207000Y-110677358D01*
X171207005Y-110677368D01*
X171321910Y-110849335D01*
X171321913Y-110849339D01*
X171468160Y-110995586D01*
X171468164Y-110995589D01*
X171640131Y-111110494D01*
X171640141Y-111110499D01*
X171831225Y-111189649D01*
X171831233Y-111189651D01*
X172034079Y-111229999D01*
X172034083Y-111230000D01*
X172436038Y-111230000D01*
X172503077Y-111249685D01*
X172548832Y-111302489D01*
X172558776Y-111371647D01*
X172555815Y-111386079D01*
X172517000Y-111530943D01*
X172517000Y-111530945D01*
X172517000Y-111689056D01*
X172557923Y-111841783D01*
X172557926Y-111841790D01*
X172636975Y-111978709D01*
X172636979Y-111978714D01*
X172636980Y-111978716D01*
X172748784Y-112090520D01*
X172748786Y-112090521D01*
X172748790Y-112090524D01*
X172885709Y-112169573D01*
X172885716Y-112169577D01*
X173038443Y-112210500D01*
X173038445Y-112210500D01*
X173196555Y-112210500D01*
X173196557Y-112210500D01*
X173349284Y-112169577D01*
X173486216Y-112090520D01*
X173598020Y-111978716D01*
X173677077Y-111841784D01*
X173718000Y-111689057D01*
X173718000Y-111530943D01*
X173677077Y-111378216D01*
X173644011Y-111320943D01*
X173598024Y-111241290D01*
X173598021Y-111241287D01*
X173598020Y-111241284D01*
X173598017Y-111241281D01*
X173593074Y-111234839D01*
X173595084Y-111233296D01*
X173567677Y-111183103D01*
X173572661Y-111113411D01*
X173614533Y-111057478D01*
X173619953Y-111053643D01*
X173706831Y-110995592D01*
X173706839Y-110995586D01*
X173853086Y-110849339D01*
X173853089Y-110849335D01*
X173967994Y-110677368D01*
X173967999Y-110677358D01*
X174047148Y-110486276D01*
X174047149Y-110486274D01*
X174058343Y-110430000D01*
X173204498Y-110430000D01*
X173221716Y-110420059D01*
X173277571Y-110364204D01*
X173317067Y-110295795D01*
X173337511Y-110219496D01*
X173337511Y-110140504D01*
X173317067Y-110064205D01*
X173277571Y-109995796D01*
X173221716Y-109939941D01*
X173204498Y-109930000D01*
X174058343Y-109930000D01*
X174047149Y-109873725D01*
X174047148Y-109873723D01*
X173967999Y-109682641D01*
X173967994Y-109682631D01*
X173853089Y-109510664D01*
X173853086Y-109510660D01*
X173706839Y-109364413D01*
X173706835Y-109364410D01*
X173534868Y-109249505D01*
X173534858Y-109249500D01*
X173343774Y-109170350D01*
X173343766Y-109170348D01*
X173140920Y-109130000D01*
X172837500Y-109130000D01*
X172837500Y-109880001D01*
X172337500Y-109880001D01*
X172337500Y-109130000D01*
X172034079Y-109130000D01*
X171831233Y-109170348D01*
X171831225Y-109170350D01*
X171640141Y-109249500D01*
X171640131Y-109249505D01*
X171468164Y-109364410D01*
X171468160Y-109364413D01*
X171321913Y-109510660D01*
X171321910Y-109510664D01*
X171207005Y-109682631D01*
X171207000Y-109682641D01*
X171127851Y-109873723D01*
X171127850Y-109873725D01*
X171116657Y-109930000D01*
X141219234Y-109930000D01*
X141414662Y-109734572D01*
X141475983Y-109701089D01*
X141478150Y-109700638D01*
X141536085Y-109689113D01*
X141633497Y-109669737D01*
X141779179Y-109609394D01*
X141910289Y-109521789D01*
X142021789Y-109410289D01*
X142109394Y-109279179D01*
X142169737Y-109133497D01*
X142200500Y-108978842D01*
X142200500Y-108821158D01*
X142200500Y-108821155D01*
X142200499Y-108821153D01*
X142169738Y-108666510D01*
X142169738Y-108666508D01*
X142169737Y-108666503D01*
X142169735Y-108666498D01*
X142109397Y-108520827D01*
X142109390Y-108520814D01*
X142021789Y-108389711D01*
X142021786Y-108389707D01*
X141910292Y-108278213D01*
X141910288Y-108278210D01*
X141779185Y-108190609D01*
X141779172Y-108190602D01*
X141633501Y-108130264D01*
X141633489Y-108130261D01*
X141478845Y-108099500D01*
X141478842Y-108099500D01*
X141321158Y-108099500D01*
X141321155Y-108099500D01*
X141166510Y-108130261D01*
X141166498Y-108130264D01*
X141020827Y-108190602D01*
X141020814Y-108190609D01*
X140889711Y-108278210D01*
X140889707Y-108278213D01*
X140778213Y-108389707D01*
X140778210Y-108389711D01*
X140690609Y-108520814D01*
X140690602Y-108520827D01*
X140630264Y-108666498D01*
X140630261Y-108666508D01*
X140599361Y-108821850D01*
X140566976Y-108883761D01*
X140565425Y-108885339D01*
X138419481Y-111031282D01*
X138419480Y-111031284D01*
X138372065Y-111113411D01*
X138369361Y-111118094D01*
X138369359Y-111118096D01*
X138340425Y-111168209D01*
X138340424Y-111168210D01*
X138334679Y-111189651D01*
X138299499Y-111320943D01*
X138299499Y-111320945D01*
X138299499Y-111489046D01*
X138299500Y-111489059D01*
X138299500Y-112804559D01*
X138279815Y-112871598D01*
X138269237Y-112884723D01*
X138269576Y-112885001D01*
X138265710Y-112889711D01*
X138178109Y-113020814D01*
X138178102Y-113020827D01*
X138117764Y-113166498D01*
X138117761Y-113166510D01*
X138087000Y-113321153D01*
X119605460Y-113321153D01*
X119531839Y-113247532D01*
X119531835Y-113247529D01*
X119359868Y-113132624D01*
X119359858Y-113132619D01*
X119168774Y-113053469D01*
X119168766Y-113053467D01*
X118965920Y-113013119D01*
X118662500Y-113013119D01*
X118662500Y-113763120D01*
X118162500Y-113763120D01*
X118162500Y-113013119D01*
X117859079Y-113013119D01*
X117656233Y-113053467D01*
X117656225Y-113053469D01*
X117465141Y-113132619D01*
X117465131Y-113132624D01*
X117293164Y-113247529D01*
X117293160Y-113247532D01*
X117146913Y-113393779D01*
X117146910Y-113393783D01*
X117032005Y-113565750D01*
X117032000Y-113565760D01*
X116952851Y-113756842D01*
X116952850Y-113756844D01*
X116941657Y-113813119D01*
X115576615Y-113813119D01*
X115576615Y-113813118D01*
X115575414Y-113805534D01*
X115521908Y-113640863D01*
X115443304Y-113486594D01*
X115341532Y-113346516D01*
X115219102Y-113224086D01*
X115079024Y-113122314D01*
X114924757Y-113043710D01*
X114760084Y-112990204D01*
X114589071Y-112963119D01*
X114452500Y-112963119D01*
X114452500Y-113763120D01*
X113952500Y-113763120D01*
X113952500Y-112963119D01*
X113815929Y-112963119D01*
X113644915Y-112990204D01*
X113480242Y-113043710D01*
X113325975Y-113122314D01*
X113185897Y-113224086D01*
X113063467Y-113346516D01*
X112961695Y-113486594D01*
X112883091Y-113640863D01*
X112829585Y-113805534D01*
X112828384Y-113813118D01*
X111949355Y-113813118D01*
X111913410Y-112122167D01*
X111913482Y-112114601D01*
X112090402Y-107724358D01*
X112091121Y-107715120D01*
X112093353Y-107695810D01*
X112609731Y-103227312D01*
X112610997Y-103218900D01*
X112617025Y-103186451D01*
X113453383Y-98684494D01*
X113455091Y-98676712D01*
X114603133Y-94148817D01*
X114605272Y-94141373D01*
X114613603Y-94115442D01*
X116040727Y-89673128D01*
X116043297Y-89665908D01*
X117747889Y-85310282D01*
X117750971Y-85303088D01*
X118162544Y-84421153D01*
X132399500Y-84421153D01*
X132399500Y-84578846D01*
X132430261Y-84733489D01*
X132430264Y-84733501D01*
X132490602Y-84879172D01*
X132490609Y-84879185D01*
X132578210Y-85010288D01*
X132578213Y-85010292D01*
X132689707Y-85121786D01*
X132689711Y-85121789D01*
X132820814Y-85209390D01*
X132820827Y-85209397D01*
X132939524Y-85258562D01*
X132966503Y-85269737D01*
X133031147Y-85282595D01*
X133121849Y-85300638D01*
X133183760Y-85333023D01*
X133185339Y-85334574D01*
X134671883Y-86821118D01*
X134705368Y-86882441D01*
X134700384Y-86952133D01*
X134680053Y-86987467D01*
X134678207Y-86989715D01*
X134590609Y-87120814D01*
X134590602Y-87120827D01*
X134530264Y-87266498D01*
X134530261Y-87266510D01*
X134499500Y-87421153D01*
X134499500Y-87578846D01*
X134530261Y-87733489D01*
X134530264Y-87733501D01*
X134590602Y-87879172D01*
X134590609Y-87879185D01*
X134678602Y-88010874D01*
X134699480Y-88077551D01*
X134699500Y-88079765D01*
X134699500Y-95413330D01*
X134699499Y-95413348D01*
X134699499Y-95579054D01*
X134699498Y-95579054D01*
X134740423Y-95731785D01*
X134769358Y-95781900D01*
X134769359Y-95781904D01*
X134769360Y-95781904D01*
X134819479Y-95868714D01*
X134819481Y-95868717D01*
X134938349Y-95987585D01*
X134938355Y-95987590D01*
X144265425Y-105314660D01*
X144298910Y-105375983D01*
X144299361Y-105378149D01*
X144330261Y-105533491D01*
X144330264Y-105533501D01*
X144390602Y-105679172D01*
X144390609Y-105679185D01*
X144478210Y-105810288D01*
X144478213Y-105810292D01*
X144589707Y-105921786D01*
X144589711Y-105921789D01*
X144720814Y-106009390D01*
X144720827Y-106009397D01*
X144866498Y-106069735D01*
X144866503Y-106069737D01*
X145021153Y-106100499D01*
X145021156Y-106100500D01*
X145021158Y-106100500D01*
X145178844Y-106100500D01*
X145178845Y-106100499D01*
X145333497Y-106069737D01*
X145479179Y-106009394D01*
X145610289Y-105921789D01*
X145721789Y-105810289D01*
X145809394Y-105679179D01*
X145869737Y-105533497D01*
X145900500Y-105378842D01*
X145900500Y-105221158D01*
X145900500Y-105221155D01*
X145900499Y-105221153D01*
X145869738Y-105066510D01*
X145869737Y-105066503D01*
X145869735Y-105066498D01*
X145809397Y-104920827D01*
X145809390Y-104920814D01*
X145721789Y-104789711D01*
X145721786Y-104789707D01*
X145610292Y-104678213D01*
X145610288Y-104678210D01*
X145479185Y-104590609D01*
X145479172Y-104590602D01*
X145333501Y-104530264D01*
X145333491Y-104530261D01*
X145178149Y-104499361D01*
X145116238Y-104466976D01*
X145114660Y-104465425D01*
X135936819Y-95287584D01*
X135903334Y-95226261D01*
X135900500Y-95199903D01*
X135900500Y-88349097D01*
X135920185Y-88282058D01*
X135972989Y-88236303D01*
X136042147Y-88226359D01*
X136105703Y-88255384D01*
X136112181Y-88261416D01*
X136415139Y-88564374D01*
X136415149Y-88564385D01*
X136419479Y-88568715D01*
X136419480Y-88568716D01*
X136531284Y-88680520D01*
X136582845Y-88710288D01*
X136618095Y-88730639D01*
X136618097Y-88730641D01*
X136656151Y-88752611D01*
X136668215Y-88759577D01*
X136820943Y-88800500D01*
X136920234Y-88800500D01*
X136987273Y-88820185D01*
X136989125Y-88821398D01*
X137120814Y-88909390D01*
X137120827Y-88909397D01*
X137266498Y-88969735D01*
X137266503Y-88969737D01*
X137421153Y-89000499D01*
X137421156Y-89000500D01*
X137421158Y-89000500D01*
X137578844Y-89000500D01*
X137578845Y-89000499D01*
X137733497Y-88969737D01*
X137879179Y-88909394D01*
X138010289Y-88821789D01*
X138121789Y-88710289D01*
X138209394Y-88579179D01*
X138269737Y-88433497D01*
X138300500Y-88278842D01*
X138300500Y-88121158D01*
X138300500Y-88121155D01*
X138300499Y-88121153D01*
X138278563Y-88010874D01*
X138269737Y-87966503D01*
X138233569Y-87879185D01*
X138209397Y-87820827D01*
X138209390Y-87820814D01*
X138121789Y-87689711D01*
X138121786Y-87689707D01*
X138010292Y-87578213D01*
X138010288Y-87578210D01*
X137879185Y-87490609D01*
X137879172Y-87490602D01*
X137733501Y-87430264D01*
X137733489Y-87430261D01*
X137578845Y-87399500D01*
X137578842Y-87399500D01*
X137421158Y-87399500D01*
X137421155Y-87399500D01*
X137266510Y-87430261D01*
X137266507Y-87430262D01*
X137266506Y-87430262D01*
X137266503Y-87430263D01*
X137205003Y-87455737D01*
X137140105Y-87482618D01*
X137070635Y-87490086D01*
X137008156Y-87458810D01*
X137004972Y-87455737D01*
X134034574Y-84485339D01*
X134001089Y-84424016D01*
X134000638Y-84421849D01*
X133969738Y-84266510D01*
X133969737Y-84266503D01*
X133969735Y-84266498D01*
X133909397Y-84120827D01*
X133909390Y-84120814D01*
X133821789Y-83989711D01*
X133821786Y-83989707D01*
X133710292Y-83878213D01*
X133710288Y-83878210D01*
X133579185Y-83790609D01*
X133579172Y-83790602D01*
X133433501Y-83730264D01*
X133433489Y-83730261D01*
X133278845Y-83699500D01*
X133278842Y-83699500D01*
X133121158Y-83699500D01*
X133121155Y-83699500D01*
X132966510Y-83730261D01*
X132966498Y-83730264D01*
X132820827Y-83790602D01*
X132820814Y-83790609D01*
X132689711Y-83878210D01*
X132689707Y-83878213D01*
X132578213Y-83989707D01*
X132578210Y-83989711D01*
X132490609Y-84120814D01*
X132490602Y-84120827D01*
X132430264Y-84266498D01*
X132430261Y-84266510D01*
X132399500Y-84421153D01*
X118162544Y-84421153D01*
X119550209Y-81447611D01*
X119596393Y-81395191D01*
X119663593Y-81376059D01*
X119730468Y-81396295D01*
X119772057Y-81441840D01*
X119804808Y-81503435D01*
X119909005Y-81641710D01*
X119909008Y-81641713D01*
X120033555Y-81761986D01*
X120677879Y-82213148D01*
X121108054Y-81598795D01*
X121517628Y-81885582D01*
X121087454Y-82499936D01*
X121731779Y-82951099D01*
X121887392Y-83026995D01*
X121887398Y-83026997D01*
X122052971Y-83077618D01*
X122052982Y-83077621D01*
X122224425Y-83101715D01*
X122224440Y-83101716D01*
X122397549Y-83098696D01*
X122397552Y-83098695D01*
X122568054Y-83068631D01*
X122568069Y-83068627D01*
X122731771Y-83012260D01*
X122731784Y-83012254D01*
X122884652Y-82930972D01*
X123022929Y-82826772D01*
X123022932Y-82826769D01*
X123028263Y-82821247D01*
X122308118Y-82316996D01*
X122356985Y-82308380D01*
X122440510Y-82269431D01*
X122511109Y-82210192D01*
X122563970Y-82134699D01*
X122595490Y-82048098D01*
X122603522Y-81956288D01*
X122594905Y-81907420D01*
X123315052Y-82411673D01*
X123318419Y-82404772D01*
X123369039Y-82239197D01*
X123369042Y-82239186D01*
X123393136Y-82067743D01*
X123393137Y-82067728D01*
X123390117Y-81894619D01*
X123390116Y-81894616D01*
X123360052Y-81724114D01*
X123360048Y-81724099D01*
X123336406Y-81655437D01*
X123324601Y-81621153D01*
X140899500Y-81621153D01*
X140899500Y-81778846D01*
X140930261Y-81933489D01*
X140930264Y-81933501D01*
X140990602Y-82079172D01*
X140990609Y-82079185D01*
X141078210Y-82210288D01*
X141078213Y-82210292D01*
X141189707Y-82321786D01*
X141189711Y-82321789D01*
X141320814Y-82409390D01*
X141320827Y-82409397D01*
X141466498Y-82469735D01*
X141466503Y-82469737D01*
X141531147Y-82482595D01*
X141621849Y-82500638D01*
X141683760Y-82533023D01*
X141685339Y-82534574D01*
X142315139Y-83164374D01*
X142315149Y-83164385D01*
X142319479Y-83168715D01*
X142319480Y-83168716D01*
X142431284Y-83280520D01*
X142482845Y-83310288D01*
X142518095Y-83330639D01*
X142518097Y-83330641D01*
X142556151Y-83352611D01*
X142568215Y-83359577D01*
X142720943Y-83400501D01*
X142720946Y-83400501D01*
X142886653Y-83400501D01*
X142886669Y-83400500D01*
X151420234Y-83400500D01*
X151487273Y-83420185D01*
X151489125Y-83421398D01*
X151620814Y-83509390D01*
X151620827Y-83509397D01*
X151766498Y-83569735D01*
X151766503Y-83569737D01*
X151921153Y-83600499D01*
X151921156Y-83600500D01*
X151921158Y-83600500D01*
X152078844Y-83600500D01*
X152078845Y-83600499D01*
X152233497Y-83569737D01*
X152379179Y-83509394D01*
X152510289Y-83421789D01*
X152621789Y-83310289D01*
X152709394Y-83179179D01*
X152769737Y-83033497D01*
X152800500Y-82878842D01*
X152800500Y-82721158D01*
X152800500Y-82721155D01*
X152800499Y-82721153D01*
X152769738Y-82566510D01*
X152769737Y-82566503D01*
X152742398Y-82500500D01*
X152709397Y-82420827D01*
X152709390Y-82420814D01*
X152621789Y-82289711D01*
X152621786Y-82289707D01*
X152510292Y-82178213D01*
X152510288Y-82178210D01*
X152379185Y-82090609D01*
X152379172Y-82090602D01*
X152233501Y-82030264D01*
X152233489Y-82030261D01*
X152078845Y-81999500D01*
X152078842Y-81999500D01*
X151921158Y-81999500D01*
X151921155Y-81999500D01*
X151766510Y-82030261D01*
X151766498Y-82030264D01*
X151620827Y-82090602D01*
X151620814Y-82090609D01*
X151489125Y-82178602D01*
X151422447Y-82199480D01*
X151420234Y-82199500D01*
X143100097Y-82199500D01*
X143033058Y-82179815D01*
X143012416Y-82163181D01*
X142534574Y-81685339D01*
X142501089Y-81624016D01*
X142500638Y-81621849D01*
X142469738Y-81466510D01*
X142469737Y-81466503D01*
X142440199Y-81395191D01*
X142409397Y-81320827D01*
X142409390Y-81320814D01*
X142321789Y-81189711D01*
X142321786Y-81189707D01*
X142210292Y-81078213D01*
X142210288Y-81078210D01*
X142079185Y-80990609D01*
X142079172Y-80990602D01*
X141933501Y-80930264D01*
X141933489Y-80930261D01*
X141778845Y-80899500D01*
X141778842Y-80899500D01*
X141621158Y-80899500D01*
X141621155Y-80899500D01*
X141466510Y-80930261D01*
X141466498Y-80930264D01*
X141320827Y-80990602D01*
X141320814Y-80990609D01*
X141189711Y-81078210D01*
X141189707Y-81078213D01*
X141078213Y-81189707D01*
X141078210Y-81189711D01*
X140990609Y-81320814D01*
X140990602Y-81320827D01*
X140930264Y-81466498D01*
X140930261Y-81466510D01*
X140899500Y-81621153D01*
X123324601Y-81621153D01*
X123303680Y-81560396D01*
X123303680Y-81560395D01*
X123222393Y-81407514D01*
X123118196Y-81269241D01*
X123118193Y-81269238D01*
X122993643Y-81148962D01*
X122349321Y-80697802D01*
X121919146Y-81312156D01*
X121509571Y-81025368D01*
X121939746Y-80411014D01*
X121640615Y-80201560D01*
X121295422Y-79959852D01*
X121139809Y-79883956D01*
X121139803Y-79883954D01*
X120974230Y-79833333D01*
X120974219Y-79833330D01*
X120802776Y-79809236D01*
X120802761Y-79809235D01*
X120634648Y-79812168D01*
X120567275Y-79793656D01*
X120520606Y-79741658D01*
X120509458Y-79672684D01*
X120523869Y-79628368D01*
X121897607Y-77134522D01*
X121902204Y-77126849D01*
X121908155Y-77117680D01*
X124303411Y-73427259D01*
X124309113Y-73419199D01*
X126815231Y-70161155D01*
X126871707Y-70120020D01*
X126941458Y-70115948D01*
X127002338Y-70150232D01*
X127035018Y-70211988D01*
X127036310Y-70254015D01*
X127033200Y-70276143D01*
X127033199Y-70276161D01*
X127036219Y-70449270D01*
X127036220Y-70449273D01*
X127066284Y-70619775D01*
X127066288Y-70619790D01*
X127122655Y-70783492D01*
X127122661Y-70783505D01*
X127203943Y-70936373D01*
X127308140Y-71074648D01*
X127308143Y-71074651D01*
X127432690Y-71194924D01*
X128077014Y-71646086D01*
X128507189Y-71031733D01*
X128916763Y-71318520D01*
X128486589Y-71932874D01*
X129130914Y-72384037D01*
X129286527Y-72459933D01*
X129286533Y-72459935D01*
X129452106Y-72510556D01*
X129452117Y-72510559D01*
X129623560Y-72534653D01*
X129623575Y-72534654D01*
X129796684Y-72531634D01*
X129796687Y-72531633D01*
X129967189Y-72501569D01*
X129967204Y-72501565D01*
X130130906Y-72445198D01*
X130130919Y-72445192D01*
X130283787Y-72363910D01*
X130422064Y-72259710D01*
X130422067Y-72259707D01*
X130427398Y-72254185D01*
X129707253Y-71749934D01*
X129756120Y-71741318D01*
X129839645Y-71702369D01*
X129910244Y-71643130D01*
X129963105Y-71567637D01*
X129994625Y-71481036D01*
X130002657Y-71389226D01*
X129994040Y-71340358D01*
X130714187Y-71844611D01*
X130717554Y-71837710D01*
X130768174Y-71672135D01*
X130768177Y-71672124D01*
X130792271Y-71500681D01*
X130792272Y-71500666D01*
X130789252Y-71327557D01*
X130789251Y-71327554D01*
X130759187Y-71157052D01*
X130759183Y-71157037D01*
X130702816Y-70993334D01*
X130702815Y-70993333D01*
X130621528Y-70840452D01*
X130517331Y-70702179D01*
X130517328Y-70702176D01*
X130392778Y-70581900D01*
X129748456Y-70130740D01*
X129318281Y-70745094D01*
X128908706Y-70458306D01*
X129338881Y-69843952D01*
X129039751Y-69634499D01*
X128694557Y-69392790D01*
X128538944Y-69316894D01*
X128538938Y-69316892D01*
X128373365Y-69266271D01*
X128373354Y-69266268D01*
X128201911Y-69242174D01*
X128201896Y-69242173D01*
X128028787Y-69245193D01*
X128028781Y-69245194D01*
X127930729Y-69262483D01*
X127861290Y-69254739D01*
X127807061Y-69210682D01*
X127785260Y-69144300D01*
X127802809Y-69076670D01*
X127818153Y-69056185D01*
X129686349Y-67035936D01*
X129693034Y-67029241D01*
X131137278Y-65689990D01*
X131142515Y-65685402D01*
X132309981Y-64719437D01*
X141824500Y-64719437D01*
X141824500Y-65080562D01*
X141859896Y-65439957D01*
X141930344Y-65794130D01*
X141930347Y-65794141D01*
X142035181Y-66139733D01*
X142173381Y-66473376D01*
X142173383Y-66473381D01*
X142343609Y-66791852D01*
X142343620Y-66791870D01*
X142544244Y-67092125D01*
X142544254Y-67092139D01*
X142773354Y-67371297D01*
X143028702Y-67626645D01*
X143028707Y-67626649D01*
X143028708Y-67626650D01*
X143307866Y-67855750D01*
X143608136Y-68056384D01*
X143608145Y-68056389D01*
X143608147Y-68056390D01*
X143926618Y-68226616D01*
X143926620Y-68226616D01*
X143926626Y-68226620D01*
X144260268Y-68364819D01*
X144605849Y-68469650D01*
X144605855Y-68469651D01*
X144605858Y-68469652D01*
X144605869Y-68469655D01*
X144920265Y-68532191D01*
X144960042Y-68540103D01*
X145319434Y-68575500D01*
X145319437Y-68575500D01*
X145680563Y-68575500D01*
X145680566Y-68575500D01*
X146039958Y-68540103D01*
X146108904Y-68526388D01*
X146394130Y-68469655D01*
X146394141Y-68469652D01*
X146394141Y-68469651D01*
X146394151Y-68469650D01*
X146739732Y-68364819D01*
X147073374Y-68226620D01*
X147391864Y-68056384D01*
X147692134Y-67855750D01*
X147971292Y-67626650D01*
X148226650Y-67371292D01*
X148455750Y-67092134D01*
X148656384Y-66791864D01*
X148826620Y-66473374D01*
X148964819Y-66139732D01*
X149069650Y-65794151D01*
X149069652Y-65794141D01*
X149069655Y-65794130D01*
X149140103Y-65439957D01*
X149175500Y-65080562D01*
X149175500Y-64719437D01*
X149165790Y-64620853D01*
X149140103Y-64360042D01*
X149133970Y-64329207D01*
X149069655Y-64005869D01*
X149069652Y-64005858D01*
X149069651Y-64005855D01*
X149069650Y-64005849D01*
X148964819Y-63660268D01*
X148826620Y-63326626D01*
X148656384Y-63008136D01*
X148455750Y-62707866D01*
X148226650Y-62428708D01*
X148226649Y-62428707D01*
X148226645Y-62428702D01*
X147971297Y-62173354D01*
X147692139Y-61944254D01*
X147692138Y-61944253D01*
X147692134Y-61944250D01*
X147391864Y-61743616D01*
X147391859Y-61743613D01*
X147391852Y-61743609D01*
X147073381Y-61573383D01*
X147073376Y-61573381D01*
X146739733Y-61435181D01*
X146394141Y-61330347D01*
X146394130Y-61330344D01*
X146039957Y-61259896D01*
X145769279Y-61233237D01*
X145680566Y-61224500D01*
X145319434Y-61224500D01*
X145237465Y-61232573D01*
X144960042Y-61259896D01*
X144605869Y-61330344D01*
X144605858Y-61330347D01*
X144260266Y-61435181D01*
X143926623Y-61573381D01*
X143926618Y-61573383D01*
X143608147Y-61743609D01*
X143608129Y-61743620D01*
X143307874Y-61944244D01*
X143307860Y-61944254D01*
X143028702Y-62173354D01*
X142773354Y-62428702D01*
X142544254Y-62707860D01*
X142544244Y-62707874D01*
X142343620Y-63008129D01*
X142343609Y-63008147D01*
X142173383Y-63326618D01*
X142173381Y-63326623D01*
X142035181Y-63660266D01*
X141930347Y-64005858D01*
X141930344Y-64005869D01*
X141859896Y-64360042D01*
X141824500Y-64719437D01*
X132309981Y-64719437D01*
X132625310Y-64458533D01*
X132631251Y-64453916D01*
X134148424Y-63347556D01*
X134155163Y-63342977D01*
X135704270Y-62363605D01*
X135711922Y-62359144D01*
X137290511Y-61513193D01*
X137299142Y-61508990D01*
X138904908Y-60802766D01*
X138914524Y-60799007D01*
X140545210Y-60238799D01*
X140555770Y-60235689D01*
X142209159Y-59827765D01*
X142220576Y-59825511D01*
X143894678Y-59576115D01*
X143906735Y-59574919D01*
X145599710Y-59490365D01*
X145612053Y-59490365D01*
X147301972Y-59574913D01*
G37*
%TD.AperFunction*%
%TD*%
M02*
