%TF.GenerationSoftware,KiCad,Pcbnew,10.0.1*%
%TF.CreationDate,2026-06-14T09:23:57+08:00*%
%TF.ProjectId,USB_HUB,5553425f-4855-4422-9e6b-696361645f70,rev?*%
%TF.SameCoordinates,Original*%
%TF.FileFunction,Copper,L1,Top*%
%TF.FilePolarity,Positive*%
%FSLAX46Y46*%
G04 Gerber Fmt 4.6, Leading zero omitted, Abs format (unit mm)*
G04 Created by KiCad (PCBNEW 10.0.1) date 2026-06-14 09:23:57*
%MOMM*%
%LPD*%
G01*
G04 APERTURE LIST*
G04 Aperture macros list*
%AMRoundRect*
0 Rectangle with rounded corners*
0 $1 Rounding radius*
0 $2 $3 $4 $5 $6 $7 $8 $9 X,Y pos of 4 corners*
0 Add a 4 corners polygon primitive as box body*
4,1,4,$2,$3,$4,$5,$6,$7,$8,$9,$2,$3,0*
0 Add four circle primitives for the rounded corners*
1,1,$1+$1,$2,$3*
1,1,$1+$1,$4,$5*
1,1,$1+$1,$6,$7*
1,1,$1+$1,$8,$9*
0 Add four rect primitives between the rounded corners*
20,1,$1+$1,$2,$3,$4,$5,0*
20,1,$1+$1,$4,$5,$6,$7,0*
20,1,$1+$1,$6,$7,$8,$9,0*
20,1,$1+$1,$8,$9,$2,$3,0*%
%AMHorizOval*
0 Thick line with rounded ends*
0 $1 width*
0 $2 $3 position (X,Y) of the first rounded end (center of the circle)*
0 $4 $5 position (X,Y) of the second rounded end (center of the circle)*
0 Add line between two ends*
20,1,$1,$2,$3,$4,$5,0*
0 Add two circle primitives to create the rounded ends*
1,1,$1,$2,$3*
1,1,$1,$4,$5*%
%AMRotRect*
0 Rectangle, with rotation*
0 The origin of the aperture is its center*
0 $1 length*
0 $2 width*
0 $3 Rotation angle, in degrees counterclockwise*
0 Add horizontal line*
21,1,$1,$2,0,0,$3*%
G04 Aperture macros list end*
%TA.AperFunction,NonConductor*%
%ADD10C,0.200000*%
%TD*%
%TA.AperFunction,Conductor*%
%ADD11C,0.200000*%
%TD*%
%TA.AperFunction,SMDPad,CuDef*%
%ADD12RoundRect,0.140000X0.140000X0.170000X-0.140000X0.170000X-0.140000X-0.170000X0.140000X-0.170000X0*%
%TD*%
%TA.AperFunction,SMDPad,CuDef*%
%ADD13RoundRect,0.200000X0.200000X0.275000X-0.200000X0.275000X-0.200000X-0.275000X0.200000X-0.275000X0*%
%TD*%
%TA.AperFunction,SMDPad,CuDef*%
%ADD14RoundRect,0.200000X-0.275000X0.200000X-0.275000X-0.200000X0.275000X-0.200000X0.275000X0.200000X0*%
%TD*%
%TA.AperFunction,SMDPad,CuDef*%
%ADD15R,1.100000X0.550000*%
%TD*%
%TA.AperFunction,SMDPad,CuDef*%
%ADD16R,1.100000X0.300000*%
%TD*%
%TA.AperFunction,ComponentPad*%
%ADD17O,2.000000X1.100000*%
%TD*%
%TA.AperFunction,ComponentPad*%
%ADD18O,1.800000X1.200000*%
%TD*%
%TA.AperFunction,SMDPad,CuDef*%
%ADD19RoundRect,0.140000X-0.212189X-0.058955X0.017173X-0.219557X0.212189X0.058955X-0.017173X0.219557X0*%
%TD*%
%TA.AperFunction,SMDPad,CuDef*%
%ADD20RoundRect,0.150000X-0.505852X0.171085X0.333779X-0.416831X0.505852X-0.171085X-0.333779X0.416831X0*%
%TD*%
%TA.AperFunction,SMDPad,CuDef*%
%ADD21RotRect,1.120000X2.880000X125.000000*%
%TD*%
%TA.AperFunction,ComponentPad*%
%ADD22HorizOval,1.200000X0.778194X0.544898X-0.778194X-0.544898X0*%
%TD*%
%TA.AperFunction,SMDPad,CuDef*%
%ADD23RoundRect,0.140000X-0.170000X0.140000X-0.170000X-0.140000X0.170000X-0.140000X0.170000X0.140000X0*%
%TD*%
%TA.AperFunction,SMDPad,CuDef*%
%ADD24R,0.550000X1.100000*%
%TD*%
%TA.AperFunction,SMDPad,CuDef*%
%ADD25R,0.300000X1.100000*%
%TD*%
%TA.AperFunction,ComponentPad*%
%ADD26O,1.100000X2.000000*%
%TD*%
%TA.AperFunction,ComponentPad*%
%ADD27O,1.200000X1.800000*%
%TD*%
%TA.AperFunction,SMDPad,CuDef*%
%ADD28RoundRect,0.150000X-0.150000X0.512500X-0.150000X-0.512500X0.150000X-0.512500X0.150000X0.512500X0*%
%TD*%
%TA.AperFunction,SMDPad,CuDef*%
%ADD29RoundRect,0.150000X0.150000X-0.512500X0.150000X0.512500X-0.150000X0.512500X-0.150000X-0.512500X0*%
%TD*%
%TA.AperFunction,SMDPad,CuDef*%
%ADD30RotRect,1.120000X2.880000X235.000000*%
%TD*%
%TA.AperFunction,ComponentPad*%
%ADD31HorizOval,1.200000X-0.778194X0.544898X0.778194X-0.544898X0*%
%TD*%
%TA.AperFunction,SMDPad,CuDef*%
%ADD32RoundRect,0.150000X-0.512500X-0.150000X0.512500X-0.150000X0.512500X0.150000X-0.512500X0.150000X0*%
%TD*%
%TA.AperFunction,SMDPad,CuDef*%
%ADD33RoundRect,0.140000X0.170000X-0.140000X0.170000X0.140000X-0.170000X0.140000X-0.170000X-0.140000X0*%
%TD*%
%TA.AperFunction,SMDPad,CuDef*%
%ADD34RoundRect,0.140000X0.017173X0.219557X-0.212189X0.058955X-0.017173X-0.219557X0.212189X-0.058955X0*%
%TD*%
%TA.AperFunction,SMDPad,CuDef*%
%ADD35RoundRect,0.140000X-0.140000X-0.170000X0.140000X-0.170000X0.140000X0.170000X-0.140000X0.170000X0*%
%TD*%
%TA.AperFunction,SMDPad,CuDef*%
%ADD36R,0.250000X1.200000*%
%TD*%
%TA.AperFunction,ViaPad*%
%ADD37C,0.600000*%
%TD*%
G04 APERTURE END LIST*
D10*
X106500000Y-58000000D02*
X184500000Y-58000000D01*
X184500000Y-151000000D01*
X106500000Y-151000000D01*
X106500000Y-58000000D01*
%TO.N,GND*%
D11*
X118567200Y-121800000D02*
X118567200Y-122200000D01*
X118600000Y-114500000D02*
X118600000Y-115100000D01*
%TO.N,Net-(USB7-CC2)*%
X119329200Y-120142000D02*
X122428000Y-120142000D01*
%TO.N,GND*%
X137600000Y-80400000D02*
X138400000Y-80400000D01*
X138400000Y-80400000D02*
X138400000Y-79500000D01*
X142240000Y-140967700D02*
X142240000Y-141932900D01*
X142240000Y-142339300D02*
X141579600Y-142339300D01*
%TO.N,Net-(USB2-CC1)*%
X144272000Y-139291300D02*
X144272000Y-142440900D01*
%TO.N,/DP1*%
X145288000Y-145100000D02*
X145288000Y-142644100D01*
%TO.N,/DP4*%
X145700000Y-106900000D02*
X145700000Y-107700000D01*
%TO.N,/DP1*%
X146253200Y-142440900D02*
X146253200Y-145100000D01*
X146253200Y-145100000D02*
X145288000Y-145100000D01*
%TO.N,GND*%
X146800000Y-106000000D02*
X146800000Y-107600000D01*
%TO.N,Net-(USB2-CC2)*%
X147218400Y-139291300D02*
X147218400Y-142034500D01*
%TO.N,GND*%
X147500000Y-115000000D02*
X147500000Y-116100000D01*
X147500000Y-118200000D02*
X147500000Y-119200000D01*
X147900000Y-111700000D02*
X148400000Y-111700000D01*
X148400000Y-111700000D02*
X149200000Y-111700000D01*
X148742400Y-138529300D02*
X148742400Y-142085300D01*
X148742400Y-142644100D02*
X149402800Y-142644100D01*
X149900000Y-102600000D02*
X150900000Y-102600000D01*
X150100000Y-103500000D02*
X150900000Y-103500000D01*
%TO.N,Net-(U1-VDD18)*%
X152000000Y-102500000D02*
X152000000Y-103500000D01*
%TO.N,GND*%
X155800000Y-101100000D02*
X157100000Y-101100000D01*
X156000000Y-99900000D02*
X156900000Y-99900000D01*
X156600000Y-113300000D02*
X156600000Y-114900000D01*
%TO.N,Net-(U1-VDD33)*%
X157886400Y-101092000D02*
X157886400Y-100025200D01*
%TO.N,GND*%
X158100000Y-87000000D02*
X158100000Y-88000000D01*
X165200000Y-111400000D02*
X165200000Y-112700000D01*
%TO.N,Net-(USB6-CC2)*%
X166878000Y-112725200D02*
X171653200Y-112725200D01*
%TO.N,GND*%
X167436800Y-119075200D02*
X168859200Y-119075200D01*
X167600000Y-115800000D02*
X167600000Y-117100000D01*
%TO.N,Net-(USB6-CC1)*%
X169468800Y-115773200D02*
X171602400Y-115773200D01*
%TO.N,GND*%
X172300000Y-111200000D02*
X172300000Y-110600000D01*
X172300000Y-117800000D02*
X172300000Y-118400000D01*
%TD*%
D12*
%TO.P,C9,1*%
%TO.N,Net-(U1-VDD33)*%
X157960000Y-100000000D03*
%TO.P,C9,2*%
%TO.N,GND*%
X157000000Y-100000000D03*
%TD*%
D13*
%TO.P,R2,1*%
%TO.N,Net-(USB6-CC2)*%
X166788600Y-112776000D03*
%TO.P,R2,2*%
%TO.N,GND*%
X165138600Y-112776000D03*
%TD*%
D12*
%TO.P,C4,1*%
%TO.N,+5V*%
X122587836Y-113385600D03*
%TO.P,C4,2*%
%TO.N,GND*%
X121627836Y-113385600D03*
%TD*%
D14*
%TO.P,R4,1*%
%TO.N,+5V*%
X144272000Y-137591218D03*
%TO.P,R4,2*%
%TO.N,Net-(USB2-CC1)*%
X144272000Y-139241218D03*
%TD*%
D15*
%TO.P,USB6,1,GND_1*%
%TO.N,GND*%
X172037500Y-117700000D03*
%TO.P,USB6,2,VBUS_2*%
%TO.N,+5V*%
X172037500Y-116900000D03*
D16*
%TO.P,USB6,3,SBU2_3*%
%TO.N,unconnected-(USB6-SBU2-Pad3)*%
X172037500Y-116250000D03*
%TO.P,USB6,4,CC1_4*%
%TO.N,Net-(USB6-CC1)*%
X172037500Y-115750000D03*
%TO.P,USB6,5,DN2_5*%
%TO.N,/DN*%
X172037500Y-115250000D03*
%TO.P,USB6,6,DP1_6*%
%TO.N,/DP*%
X172037500Y-114750000D03*
%TO.P,USB6,7,DN1_7*%
%TO.N,/DN*%
X172037500Y-114250000D03*
%TO.P,USB6,8,DP2_8*%
%TO.N,/DP*%
X172037500Y-113750000D03*
%TO.P,USB6,9,SBU1_9*%
%TO.N,unconnected-(USB6-SBU1-Pad9)*%
X172037500Y-113250000D03*
%TO.P,USB6,10,CC2_10*%
%TO.N,Net-(USB6-CC2)*%
X172037500Y-112750000D03*
D15*
%TO.P,USB6,11,VBUS_11*%
%TO.N,+5V*%
X172037500Y-112100000D03*
%TO.P,USB6,12,GND_12*%
%TO.N,GND*%
X172037500Y-111300000D03*
D17*
%TO.P,USB6,13,SHELL_13*%
X172587500Y-118820000D03*
D18*
X176797500Y-118820000D03*
D17*
%TO.P,USB6,14,SHELL_14*%
X172587500Y-110180000D03*
D18*
X176797500Y-110180000D03*
%TD*%
D19*
%TO.P,C3,1*%
%TO.N,+5V*%
X136806807Y-79887083D03*
%TO.P,C3,2*%
%TO.N,GND*%
X137593193Y-80437717D03*
%TD*%
D12*
%TO.P,C8,1*%
%TO.N,Net-(U1-VDD33)*%
X157980000Y-101000000D03*
%TO.P,C8,2*%
%TO.N,GND*%
X157020000Y-101000000D03*
%TD*%
%TO.P,C11,1*%
%TO.N,+5V*%
X148440000Y-118000000D03*
%TO.P,C11,2*%
%TO.N,GND*%
X147480000Y-118000000D03*
%TD*%
D20*
%TO.P,U6,1,I/O1_1*%
%TO.N,/DP4*%
X147313112Y-83169362D03*
%TO.P,U6,2,GND_2*%
%TO.N,GND*%
X146768215Y-83947557D03*
%TO.P,U6,3,I/O2_3*%
%TO.N,/DN4*%
X146223317Y-84725751D03*
%TO.P,U6,4,I/O2_4*%
X148086888Y-86030638D03*
%TO.P,U6,5,VBUS_5*%
%TO.N,+5V*%
X148631785Y-85252443D03*
%TO.P,U6,6,I/O1_6*%
%TO.N,/DP4*%
X149176683Y-84474249D03*
%TD*%
D13*
%TO.P,R5,1*%
%TO.N,+5V*%
X124319800Y-120142000D03*
%TO.P,R5,2*%
%TO.N,Net-(USB7-CC2)*%
X122669800Y-120142000D03*
%TD*%
D19*
%TO.P,C16,1*%
%TO.N,+5V*%
X151506806Y-87224684D03*
%TO.P,C16,2*%
%TO.N,GND*%
X152293194Y-87775316D03*
%TD*%
D12*
%TO.P,C10,1*%
%TO.N,+5V*%
X148480000Y-116000000D03*
%TO.P,C10,2*%
%TO.N,GND*%
X147520000Y-116000000D03*
%TD*%
D21*
%TO.P,USB8,1,VCC_1*%
%TO.N,+5V*%
X158534931Y-81308703D03*
%TO.P,USB8,2,D-_2*%
%TO.N,/DN4*%
X157100990Y-79260823D03*
%TO.P,USB8,3,D+_3*%
%TO.N,/DP4*%
X155953837Y-77622519D03*
%TO.P,USB8,4,GND_4*%
%TO.N,GND*%
X154519896Y-75574638D03*
D22*
%TO.P,USB8,5,5_5*%
X167419136Y-78689200D03*
%TO.P,USB8,6,6_6*%
X160020000Y-68122139D03*
%TD*%
D23*
%TO.P,C2,1*%
%TO.N,+5V*%
X148691600Y-137541300D03*
%TO.P,C2,2*%
%TO.N,GND*%
X148691600Y-138501300D03*
%TD*%
D14*
%TO.P,R3,1*%
%TO.N,+5V*%
X147269200Y-137551900D03*
%TO.P,R3,2*%
%TO.N,Net-(USB2-CC2)*%
X147269200Y-139201900D03*
%TD*%
D24*
%TO.P,USB2,1,GND_1*%
%TO.N,GND*%
X142300000Y-142340000D03*
%TO.P,USB2,2,VBUS_2*%
%TO.N,+5V*%
X143100000Y-142340000D03*
D25*
%TO.P,USB2,3,SBU2_3*%
%TO.N,unconnected-(USB2-SBU2-Pad3)*%
X143750000Y-142340000D03*
%TO.P,USB2,4,CC1_4*%
%TO.N,Net-(USB2-CC1)*%
X144250000Y-142340000D03*
%TO.P,USB2,5,DN2_5*%
%TO.N,/DN1*%
X144750000Y-142340000D03*
%TO.P,USB2,6,DP1_6*%
%TO.N,/DP1*%
X145250000Y-142340000D03*
%TO.P,USB2,7,DN1_7*%
%TO.N,/DN1*%
X145750000Y-142340000D03*
%TO.P,USB2,8,DP2_8*%
%TO.N,/DP1*%
X146250000Y-142340000D03*
%TO.P,USB2,9,SBU1_9*%
%TO.N,unconnected-(USB2-SBU1-Pad9)*%
X146750000Y-142340000D03*
%TO.P,USB2,10,CC2_10*%
%TO.N,Net-(USB2-CC2)*%
X147250000Y-142340000D03*
D24*
%TO.P,USB2,11,VBUS_11*%
%TO.N,+5V*%
X147900000Y-142340000D03*
%TO.P,USB2,12,GND_12*%
%TO.N,GND*%
X148700000Y-142340000D03*
D26*
%TO.P,USB2,13,SHELL_13*%
X141180000Y-142890000D03*
D27*
X141180000Y-147100000D03*
D26*
%TO.P,USB2,14,SHELL_14*%
X149820000Y-142890000D03*
D27*
X149820000Y-147100000D03*
%TD*%
D28*
%TO.P,U2,1,I/O1_1*%
%TO.N,/DP*%
X157550000Y-115062500D03*
%TO.P,U2,2,GND_2*%
%TO.N,GND*%
X156600000Y-115062500D03*
%TO.P,U2,3,I/O2_3*%
%TO.N,/DN*%
X155650000Y-115062500D03*
%TO.P,U2,4,I/O2_4*%
X155650000Y-117337500D03*
%TO.P,U2,5,VBUS_5*%
%TO.N,+5V*%
X156600000Y-117337500D03*
%TO.P,U2,6,I/O1_6*%
%TO.N,/DP*%
X157550000Y-117337500D03*
%TD*%
D29*
%TO.P,U4,1,I/O1_1*%
%TO.N,/DP2*%
X138887500Y-115675000D03*
%TO.P,U4,2,GND_2*%
%TO.N,GND*%
X139837500Y-115675000D03*
%TO.P,U4,3,I/O2_3*%
%TO.N,/DN2*%
X140787500Y-115675000D03*
%TO.P,U4,4,I/O2_4*%
X140787500Y-113400000D03*
%TO.P,U4,5,VBUS_5*%
%TO.N,+5V*%
X139837500Y-113400000D03*
%TO.P,U4,6,I/O1_6*%
%TO.N,/DP2*%
X138887500Y-113400000D03*
%TD*%
D12*
%TO.P,C6,1*%
%TO.N,Net-(U1-VDD18)*%
X151988400Y-103500000D03*
%TO.P,C6,2*%
%TO.N,GND*%
X151028400Y-103500000D03*
%TD*%
D23*
%TO.P,C1,1*%
%TO.N,+5V*%
X168980000Y-118020000D03*
%TO.P,C1,2*%
%TO.N,GND*%
X168980000Y-118980000D03*
%TD*%
D30*
%TO.P,USB5,1,VCC_1*%
%TO.N,+5V*%
X134412841Y-78340914D03*
%TO.P,USB5,2,D-_2*%
%TO.N,/DN3*%
X132978900Y-80388795D03*
%TO.P,USB5,3,D+_3*%
%TO.N,/DP3*%
X131831747Y-82027099D03*
%TO.P,USB5,4,GND_4*%
%TO.N,GND*%
X130397806Y-84074979D03*
D31*
%TO.P,USB5,5,5_5*%
X128912736Y-70888414D03*
%TO.P,USB5,6,6_6*%
X121513601Y-81455476D03*
%TD*%
D12*
%TO.P,C7,1*%
%TO.N,Net-(U1-VDD18)*%
X151988400Y-102500000D03*
%TO.P,C7,2*%
%TO.N,GND*%
X151028400Y-102500000D03*
%TD*%
D32*
%TO.P,U3,1,I/O1_1*%
%TO.N,/DP1*%
X145062500Y-124750000D03*
%TO.P,U3,2,GND_2*%
%TO.N,GND*%
X145062500Y-125700000D03*
%TO.P,U3,3,I/O2_3*%
%TO.N,/DN1*%
X145062500Y-126650000D03*
%TO.P,U3,4,I/O2_4*%
X147337500Y-126650000D03*
%TO.P,U3,5,VBUS_5*%
%TO.N,+5V*%
X147337500Y-125700000D03*
%TO.P,U3,6,I/O1_6*%
%TO.N,/DP1*%
X147337500Y-124750000D03*
%TD*%
D23*
%TO.P,C15,1*%
%TO.N,+5V*%
X136500000Y-94120000D03*
%TO.P,C15,2*%
%TO.N,GND*%
X136500000Y-95080000D03*
%TD*%
D33*
%TO.P,C14,1*%
%TO.N,+5V*%
X139900000Y-110860000D03*
%TO.P,C14,2*%
%TO.N,GND*%
X139900000Y-109900000D03*
%TD*%
D34*
%TO.P,C5,1*%
%TO.N,+5V*%
X158889193Y-86389483D03*
%TO.P,C5,2*%
%TO.N,GND*%
X158102807Y-86940117D03*
%TD*%
D15*
%TO.P,USB7,1,GND_1*%
%TO.N,GND*%
X118962500Y-115183119D03*
%TO.P,USB7,2,VBUS_2*%
%TO.N,+5V*%
X118962500Y-115983119D03*
D16*
%TO.P,USB7,3,SBU2_3*%
%TO.N,unconnected-(USB7-SBU2-Pad3)*%
X118962500Y-116633119D03*
%TO.P,USB7,4,CC1_4*%
%TO.N,Net-(USB7-CC1)*%
X118962500Y-117133119D03*
%TO.P,USB7,5,DN2_5*%
%TO.N,/DN2*%
X118962500Y-117633119D03*
%TO.P,USB7,6,DP1_6*%
%TO.N,/DP2*%
X118962500Y-118133119D03*
%TO.P,USB7,7,DN1_7*%
%TO.N,/DN2*%
X118962500Y-118633119D03*
%TO.P,USB7,8,DP2_8*%
%TO.N,/DP2*%
X118962500Y-119133119D03*
%TO.P,USB7,9,SBU1_9*%
%TO.N,unconnected-(USB7-SBU1-Pad9)*%
X118962500Y-119633119D03*
%TO.P,USB7,10,CC2_10*%
%TO.N,Net-(USB7-CC2)*%
X118962500Y-120133119D03*
D15*
%TO.P,USB7,11,VBUS_11*%
%TO.N,+5V*%
X118962500Y-120783119D03*
%TO.P,USB7,12,GND_12*%
%TO.N,GND*%
X118962500Y-121583119D03*
D17*
%TO.P,USB7,13,SHELL_13*%
X118412500Y-114063119D03*
D18*
X114202500Y-114063119D03*
D17*
%TO.P,USB7,14,SHELL_14*%
X118412500Y-122703119D03*
D18*
X114202500Y-122703119D03*
%TD*%
D23*
%TO.P,C12,1*%
%TO.N,+5V*%
X156600000Y-119120000D03*
%TO.P,C12,2*%
%TO.N,GND*%
X156600000Y-120080000D03*
%TD*%
D13*
%TO.P,R1,1*%
%TO.N,Net-(USB6-CC1)*%
X169325000Y-115773200D03*
%TO.P,R1,2*%
%TO.N,GND*%
X167675000Y-115773200D03*
%TD*%
D35*
%TO.P,C13,1*%
%TO.N,+5V*%
X149320000Y-125700000D03*
%TO.P,C13,2*%
%TO.N,GND*%
X150280000Y-125700000D03*
%TD*%
D13*
%TO.P,R6,1*%
%TO.N,+5V*%
X128725000Y-112600000D03*
%TO.P,R6,2*%
%TO.N,Net-(USB7-CC1)*%
X127075000Y-112600000D03*
%TD*%
D28*
%TO.P,U5,1,I/O1_1*%
%TO.N,/DP3*%
X137450000Y-89462500D03*
%TO.P,U5,2,GND_2*%
%TO.N,GND*%
X136500000Y-89462500D03*
%TO.P,U5,3,I/O2_3*%
%TO.N,/DN3*%
X135550000Y-89462500D03*
%TO.P,U5,4,I/O2_4*%
X135550000Y-91737500D03*
%TO.P,U5,5,VBUS_5*%
%TO.N,+5V*%
X136500000Y-91737500D03*
%TO.P,U5,6,I/O1_6*%
%TO.N,/DP3*%
X137450000Y-91737500D03*
%TD*%
D36*
%TO.P,U1,1,DM2_1*%
%TO.N,/DN2*%
X144650000Y-111441218D03*
%TO.P,U1,2,DP2_2*%
%TO.N,/DP2*%
X145180000Y-111441218D03*
%TO.P,U1,3,DM1_3*%
%TO.N,/DN1*%
X145700000Y-111441218D03*
%TO.P,U1,4,DP1_4*%
%TO.N,/DP1*%
X146240000Y-111441218D03*
%TO.P,U1,5,UDM_5*%
%TO.N,/DN*%
X146760000Y-111441218D03*
%TO.P,U1,6,UDP_6*%
%TO.N,/DP*%
X147300000Y-111441218D03*
%TO.P,U1,7,VDD5_7*%
%TO.N,GND*%
X147830000Y-111441218D03*
%TO.P,U1,8,VSS_8*%
X148350000Y-111441218D03*
%TO.P,U1,9,VDD33_9*%
%TO.N,Net-(U1-VDD33)*%
X148350000Y-107841218D03*
%TO.P,U1,10,VDD18_10*%
%TO.N,Net-(U1-VDD18)*%
X147830000Y-107841218D03*
%TO.P,U1,11,XOUT_11*%
%TO.N,unconnected-(U1-XOUT-Pad11)*%
X147300000Y-107841218D03*
%TO.P,U1,12,XIN_12*%
%TO.N,GND*%
X146760000Y-107841218D03*
%TO.P,U1,13,DM4_13*%
%TO.N,/DN4*%
X146240000Y-107841218D03*
%TO.P,U1,14,DP4_14*%
%TO.N,/DP4*%
X145700000Y-107841218D03*
%TO.P,U1,15,DM3_15*%
%TO.N,/DN3*%
X145180000Y-107841218D03*
%TO.P,U1,16,DP3_16*%
%TO.N,/DP3*%
X144650000Y-107841218D03*
%TD*%
D37*
%TO.N,GND*%
X146900000Y-105800000D03*
X152000000Y-77300000D03*
X158200000Y-88300000D03*
X144900000Y-83600000D03*
X167386000Y-119126000D03*
X165200000Y-111200000D03*
X138500000Y-79200000D03*
X142240000Y-140713700D03*
X156600000Y-121600000D03*
X156600000Y-113300000D03*
X143100000Y-125900000D03*
X149400000Y-111600000D03*
X136150000Y-88298527D03*
X149800000Y-102600000D03*
X151600000Y-125700000D03*
X167600000Y-117300000D03*
X154100000Y-89900000D03*
X155800000Y-99900000D03*
X132800000Y-85900000D03*
X139900000Y-108200000D03*
X138300000Y-117700000D03*
X134600000Y-95100000D03*
X147500000Y-119300000D03*
X155700000Y-101100000D03*
X147500000Y-114800000D03*
X149900000Y-103500000D03*
%TO.N,+5V*%
X121400000Y-115200000D03*
X142600000Y-139000000D03*
%TO.N,/DP*%
X162000000Y-117400000D03*
X170300000Y-113500000D03*
X170400000Y-114750000D03*
X148800000Y-113100000D03*
%TO.N,/DN4*%
X152000000Y-82800000D03*
X141700000Y-81700000D03*
%TO.N,/DN1*%
X145850000Y-140900000D03*
X144688000Y-144400000D03*
%TO.N,/DP1*%
X145150000Y-129100000D03*
X143100000Y-124800000D03*
%TO.N,/DP2*%
X120700000Y-118033119D03*
X141400000Y-108900000D03*
X138887500Y-113400000D03*
X117400000Y-118900000D03*
%TO.N,/DN3*%
X135300000Y-87500000D03*
X145100000Y-105300000D03*
%TO.N,/DP3*%
X137500000Y-88200000D03*
X133200000Y-84500000D03*
%TD*%
%TO.N,Net-(U1-VDD33)*%
D11*
X151138782Y-107841218D02*
X157980000Y-101000000D01*
X148350000Y-107841218D02*
X151138782Y-107841218D01*
%TO.N,GND*%
X138300000Y-117700000D02*
X139837500Y-116162500D01*
X134620000Y-95080000D02*
X134600000Y-95100000D01*
X154100000Y-89582123D02*
X154100000Y-89900000D01*
X143300000Y-125700000D02*
X145062500Y-125700000D01*
X143100000Y-125900000D02*
X143300000Y-125700000D01*
X156600000Y-120080000D02*
X156600000Y-121600000D01*
X136500000Y-89462500D02*
X136500000Y-88648527D01*
X136500000Y-95080000D02*
X134620000Y-95080000D01*
X118962500Y-115183119D02*
X119830317Y-115183119D01*
X130397806Y-84074979D02*
X132222827Y-85900000D01*
X139837500Y-116162500D02*
X139837500Y-115675000D01*
X152293193Y-87775316D02*
X154100000Y-89582123D01*
X139900000Y-109900000D02*
X139900000Y-108200000D01*
X146420658Y-83600000D02*
X144900000Y-83600000D01*
X132222827Y-85900000D02*
X132800000Y-85900000D01*
X119830317Y-115183119D02*
X121627836Y-113385600D01*
X136500000Y-88648527D02*
X136150000Y-88298527D01*
X154519896Y-75574638D02*
X152794534Y-77300000D01*
X146768215Y-83947557D02*
X146420658Y-83600000D01*
X152794534Y-77300000D02*
X152000000Y-77300000D01*
X150280000Y-125700000D02*
X151600000Y-125700000D01*
%TO.N,+5V*%
X139900000Y-110860000D02*
X139900000Y-113337500D01*
X120495619Y-115200000D02*
X121400000Y-115200000D01*
X147900000Y-142914394D02*
X147900000Y-142340000D01*
X139900000Y-113337500D02*
X139837500Y-113400000D01*
X147686000Y-143014000D02*
X147900000Y-142800000D01*
X148631785Y-85252443D02*
X150604026Y-87224684D01*
X136500000Y-91737500D02*
X136500000Y-94120000D01*
X158534931Y-81308703D02*
X158534931Y-86035221D01*
X147900000Y-142800000D02*
X147900000Y-142340000D01*
X135959010Y-79887083D02*
X136806807Y-79887083D01*
X156600000Y-117337500D02*
X156600000Y-119120000D01*
X147686000Y-144232885D02*
X147686000Y-143014000D01*
X144088000Y-143902394D02*
X144088000Y-144648529D01*
X143100000Y-142340000D02*
X143100000Y-142914394D01*
X150604026Y-87224684D02*
X151506807Y-87224684D01*
X143100000Y-142340000D02*
X143100000Y-139500000D01*
X173214500Y-116285500D02*
X172600000Y-116900000D01*
X147337500Y-125700000D02*
X149320000Y-125700000D01*
X171287500Y-116900000D02*
X170167500Y-118020000D01*
X143100000Y-142914394D02*
X144088000Y-143902394D01*
X170167500Y-118020000D02*
X168980000Y-118020000D01*
X172611894Y-112100000D02*
X173214500Y-112702606D01*
X143100000Y-139500000D02*
X142600000Y-139000000D01*
X172037500Y-112100000D02*
X172611894Y-112100000D01*
X144088000Y-144648529D02*
X144939471Y-145500000D01*
X172037500Y-116900000D02*
X171287500Y-116900000D01*
X118388106Y-115983119D02*
X116800000Y-117571225D01*
X172600000Y-116900000D02*
X172037500Y-116900000D01*
X173214500Y-112702606D02*
X173214500Y-116285500D01*
X158534931Y-86035221D02*
X158889193Y-86389483D01*
X118962500Y-115983119D02*
X118388106Y-115983119D01*
X134412841Y-78340914D02*
X135959010Y-79887083D01*
X116800000Y-117571225D02*
X116800000Y-119195013D01*
X144939471Y-145500000D02*
X146418885Y-145500000D01*
X118962500Y-115983119D02*
X119712500Y-115983119D01*
X116800000Y-119195013D02*
X118388106Y-120783119D01*
X119712500Y-115983119D02*
X120495619Y-115200000D01*
X146418885Y-145500000D02*
X147686000Y-144232885D01*
X118388106Y-120783119D02*
X118962500Y-120783119D01*
%TO.N,/DN*%
X170648529Y-114150000D02*
X170151471Y-114150000D01*
X172037500Y-114250000D02*
X172837500Y-114250000D01*
X155650000Y-115062500D02*
X155650000Y-117337500D01*
X172887500Y-115112500D02*
X172750000Y-115250000D01*
X170151471Y-114150000D02*
X170051471Y-114250000D01*
X170748529Y-114250000D02*
X170648529Y-114150000D01*
X148918782Y-114400000D02*
X151856282Y-117337500D01*
X148400000Y-114400000D02*
X148918782Y-114400000D01*
X146760000Y-112760000D02*
X148400000Y-114400000D01*
X172837500Y-114250000D02*
X172887500Y-114300000D01*
X161250000Y-114250000D02*
X159700000Y-112700000D01*
X146760000Y-111441218D02*
X146760000Y-112760000D01*
X170051471Y-114250000D02*
X161250000Y-114250000D01*
X172750000Y-115250000D02*
X172037500Y-115250000D01*
X156300000Y-112700000D02*
X155650000Y-113350000D01*
X172037500Y-114250000D02*
X170748529Y-114250000D01*
X155650000Y-113350000D02*
X155650000Y-115062500D01*
X159700000Y-112700000D02*
X156300000Y-112700000D01*
X172887500Y-114300000D02*
X172887500Y-115112500D01*
X151856282Y-117337500D02*
X155650000Y-117337500D01*
%TO.N,/DP*%
X157550000Y-115062500D02*
X157550000Y-117337500D01*
X170400000Y-114750000D02*
X172037500Y-114750000D01*
X157862500Y-114750000D02*
X170400000Y-114750000D01*
X147300000Y-112236218D02*
X147300000Y-111441218D01*
X161937500Y-117337500D02*
X162000000Y-117400000D01*
X172037500Y-113750000D02*
X170550000Y-113750000D01*
X157550000Y-117337500D02*
X161937500Y-117337500D01*
X148800000Y-113100000D02*
X148163782Y-113100000D01*
X170550000Y-113750000D02*
X170300000Y-113500000D01*
X157550000Y-115062500D02*
X157862500Y-114750000D01*
X148163782Y-113100000D02*
X147300000Y-112236218D01*
%TO.N,/DP4*%
X147871796Y-83169362D02*
X149176683Y-84474249D01*
X145700000Y-106941217D02*
X145700000Y-107841218D01*
X155953837Y-77622519D02*
X149176683Y-84399673D01*
X145745000Y-106896217D02*
X145700000Y-106941217D01*
X145243750Y-81100000D02*
X141451471Y-81100000D01*
X155953837Y-77628637D02*
X155953837Y-77622519D01*
X153075047Y-77622519D02*
X155953837Y-77622519D01*
X149176683Y-84399673D02*
X149176683Y-84474249D01*
X141451471Y-81100000D02*
X141100000Y-81451471D01*
X141100000Y-83789023D02*
X145700000Y-88389023D01*
X147313112Y-83169362D02*
X147871796Y-83169362D01*
X141100000Y-81451471D02*
X141100000Y-83789023D01*
X147313112Y-83169362D02*
X145243750Y-81100000D01*
X145700000Y-88389023D02*
X145700000Y-106900000D01*
%TO.N,/DN4*%
X148086888Y-86030638D02*
X146240000Y-87877526D01*
X153561813Y-82800000D02*
X152000000Y-82800000D01*
X157100990Y-79260823D02*
X153561813Y-82800000D01*
X157100990Y-79260823D02*
X156939177Y-79260823D01*
X146782001Y-84725751D02*
X148086888Y-86030638D01*
X146223317Y-84725751D02*
X146782001Y-84725751D01*
X141700000Y-81700000D02*
X144725751Y-84725751D01*
X146240000Y-87877526D02*
X146240000Y-107841218D01*
X144725751Y-84725751D02*
X146223317Y-84725751D01*
%TO.N,/DN1*%
X144750000Y-142340000D02*
X144750000Y-144338000D01*
X145750000Y-142340000D02*
X145700000Y-142290000D01*
X142500000Y-126148529D02*
X142500000Y-115446218D01*
X145750000Y-142340000D02*
X145750000Y-128237500D01*
X145700000Y-112246218D02*
X145700000Y-111441218D01*
X145750000Y-128237500D02*
X147337500Y-126650000D01*
X143001471Y-126650000D02*
X142500000Y-126148529D01*
X142500000Y-115446218D02*
X145700000Y-112246218D01*
X145062500Y-126650000D02*
X143001471Y-126650000D01*
X144750000Y-144338000D02*
X144688000Y-144400000D01*
X145062500Y-126650000D02*
X147337500Y-126650000D01*
%TO.N,/DP1*%
X145250000Y-142340000D02*
X145250000Y-129200000D01*
X145062500Y-124750000D02*
X147337500Y-124750000D01*
X147337500Y-124750000D02*
X146240000Y-123652500D01*
X143100000Y-124800000D02*
X145012500Y-124800000D01*
X145012500Y-124800000D02*
X145062500Y-124750000D01*
X146240000Y-123652500D02*
X146240000Y-111441218D01*
X145250000Y-129200000D02*
X145150000Y-129100000D01*
%TO.N,/DP2*%
X117633119Y-119133119D02*
X117400000Y-118900000D01*
X119012500Y-118083119D02*
X118962500Y-118133119D01*
X145180000Y-111441218D02*
X145180000Y-110641218D01*
X118962500Y-118133119D02*
X118912500Y-118083119D01*
X118962500Y-119133119D02*
X117633119Y-119133119D01*
X136429381Y-118133119D02*
X118962500Y-118133119D01*
X138887500Y-115675000D02*
X136429381Y-118133119D01*
X143438782Y-108900000D02*
X141400000Y-108900000D01*
X145180000Y-110641218D02*
X143438782Y-108900000D01*
X138887500Y-115675000D02*
X138887500Y-113400000D01*
%TO.N,/DN2*%
X118162500Y-118633119D02*
X118112500Y-118583119D01*
X118962500Y-118633119D02*
X118162500Y-118633119D01*
X118162500Y-117633119D02*
X118962500Y-117633119D01*
X144650000Y-111441218D02*
X142746282Y-111441218D01*
X138491880Y-118633119D02*
X118962500Y-118633119D01*
X118112500Y-117683119D02*
X118162500Y-117633119D01*
X118112500Y-118583119D02*
X118112500Y-117683119D01*
X142746282Y-111441218D02*
X140787500Y-113400000D01*
X140787500Y-115675000D02*
X140787500Y-113400000D01*
X140787500Y-115675000D02*
X140787500Y-116337499D01*
X140787500Y-116337499D02*
X138491880Y-118633119D01*
%TO.N,Net-(U1-VDD18)*%
X147830000Y-107036218D02*
X150756218Y-104110000D01*
X150756218Y-104110000D02*
X151378400Y-104110000D01*
X147830000Y-107841218D02*
X147830000Y-107036218D01*
X151378400Y-104110000D02*
X151988400Y-103500000D01*
%TO.N,/DN3*%
X133509370Y-80409370D02*
X132999475Y-80409370D01*
X135550000Y-87750000D02*
X135300000Y-87500000D01*
X131900000Y-92100000D02*
X134012842Y-89987158D01*
X135550000Y-91737500D02*
X135187500Y-92100000D01*
X135550000Y-89462500D02*
X135550000Y-91737500D01*
X135187500Y-92100000D02*
X131900000Y-92100000D01*
X145100000Y-105300000D02*
X145180000Y-105380000D01*
X135550000Y-89462500D02*
X135550000Y-87750000D01*
X134012842Y-81422737D02*
X132978900Y-80388795D01*
X134012842Y-89987158D02*
X134012842Y-81422737D01*
X132999475Y-80409370D02*
X132978900Y-80388795D01*
X145180000Y-105380000D02*
X145180000Y-107841218D01*
%TO.N,/DP3*%
X137450000Y-89462500D02*
X137450000Y-91737500D01*
X137450000Y-91737500D02*
X137450000Y-100641218D01*
X137450000Y-100641218D02*
X144650000Y-107841218D01*
X137500000Y-89412500D02*
X137450000Y-89462500D01*
X137500000Y-88200000D02*
X137500000Y-89412500D01*
X133200000Y-83395352D02*
X133200000Y-84500000D01*
X131831747Y-82027099D02*
X133200000Y-83395352D01*
%TO.N,Net-(USB7-CC1)*%
X118962500Y-117133119D02*
X122541881Y-117133119D01*
X122541881Y-117133119D02*
X127075000Y-112600000D01*
%TD*%
%TA.AperFunction,Conductor*%
%TO.N,+5V*%
G36*
X147301972Y-59574913D02*
G01*
X147314136Y-59576124D01*
X148979423Y-59825476D01*
X148990994Y-59827776D01*
X150630213Y-60235597D01*
X150640967Y-60238796D01*
X152252514Y-60798825D01*
X152262340Y-60802716D01*
X153844469Y-61508708D01*
X153853304Y-61513080D01*
X155404096Y-62358740D01*
X155411953Y-62363408D01*
X156929511Y-63342441D01*
X156936444Y-63347256D01*
X158418689Y-64453239D01*
X158424779Y-64458087D01*
X159869747Y-65684631D01*
X159875084Y-65689434D01*
X160530921Y-66314937D01*
X160565847Y-66375451D01*
X160562514Y-66445241D01*
X160521978Y-66502150D01*
X160481594Y-66523250D01*
X160393621Y-66550146D01*
X160393612Y-66550150D01*
X160237921Y-66626085D01*
X158539631Y-67815243D01*
X158415031Y-67935568D01*
X158415024Y-67935577D01*
X158310787Y-68073905D01*
X158310784Y-68073909D01*
X158229464Y-68226848D01*
X158229457Y-68226863D01*
X158173067Y-68390633D01*
X158173065Y-68390642D01*
X158142984Y-68561233D01*
X158139962Y-68734421D01*
X158139962Y-68734429D01*
X158164071Y-68905966D01*
X158214716Y-69071619D01*
X158214718Y-69071623D01*
X158290648Y-69227307D01*
X158309432Y-69254133D01*
X158390008Y-69369206D01*
X158412368Y-69392361D01*
X158510337Y-69493811D01*
X158510346Y-69493818D01*
X158648674Y-69598055D01*
X158648678Y-69598058D01*
X158648680Y-69598059D01*
X158801626Y-69679383D01*
X158801632Y-69679385D01*
X158965402Y-69735775D01*
X158965405Y-69735775D01*
X158965412Y-69735778D01*
X159136002Y-69765858D01*
X159309198Y-69768881D01*
X159480735Y-69744772D01*
X159646388Y-69694127D01*
X159802080Y-69618192D01*
X161500363Y-68429039D01*
X161624969Y-68308709D01*
X161729216Y-68170367D01*
X161810540Y-68017420D01*
X161850959Y-67900034D01*
X161891394Y-67843060D01*
X161956217Y-67816988D01*
X162024845Y-67830102D01*
X162058458Y-67855381D01*
X162355191Y-68170367D01*
X162637132Y-68469652D01*
X162649545Y-68482828D01*
X162653647Y-68487404D01*
X163974387Y-70036461D01*
X163977993Y-70040893D01*
X165253286Y-71684345D01*
X165256466Y-71688630D01*
X166484291Y-73419868D01*
X166487103Y-73424009D01*
X167623163Y-75171353D01*
X167665477Y-75236434D01*
X167667972Y-75240436D01*
X168234895Y-76189714D01*
X168665106Y-76910077D01*
X168682579Y-76977726D01*
X168660705Y-77044083D01*
X168606427Y-77088080D01*
X168536980Y-77095748D01*
X168518277Y-77090901D01*
X168473725Y-77075561D01*
X168303134Y-77045480D01*
X168129945Y-77042458D01*
X168129943Y-77042458D01*
X168129938Y-77042458D01*
X168129932Y-77042458D01*
X168129929Y-77042459D01*
X167958409Y-77066564D01*
X167958402Y-77066565D01*
X167958401Y-77066566D01*
X167792748Y-77117211D01*
X167637057Y-77193146D01*
X165938767Y-78382304D01*
X165814167Y-78502629D01*
X165814160Y-78502638D01*
X165709923Y-78640966D01*
X165709920Y-78640970D01*
X165628600Y-78793909D01*
X165628593Y-78793924D01*
X165572203Y-78957694D01*
X165572201Y-78957703D01*
X165542120Y-79128294D01*
X165539387Y-79284907D01*
X165539098Y-79301490D01*
X165539099Y-79301496D01*
X165557651Y-79433501D01*
X165563207Y-79473027D01*
X165613852Y-79638680D01*
X165613854Y-79638684D01*
X165689784Y-79794368D01*
X165699843Y-79808734D01*
X165789144Y-79936267D01*
X165841071Y-79990039D01*
X165909473Y-80060872D01*
X165909482Y-80060879D01*
X166047810Y-80165116D01*
X166047814Y-80165119D01*
X166047816Y-80165120D01*
X166200762Y-80246444D01*
X166200768Y-80246446D01*
X166364538Y-80302836D01*
X166364541Y-80302836D01*
X166364548Y-80302839D01*
X166535138Y-80332919D01*
X166708334Y-80335942D01*
X166879871Y-80311833D01*
X167045524Y-80261188D01*
X167201216Y-80185253D01*
X168899499Y-78996100D01*
X169024105Y-78875770D01*
X169128352Y-78737428D01*
X169209676Y-78584481D01*
X169266072Y-78420696D01*
X169266072Y-78420691D01*
X169267065Y-78417810D01*
X169307502Y-78360831D01*
X169372326Y-78334760D01*
X169440954Y-78347874D01*
X169491597Y-78396009D01*
X169492999Y-78398494D01*
X169870655Y-79086214D01*
X169872652Y-79090005D01*
X170534559Y-80400751D01*
X170863381Y-81051903D01*
X170890826Y-81106250D01*
X170892617Y-81109948D01*
X171166767Y-81700816D01*
X171853478Y-83180866D01*
X171855097Y-83184506D01*
X172756748Y-85303571D01*
X172758211Y-85307164D01*
X173598673Y-87467636D01*
X173599997Y-87471201D01*
X174377366Y-89666507D01*
X174378566Y-89670066D01*
X175090919Y-91893573D01*
X175092004Y-91897145D01*
X175737427Y-94142226D01*
X175738405Y-94145833D01*
X176314971Y-96405796D01*
X176315847Y-96409460D01*
X176821681Y-98677785D01*
X176822456Y-98681530D01*
X177255649Y-100951566D01*
X177256321Y-100955418D01*
X177614959Y-103220424D01*
X177615524Y-103224407D01*
X177897739Y-105477906D01*
X177898187Y-105482051D01*
X178102081Y-107717248D01*
X178102400Y-107721583D01*
X178198264Y-109434495D01*
X178182356Y-109502530D01*
X178132192Y-109551164D01*
X178063697Y-109564956D01*
X177998619Y-109539528D01*
X177974142Y-109514312D01*
X177936914Y-109463072D01*
X177814428Y-109340586D01*
X177674288Y-109238768D01*
X177519945Y-109160127D01*
X177355201Y-109106598D01*
X177355199Y-109106597D01*
X177355198Y-109106597D01*
X177223771Y-109085781D01*
X177184111Y-109079500D01*
X176410889Y-109079500D01*
X176371228Y-109085781D01*
X176239802Y-109106597D01*
X176075052Y-109160128D01*
X175920711Y-109238768D01*
X175865091Y-109279179D01*
X175780572Y-109340586D01*
X175780570Y-109340588D01*
X175780569Y-109340588D01*
X175658088Y-109463069D01*
X175658088Y-109463070D01*
X175658086Y-109463072D01*
X175629418Y-109502530D01*
X175556268Y-109603211D01*
X175477628Y-109757552D01*
X175424097Y-109922302D01*
X175399670Y-110076530D01*
X175397000Y-110093389D01*
X175397000Y-110266611D01*
X175399670Y-110283466D01*
X175422919Y-110430261D01*
X175424098Y-110437701D01*
X175476469Y-110598882D01*
X175477628Y-110602447D01*
X175544522Y-110733735D01*
X175556268Y-110756788D01*
X175658086Y-110896928D01*
X175780572Y-111019414D01*
X175920712Y-111121232D01*
X176075055Y-111199873D01*
X176239799Y-111253402D01*
X176410889Y-111280500D01*
X176410890Y-111280500D01*
X177184110Y-111280500D01*
X177184111Y-111280500D01*
X177355201Y-111253402D01*
X177519945Y-111199873D01*
X177674288Y-111121232D01*
X177814428Y-111019414D01*
X177936914Y-110896928D01*
X178019513Y-110783239D01*
X178074842Y-110740575D01*
X178144455Y-110734596D01*
X178206250Y-110767201D01*
X178240607Y-110828040D01*
X178243807Y-110853756D01*
X178267921Y-112115290D01*
X178267921Y-112120039D01*
X178227017Y-114252061D01*
X178226828Y-114256933D01*
X178105345Y-116330781D01*
X178104949Y-116335792D01*
X177954322Y-117851565D01*
X177928105Y-117916329D01*
X177871035Y-117956638D01*
X177801232Y-117959694D01*
X177758045Y-117939621D01*
X177674288Y-117878768D01*
X177519945Y-117800127D01*
X177355201Y-117746598D01*
X177355199Y-117746597D01*
X177355198Y-117746597D01*
X177223771Y-117725781D01*
X177184111Y-117719500D01*
X176410889Y-117719500D01*
X176371228Y-117725781D01*
X176239802Y-117746597D01*
X176075052Y-117800128D01*
X175920711Y-117878768D01*
X175877327Y-117910289D01*
X175780572Y-117980586D01*
X175780570Y-117980588D01*
X175780569Y-117980588D01*
X175658088Y-118103069D01*
X175658088Y-118103070D01*
X175658086Y-118103072D01*
X175638332Y-118130261D01*
X175556268Y-118243211D01*
X175477628Y-118397552D01*
X175424097Y-118562302D01*
X175405501Y-118679714D01*
X175397000Y-118733389D01*
X175397000Y-118906611D01*
X175399670Y-118923466D01*
X175422325Y-119066510D01*
X175424098Y-119077701D01*
X175477627Y-119242445D01*
X175556268Y-119396788D01*
X175658086Y-119536928D01*
X175780572Y-119659414D01*
X175920712Y-119761232D01*
X176075055Y-119839873D01*
X176239799Y-119893402D01*
X176410889Y-119920500D01*
X176410890Y-119920500D01*
X177184110Y-119920500D01*
X177184111Y-119920500D01*
X177355201Y-119893402D01*
X177513193Y-119842066D01*
X177583029Y-119840072D01*
X177642862Y-119876152D01*
X177673691Y-119938852D01*
X177674280Y-119977398D01*
X177626961Y-120311274D01*
X177626101Y-120316530D01*
X177273878Y-122211836D01*
X177272759Y-122217195D01*
X176847295Y-124051719D01*
X176845902Y-124057163D01*
X176349019Y-125830318D01*
X176347335Y-125835829D01*
X175780892Y-127546914D01*
X175778906Y-127552468D01*
X175144683Y-129201004D01*
X175142382Y-129206577D01*
X174442228Y-130791876D01*
X174439604Y-130797439D01*
X173675337Y-132318905D01*
X173672385Y-132324430D01*
X172845820Y-133781453D01*
X172842538Y-133786907D01*
X171955464Y-135178924D01*
X171951854Y-135184276D01*
X171006077Y-136510668D01*
X171002147Y-136515883D01*
X169999462Y-137776052D01*
X169995222Y-137781099D01*
X168937419Y-138974442D01*
X168932885Y-138979289D01*
X167821740Y-140105207D01*
X167816931Y-140109825D01*
X166654219Y-141167712D01*
X166649158Y-141172074D01*
X165436622Y-142161339D01*
X165431335Y-142165420D01*
X164170765Y-143085424D01*
X164165281Y-143089205D01*
X162858425Y-143939341D01*
X162852773Y-143942806D01*
X161501390Y-144722439D01*
X161495603Y-144725576D01*
X160101449Y-145434072D01*
X160095557Y-145436874D01*
X158660362Y-146073605D01*
X158654398Y-146076067D01*
X157179992Y-146640352D01*
X157173985Y-146642476D01*
X155662040Y-147133696D01*
X155656019Y-147135485D01*
X154108346Y-147552965D01*
X154102338Y-147554426D01*
X152520668Y-147897508D01*
X152514696Y-147898651D01*
X150900831Y-148166660D01*
X150894917Y-148167496D01*
X150878427Y-148169424D01*
X150809555Y-148157658D01*
X150757978Y-148110525D01*
X150740070Y-148042989D01*
X150759851Y-147981658D01*
X150758686Y-147980944D01*
X150761227Y-147976796D01*
X150761228Y-147976792D01*
X150761232Y-147976788D01*
X150839873Y-147822445D01*
X150893402Y-147657701D01*
X150920500Y-147486611D01*
X150920500Y-146713389D01*
X150893402Y-146542299D01*
X150839873Y-146377555D01*
X150761232Y-146223212D01*
X150659414Y-146083072D01*
X150536928Y-145960586D01*
X150396788Y-145858768D01*
X150242445Y-145780127D01*
X150077701Y-145726598D01*
X150077699Y-145726597D01*
X150077698Y-145726597D01*
X149946271Y-145705781D01*
X149906611Y-145699500D01*
X149733389Y-145699500D01*
X149693728Y-145705781D01*
X149562302Y-145726597D01*
X149397552Y-145780128D01*
X149243211Y-145858768D01*
X149163256Y-145916859D01*
X149103072Y-145960586D01*
X149103070Y-145960588D01*
X149103069Y-145960588D01*
X148980588Y-146083069D01*
X148980588Y-146083070D01*
X148980586Y-146083072D01*
X148936859Y-146143256D01*
X148878768Y-146223211D01*
X148800128Y-146377552D01*
X148746597Y-146542302D01*
X148719500Y-146713389D01*
X148719500Y-147486611D01*
X148746598Y-147657701D01*
X148800127Y-147822445D01*
X148878768Y-147976788D01*
X148980586Y-148116928D01*
X148980588Y-148116930D01*
X149032744Y-148169086D01*
X149066229Y-148230409D01*
X149061245Y-148300101D01*
X149019373Y-148356034D01*
X148953909Y-148380451D01*
X148953630Y-148380471D01*
X147571871Y-148476162D01*
X147566131Y-148476426D01*
X145866317Y-148515194D01*
X145860670Y-148515194D01*
X144156393Y-148476424D01*
X144150711Y-148476164D01*
X142464697Y-148360292D01*
X142458975Y-148359765D01*
X142101336Y-148318467D01*
X142036997Y-148291223D01*
X141997601Y-148233519D01*
X141995657Y-148163676D01*
X142017652Y-148121670D01*
X142016550Y-148120869D01*
X142019413Y-148116929D01*
X142019414Y-148116928D01*
X142121232Y-147976788D01*
X142199873Y-147822445D01*
X142253402Y-147657701D01*
X142280500Y-147486611D01*
X142280500Y-146713389D01*
X142253402Y-146542299D01*
X142199873Y-146377555D01*
X142121232Y-146223212D01*
X142019414Y-146083072D01*
X141896928Y-145960586D01*
X141756788Y-145858768D01*
X141602445Y-145780127D01*
X141437701Y-145726598D01*
X141437699Y-145726597D01*
X141437698Y-145726597D01*
X141306271Y-145705781D01*
X141266611Y-145699500D01*
X141093389Y-145699500D01*
X141053728Y-145705781D01*
X140922302Y-145726597D01*
X140757552Y-145780128D01*
X140603211Y-145858768D01*
X140523256Y-145916859D01*
X140463072Y-145960586D01*
X140463070Y-145960588D01*
X140463069Y-145960588D01*
X140340588Y-146083069D01*
X140340588Y-146083070D01*
X140340586Y-146083072D01*
X140296859Y-146143256D01*
X140238768Y-146223211D01*
X140160128Y-146377552D01*
X140106597Y-146542302D01*
X140079500Y-146713389D01*
X140079500Y-147486611D01*
X140106598Y-147657701D01*
X140121630Y-147703965D01*
X140160129Y-147822450D01*
X140183342Y-147868009D01*
X140196238Y-147936678D01*
X140169961Y-148001418D01*
X140112855Y-148041675D01*
X140052881Y-148046683D01*
X139145525Y-147898574D01*
X139139756Y-147897492D01*
X137522727Y-147554288D01*
X137516956Y-147552918D01*
X135927660Y-147135268D01*
X135921901Y-147133605D01*
X134362629Y-146642153D01*
X134356898Y-146640192D01*
X132830030Y-146075603D01*
X132824346Y-146073340D01*
X131332230Y-145436275D01*
X131326610Y-145433708D01*
X129871542Y-144724800D01*
X129866007Y-144721929D01*
X128450373Y-143941848D01*
X128444943Y-143938674D01*
X127071052Y-143088051D01*
X127065751Y-143084578D01*
X125735962Y-142164068D01*
X125730811Y-142160303D01*
X124447450Y-141170541D01*
X124442472Y-141166492D01*
X123641912Y-140480198D01*
X123207862Y-140108100D01*
X123203086Y-140103786D01*
X123177027Y-140078985D01*
X122849463Y-139767231D01*
X122019570Y-138977394D01*
X122015007Y-138972819D01*
X120884945Y-137779081D01*
X120880621Y-137774267D01*
X120572096Y-137412266D01*
X120505941Y-137334645D01*
X143297000Y-137334645D01*
X143297000Y-137341218D01*
X144022000Y-137341218D01*
X144022000Y-136691218D01*
X144021999Y-136691217D01*
X143940417Y-136691218D01*
X143869897Y-136697626D01*
X143869892Y-136697627D01*
X143707603Y-136748199D01*
X143562122Y-136836145D01*
X143441927Y-136956340D01*
X143353980Y-137101822D01*
X143303409Y-137264111D01*
X143297000Y-137334645D01*
X120505941Y-137334645D01*
X120183521Y-136956340D01*
X119806319Y-136513758D01*
X119802258Y-136508735D01*
X118861146Y-135280097D01*
X118786066Y-135182078D01*
X118782280Y-135176859D01*
X117889666Y-133876610D01*
X117826558Y-133784682D01*
X117823066Y-133779303D01*
X117636896Y-133475500D01*
X116930149Y-132322187D01*
X116926959Y-132316666D01*
X116587034Y-131691870D01*
X116099238Y-130795280D01*
X116096358Y-130789648D01*
X116050549Y-130694130D01*
X115535141Y-129619437D01*
X125024500Y-129619437D01*
X125024500Y-129980562D01*
X125059896Y-130339957D01*
X125130344Y-130694130D01*
X125130347Y-130694141D01*
X125235181Y-131039733D01*
X125373381Y-131373376D01*
X125373383Y-131373381D01*
X125543609Y-131691852D01*
X125543620Y-131691870D01*
X125744244Y-131992125D01*
X125744254Y-131992139D01*
X125973354Y-132271297D01*
X126228702Y-132526645D01*
X126228707Y-132526649D01*
X126228708Y-132526650D01*
X126507866Y-132755750D01*
X126808136Y-132956384D01*
X126808145Y-132956389D01*
X126808147Y-132956390D01*
X127126618Y-133126616D01*
X127126620Y-133126616D01*
X127126626Y-133126620D01*
X127460268Y-133264819D01*
X127805849Y-133369650D01*
X127805855Y-133369651D01*
X127805858Y-133369652D01*
X127805869Y-133369655D01*
X128160042Y-133440103D01*
X128519434Y-133475500D01*
X128519437Y-133475500D01*
X128880563Y-133475500D01*
X128880566Y-133475500D01*
X129239958Y-133440103D01*
X129308904Y-133426388D01*
X129594130Y-133369655D01*
X129594141Y-133369652D01*
X129594141Y-133369651D01*
X129594151Y-133369650D01*
X129939732Y-133264819D01*
X130273374Y-133126620D01*
X130591864Y-132956384D01*
X130892134Y-132755750D01*
X131171292Y-132526650D01*
X131426650Y-132271292D01*
X131655750Y-131992134D01*
X131856384Y-131691864D01*
X132026620Y-131373374D01*
X132164819Y-131039732D01*
X132269650Y-130694151D01*
X132269652Y-130694141D01*
X132269655Y-130694130D01*
X132340103Y-130339957D01*
X132375500Y-129980562D01*
X132375500Y-129619437D01*
X132340103Y-129260042D01*
X132269655Y-128905869D01*
X132269652Y-128905858D01*
X132269651Y-128905855D01*
X132269650Y-128905849D01*
X132164819Y-128560268D01*
X132026620Y-128226626D01*
X131856384Y-127908136D01*
X131655750Y-127607866D01*
X131426650Y-127328708D01*
X131426649Y-127328707D01*
X131426645Y-127328702D01*
X131171297Y-127073354D01*
X130892139Y-126844254D01*
X130892138Y-126844253D01*
X130892134Y-126844250D01*
X130591864Y-126643616D01*
X130591859Y-126643613D01*
X130591852Y-126643609D01*
X130273381Y-126473383D01*
X130273376Y-126473381D01*
X129939733Y-126335181D01*
X129594141Y-126230347D01*
X129594130Y-126230344D01*
X129239957Y-126159896D01*
X128969279Y-126133237D01*
X128880566Y-126124500D01*
X128519434Y-126124500D01*
X128437465Y-126132573D01*
X128160042Y-126159896D01*
X127805869Y-126230344D01*
X127805858Y-126230347D01*
X127460266Y-126335181D01*
X127126623Y-126473381D01*
X127126618Y-126473383D01*
X126808147Y-126643609D01*
X126808129Y-126643620D01*
X126507874Y-126844244D01*
X126507860Y-126844254D01*
X126228702Y-127073354D01*
X125973354Y-127328702D01*
X125744254Y-127607860D01*
X125744244Y-127607874D01*
X125543620Y-127908129D01*
X125543609Y-127908147D01*
X125373383Y-128226618D01*
X125373381Y-128226623D01*
X125235181Y-128560266D01*
X125130347Y-128905858D01*
X125130344Y-128905869D01*
X125059896Y-129260042D01*
X125024500Y-129619437D01*
X115535141Y-129619437D01*
X115336148Y-129204511D01*
X115333588Y-129198806D01*
X114643289Y-127550581D01*
X114641054Y-127544847D01*
X114023009Y-125834072D01*
X114021080Y-125828290D01*
X113477691Y-124055623D01*
X113476086Y-124049894D01*
X113440549Y-123910140D01*
X113443104Y-123840320D01*
X113483004Y-123782963D01*
X113547579Y-123756283D01*
X113599039Y-123761652D01*
X113644799Y-123776521D01*
X113815889Y-123803619D01*
X113815890Y-123803619D01*
X114589110Y-123803619D01*
X114589111Y-123803619D01*
X114760201Y-123776521D01*
X114924945Y-123722992D01*
X115079288Y-123644351D01*
X115219428Y-123542533D01*
X115341914Y-123420047D01*
X115443732Y-123279907D01*
X115522373Y-123125564D01*
X115575902Y-122960820D01*
X115603000Y-122789730D01*
X115603000Y-122616508D01*
X115575902Y-122445418D01*
X115522373Y-122280674D01*
X115443732Y-122126331D01*
X115341914Y-121986191D01*
X115219428Y-121863705D01*
X115079288Y-121761887D01*
X114924945Y-121683246D01*
X114760201Y-121629717D01*
X114760199Y-121629716D01*
X114760198Y-121629716D01*
X114628771Y-121608900D01*
X114589111Y-121602619D01*
X113815889Y-121602619D01*
X113776228Y-121608900D01*
X113644802Y-121629716D01*
X113480052Y-121683247D01*
X113325711Y-121761887D01*
X113245756Y-121819978D01*
X113185572Y-121863705D01*
X113185570Y-121863707D01*
X113185568Y-121863708D01*
X113142735Y-121906541D01*
X113081412Y-121940025D01*
X113011720Y-121935040D01*
X112955787Y-121893168D01*
X112933563Y-121843671D01*
X112621485Y-120315557D01*
X112620470Y-120309915D01*
X112388083Y-118821153D01*
X116599500Y-118821153D01*
X116599500Y-118978846D01*
X116630261Y-119133489D01*
X116630264Y-119133501D01*
X116690602Y-119279172D01*
X116690609Y-119279185D01*
X116778210Y-119410288D01*
X116778213Y-119410292D01*
X116889707Y-119521786D01*
X116889711Y-119521789D01*
X117020814Y-119609390D01*
X117020827Y-119609397D01*
X117141581Y-119659414D01*
X117166503Y-119669737D01*
X117321153Y-119700499D01*
X117321156Y-119700500D01*
X117321158Y-119700500D01*
X117414134Y-119700500D01*
X117446227Y-119704725D01*
X117554062Y-119733619D01*
X117790149Y-119733619D01*
X117792353Y-119734266D01*
X117794581Y-119733698D01*
X117825724Y-119744065D01*
X117857188Y-119753304D01*
X117858691Y-119755039D01*
X117860874Y-119755766D01*
X117881467Y-119781324D01*
X117902943Y-119806108D01*
X117903720Y-119808941D01*
X117904712Y-119810172D01*
X117913439Y-119844370D01*
X117916179Y-119869867D01*
X117916179Y-119896369D01*
X117912000Y-119935241D01*
X117912000Y-120330989D01*
X117912001Y-120330998D01*
X117917775Y-120384713D01*
X117918388Y-120402858D01*
X117912403Y-120554409D01*
X117901994Y-120585294D01*
X117892815Y-120616555D01*
X117890899Y-120618214D01*
X117890089Y-120620620D01*
X117864625Y-120640981D01*
X117840011Y-120662310D01*
X117836798Y-120663232D01*
X117835520Y-120664255D01*
X117831950Y-120664625D01*
X117804693Y-120672454D01*
X117803448Y-120672617D01*
X117650716Y-120713542D01*
X117650709Y-120713545D01*
X117513790Y-120792594D01*
X117513782Y-120792600D01*
X117401981Y-120904401D01*
X117401975Y-120904409D01*
X117322926Y-121041328D01*
X117322923Y-121041335D01*
X117282000Y-121194062D01*
X117282000Y-121352175D01*
X117322923Y-121504902D01*
X117322926Y-121504909D01*
X117401975Y-121641828D01*
X117406926Y-121648280D01*
X117404799Y-121649911D01*
X117431962Y-121699655D01*
X117426978Y-121769347D01*
X117385106Y-121825280D01*
X117379687Y-121829115D01*
X117292845Y-121887141D01*
X117292841Y-121887144D01*
X117146524Y-122033461D01*
X117031558Y-122205522D01*
X116952370Y-122396698D01*
X116952368Y-122396706D01*
X116912000Y-122599649D01*
X116912000Y-122806588D01*
X116952368Y-123009531D01*
X116952370Y-123009539D01*
X117031558Y-123200715D01*
X117146524Y-123372776D01*
X117292842Y-123519094D01*
X117292845Y-123519096D01*
X117464902Y-123634060D01*
X117656080Y-123713249D01*
X117859030Y-123753618D01*
X117859034Y-123753619D01*
X117859035Y-123753619D01*
X118965966Y-123753619D01*
X118965967Y-123753618D01*
X119168920Y-123713249D01*
X119360098Y-123634060D01*
X119532155Y-123519096D01*
X119678477Y-123372774D01*
X119793441Y-123200717D01*
X119872630Y-123009539D01*
X119913000Y-122806584D01*
X119913000Y-122599654D01*
X119872630Y-122396699D01*
X119850456Y-122343167D01*
X119842987Y-122273698D01*
X119865751Y-122221403D01*
X119956293Y-122100454D01*
X119956292Y-122100454D01*
X119956296Y-122100450D01*
X120006591Y-121965602D01*
X120013000Y-121905992D01*
X120012999Y-121260247D01*
X120006591Y-121200636D01*
X120006590Y-121200635D01*
X120005880Y-121194023D01*
X120005881Y-121167512D01*
X120012499Y-121105961D01*
X120012500Y-121105946D01*
X120012500Y-121033119D01*
X119993909Y-121033119D01*
X119990134Y-121032010D01*
X119986300Y-121032885D01*
X119956882Y-121022246D01*
X119926870Y-121013434D01*
X119923226Y-121010075D01*
X119920595Y-121009124D01*
X119899013Y-120987757D01*
X119895390Y-120984418D01*
X119895019Y-120983932D01*
X119870046Y-120950573D01*
X119868821Y-120949656D01*
X119862816Y-120941799D01*
X119853120Y-120916576D01*
X119840169Y-120892858D01*
X119840770Y-120884449D01*
X119837746Y-120876582D01*
X119843225Y-120850122D01*
X119845153Y-120823166D01*
X119850204Y-120816417D01*
X119851914Y-120808164D01*
X119870831Y-120788864D01*
X119887025Y-120767233D01*
X119894921Y-120764287D01*
X119900823Y-120758267D01*
X119927171Y-120752258D01*
X119952489Y-120742816D01*
X119961335Y-120742500D01*
X121778085Y-120742500D01*
X121845124Y-120762185D01*
X121884201Y-120802349D01*
X121913081Y-120850122D01*
X121914330Y-120852188D01*
X122034611Y-120972469D01*
X122034613Y-120972470D01*
X122034615Y-120972472D01*
X122180194Y-121060478D01*
X122342604Y-121111086D01*
X122413184Y-121117500D01*
X122413187Y-121117500D01*
X122926413Y-121117500D01*
X122926416Y-121117500D01*
X122996996Y-121111086D01*
X123159406Y-121060478D01*
X123304985Y-120972472D01*
X123407473Y-120869983D01*
X123468794Y-120836499D01*
X123538485Y-120841483D01*
X123582834Y-120869984D01*
X123684922Y-120972072D01*
X123830404Y-121060019D01*
X123830403Y-121060019D01*
X123992694Y-121110590D01*
X123992693Y-121110590D01*
X124063208Y-121116998D01*
X124063226Y-121116999D01*
X124569800Y-121116999D01*
X124576381Y-121116999D01*
X124646902Y-121110591D01*
X124646907Y-121110590D01*
X124809196Y-121060018D01*
X124954677Y-120972072D01*
X125074872Y-120851877D01*
X125162819Y-120706395D01*
X125213390Y-120544106D01*
X125219800Y-120473572D01*
X125219800Y-120392000D01*
X124569800Y-120392000D01*
X124569800Y-121116999D01*
X124063226Y-121116999D01*
X124069799Y-121116998D01*
X124069800Y-121116998D01*
X124069800Y-120266000D01*
X124089485Y-120198961D01*
X124142289Y-120153206D01*
X124193800Y-120142000D01*
X124319800Y-120142000D01*
X124319800Y-120016000D01*
X124339485Y-119948961D01*
X124392289Y-119903206D01*
X124443800Y-119892000D01*
X125219799Y-119892000D01*
X125219799Y-119810417D01*
X125213391Y-119739897D01*
X125213390Y-119739892D01*
X125162818Y-119577603D01*
X125070994Y-119425707D01*
X125072671Y-119424692D01*
X125050566Y-119369176D01*
X125063917Y-119300593D01*
X125112227Y-119250116D01*
X125174026Y-119233619D01*
X138405211Y-119233619D01*
X138405227Y-119233620D01*
X138412823Y-119233620D01*
X138570934Y-119233620D01*
X138570937Y-119233620D01*
X138723665Y-119192696D01*
X138810267Y-119142696D01*
X138826194Y-119133501D01*
X138860589Y-119113643D01*
X138860588Y-119113643D01*
X138860596Y-119113639D01*
X138972400Y-119001835D01*
X138972400Y-119001833D01*
X138982604Y-118991630D01*
X138982608Y-118991625D01*
X141152216Y-116822016D01*
X141156213Y-116818019D01*
X141156216Y-116818019D01*
X141158427Y-116815807D01*
X141158458Y-116815790D01*
X141191323Y-116793455D01*
X141191182Y-116793216D01*
X141194996Y-116790959D01*
X141196867Y-116789689D01*
X141197884Y-116789247D01*
X141197898Y-116789244D01*
X141339365Y-116705581D01*
X141455581Y-116589365D01*
X141539244Y-116447898D01*
X141585098Y-116290069D01*
X141588000Y-116253194D01*
X141588000Y-115096806D01*
X141585098Y-115059931D01*
X141577402Y-115033443D01*
X141539245Y-114902106D01*
X141539244Y-114902103D01*
X141539244Y-114902102D01*
X141455581Y-114760635D01*
X141455579Y-114760633D01*
X141455576Y-114760629D01*
X141424319Y-114729372D01*
X141409615Y-114702444D01*
X141393023Y-114676626D01*
X141392131Y-114670425D01*
X141390834Y-114668049D01*
X141388000Y-114641691D01*
X141388000Y-114433308D01*
X141407685Y-114366269D01*
X141424320Y-114345626D01*
X141455576Y-114314370D01*
X141455581Y-114314365D01*
X141539244Y-114172898D01*
X141578333Y-114038355D01*
X141585097Y-114015073D01*
X141585098Y-114015067D01*
X141587999Y-113978201D01*
X141588000Y-113978194D01*
X141588000Y-113500097D01*
X141607685Y-113433058D01*
X141624319Y-113412416D01*
X142958698Y-112078037D01*
X143020021Y-112044552D01*
X143046379Y-112041718D01*
X143908023Y-112041718D01*
X143975062Y-112061403D01*
X144020817Y-112114207D01*
X144028266Y-112141352D01*
X144029124Y-112141150D01*
X144030907Y-112148697D01*
X144081202Y-112283546D01*
X144081206Y-112283553D01*
X144167452Y-112398762D01*
X144167455Y-112398765D01*
X144282664Y-112485011D01*
X144282671Y-112485015D01*
X144341728Y-112507042D01*
X144397662Y-112548913D01*
X144422079Y-112614377D01*
X144407227Y-112682650D01*
X144386076Y-112710905D01*
X142131286Y-114965696D01*
X142019481Y-115077500D01*
X142019477Y-115077505D01*
X141974042Y-115156203D01*
X141974042Y-115156204D01*
X141940423Y-115214432D01*
X141929861Y-115253850D01*
X141899499Y-115367161D01*
X141899499Y-115367163D01*
X141899499Y-115535264D01*
X141899500Y-115535277D01*
X141899500Y-126061859D01*
X141899499Y-126061877D01*
X141899499Y-126227583D01*
X141899498Y-126227583D01*
X141940423Y-126380314D01*
X141957212Y-126409394D01*
X141962306Y-126418216D01*
X142015585Y-126510499D01*
X142019479Y-126517243D01*
X142019481Y-126517246D01*
X142138349Y-126636114D01*
X142138355Y-126636119D01*
X142516610Y-127014374D01*
X142516620Y-127014385D01*
X142520950Y-127018715D01*
X142520951Y-127018716D01*
X142632755Y-127130520D01*
X142719566Y-127180639D01*
X142719568Y-127180641D01*
X142756324Y-127201862D01*
X142769686Y-127209577D01*
X142922414Y-127250500D01*
X144029192Y-127250500D01*
X144096231Y-127270185D01*
X144116874Y-127286820D01*
X144148129Y-127318076D01*
X144148133Y-127318079D01*
X144148135Y-127318081D01*
X144289602Y-127401744D01*
X144331224Y-127413836D01*
X144447426Y-127447597D01*
X144447429Y-127447597D01*
X144447431Y-127447598D01*
X144484306Y-127450500D01*
X144484314Y-127450500D01*
X145388402Y-127450500D01*
X145455441Y-127470185D01*
X145501196Y-127522989D01*
X145511140Y-127592147D01*
X145482115Y-127655703D01*
X145476083Y-127662181D01*
X145269481Y-127868782D01*
X145269479Y-127868785D01*
X145219361Y-127955594D01*
X145219359Y-127955596D01*
X145190425Y-128005709D01*
X145190424Y-128005710D01*
X145190423Y-128005715D01*
X145149499Y-128158443D01*
X145149499Y-128158445D01*
X145149499Y-128182152D01*
X145129814Y-128249191D01*
X145077010Y-128294946D01*
X145049691Y-128303769D01*
X144916508Y-128330261D01*
X144916498Y-128330264D01*
X144770827Y-128390602D01*
X144770814Y-128390609D01*
X144639711Y-128478210D01*
X144639707Y-128478213D01*
X144528213Y-128589707D01*
X144528210Y-128589711D01*
X144440609Y-128720814D01*
X144440602Y-128720827D01*
X144380264Y-128866498D01*
X144380261Y-128866510D01*
X144349500Y-129021153D01*
X144349500Y-129178846D01*
X144380261Y-129333489D01*
X144380264Y-129333501D01*
X144440602Y-129479172D01*
X144440609Y-129479185D01*
X144528209Y-129610287D01*
X144528210Y-129610288D01*
X144528211Y-129610289D01*
X144613182Y-129695260D01*
X144646666Y-129756581D01*
X144649500Y-129782940D01*
X144649500Y-136567218D01*
X144629815Y-136634257D01*
X144577011Y-136680012D01*
X144525500Y-136691218D01*
X144522000Y-136691218D01*
X144522000Y-137467218D01*
X144502315Y-137534257D01*
X144449511Y-137580012D01*
X144398000Y-137591218D01*
X144272000Y-137591218D01*
X144272000Y-137717218D01*
X144252315Y-137784257D01*
X144199511Y-137830012D01*
X144148000Y-137841218D01*
X143297001Y-137841218D01*
X143297001Y-137847800D01*
X143303408Y-137918320D01*
X143303409Y-137918325D01*
X143353981Y-138080614D01*
X143441927Y-138226095D01*
X143544015Y-138328183D01*
X143577500Y-138389506D01*
X143572516Y-138459198D01*
X143544015Y-138503545D01*
X143441531Y-138606028D01*
X143441530Y-138606029D01*
X143353522Y-138751611D01*
X143302913Y-138914025D01*
X143296500Y-138984604D01*
X143296500Y-139497831D01*
X143302913Y-139568410D01*
X143353522Y-139730824D01*
X143441530Y-139876406D01*
X143561811Y-139996687D01*
X143561813Y-139996688D01*
X143561815Y-139996690D01*
X143611650Y-140026816D01*
X143658838Y-140078344D01*
X143671500Y-140132933D01*
X143671500Y-141165570D01*
X143670770Y-141168053D01*
X143671399Y-141170562D01*
X143660982Y-141201387D01*
X143651815Y-141232609D01*
X143649860Y-141234302D01*
X143649032Y-141236754D01*
X143623592Y-141257063D01*
X143599011Y-141278364D01*
X143595829Y-141279229D01*
X143594429Y-141280347D01*
X143578863Y-141283842D01*
X143560192Y-141288919D01*
X143554535Y-141289500D01*
X143552128Y-141289501D01*
X143498290Y-141295288D01*
X143497847Y-141295334D01*
X143497528Y-141295275D01*
X143471902Y-141295275D01*
X143422833Y-141290000D01*
X143350000Y-141290000D01*
X143349948Y-141290051D01*
X143330315Y-141356914D01*
X143314968Y-141376251D01*
X143308148Y-141383274D01*
X143242454Y-141432454D01*
X143182003Y-141513205D01*
X143176468Y-141518907D01*
X143152693Y-141532348D01*
X143130832Y-141548713D01*
X143122722Y-141549292D01*
X143115646Y-141553294D01*
X143088380Y-141551748D01*
X143061140Y-141553697D01*
X143054005Y-141549800D01*
X143045888Y-141549341D01*
X143023782Y-141533297D01*
X142999818Y-141520211D01*
X142989760Y-141508604D01*
X142989342Y-141508301D01*
X142989214Y-141507974D01*
X142988234Y-141506843D01*
X142932546Y-141432454D01*
X142932540Y-141432449D01*
X142899687Y-141407854D01*
X142896951Y-141404199D01*
X142892797Y-141402302D01*
X142876206Y-141376486D01*
X142857817Y-141351920D01*
X142856801Y-141346291D01*
X142855023Y-141343524D01*
X142850000Y-141308589D01*
X142850000Y-141279247D01*
X142869685Y-141212208D01*
X142870898Y-141210356D01*
X142876891Y-141201387D01*
X142949394Y-141092879D01*
X143009737Y-140947197D01*
X143040500Y-140792542D01*
X143040500Y-140634858D01*
X143040500Y-140634855D01*
X143040499Y-140634853D01*
X143009738Y-140480210D01*
X143009737Y-140480203D01*
X143009735Y-140480198D01*
X142949397Y-140334527D01*
X142949390Y-140334514D01*
X142861789Y-140203411D01*
X142861786Y-140203407D01*
X142750292Y-140091913D01*
X142750288Y-140091910D01*
X142619185Y-140004309D01*
X142619172Y-140004302D01*
X142473501Y-139943964D01*
X142473489Y-139943961D01*
X142318845Y-139913200D01*
X142318842Y-139913200D01*
X142161158Y-139913200D01*
X142161155Y-139913200D01*
X142006510Y-139943961D01*
X142006498Y-139943964D01*
X141860827Y-140004302D01*
X141860814Y-140004309D01*
X141729711Y-140091910D01*
X141729707Y-140091913D01*
X141618213Y-140203407D01*
X141618210Y-140203411D01*
X141530609Y-140334514D01*
X141530602Y-140334527D01*
X141470264Y-140480198D01*
X141470261Y-140480210D01*
X141439500Y-140634853D01*
X141439500Y-140792546D01*
X141470261Y-140947189D01*
X141470264Y-140947201D01*
X141530602Y-141092872D01*
X141530609Y-141092885D01*
X141618602Y-141224574D01*
X141624252Y-141242620D01*
X141634477Y-141258530D01*
X141638928Y-141289489D01*
X141639480Y-141291251D01*
X141639500Y-141293465D01*
X141639500Y-141309224D01*
X141619815Y-141376263D01*
X141567011Y-141422018D01*
X141497853Y-141431962D01*
X141491309Y-141430842D01*
X141375737Y-141407854D01*
X141283465Y-141389500D01*
X141076535Y-141389500D01*
X141076530Y-141389500D01*
X140873587Y-141429868D01*
X140873579Y-141429870D01*
X140682403Y-141509058D01*
X140510342Y-141624024D01*
X140364024Y-141770342D01*
X140249058Y-141942403D01*
X140169870Y-142133579D01*
X140169868Y-142133587D01*
X140129500Y-142336530D01*
X140129500Y-143443469D01*
X140169868Y-143646412D01*
X140169870Y-143646420D01*
X140242638Y-143822098D01*
X140249059Y-143837598D01*
X140271073Y-143870544D01*
X140364024Y-144009657D01*
X140510342Y-144155975D01*
X140510345Y-144155977D01*
X140682402Y-144270941D01*
X140873580Y-144350130D01*
X141076530Y-144390499D01*
X141076534Y-144390500D01*
X141076535Y-144390500D01*
X141283466Y-144390500D01*
X141283467Y-144390499D01*
X141486420Y-144350130D01*
X141677598Y-144270941D01*
X141849655Y-144155977D01*
X141995977Y-144009655D01*
X142054003Y-143922811D01*
X142107614Y-143878008D01*
X142176939Y-143869300D01*
X142234038Y-143896617D01*
X142234839Y-143895574D01*
X142239776Y-143899362D01*
X142239967Y-143899454D01*
X142240272Y-143899743D01*
X142241281Y-143900517D01*
X142241284Y-143900520D01*
X142241287Y-143900521D01*
X142241290Y-143900524D01*
X142314526Y-143942806D01*
X142378216Y-143979577D01*
X142530943Y-144020500D01*
X142530945Y-144020500D01*
X142689055Y-144020500D01*
X142689057Y-144020500D01*
X142841784Y-143979577D01*
X142978716Y-143900520D01*
X143090520Y-143788716D01*
X143169577Y-143651784D01*
X143210500Y-143499057D01*
X143210500Y-143499054D01*
X143210501Y-143499051D01*
X143210665Y-143497807D01*
X143211094Y-143496835D01*
X143212603Y-143491207D01*
X143213481Y-143491442D01*
X143224133Y-143467367D01*
X143236758Y-143436560D01*
X143238215Y-143435539D01*
X143238936Y-143433912D01*
X143266726Y-143415584D01*
X143293999Y-143396495D01*
X143296224Y-143396130D01*
X143297263Y-143395445D01*
X143328708Y-143390097D01*
X143480260Y-143384110D01*
X143482704Y-143384724D01*
X143498405Y-143384724D01*
X143552127Y-143390500D01*
X143947872Y-143390499D01*
X143947873Y-143390498D01*
X143947885Y-143390498D01*
X143986744Y-143386320D01*
X144013252Y-143386320D01*
X144038759Y-143389062D01*
X144103308Y-143415801D01*
X144143155Y-143473194D01*
X144149500Y-143512351D01*
X144149500Y-143755059D01*
X144129815Y-143822098D01*
X144113181Y-143842740D01*
X144066213Y-143889707D01*
X144066210Y-143889711D01*
X143978609Y-144020814D01*
X143978602Y-144020827D01*
X143918264Y-144166498D01*
X143918261Y-144166510D01*
X143887500Y-144321153D01*
X143887500Y-144478846D01*
X143918261Y-144633489D01*
X143918264Y-144633501D01*
X143978602Y-144779172D01*
X143978609Y-144779185D01*
X144066210Y-144910288D01*
X144066213Y-144910292D01*
X144177707Y-145021786D01*
X144177711Y-145021789D01*
X144308814Y-145109390D01*
X144308827Y-145109397D01*
X144454498Y-145169735D01*
X144454503Y-145169737D01*
X144559048Y-145190532D01*
X144609147Y-145200498D01*
X144609148Y-145200498D01*
X144609158Y-145200500D01*
X144609167Y-145200500D01*
X144610107Y-145200593D01*
X144610577Y-145200783D01*
X144615132Y-145201689D01*
X144614960Y-145202552D01*
X144674896Y-145226749D01*
X144715259Y-145283781D01*
X144717736Y-145291902D01*
X144728421Y-145331779D01*
X144728426Y-145331790D01*
X144807475Y-145468709D01*
X144807479Y-145468714D01*
X144807480Y-145468716D01*
X144919284Y-145580520D01*
X144919286Y-145580521D01*
X144919290Y-145580524D01*
X145056209Y-145659573D01*
X145056216Y-145659577D01*
X145208943Y-145700500D01*
X145208945Y-145700500D01*
X146332255Y-145700500D01*
X146332257Y-145700500D01*
X146484984Y-145659577D01*
X146621916Y-145580520D01*
X146733720Y-145468716D01*
X146812777Y-145331784D01*
X146853700Y-145179057D01*
X146853700Y-143512007D01*
X146854346Y-143509805D01*
X146853779Y-143507583D01*
X146864141Y-143476447D01*
X146873385Y-143444968D01*
X146875118Y-143443465D01*
X146875843Y-143441289D01*
X146901399Y-143420693D01*
X146926189Y-143399213D01*
X146929016Y-143398437D01*
X146930245Y-143397447D01*
X146964443Y-143388718D01*
X146986744Y-143386320D01*
X147013252Y-143386320D01*
X147052127Y-143390500D01*
X147447872Y-143390499D01*
X147447874Y-143390498D01*
X147447887Y-143390498D01*
X147475308Y-143387549D01*
X147501596Y-143384723D01*
X147519740Y-143384110D01*
X147671292Y-143390097D01*
X147702176Y-143400506D01*
X147733436Y-143409685D01*
X147735096Y-143411601D01*
X147737502Y-143412412D01*
X147757864Y-143437877D01*
X147779191Y-143462489D01*
X147780113Y-143465701D01*
X147781137Y-143466981D01*
X147781507Y-143470554D01*
X147789335Y-143497807D01*
X147789498Y-143499051D01*
X147830423Y-143651783D01*
X147830426Y-143651790D01*
X147909475Y-143788709D01*
X147909479Y-143788714D01*
X147909480Y-143788716D01*
X148021284Y-143900520D01*
X148021286Y-143900521D01*
X148021290Y-143900524D01*
X148094526Y-143942806D01*
X148158216Y-143979577D01*
X148310943Y-144020500D01*
X148310945Y-144020500D01*
X148469055Y-144020500D01*
X148469057Y-144020500D01*
X148621784Y-143979577D01*
X148758716Y-143900520D01*
X148758719Y-143900516D01*
X148765166Y-143895571D01*
X148766800Y-143897700D01*
X148816509Y-143870544D01*
X148886202Y-143875513D01*
X148942145Y-143917371D01*
X148945996Y-143922813D01*
X149004022Y-144009654D01*
X149004025Y-144009658D01*
X149150342Y-144155975D01*
X149150345Y-144155977D01*
X149322402Y-144270941D01*
X149513580Y-144350130D01*
X149716530Y-144390499D01*
X149716534Y-144390500D01*
X149716535Y-144390500D01*
X149923466Y-144390500D01*
X149923467Y-144390499D01*
X150126420Y-144350130D01*
X150317598Y-144270941D01*
X150489655Y-144155977D01*
X150635977Y-144009655D01*
X150750941Y-143837598D01*
X150830130Y-143646420D01*
X150870500Y-143443465D01*
X150870500Y-142336535D01*
X150830130Y-142133580D01*
X150750941Y-141942402D01*
X150635977Y-141770345D01*
X150635975Y-141770342D01*
X150489657Y-141624024D01*
X150381487Y-141551748D01*
X150317598Y-141509059D01*
X150312248Y-141506843D01*
X150126420Y-141429870D01*
X150126412Y-141429868D01*
X149923469Y-141389500D01*
X149923465Y-141389500D01*
X149716535Y-141389500D01*
X149716530Y-141389500D01*
X149513587Y-141429868D01*
X149507753Y-141431638D01*
X149507348Y-141430303D01*
X149444883Y-141437019D01*
X149382404Y-141405744D01*
X149346752Y-141345655D01*
X149342900Y-141314989D01*
X149342900Y-139116592D01*
X149362585Y-139049553D01*
X149368923Y-139040589D01*
X149371713Y-139036990D01*
X149371717Y-139036987D01*
X149454094Y-138897695D01*
X149499243Y-138742293D01*
X149502100Y-138705990D01*
X149502100Y-138296610D01*
X149499243Y-138260307D01*
X149489303Y-138226095D01*
X149454095Y-138104909D01*
X149454094Y-138104905D01*
X149441689Y-138083930D01*
X149424506Y-138016209D01*
X149441691Y-137957684D01*
X149453632Y-137937494D01*
X149496104Y-137791300D01*
X149189952Y-137791300D01*
X149126833Y-137774032D01*
X149117995Y-137768806D01*
X149117993Y-137768805D01*
X149117989Y-137768803D01*
X148962597Y-137723657D01*
X148962591Y-137723656D01*
X148926297Y-137720800D01*
X148926290Y-137720800D01*
X148456910Y-137720800D01*
X148456902Y-137720800D01*
X148420608Y-137723656D01*
X148420602Y-137723657D01*
X148265209Y-137768804D01*
X148265206Y-137768805D01*
X148238445Y-137784632D01*
X148175324Y-137801900D01*
X147393200Y-137801900D01*
X147326161Y-137782215D01*
X147280406Y-137729411D01*
X147269200Y-137677900D01*
X147269200Y-137551900D01*
X147143200Y-137551900D01*
X147076161Y-137532215D01*
X147030406Y-137479411D01*
X147019200Y-137427900D01*
X147019200Y-137301900D01*
X147519200Y-137301900D01*
X147772982Y-137301900D01*
X147787204Y-137294134D01*
X147813562Y-137291300D01*
X148441600Y-137291300D01*
X148941600Y-137291300D01*
X149496104Y-137291300D01*
X149453631Y-137145104D01*
X149371321Y-137005925D01*
X149371314Y-137005916D01*
X149256983Y-136891585D01*
X149256974Y-136891578D01*
X149117795Y-136809268D01*
X149117790Y-136809266D01*
X148962518Y-136764155D01*
X148962512Y-136764154D01*
X148941600Y-136762509D01*
X148941600Y-137291300D01*
X148441600Y-137291300D01*
X148441600Y-136762510D01*
X148441599Y-136762509D01*
X148420687Y-136764154D01*
X148420681Y-136764155D01*
X148265409Y-136809266D01*
X148265403Y-136809268D01*
X148176089Y-136862089D01*
X148108365Y-136879272D01*
X148042102Y-136857112D01*
X148025286Y-136843037D01*
X147979078Y-136796828D01*
X147979077Y-136796827D01*
X147833595Y-136708880D01*
X147833596Y-136708880D01*
X147671305Y-136658309D01*
X147671306Y-136658309D01*
X147600772Y-136651900D01*
X147519200Y-136651900D01*
X147519200Y-137301900D01*
X147019200Y-137301900D01*
X147019200Y-136651900D01*
X147019199Y-136651899D01*
X146937617Y-136651900D01*
X146867097Y-136658308D01*
X146867092Y-136658309D01*
X146704803Y-136708881D01*
X146559322Y-136796827D01*
X146553417Y-136801454D01*
X146551935Y-136799563D01*
X146500858Y-136827454D01*
X146431166Y-136822470D01*
X146375233Y-136780598D01*
X146350816Y-136715134D01*
X146350500Y-136706288D01*
X146350500Y-129619437D01*
X157824500Y-129619437D01*
X157824500Y-129980562D01*
X157859896Y-130339957D01*
X157930344Y-130694130D01*
X157930347Y-130694141D01*
X158035181Y-131039733D01*
X158173381Y-131373376D01*
X158173383Y-131373381D01*
X158343609Y-131691852D01*
X158343620Y-131691870D01*
X158544244Y-131992125D01*
X158544254Y-131992139D01*
X158773354Y-132271297D01*
X159028702Y-132526645D01*
X159028707Y-132526649D01*
X159028708Y-132526650D01*
X159307866Y-132755750D01*
X159608136Y-132956384D01*
X159608145Y-132956389D01*
X159608147Y-132956390D01*
X159926618Y-133126616D01*
X159926620Y-133126616D01*
X159926626Y-133126620D01*
X160260268Y-133264819D01*
X160605849Y-133369650D01*
X160605855Y-133369651D01*
X160605858Y-133369652D01*
X160605869Y-133369655D01*
X160960042Y-133440103D01*
X161319434Y-133475500D01*
X161319437Y-133475500D01*
X161680563Y-133475500D01*
X161680566Y-133475500D01*
X162039958Y-133440103D01*
X162108904Y-133426388D01*
X162394130Y-133369655D01*
X162394141Y-133369652D01*
X162394141Y-133369651D01*
X162394151Y-133369650D01*
X162739732Y-133264819D01*
X163073374Y-133126620D01*
X163391864Y-132956384D01*
X163692134Y-132755750D01*
X163971292Y-132526650D01*
X164226650Y-132271292D01*
X164455750Y-131992134D01*
X164656384Y-131691864D01*
X164826620Y-131373374D01*
X164964819Y-131039732D01*
X165069650Y-130694151D01*
X165069652Y-130694141D01*
X165069655Y-130694130D01*
X165140103Y-130339957D01*
X165175500Y-129980562D01*
X165175500Y-129619437D01*
X165140103Y-129260042D01*
X165069655Y-128905869D01*
X165069652Y-128905858D01*
X165069651Y-128905855D01*
X165069650Y-128905849D01*
X164964819Y-128560268D01*
X164826620Y-128226626D01*
X164656384Y-127908136D01*
X164455750Y-127607866D01*
X164226650Y-127328708D01*
X164226649Y-127328707D01*
X164226645Y-127328702D01*
X163971297Y-127073354D01*
X163692139Y-126844254D01*
X163692138Y-126844253D01*
X163692134Y-126844250D01*
X163391864Y-126643616D01*
X163391859Y-126643613D01*
X163391852Y-126643609D01*
X163073381Y-126473383D01*
X163073376Y-126473381D01*
X162739733Y-126335181D01*
X162394141Y-126230347D01*
X162394130Y-126230344D01*
X162039957Y-126159896D01*
X161769279Y-126133237D01*
X161680566Y-126124500D01*
X161319434Y-126124500D01*
X161237465Y-126132573D01*
X160960042Y-126159896D01*
X160605869Y-126230344D01*
X160605858Y-126230347D01*
X160260266Y-126335181D01*
X159926623Y-126473381D01*
X159926618Y-126473383D01*
X159608147Y-126643609D01*
X159608129Y-126643620D01*
X159307874Y-126844244D01*
X159307860Y-126844254D01*
X159028702Y-127073354D01*
X158773354Y-127328702D01*
X158544254Y-127607860D01*
X158544244Y-127607874D01*
X158343620Y-127908129D01*
X158343609Y-127908147D01*
X158173383Y-128226618D01*
X158173381Y-128226623D01*
X158035181Y-128560266D01*
X157930347Y-128905858D01*
X157930344Y-128905869D01*
X157859896Y-129260042D01*
X157824500Y-129619437D01*
X146350500Y-129619437D01*
X146350500Y-128537597D01*
X146370185Y-128470558D01*
X146386819Y-128449916D01*
X147349916Y-127486819D01*
X147411239Y-127453334D01*
X147437597Y-127450500D01*
X147915686Y-127450500D01*
X147915694Y-127450500D01*
X147952569Y-127447598D01*
X147952571Y-127447597D01*
X147952573Y-127447597D01*
X148002505Y-127433090D01*
X148110398Y-127401744D01*
X148251865Y-127318081D01*
X148368081Y-127201865D01*
X148451744Y-127060398D01*
X148497598Y-126902569D01*
X148500500Y-126865694D01*
X148500500Y-126434306D01*
X148497937Y-126401743D01*
X148512301Y-126333367D01*
X148561352Y-126283610D01*
X148629517Y-126268271D01*
X148695154Y-126292219D01*
X148709236Y-126304334D01*
X148784616Y-126379714D01*
X148784625Y-126379721D01*
X148923804Y-126462031D01*
X149070000Y-126504504D01*
X149070000Y-125950000D01*
X148231815Y-125950000D01*
X148168694Y-125932732D01*
X148110396Y-125898255D01*
X148110393Y-125898254D01*
X147952573Y-125852402D01*
X147952567Y-125852401D01*
X147915701Y-125849500D01*
X147915694Y-125849500D01*
X147461500Y-125849500D01*
X147452814Y-125846949D01*
X147443853Y-125848238D01*
X147419812Y-125837259D01*
X147394461Y-125829815D01*
X147388533Y-125822974D01*
X147380297Y-125819213D01*
X147366007Y-125796978D01*
X147348706Y-125777011D01*
X147346418Y-125766496D01*
X147342523Y-125760435D01*
X147337500Y-125725500D01*
X147337500Y-125674500D01*
X147357185Y-125607461D01*
X147409989Y-125561706D01*
X147461500Y-125550500D01*
X147915686Y-125550500D01*
X147915694Y-125550500D01*
X147952569Y-125547598D01*
X147952571Y-125547597D01*
X147952573Y-125547597D01*
X147994191Y-125535505D01*
X148110398Y-125501744D01*
X148168694Y-125467268D01*
X148175880Y-125465302D01*
X149499500Y-125465302D01*
X149499500Y-125934697D01*
X149502356Y-125970991D01*
X149502357Y-125970997D01*
X149547503Y-126126389D01*
X149547505Y-126126393D01*
X149547506Y-126126395D01*
X149552732Y-126135233D01*
X149570000Y-126198352D01*
X149570000Y-126504503D01*
X149716194Y-126462032D01*
X149736384Y-126450091D01*
X149804108Y-126432906D01*
X149862629Y-126450089D01*
X149883605Y-126462494D01*
X149908535Y-126469737D01*
X150039002Y-126507642D01*
X150039005Y-126507642D01*
X150039007Y-126507643D01*
X150075310Y-126510500D01*
X150075318Y-126510500D01*
X150484682Y-126510500D01*
X150484690Y-126510500D01*
X150520993Y-126507643D01*
X150520995Y-126507642D01*
X150520997Y-126507642D01*
X150610880Y-126481528D01*
X150676395Y-126462494D01*
X150815687Y-126380117D01*
X150858984Y-126336820D01*
X150885912Y-126322115D01*
X150911731Y-126305523D01*
X150917930Y-126304631D01*
X150920307Y-126303334D01*
X150946666Y-126300500D01*
X151020234Y-126300500D01*
X151087273Y-126320185D01*
X151089125Y-126321398D01*
X151220814Y-126409390D01*
X151220827Y-126409397D01*
X151349019Y-126462495D01*
X151366503Y-126469737D01*
X151521153Y-126500499D01*
X151521156Y-126500500D01*
X151521158Y-126500500D01*
X151678844Y-126500500D01*
X151678845Y-126500499D01*
X151833497Y-126469737D01*
X151979179Y-126409394D01*
X152110289Y-126321789D01*
X152221789Y-126210289D01*
X152309394Y-126079179D01*
X152369737Y-125933497D01*
X152400500Y-125778842D01*
X152400500Y-125621158D01*
X152400500Y-125621155D01*
X152400499Y-125621153D01*
X152369738Y-125466510D01*
X152369737Y-125466503D01*
X152349680Y-125418081D01*
X152309397Y-125320827D01*
X152309390Y-125320814D01*
X152221789Y-125189711D01*
X152221786Y-125189707D01*
X152110292Y-125078213D01*
X152110288Y-125078210D01*
X151979185Y-124990609D01*
X151979172Y-124990602D01*
X151833501Y-124930264D01*
X151833489Y-124930261D01*
X151678845Y-124899500D01*
X151678842Y-124899500D01*
X151521158Y-124899500D01*
X151521155Y-124899500D01*
X151366510Y-124930261D01*
X151366498Y-124930264D01*
X151220827Y-124990602D01*
X151220814Y-124990609D01*
X151089125Y-125078602D01*
X151071078Y-125084252D01*
X151055169Y-125094477D01*
X151024207Y-125098928D01*
X151022447Y-125099480D01*
X151020234Y-125099500D01*
X150946666Y-125099500D01*
X150879627Y-125079815D01*
X150858984Y-125063180D01*
X150815692Y-125019887D01*
X150815684Y-125019881D01*
X150697371Y-124949911D01*
X150676395Y-124937506D01*
X150676394Y-124937505D01*
X150676393Y-124937505D01*
X150676390Y-124937504D01*
X150520997Y-124892357D01*
X150520991Y-124892356D01*
X150484697Y-124889500D01*
X150484690Y-124889500D01*
X150075310Y-124889500D01*
X150075302Y-124889500D01*
X150039008Y-124892356D01*
X150039002Y-124892357D01*
X149883609Y-124937504D01*
X149883604Y-124937506D01*
X149862628Y-124949911D01*
X149794903Y-124967092D01*
X149736389Y-124949911D01*
X149716191Y-124937966D01*
X149716190Y-124937965D01*
X149570001Y-124895493D01*
X149570000Y-124895494D01*
X149570000Y-125201645D01*
X149552734Y-125264763D01*
X149547507Y-125273600D01*
X149547504Y-125273608D01*
X149502357Y-125429002D01*
X149502356Y-125429008D01*
X149499500Y-125465302D01*
X148175880Y-125465302D01*
X148231815Y-125450000D01*
X149070000Y-125450000D01*
X149070000Y-124895494D01*
X149069998Y-124895493D01*
X148923809Y-124937965D01*
X148923806Y-124937967D01*
X148784625Y-125020278D01*
X148784620Y-125020282D01*
X148709236Y-125095666D01*
X148647912Y-125129150D01*
X148578221Y-125124165D01*
X148522287Y-125082294D01*
X148497871Y-125016829D01*
X148497936Y-124998261D01*
X148500500Y-124965694D01*
X148500500Y-124534306D01*
X148497598Y-124497431D01*
X148451744Y-124339602D01*
X148368081Y-124198135D01*
X148368079Y-124198133D01*
X148368076Y-124198129D01*
X148251870Y-124081923D01*
X148251862Y-124081917D01*
X148110396Y-123998255D01*
X148110393Y-123998254D01*
X147952573Y-123952402D01*
X147952567Y-123952401D01*
X147915701Y-123949500D01*
X147915694Y-123949500D01*
X147437597Y-123949500D01*
X147370558Y-123929815D01*
X147349916Y-123913181D01*
X146876819Y-123440084D01*
X146843334Y-123378761D01*
X146840500Y-123352403D01*
X146840500Y-120054077D01*
X146860185Y-119987038D01*
X146912989Y-119941283D01*
X146982147Y-119931339D01*
X147033390Y-119950974D01*
X147120821Y-120009394D01*
X147120823Y-120009395D01*
X147120827Y-120009397D01*
X147228696Y-120054077D01*
X147266503Y-120069737D01*
X147421153Y-120100499D01*
X147421156Y-120100500D01*
X147421158Y-120100500D01*
X147578844Y-120100500D01*
X147578845Y-120100499D01*
X147733497Y-120069737D01*
X147879179Y-120009394D01*
X148010289Y-119921789D01*
X148056776Y-119875302D01*
X155789500Y-119875302D01*
X155789500Y-120284697D01*
X155792356Y-120320991D01*
X155792357Y-120320997D01*
X155837502Y-120476385D01*
X155837505Y-120476393D01*
X155919881Y-120615684D01*
X155919887Y-120615692D01*
X155963180Y-120658984D01*
X155996666Y-120720307D01*
X155999500Y-120746666D01*
X155999500Y-121020234D01*
X155979815Y-121087273D01*
X155978602Y-121089125D01*
X155890609Y-121220814D01*
X155890602Y-121220827D01*
X155830264Y-121366498D01*
X155830261Y-121366510D01*
X155799500Y-121521153D01*
X155799500Y-121678846D01*
X155830261Y-121833489D01*
X155830264Y-121833501D01*
X155890602Y-121979172D01*
X155890609Y-121979185D01*
X155978210Y-122110288D01*
X155978213Y-122110292D01*
X156089707Y-122221786D01*
X156089711Y-122221789D01*
X156220814Y-122309390D01*
X156220827Y-122309397D01*
X156366498Y-122369735D01*
X156366503Y-122369737D01*
X156521153Y-122400499D01*
X156521156Y-122400500D01*
X156521158Y-122400500D01*
X156678844Y-122400500D01*
X156678845Y-122400499D01*
X156833497Y-122369737D01*
X156979179Y-122309394D01*
X157110289Y-122221789D01*
X157221789Y-122110289D01*
X157309394Y-121979179D01*
X157315017Y-121965605D01*
X157339709Y-121905992D01*
X157369737Y-121833497D01*
X157400500Y-121678842D01*
X157400500Y-121521158D01*
X157400500Y-121521155D01*
X157400499Y-121521153D01*
X157369738Y-121366510D01*
X157369737Y-121366503D01*
X157325725Y-121260247D01*
X157309397Y-121220827D01*
X157309390Y-121220814D01*
X157221398Y-121089125D01*
X157200520Y-121022447D01*
X157200500Y-121020234D01*
X157200500Y-120746666D01*
X157220185Y-120679627D01*
X157236820Y-120658984D01*
X157280112Y-120615692D01*
X157280117Y-120615687D01*
X157362494Y-120476395D01*
X157362495Y-120476390D01*
X157362498Y-120476385D01*
X157407642Y-120320997D01*
X157407643Y-120320991D01*
X157408199Y-120313922D01*
X157410500Y-120284690D01*
X157410500Y-119875310D01*
X157407643Y-119839007D01*
X157406594Y-119835397D01*
X157368630Y-119704725D01*
X157362494Y-119683605D01*
X157350089Y-119662630D01*
X157332906Y-119594909D01*
X157350091Y-119536384D01*
X157362032Y-119516194D01*
X157404504Y-119370000D01*
X157098352Y-119370000D01*
X157035233Y-119352732D01*
X157026395Y-119347506D01*
X157026393Y-119347505D01*
X157026389Y-119347503D01*
X156870997Y-119302357D01*
X156870991Y-119302356D01*
X156834697Y-119299500D01*
X156834690Y-119299500D01*
X156365310Y-119299500D01*
X156365302Y-119299500D01*
X156329008Y-119302356D01*
X156329002Y-119302357D01*
X156173610Y-119347503D01*
X156173605Y-119347506D01*
X156164766Y-119352732D01*
X156101648Y-119370000D01*
X155795496Y-119370000D01*
X155837968Y-119516194D01*
X155849911Y-119536389D01*
X155867092Y-119604113D01*
X155849911Y-119662628D01*
X155837506Y-119683604D01*
X155837504Y-119683609D01*
X155792357Y-119839002D01*
X155792356Y-119839008D01*
X155789500Y-119875302D01*
X148056776Y-119875302D01*
X148121789Y-119810289D01*
X148209394Y-119679179D01*
X148269737Y-119533497D01*
X148300500Y-119378842D01*
X148300500Y-119221158D01*
X148300500Y-119221155D01*
X148300499Y-119221153D01*
X148297255Y-119204846D01*
X148269737Y-119066503D01*
X148261722Y-119047153D01*
X166585500Y-119047153D01*
X166585500Y-119204846D01*
X166616261Y-119359489D01*
X166616264Y-119359501D01*
X166676602Y-119505172D01*
X166676609Y-119505185D01*
X166764210Y-119636288D01*
X166764213Y-119636292D01*
X166875707Y-119747786D01*
X166875711Y-119747789D01*
X167006814Y-119835390D01*
X167006827Y-119835397D01*
X167143481Y-119892000D01*
X167152503Y-119895737D01*
X167307153Y-119926499D01*
X167307156Y-119926500D01*
X167307158Y-119926500D01*
X167464844Y-119926500D01*
X167464845Y-119926499D01*
X167619497Y-119895737D01*
X167754366Y-119839873D01*
X167765172Y-119835397D01*
X167765172Y-119835396D01*
X167765179Y-119835394D01*
X167896289Y-119747789D01*
X167932058Y-119712020D01*
X167993380Y-119678534D01*
X168019740Y-119675700D01*
X168457468Y-119675700D01*
X168520588Y-119692967D01*
X168553605Y-119712494D01*
X168594587Y-119724400D01*
X168709002Y-119757642D01*
X168709005Y-119757642D01*
X168709007Y-119757643D01*
X168745310Y-119760500D01*
X168745318Y-119760500D01*
X169214682Y-119760500D01*
X169214690Y-119760500D01*
X169250993Y-119757643D01*
X169250995Y-119757642D01*
X169250997Y-119757642D01*
X169312074Y-119739897D01*
X169406395Y-119712494D01*
X169545687Y-119630117D01*
X169660117Y-119515687D01*
X169742494Y-119376395D01*
X169783702Y-119234559D01*
X169787642Y-119220997D01*
X169787643Y-119220991D01*
X169790500Y-119184690D01*
X169790500Y-118775310D01*
X169787643Y-118739007D01*
X169781114Y-118716535D01*
X169742495Y-118583609D01*
X169742494Y-118583605D01*
X169738176Y-118576304D01*
X169730089Y-118562630D01*
X169712906Y-118494909D01*
X169730091Y-118436384D01*
X169742032Y-118416194D01*
X169784504Y-118270000D01*
X169478352Y-118270000D01*
X169415233Y-118252732D01*
X169406395Y-118247506D01*
X169406393Y-118247505D01*
X169406389Y-118247503D01*
X169250997Y-118202357D01*
X169250991Y-118202356D01*
X169214697Y-118199500D01*
X169214690Y-118199500D01*
X168745310Y-118199500D01*
X168745302Y-118199500D01*
X168709008Y-118202356D01*
X168709002Y-118202357D01*
X168553610Y-118247503D01*
X168553605Y-118247506D01*
X168544766Y-118252732D01*
X168481648Y-118270000D01*
X168175495Y-118270000D01*
X168188890Y-118316106D01*
X168188814Y-118342362D01*
X168192551Y-118368347D01*
X168188716Y-118376743D01*
X168188690Y-118385976D01*
X168174431Y-118408022D01*
X168163526Y-118431903D01*
X168155759Y-118436893D01*
X168150747Y-118444645D01*
X168126835Y-118455482D01*
X168104748Y-118469677D01*
X168091227Y-118471621D01*
X168087108Y-118473488D01*
X168069813Y-118474700D01*
X167889738Y-118474700D01*
X167822699Y-118455015D01*
X167820847Y-118453802D01*
X167765176Y-118416604D01*
X167619501Y-118356264D01*
X167619491Y-118356261D01*
X167573453Y-118347103D01*
X167573438Y-118347101D01*
X167464842Y-118325500D01*
X167307158Y-118325500D01*
X167307155Y-118325500D01*
X167152510Y-118356261D01*
X167152498Y-118356264D01*
X167006827Y-118416602D01*
X167006814Y-118416609D01*
X166875711Y-118504210D01*
X166875707Y-118504213D01*
X166764213Y-118615707D01*
X166764210Y-118615711D01*
X166676609Y-118746814D01*
X166676602Y-118746827D01*
X166616264Y-118892498D01*
X166616261Y-118892510D01*
X166585500Y-119047153D01*
X148261722Y-119047153D01*
X148210490Y-118923466D01*
X148209397Y-118920827D01*
X148206521Y-118915446D01*
X148208222Y-118914536D01*
X148190019Y-118856374D01*
X148190000Y-118854179D01*
X148190000Y-118804503D01*
X148690000Y-118804503D01*
X148836195Y-118762031D01*
X148975374Y-118679721D01*
X148975383Y-118679714D01*
X149089714Y-118565383D01*
X149089721Y-118565374D01*
X149172031Y-118426195D01*
X149172033Y-118426190D01*
X149217144Y-118270918D01*
X149217145Y-118270912D01*
X149218790Y-118250000D01*
X148690000Y-118250000D01*
X148690000Y-118804503D01*
X148190000Y-118804503D01*
X148190000Y-118498352D01*
X148207267Y-118435233D01*
X148212494Y-118426395D01*
X148223924Y-118387055D01*
X148257642Y-118270997D01*
X148257643Y-118270991D01*
X148259148Y-118251865D01*
X148260500Y-118234690D01*
X148260500Y-117765310D01*
X148257643Y-117729007D01*
X148249763Y-117701885D01*
X148212495Y-117573608D01*
X148212492Y-117573600D01*
X148207266Y-117564763D01*
X148190000Y-117501645D01*
X148190000Y-117195494D01*
X148690000Y-117195494D01*
X148690000Y-117750000D01*
X149218790Y-117750000D01*
X149217145Y-117729089D01*
X149172031Y-117573804D01*
X149089721Y-117434625D01*
X149089714Y-117434616D01*
X148975383Y-117320285D01*
X148975374Y-117320278D01*
X148836193Y-117237967D01*
X148836190Y-117237965D01*
X148690001Y-117195493D01*
X148690000Y-117195494D01*
X148190000Y-117195494D01*
X148189998Y-117195493D01*
X148043809Y-117237965D01*
X148043806Y-117237967D01*
X148023608Y-117249912D01*
X147955884Y-117267092D01*
X147897370Y-117249910D01*
X147876397Y-117237507D01*
X147876390Y-117237504D01*
X147720997Y-117192357D01*
X147720991Y-117192356D01*
X147684697Y-117189500D01*
X147684690Y-117189500D01*
X147275310Y-117189500D01*
X147275302Y-117189500D01*
X147239008Y-117192356D01*
X147239002Y-117192357D01*
X147083609Y-117237504D01*
X147083608Y-117237504D01*
X147027620Y-117270615D01*
X146959896Y-117287796D01*
X146893633Y-117265636D01*
X146849871Y-117211170D01*
X146840500Y-117163882D01*
X146840500Y-116812461D01*
X146860185Y-116745422D01*
X146912989Y-116699667D01*
X146982147Y-116689723D01*
X147027619Y-116705728D01*
X147123605Y-116762494D01*
X147126180Y-116763242D01*
X147279002Y-116807642D01*
X147279005Y-116807642D01*
X147279007Y-116807643D01*
X147315310Y-116810500D01*
X147315318Y-116810500D01*
X147724682Y-116810500D01*
X147724690Y-116810500D01*
X147760993Y-116807643D01*
X147760995Y-116807642D01*
X147760997Y-116807642D01*
X147818419Y-116790959D01*
X147916395Y-116762494D01*
X147937369Y-116750089D01*
X148005088Y-116732906D01*
X148063613Y-116750090D01*
X148083803Y-116762031D01*
X148230000Y-116804504D01*
X148230000Y-116804503D01*
X148730000Y-116804503D01*
X148876195Y-116762031D01*
X149015374Y-116679721D01*
X149015383Y-116679714D01*
X149129714Y-116565383D01*
X149129721Y-116565374D01*
X149212031Y-116426195D01*
X149212033Y-116426190D01*
X149257144Y-116270918D01*
X149257145Y-116270912D01*
X149258790Y-116250000D01*
X148730000Y-116250000D01*
X148730000Y-116804503D01*
X148230000Y-116804503D01*
X148230000Y-116498352D01*
X148247267Y-116435233D01*
X148252494Y-116426395D01*
X148253809Y-116421871D01*
X148297642Y-116270997D01*
X148297643Y-116270991D01*
X148299043Y-116253201D01*
X148300500Y-116234690D01*
X148300500Y-116124000D01*
X148320185Y-116056961D01*
X148372989Y-116011206D01*
X148424500Y-116000000D01*
X148480000Y-116000000D01*
X148480000Y-115874000D01*
X148499685Y-115806961D01*
X148552489Y-115761206D01*
X148604000Y-115750000D01*
X149267135Y-115750000D01*
X149308431Y-115725299D01*
X149378264Y-115727545D01*
X149427204Y-115757657D01*
X151371421Y-117701874D01*
X151371431Y-117701885D01*
X151375761Y-117706215D01*
X151375762Y-117706216D01*
X151487566Y-117818020D01*
X151487568Y-117818021D01*
X151487572Y-117818024D01*
X151616368Y-117892383D01*
X151624498Y-117897077D01*
X151716725Y-117921789D01*
X151777224Y-117938000D01*
X151777225Y-117938000D01*
X154755067Y-117938000D01*
X154822106Y-117957685D01*
X154867861Y-118010489D01*
X154874143Y-118027404D01*
X154898254Y-118110395D01*
X154898255Y-118110396D01*
X154898256Y-118110398D01*
X154932731Y-118168693D01*
X154981917Y-118251862D01*
X154981923Y-118251870D01*
X155098129Y-118368076D01*
X155098133Y-118368079D01*
X155098135Y-118368081D01*
X155239602Y-118451744D01*
X155268174Y-118460045D01*
X155397426Y-118497597D01*
X155397429Y-118497597D01*
X155397431Y-118497598D01*
X155434306Y-118500500D01*
X155434314Y-118500500D01*
X155752635Y-118500500D01*
X155819674Y-118520185D01*
X155865429Y-118572989D01*
X155875373Y-118642147D01*
X155859367Y-118687620D01*
X155837970Y-118723800D01*
X155837968Y-118723804D01*
X155795496Y-118870000D01*
X156350000Y-118870000D01*
X156350000Y-118231814D01*
X156367267Y-118168694D01*
X156401744Y-118110398D01*
X156447598Y-117952569D01*
X156450500Y-117915694D01*
X156450500Y-117461500D01*
X156453050Y-117452814D01*
X156451762Y-117443853D01*
X156462740Y-117419812D01*
X156470185Y-117394461D01*
X156477025Y-117388533D01*
X156480787Y-117380297D01*
X156503021Y-117366007D01*
X156522989Y-117348706D01*
X156533503Y-117346418D01*
X156539565Y-117342523D01*
X156574500Y-117337500D01*
X156625500Y-117337500D01*
X156692539Y-117357185D01*
X156738294Y-117409989D01*
X156749500Y-117461500D01*
X156749500Y-117915701D01*
X156752401Y-117952567D01*
X156752402Y-117952573D01*
X156798254Y-118110393D01*
X156798255Y-118110395D01*
X156798256Y-118110398D01*
X156832732Y-118168694D01*
X156850000Y-118231814D01*
X156850000Y-118870000D01*
X157404504Y-118870000D01*
X157362031Y-118723804D01*
X157362029Y-118723800D01*
X157340633Y-118687620D01*
X157323450Y-118619896D01*
X157345610Y-118553634D01*
X157400077Y-118509871D01*
X157447365Y-118500500D01*
X157765686Y-118500500D01*
X157765694Y-118500500D01*
X157802569Y-118497598D01*
X157802571Y-118497597D01*
X157802573Y-118497597D01*
X157844191Y-118485505D01*
X157960398Y-118451744D01*
X158101865Y-118368081D01*
X158218081Y-118251865D01*
X158301744Y-118110398D01*
X158301745Y-118110395D01*
X158325857Y-118027404D01*
X158363464Y-117968519D01*
X158426936Y-117939313D01*
X158444933Y-117938000D01*
X161354560Y-117938000D01*
X161421599Y-117957685D01*
X161442242Y-117974320D01*
X161489707Y-118021786D01*
X161489711Y-118021789D01*
X161620814Y-118109390D01*
X161620827Y-118109397D01*
X161766498Y-118169735D01*
X161766503Y-118169737D01*
X161916131Y-118199500D01*
X161921153Y-118200499D01*
X161921156Y-118200500D01*
X161921158Y-118200500D01*
X162078844Y-118200500D01*
X162078845Y-118200499D01*
X162233497Y-118169737D01*
X162376760Y-118110396D01*
X162379172Y-118109397D01*
X162379172Y-118109396D01*
X162379179Y-118109394D01*
X162510289Y-118021789D01*
X162621789Y-117910289D01*
X162709394Y-117779179D01*
X162769737Y-117633497D01*
X162800500Y-117478842D01*
X162800500Y-117321158D01*
X162800500Y-117321155D01*
X162800499Y-117321153D01*
X162790446Y-117270615D01*
X162769737Y-117166503D01*
X162768651Y-117163882D01*
X162709397Y-117020827D01*
X162709390Y-117020814D01*
X162621789Y-116889711D01*
X162621786Y-116889707D01*
X162510292Y-116778213D01*
X162510288Y-116778210D01*
X162379185Y-116690609D01*
X162379172Y-116690602D01*
X162233501Y-116630264D01*
X162233489Y-116630261D01*
X162078845Y-116599500D01*
X162078842Y-116599500D01*
X161921158Y-116599500D01*
X161921155Y-116599500D01*
X161766510Y-116630261D01*
X161766498Y-116630264D01*
X161620825Y-116690603D01*
X161620823Y-116690604D01*
X161582664Y-116716102D01*
X161515986Y-116736980D01*
X161513773Y-116737000D01*
X158444933Y-116737000D01*
X158377894Y-116717315D01*
X158332139Y-116664511D01*
X158325857Y-116647596D01*
X158301745Y-116564604D01*
X158301744Y-116564603D01*
X158301744Y-116564602D01*
X158218081Y-116423135D01*
X158218079Y-116423133D01*
X158218076Y-116423129D01*
X158186819Y-116391872D01*
X158172115Y-116364944D01*
X158155523Y-116339126D01*
X158154631Y-116332925D01*
X158153334Y-116330549D01*
X158150500Y-116304191D01*
X158150500Y-116095808D01*
X158170185Y-116028769D01*
X158186820Y-116008126D01*
X158218076Y-115976870D01*
X158218081Y-115976865D01*
X158301744Y-115835398D01*
X158340936Y-115700499D01*
X158347597Y-115677573D01*
X158347598Y-115677567D01*
X158349088Y-115658634D01*
X158350500Y-115640694D01*
X158350500Y-115474500D01*
X158370185Y-115407461D01*
X158422989Y-115361706D01*
X158474500Y-115350500D01*
X166650500Y-115350500D01*
X166717539Y-115370185D01*
X166763294Y-115422989D01*
X166774500Y-115474500D01*
X166774500Y-116104813D01*
X166780913Y-116175392D01*
X166780913Y-116175394D01*
X166780914Y-116175396D01*
X166831522Y-116337806D01*
X166903758Y-116457299D01*
X166919530Y-116483388D01*
X166963180Y-116527037D01*
X166977884Y-116553965D01*
X166994477Y-116579784D01*
X166995368Y-116585983D01*
X166996666Y-116588360D01*
X166999500Y-116614719D01*
X166999500Y-116720234D01*
X166979815Y-116787273D01*
X166978602Y-116789125D01*
X166890609Y-116920814D01*
X166890602Y-116920827D01*
X166830264Y-117066498D01*
X166830261Y-117066510D01*
X166799500Y-117221153D01*
X166799500Y-117378846D01*
X166830261Y-117533489D01*
X166830264Y-117533501D01*
X166890602Y-117679172D01*
X166890609Y-117679185D01*
X166978210Y-117810288D01*
X166978213Y-117810292D01*
X167089707Y-117921786D01*
X167089711Y-117921789D01*
X167220814Y-118009390D01*
X167220827Y-118009397D01*
X167366498Y-118069735D01*
X167366503Y-118069737D01*
X167366507Y-118069737D01*
X167366508Y-118069738D01*
X167412546Y-118078896D01*
X167412550Y-118078896D01*
X167521158Y-118100500D01*
X167599813Y-118100500D01*
X167678844Y-118100500D01*
X167678845Y-118100499D01*
X167833497Y-118069737D01*
X167949262Y-118021786D01*
X167979172Y-118009397D01*
X167979172Y-118009396D01*
X167979179Y-118009394D01*
X168110289Y-117921789D01*
X168162767Y-117869311D01*
X168225760Y-117806319D01*
X168287083Y-117772834D01*
X168313441Y-117770000D01*
X168730000Y-117770000D01*
X169230000Y-117770000D01*
X169784504Y-117770000D01*
X169742031Y-117623804D01*
X169659721Y-117484625D01*
X169659714Y-117484616D01*
X169545383Y-117370285D01*
X169545374Y-117370278D01*
X169406195Y-117287968D01*
X169406190Y-117287966D01*
X169250918Y-117242855D01*
X169250912Y-117242854D01*
X169230000Y-117241209D01*
X169230000Y-117770000D01*
X168730000Y-117770000D01*
X168730000Y-117241210D01*
X168729999Y-117241209D01*
X168709087Y-117242854D01*
X168551273Y-117288703D01*
X168481404Y-117288503D01*
X168422734Y-117250560D01*
X168395062Y-117193817D01*
X168376462Y-117100311D01*
X168369737Y-117066503D01*
X168362253Y-117048435D01*
X168309397Y-116920827D01*
X168309390Y-116920814D01*
X168230764Y-116803143D01*
X168209886Y-116736466D01*
X168228370Y-116669086D01*
X168252318Y-116640839D01*
X168260457Y-116633733D01*
X168310185Y-116603672D01*
X168415287Y-116498569D01*
X168418452Y-116495807D01*
X168446523Y-116482861D01*
X168473642Y-116468054D01*
X168477963Y-116468363D01*
X168481900Y-116466548D01*
X168512508Y-116470833D01*
X168543334Y-116473038D01*
X168547534Y-116475737D01*
X168551095Y-116476236D01*
X168559328Y-116483317D01*
X168587681Y-116501539D01*
X168689811Y-116603669D01*
X168689813Y-116603670D01*
X168689815Y-116603672D01*
X168835394Y-116691678D01*
X168997804Y-116742286D01*
X169068384Y-116748700D01*
X169068387Y-116748700D01*
X169581613Y-116748700D01*
X169581616Y-116748700D01*
X169652196Y-116742286D01*
X169814606Y-116691678D01*
X169960185Y-116603672D01*
X170080472Y-116483385D01*
X170110598Y-116433549D01*
X170162126Y-116386362D01*
X170216715Y-116373700D01*
X170867643Y-116373700D01*
X170869849Y-116374347D01*
X170872079Y-116373779D01*
X170903224Y-116384147D01*
X170934682Y-116393385D01*
X170936187Y-116395121D01*
X170938371Y-116395849D01*
X170958969Y-116421414D01*
X170980437Y-116446189D01*
X170981214Y-116449022D01*
X170982208Y-116450256D01*
X170990934Y-116484455D01*
X170992776Y-116501601D01*
X170992775Y-116528099D01*
X170987500Y-116577166D01*
X170987500Y-116650000D01*
X170987551Y-116650051D01*
X171054415Y-116669685D01*
X171073752Y-116685033D01*
X171080775Y-116691851D01*
X171129954Y-116757546D01*
X171210701Y-116817993D01*
X171216407Y-116823533D01*
X171229847Y-116847305D01*
X171246213Y-116869168D01*
X171246792Y-116877277D01*
X171250794Y-116884354D01*
X171249248Y-116911616D01*
X171251197Y-116938860D01*
X171247300Y-116945996D01*
X171246840Y-116954112D01*
X171230800Y-116976211D01*
X171217711Y-117000182D01*
X171206102Y-117010241D01*
X171205800Y-117010658D01*
X171205475Y-117010784D01*
X171204343Y-117011766D01*
X171129954Y-117067453D01*
X171117809Y-117083678D01*
X171105356Y-117100312D01*
X171049424Y-117142182D01*
X171006091Y-117150000D01*
X170987500Y-117150000D01*
X170987500Y-117222844D01*
X170994119Y-117284398D01*
X170994120Y-117310909D01*
X170993409Y-117317514D01*
X170993409Y-117317517D01*
X170987000Y-117377127D01*
X170987000Y-117377134D01*
X170987000Y-117377135D01*
X170987000Y-118022870D01*
X170987001Y-118022876D01*
X170993408Y-118082483D01*
X171043702Y-118217328D01*
X171043703Y-118217330D01*
X171066291Y-118247503D01*
X171127960Y-118329883D01*
X171134249Y-118338283D01*
X171158666Y-118403747D01*
X171149544Y-118460045D01*
X171127370Y-118513579D01*
X171127368Y-118513587D01*
X171087000Y-118716530D01*
X171087000Y-118923469D01*
X171127368Y-119126412D01*
X171127370Y-119126420D01*
X171201799Y-119306108D01*
X171206559Y-119317598D01*
X171259194Y-119396372D01*
X171321524Y-119489657D01*
X171467842Y-119635975D01*
X171467845Y-119635977D01*
X171639902Y-119750941D01*
X171831080Y-119830130D01*
X172030853Y-119869867D01*
X172034030Y-119870499D01*
X172034034Y-119870500D01*
X172034035Y-119870500D01*
X173140966Y-119870500D01*
X173140967Y-119870499D01*
X173343920Y-119830130D01*
X173535098Y-119750941D01*
X173707155Y-119635977D01*
X173853477Y-119489655D01*
X173968441Y-119317598D01*
X174047630Y-119126420D01*
X174088000Y-118923465D01*
X174088000Y-118716535D01*
X174047630Y-118513580D01*
X173968441Y-118322402D01*
X173853477Y-118150345D01*
X173853475Y-118150342D01*
X173707158Y-118004025D01*
X173707154Y-118004022D01*
X173620313Y-117945996D01*
X173575508Y-117892383D01*
X173566801Y-117823058D01*
X173594115Y-117765967D01*
X173593071Y-117765166D01*
X173596864Y-117760221D01*
X173596956Y-117760031D01*
X173597245Y-117759725D01*
X173598016Y-117758719D01*
X173598020Y-117758716D01*
X173677077Y-117621784D01*
X173718000Y-117469057D01*
X173718000Y-117310943D01*
X173677077Y-117158216D01*
X173632851Y-117081613D01*
X173598024Y-117021290D01*
X173598018Y-117021282D01*
X173486217Y-116909481D01*
X173486209Y-116909475D01*
X173349290Y-116830426D01*
X173349286Y-116830424D01*
X173349284Y-116830423D01*
X173274930Y-116810500D01*
X173196551Y-116789498D01*
X173195307Y-116789335D01*
X173194335Y-116788905D01*
X173188707Y-116787397D01*
X173188942Y-116786518D01*
X173164867Y-116775866D01*
X173134060Y-116763242D01*
X173133039Y-116761784D01*
X173131412Y-116761064D01*
X173113084Y-116733273D01*
X173093995Y-116706001D01*
X173093630Y-116703775D01*
X173092945Y-116702737D01*
X173087597Y-116671292D01*
X173081610Y-116519741D01*
X173082224Y-116517296D01*
X173082224Y-116501595D01*
X173088000Y-116447873D01*
X173087999Y-116052128D01*
X173087998Y-116052111D01*
X173083820Y-116013253D01*
X173083151Y-115996762D01*
X173083281Y-115991753D01*
X173088000Y-115947873D01*
X173087999Y-115810960D01*
X173088041Y-115809363D01*
X173098278Y-115777587D01*
X173107683Y-115745559D01*
X173109208Y-115743666D01*
X173109468Y-115742860D01*
X173110622Y-115741911D01*
X173124309Y-115724926D01*
X173230520Y-115618716D01*
X173230521Y-115618713D01*
X173246006Y-115603228D01*
X173246011Y-115603224D01*
X173256214Y-115593020D01*
X173256216Y-115593020D01*
X173368020Y-115481216D01*
X173447077Y-115344284D01*
X173481870Y-115214434D01*
X173488000Y-115191558D01*
X173488000Y-115033443D01*
X173488000Y-114389060D01*
X173488001Y-114389047D01*
X173488001Y-114220944D01*
X173488001Y-114220943D01*
X173447077Y-114068216D01*
X173429837Y-114038355D01*
X173368024Y-113931290D01*
X173368018Y-113931282D01*
X173206217Y-113769481D01*
X173206212Y-113769477D01*
X173149999Y-113737023D01*
X173143327Y-113730025D01*
X173134386Y-113726343D01*
X173119608Y-113705149D01*
X173101784Y-113686456D01*
X173098889Y-113675436D01*
X173094423Y-113669031D01*
X173089864Y-113641078D01*
X173088087Y-113634310D01*
X173087999Y-113631977D01*
X173087999Y-113552128D01*
X173083359Y-113508967D01*
X173083197Y-113504671D01*
X173083820Y-113502209D01*
X173083820Y-113486747D01*
X173088000Y-113447873D01*
X173087999Y-113052128D01*
X173087998Y-113052111D01*
X173083820Y-113013253D01*
X173083820Y-112986747D01*
X173088000Y-112947873D01*
X173087999Y-112552128D01*
X173082224Y-112498405D01*
X173081611Y-112480258D01*
X173087597Y-112328708D01*
X173098003Y-112297830D01*
X173107185Y-112266563D01*
X173109101Y-112264902D01*
X173109912Y-112262498D01*
X173135375Y-112242136D01*
X173159989Y-112220808D01*
X173163199Y-112219886D01*
X173164480Y-112218862D01*
X173168057Y-112218491D01*
X173195320Y-112210662D01*
X173196545Y-112210500D01*
X173196557Y-112210500D01*
X173349284Y-112169577D01*
X173486216Y-112090520D01*
X173598020Y-111978716D01*
X173677077Y-111841784D01*
X173718000Y-111689057D01*
X173718000Y-111530943D01*
X173677077Y-111378216D01*
X173670312Y-111366498D01*
X173598024Y-111241290D01*
X173598021Y-111241287D01*
X173598020Y-111241284D01*
X173598017Y-111241281D01*
X173593074Y-111234839D01*
X173595199Y-111233207D01*
X173568037Y-111183463D01*
X173573021Y-111113771D01*
X173614893Y-111057838D01*
X173620298Y-111054012D01*
X173707155Y-110995977D01*
X173853477Y-110849655D01*
X173968441Y-110677598D01*
X174047630Y-110486420D01*
X174088000Y-110283465D01*
X174088000Y-110076535D01*
X174047630Y-109873580D01*
X173968441Y-109682402D01*
X173853477Y-109510345D01*
X173853475Y-109510342D01*
X173707157Y-109364024D01*
X173580176Y-109279179D01*
X173535098Y-109249059D01*
X173510253Y-109238768D01*
X173343920Y-109169870D01*
X173343912Y-109169868D01*
X173140969Y-109129500D01*
X173140965Y-109129500D01*
X172034035Y-109129500D01*
X172034030Y-109129500D01*
X171831087Y-109169868D01*
X171831079Y-109169870D01*
X171639903Y-109249058D01*
X171467842Y-109364024D01*
X171321524Y-109510342D01*
X171206558Y-109682403D01*
X171127370Y-109873579D01*
X171127368Y-109873587D01*
X171087000Y-110076530D01*
X171087000Y-110283469D01*
X171127368Y-110486412D01*
X171127370Y-110486420D01*
X171149544Y-110539952D01*
X171157013Y-110609421D01*
X171134249Y-110661716D01*
X171043706Y-110782664D01*
X171043702Y-110782671D01*
X170993410Y-110917513D01*
X170993409Y-110917517D01*
X170987000Y-110977127D01*
X170987000Y-110977134D01*
X170987000Y-110977135D01*
X170987000Y-111622870D01*
X170987001Y-111622876D01*
X170994119Y-111689092D01*
X170994119Y-111715599D01*
X170987500Y-111777169D01*
X170987500Y-111850000D01*
X171006091Y-111850000D01*
X171010474Y-111851287D01*
X171014938Y-111850316D01*
X171043688Y-111861040D01*
X171073130Y-111869685D01*
X171077317Y-111873583D01*
X171080402Y-111874734D01*
X171105354Y-111899685D01*
X171125346Y-111926390D01*
X171149762Y-111991855D01*
X171134910Y-112060128D01*
X171085504Y-112109533D01*
X171026078Y-112124700D01*
X167649606Y-112124700D01*
X167582567Y-112105015D01*
X167549539Y-112071067D01*
X167548702Y-112071724D01*
X167544075Y-112065819D01*
X167544073Y-112065817D01*
X167544072Y-112065815D01*
X167423785Y-111945528D01*
X167278206Y-111857522D01*
X167115796Y-111806914D01*
X167115794Y-111806913D01*
X167115792Y-111806913D01*
X167066378Y-111802423D01*
X167045216Y-111800500D01*
X166531984Y-111800500D01*
X166512745Y-111802248D01*
X166461407Y-111806913D01*
X166298993Y-111857522D01*
X166153413Y-111945529D01*
X166051280Y-112047662D01*
X166043332Y-112052001D01*
X166037908Y-112059248D01*
X166013151Y-112068481D01*
X165989957Y-112081146D01*
X165980926Y-112080500D01*
X165972443Y-112083664D01*
X165946624Y-112078047D01*
X165920265Y-112076162D01*
X165911209Y-112070342D01*
X165904171Y-112068811D01*
X165875917Y-112047660D01*
X165836818Y-112008560D01*
X165803333Y-111947237D01*
X165800500Y-111920880D01*
X165800500Y-111779765D01*
X165820185Y-111712726D01*
X165821398Y-111710874D01*
X165841011Y-111681522D01*
X165909394Y-111579179D01*
X165969737Y-111433497D01*
X166000500Y-111278842D01*
X166000500Y-111121158D01*
X166000500Y-111121155D01*
X166000499Y-111121153D01*
X165998468Y-111110941D01*
X165969737Y-110966503D01*
X165950843Y-110920889D01*
X165909397Y-110820827D01*
X165909390Y-110820814D01*
X165821789Y-110689711D01*
X165821786Y-110689707D01*
X165710292Y-110578213D01*
X165710288Y-110578210D01*
X165579185Y-110490609D01*
X165579172Y-110490602D01*
X165433501Y-110430264D01*
X165433489Y-110430261D01*
X165278845Y-110399500D01*
X165278842Y-110399500D01*
X165121158Y-110399500D01*
X165121155Y-110399500D01*
X164966510Y-110430261D01*
X164966498Y-110430264D01*
X164820827Y-110490602D01*
X164820814Y-110490609D01*
X164689711Y-110578210D01*
X164689707Y-110578213D01*
X164578213Y-110689707D01*
X164578210Y-110689711D01*
X164490609Y-110820814D01*
X164490602Y-110820827D01*
X164430264Y-110966498D01*
X164430261Y-110966510D01*
X164399500Y-111121153D01*
X164399500Y-111278846D01*
X164430261Y-111433489D01*
X164430264Y-111433501D01*
X164490602Y-111579172D01*
X164490609Y-111579185D01*
X164578602Y-111710874D01*
X164584252Y-111728920D01*
X164594477Y-111744830D01*
X164598928Y-111775789D01*
X164599480Y-111777551D01*
X164599500Y-111779765D01*
X164599500Y-111817506D01*
X164579815Y-111884545D01*
X164539651Y-111923622D01*
X164503414Y-111945528D01*
X164503410Y-111945531D01*
X164383130Y-112065811D01*
X164295122Y-112211393D01*
X164244513Y-112373807D01*
X164239382Y-112430275D01*
X164238100Y-112444384D01*
X164238100Y-113107616D01*
X164238743Y-113114689D01*
X164244513Y-113178192D01*
X164244513Y-113178194D01*
X164244514Y-113178196D01*
X164295122Y-113340606D01*
X164364466Y-113455315D01*
X164368115Y-113461350D01*
X164385951Y-113528905D01*
X164364433Y-113595378D01*
X164310393Y-113639666D01*
X164261998Y-113649500D01*
X161550097Y-113649500D01*
X161483058Y-113629815D01*
X161462416Y-113613181D01*
X160187590Y-112338355D01*
X160187588Y-112338352D01*
X160068717Y-112219481D01*
X160068716Y-112219480D01*
X159975432Y-112165623D01*
X159931785Y-112140423D01*
X159779057Y-112099499D01*
X159620943Y-112099499D01*
X159613347Y-112099499D01*
X159613331Y-112099500D01*
X156386669Y-112099500D01*
X156386653Y-112099499D01*
X156379057Y-112099499D01*
X156220943Y-112099499D01*
X156108446Y-112129643D01*
X156068214Y-112140423D01*
X156024568Y-112165623D01*
X156024567Y-112165623D01*
X155931287Y-112219477D01*
X155931282Y-112219481D01*
X155169481Y-112981282D01*
X155169475Y-112981290D01*
X155120279Y-113066502D01*
X155120279Y-113066503D01*
X155096733Y-113107285D01*
X155092506Y-113114608D01*
X155090423Y-113118215D01*
X155049499Y-113270943D01*
X155049499Y-113270945D01*
X155049499Y-113439046D01*
X155049500Y-113439059D01*
X155049500Y-114029191D01*
X155029815Y-114096230D01*
X155013181Y-114116872D01*
X154981923Y-114148129D01*
X154981917Y-114148137D01*
X154898255Y-114289603D01*
X154898254Y-114289606D01*
X154852402Y-114447426D01*
X154852401Y-114447432D01*
X154849500Y-114484298D01*
X154849500Y-115640701D01*
X154852401Y-115677567D01*
X154852402Y-115677573D01*
X154898254Y-115835393D01*
X154898255Y-115835396D01*
X154981917Y-115976862D01*
X154981923Y-115976870D01*
X155013180Y-116008126D01*
X155027885Y-116035056D01*
X155044477Y-116060873D01*
X155045368Y-116067071D01*
X155046666Y-116069448D01*
X155049500Y-116095808D01*
X155049500Y-116304191D01*
X155029815Y-116371230D01*
X155013181Y-116391872D01*
X154981923Y-116423129D01*
X154981917Y-116423137D01*
X154898255Y-116564603D01*
X154898254Y-116564604D01*
X154874143Y-116647596D01*
X154836536Y-116706481D01*
X154773064Y-116735687D01*
X154755067Y-116737000D01*
X152156379Y-116737000D01*
X152089340Y-116717315D01*
X152068698Y-116700681D01*
X149406372Y-114038355D01*
X149399303Y-114031286D01*
X149399302Y-114031284D01*
X149287498Y-113919480D01*
X149287495Y-113919478D01*
X149284958Y-113916941D01*
X149251474Y-113855618D01*
X149256458Y-113785926D01*
X149298330Y-113729993D01*
X149303743Y-113726162D01*
X149310289Y-113721789D01*
X149421789Y-113610289D01*
X149509394Y-113479179D01*
X149569737Y-113333497D01*
X149600500Y-113178842D01*
X149600500Y-113021158D01*
X149600500Y-113021155D01*
X149600499Y-113021153D01*
X149592570Y-112981290D01*
X149569737Y-112866503D01*
X149550568Y-112820225D01*
X149509397Y-112720827D01*
X149509390Y-112720814D01*
X149419990Y-112587018D01*
X149399112Y-112520341D01*
X149417596Y-112452960D01*
X149469575Y-112406270D01*
X149498901Y-112396510D01*
X149528582Y-112390606D01*
X149633497Y-112369737D01*
X149779179Y-112309394D01*
X149910289Y-112221789D01*
X150021789Y-112110289D01*
X150109394Y-111979179D01*
X150169737Y-111833497D01*
X150200500Y-111678842D01*
X150200500Y-111521158D01*
X150200500Y-111521155D01*
X150200499Y-111521153D01*
X150183061Y-111433489D01*
X150169737Y-111366503D01*
X150133427Y-111278842D01*
X150109397Y-111220827D01*
X150109390Y-111220814D01*
X150021789Y-111089711D01*
X150021786Y-111089707D01*
X149910292Y-110978213D01*
X149910288Y-110978210D01*
X149779185Y-110890609D01*
X149779172Y-110890602D01*
X149633501Y-110830264D01*
X149633489Y-110830261D01*
X149478845Y-110799500D01*
X149478842Y-110799500D01*
X149321158Y-110799500D01*
X149321155Y-110799500D01*
X149166510Y-110830261D01*
X149166502Y-110830263D01*
X149140477Y-110841043D01*
X149071007Y-110848510D01*
X149008528Y-110817234D01*
X148972877Y-110757145D01*
X148969736Y-110739734D01*
X148969091Y-110733734D01*
X148918797Y-110598889D01*
X148918793Y-110598882D01*
X148832547Y-110483673D01*
X148832544Y-110483670D01*
X148717335Y-110397424D01*
X148717328Y-110397420D01*
X148582486Y-110347128D01*
X148582485Y-110347127D01*
X148582483Y-110347127D01*
X148522873Y-110340718D01*
X148522863Y-110340718D01*
X148177130Y-110340718D01*
X148177123Y-110340719D01*
X148109804Y-110347956D01*
X148109690Y-110346892D01*
X148070310Y-110346892D01*
X148070196Y-110347957D01*
X148062485Y-110347128D01*
X148062483Y-110347127D01*
X148002873Y-110340718D01*
X148002863Y-110340718D01*
X147657130Y-110340718D01*
X147657123Y-110340719D01*
X147597509Y-110347127D01*
X147593508Y-110348073D01*
X147536491Y-110348073D01*
X147532495Y-110347129D01*
X147532485Y-110347127D01*
X147532483Y-110347127D01*
X147472873Y-110340718D01*
X147472863Y-110340718D01*
X147127130Y-110340718D01*
X147127125Y-110340719D01*
X147067515Y-110347127D01*
X147059972Y-110348910D01*
X147059276Y-110345967D01*
X147003619Y-110349937D01*
X147000038Y-110348885D01*
X147000032Y-110348911D01*
X146992479Y-110347126D01*
X146932882Y-110340719D01*
X146932873Y-110340718D01*
X146932863Y-110340718D01*
X146587130Y-110340718D01*
X146587123Y-110340719D01*
X146519804Y-110347956D01*
X146519690Y-110346892D01*
X146480310Y-110346892D01*
X146480196Y-110347957D01*
X146472485Y-110347128D01*
X146472483Y-110347127D01*
X146412873Y-110340718D01*
X146412863Y-110340718D01*
X146067130Y-110340718D01*
X146067125Y-110340719D01*
X146007515Y-110347127D01*
X145999972Y-110348910D01*
X145999525Y-110347022D01*
X145962482Y-110352548D01*
X145944009Y-110351425D01*
X145932483Y-110347127D01*
X145872873Y-110340718D01*
X145767731Y-110340718D01*
X145763978Y-110340490D01*
X145734506Y-110329856D01*
X145704457Y-110321033D01*
X145701523Y-110317956D01*
X145698255Y-110316777D01*
X145689528Y-110305376D01*
X145664108Y-110278717D01*
X145660520Y-110272502D01*
X145548716Y-110160698D01*
X145548715Y-110160697D01*
X145544385Y-110156367D01*
X145544374Y-110156357D01*
X144541415Y-109153398D01*
X144507930Y-109092075D01*
X144512914Y-109022383D01*
X144554786Y-108966450D01*
X144620250Y-108942033D01*
X144629080Y-108941717D01*
X144822872Y-108941717D01*
X144880260Y-108935548D01*
X144882484Y-108935309D01*
X144886474Y-108934366D01*
X144943515Y-108934363D01*
X144947514Y-108935308D01*
X144947517Y-108935309D01*
X145007127Y-108941718D01*
X145352872Y-108941717D01*
X145401571Y-108936482D01*
X145420197Y-108934480D01*
X145420311Y-108935548D01*
X145459688Y-108935547D01*
X145459803Y-108934479D01*
X145467514Y-108935307D01*
X145467517Y-108935309D01*
X145527127Y-108941718D01*
X145872872Y-108941717D01*
X145932483Y-108935309D01*
X145932485Y-108935308D01*
X145932487Y-108935308D01*
X145940031Y-108933526D01*
X145940729Y-108936482D01*
X145996298Y-108932481D01*
X145999954Y-108933554D01*
X145999962Y-108933524D01*
X146007511Y-108935307D01*
X146007517Y-108935309D01*
X146067127Y-108941718D01*
X146412872Y-108941717D01*
X146461571Y-108936482D01*
X146480197Y-108934480D01*
X146480311Y-108935548D01*
X146519688Y-108935547D01*
X146519803Y-108934479D01*
X146527514Y-108935307D01*
X146527517Y-108935309D01*
X146587127Y-108941718D01*
X146932872Y-108941717D01*
X146992483Y-108935309D01*
X146992485Y-108935308D01*
X146992487Y-108935308D01*
X147000031Y-108933526D01*
X147000729Y-108936482D01*
X147056298Y-108932481D01*
X147059954Y-108933554D01*
X147059962Y-108933524D01*
X147067511Y-108935307D01*
X147067517Y-108935309D01*
X147127127Y-108941718D01*
X147472872Y-108941717D01*
X147530260Y-108935548D01*
X147532484Y-108935309D01*
X147536474Y-108934366D01*
X147593515Y-108934363D01*
X147597514Y-108935308D01*
X147597517Y-108935309D01*
X147657127Y-108941718D01*
X148002872Y-108941717D01*
X148051571Y-108936482D01*
X148070197Y-108934480D01*
X148070311Y-108935548D01*
X148109688Y-108935547D01*
X148109803Y-108934479D01*
X148117514Y-108935307D01*
X148117517Y-108935309D01*
X148177127Y-108941718D01*
X148522872Y-108941717D01*
X148582483Y-108935309D01*
X148717331Y-108885014D01*
X148832546Y-108798764D01*
X148918796Y-108683549D01*
X148969091Y-108548701D01*
X148969091Y-108548699D01*
X148970874Y-108541156D01*
X148973146Y-108541692D01*
X148995429Y-108487906D01*
X149052823Y-108448061D01*
X149091976Y-108441718D01*
X151052113Y-108441718D01*
X151052129Y-108441719D01*
X151059725Y-108441719D01*
X151217836Y-108441719D01*
X151217839Y-108441719D01*
X151370567Y-108400795D01*
X151420686Y-108371857D01*
X151507498Y-108321738D01*
X151619302Y-108209934D01*
X151619302Y-108209932D01*
X151629510Y-108199725D01*
X151629511Y-108199722D01*
X157982416Y-101846819D01*
X158043739Y-101813334D01*
X158070097Y-101810500D01*
X158184682Y-101810500D01*
X158184690Y-101810500D01*
X158220993Y-101807643D01*
X158220995Y-101807642D01*
X158220997Y-101807642D01*
X158292221Y-101786949D01*
X158376395Y-101762494D01*
X158515687Y-101680117D01*
X158515692Y-101680112D01*
X158630114Y-101565691D01*
X158630115Y-101565688D01*
X158630117Y-101565687D01*
X158712494Y-101426395D01*
X158757643Y-101270993D01*
X158760500Y-101234690D01*
X158760500Y-100765310D01*
X158757643Y-100729007D01*
X158755266Y-100720827D01*
X158712495Y-100573609D01*
X158712494Y-100573605D01*
X158696293Y-100546211D01*
X158679110Y-100478490D01*
X158692035Y-100434696D01*
X158689396Y-100433554D01*
X158692489Y-100426402D01*
X158692494Y-100426395D01*
X158737643Y-100270993D01*
X158740500Y-100234690D01*
X158740500Y-99765310D01*
X158737643Y-99729007D01*
X158692494Y-99573605D01*
X158610117Y-99434313D01*
X158610115Y-99434311D01*
X158610112Y-99434307D01*
X158495692Y-99319887D01*
X158495684Y-99319881D01*
X158405930Y-99266801D01*
X158356395Y-99237506D01*
X158356394Y-99237505D01*
X158356393Y-99237505D01*
X158356390Y-99237504D01*
X158200997Y-99192357D01*
X158200991Y-99192356D01*
X158164697Y-99189500D01*
X158164690Y-99189500D01*
X157755310Y-99189500D01*
X157755302Y-99189500D01*
X157719008Y-99192356D01*
X157719002Y-99192357D01*
X157563608Y-99237504D01*
X157563602Y-99237506D01*
X157543120Y-99249620D01*
X157475396Y-99266801D01*
X157416880Y-99249620D01*
X157396397Y-99237506D01*
X157396391Y-99237504D01*
X157240997Y-99192357D01*
X157240991Y-99192356D01*
X157204697Y-99189500D01*
X157204690Y-99189500D01*
X156795310Y-99189500D01*
X156795302Y-99189500D01*
X156759008Y-99192356D01*
X156759002Y-99192357D01*
X156603609Y-99237504D01*
X156603606Y-99237505D01*
X156583121Y-99249620D01*
X156532065Y-99279815D01*
X156527978Y-99282232D01*
X156512076Y-99286582D01*
X156499792Y-99294477D01*
X156464857Y-99299500D01*
X156379766Y-99299500D01*
X156312727Y-99279815D01*
X156310875Y-99278602D01*
X156179185Y-99190609D01*
X156179172Y-99190602D01*
X156033501Y-99130264D01*
X156033489Y-99130261D01*
X155878845Y-99099500D01*
X155878842Y-99099500D01*
X155721158Y-99099500D01*
X155721155Y-99099500D01*
X155566510Y-99130261D01*
X155566498Y-99130264D01*
X155420827Y-99190602D01*
X155420814Y-99190609D01*
X155289711Y-99278210D01*
X155289707Y-99278213D01*
X155178213Y-99389707D01*
X155178210Y-99389711D01*
X155090609Y-99520814D01*
X155090602Y-99520827D01*
X155030264Y-99666498D01*
X155030261Y-99666510D01*
X154999500Y-99821153D01*
X154999500Y-99978846D01*
X155030261Y-100133489D01*
X155030264Y-100133501D01*
X155090602Y-100279172D01*
X155090609Y-100279185D01*
X155153485Y-100373285D01*
X155174363Y-100439963D01*
X155155878Y-100507343D01*
X155138064Y-100529857D01*
X155078213Y-100589707D01*
X155078210Y-100589711D01*
X154990609Y-100720814D01*
X154990602Y-100720827D01*
X154930264Y-100866498D01*
X154930261Y-100866510D01*
X154899500Y-101021153D01*
X154899500Y-101178846D01*
X154930261Y-101333489D01*
X154930264Y-101333501D01*
X154990602Y-101479172D01*
X154990609Y-101479185D01*
X155078210Y-101610288D01*
X155078213Y-101610292D01*
X155189707Y-101721786D01*
X155189711Y-101721789D01*
X155320814Y-101809390D01*
X155320827Y-101809397D01*
X155463635Y-101868549D01*
X155466503Y-101869737D01*
X155621153Y-101900499D01*
X155621156Y-101900500D01*
X155621158Y-101900500D01*
X155778844Y-101900500D01*
X155778845Y-101900499D01*
X155828602Y-101890602D01*
X155939472Y-101868549D01*
X155939907Y-101870737D01*
X155999758Y-101870186D01*
X156058882Y-101907416D01*
X156088492Y-101970701D01*
X156079187Y-102039949D01*
X156053603Y-102077161D01*
X150926366Y-107204399D01*
X150865043Y-107237884D01*
X150838685Y-107240718D01*
X149091977Y-107240718D01*
X149024938Y-107221033D01*
X148979183Y-107168229D01*
X148978200Y-107166020D01*
X148970701Y-107148714D01*
X148969091Y-107133735D01*
X148918796Y-106998887D01*
X148887885Y-106957595D01*
X148882098Y-106944240D01*
X148879519Y-106923433D01*
X148872191Y-106903787D01*
X148875308Y-106889454D01*
X148873505Y-106874901D01*
X148882584Y-106856003D01*
X148887041Y-106835514D01*
X148902082Y-106815421D01*
X148903763Y-106811923D01*
X148905502Y-106810852D01*
X148908190Y-106807261D01*
X150968634Y-104746819D01*
X151029957Y-104713334D01*
X151056315Y-104710500D01*
X151291731Y-104710500D01*
X151291747Y-104710501D01*
X151299343Y-104710501D01*
X151457454Y-104710501D01*
X151457457Y-104710501D01*
X151610185Y-104669577D01*
X151660304Y-104640639D01*
X151747116Y-104590520D01*
X151858920Y-104478716D01*
X151858921Y-104478713D01*
X151990817Y-104346818D01*
X152052141Y-104313334D01*
X152078498Y-104310500D01*
X152193082Y-104310500D01*
X152193090Y-104310500D01*
X152229393Y-104307643D01*
X152229395Y-104307642D01*
X152229397Y-104307642D01*
X152270375Y-104295736D01*
X152384795Y-104262494D01*
X152524087Y-104180117D01*
X152638517Y-104065687D01*
X152720894Y-103926395D01*
X152766043Y-103770993D01*
X152768900Y-103734690D01*
X152768900Y-103265310D01*
X152766043Y-103229007D01*
X152765551Y-103227314D01*
X152720896Y-103073611D01*
X152720895Y-103073610D01*
X152720894Y-103073605D01*
X152714692Y-103063119D01*
X152697510Y-102995400D01*
X152714692Y-102936881D01*
X152720894Y-102926395D01*
X152766043Y-102770993D01*
X152768900Y-102734690D01*
X152768900Y-102265310D01*
X152766043Y-102229007D01*
X152763666Y-102220827D01*
X152720895Y-102073609D01*
X152720894Y-102073606D01*
X152720894Y-102073605D01*
X152638517Y-101934313D01*
X152638515Y-101934311D01*
X152638512Y-101934307D01*
X152524092Y-101819887D01*
X152524084Y-101819881D01*
X152427047Y-101762494D01*
X152384795Y-101737506D01*
X152384794Y-101737505D01*
X152384793Y-101737505D01*
X152384790Y-101737504D01*
X152229397Y-101692357D01*
X152229391Y-101692356D01*
X152193097Y-101689500D01*
X152193090Y-101689500D01*
X151783710Y-101689500D01*
X151783702Y-101689500D01*
X151747408Y-101692356D01*
X151747402Y-101692357D01*
X151592008Y-101737504D01*
X151592002Y-101737506D01*
X151571520Y-101749620D01*
X151503796Y-101766801D01*
X151445280Y-101749620D01*
X151424797Y-101737506D01*
X151424791Y-101737504D01*
X151269397Y-101692357D01*
X151269391Y-101692356D01*
X151233097Y-101689500D01*
X151233090Y-101689500D01*
X150823710Y-101689500D01*
X150823702Y-101689500D01*
X150787408Y-101692356D01*
X150787402Y-101692357D01*
X150632009Y-101737504D01*
X150632006Y-101737505D01*
X150492715Y-101819881D01*
X150492711Y-101819884D01*
X150396691Y-101915904D01*
X150335367Y-101949388D01*
X150265676Y-101944404D01*
X150240119Y-101931324D01*
X150179185Y-101890609D01*
X150179172Y-101890602D01*
X150033501Y-101830264D01*
X150033489Y-101830261D01*
X149878845Y-101799500D01*
X149878842Y-101799500D01*
X149721158Y-101799500D01*
X149721155Y-101799500D01*
X149566510Y-101830261D01*
X149566498Y-101830264D01*
X149420827Y-101890602D01*
X149420814Y-101890609D01*
X149289711Y-101978210D01*
X149289707Y-101978213D01*
X149178213Y-102089707D01*
X149178210Y-102089711D01*
X149090609Y-102220814D01*
X149090602Y-102220827D01*
X149030264Y-102366498D01*
X149030261Y-102366510D01*
X148999500Y-102521153D01*
X148999500Y-102678846D01*
X149030261Y-102833489D01*
X149030264Y-102833501D01*
X149090602Y-102979172D01*
X149090612Y-102979190D01*
X149151732Y-103070663D01*
X149172610Y-103137340D01*
X149163191Y-103187004D01*
X149130761Y-103265302D01*
X149130262Y-103266506D01*
X149130260Y-103266511D01*
X149099500Y-103421153D01*
X149099500Y-103578846D01*
X149130261Y-103733489D01*
X149130264Y-103733501D01*
X149190602Y-103879172D01*
X149190609Y-103879185D01*
X149278210Y-104010288D01*
X149278213Y-104010292D01*
X149389707Y-104121786D01*
X149389711Y-104121789D01*
X149520814Y-104209390D01*
X149520827Y-104209397D01*
X149552142Y-104222368D01*
X149606546Y-104266209D01*
X149628611Y-104332503D01*
X149611332Y-104400202D01*
X149592371Y-104424610D01*
X147880878Y-106136103D01*
X147819555Y-106169588D01*
X147749863Y-106164604D01*
X147693930Y-106122732D01*
X147669513Y-106057268D01*
X147671580Y-106024230D01*
X147700500Y-105878844D01*
X147700500Y-105721155D01*
X147700499Y-105721153D01*
X147669738Y-105566510D01*
X147669737Y-105566503D01*
X147634756Y-105482051D01*
X147609397Y-105420827D01*
X147609390Y-105420814D01*
X147521789Y-105289711D01*
X147521786Y-105289707D01*
X147410292Y-105178213D01*
X147410288Y-105178210D01*
X147279185Y-105090609D01*
X147279172Y-105090602D01*
X147133501Y-105030264D01*
X147133489Y-105030261D01*
X146978845Y-104999500D01*
X146978842Y-104999500D01*
X146964500Y-104999500D01*
X146897461Y-104979815D01*
X146851706Y-104927011D01*
X146840500Y-104875500D01*
X146840500Y-88177622D01*
X146849144Y-88148181D01*
X146855668Y-88118195D01*
X146859422Y-88113179D01*
X146860185Y-88110583D01*
X146876814Y-88089945D01*
X146939670Y-88027089D01*
X151250147Y-88027089D01*
X151250148Y-88027090D01*
X151394260Y-88076151D01*
X151417657Y-88077951D01*
X151482989Y-88102720D01*
X151521070Y-88150359D01*
X151531136Y-88172549D01*
X151531137Y-88172550D01*
X151531138Y-88172552D01*
X151632539Y-88298671D01*
X151660638Y-88321833D01*
X151660648Y-88321840D01*
X151660656Y-88321846D01*
X151742055Y-88378842D01*
X151995983Y-88556644D01*
X151995989Y-88556648D01*
X151995994Y-88556651D01*
X152027356Y-88575125D01*
X152027359Y-88575126D01*
X152180553Y-88627277D01*
X152259805Y-88633375D01*
X152325133Y-88658144D01*
X152337970Y-88669328D01*
X153284206Y-89615564D01*
X153317691Y-89676887D01*
X153318142Y-89727436D01*
X153299500Y-89821153D01*
X153299500Y-89978846D01*
X153330261Y-90133489D01*
X153330264Y-90133501D01*
X153390602Y-90279172D01*
X153390609Y-90279185D01*
X153478210Y-90410288D01*
X153478213Y-90410292D01*
X153589707Y-90521786D01*
X153589711Y-90521789D01*
X153720814Y-90609390D01*
X153720827Y-90609397D01*
X153866498Y-90669735D01*
X153866503Y-90669737D01*
X154021153Y-90700499D01*
X154021156Y-90700500D01*
X154021158Y-90700500D01*
X154178844Y-90700500D01*
X154178845Y-90700499D01*
X154333497Y-90669737D01*
X154479179Y-90609394D01*
X154610289Y-90521789D01*
X154721789Y-90410289D01*
X154809394Y-90279179D01*
X154813728Y-90268717D01*
X154855565Y-90167711D01*
X154869737Y-90133497D01*
X154900500Y-89978842D01*
X154900500Y-89821158D01*
X154900500Y-89821155D01*
X154900499Y-89821153D01*
X154869738Y-89666507D01*
X154869735Y-89666498D01*
X154809397Y-89520827D01*
X154809390Y-89520814D01*
X154721790Y-89389712D01*
X154721789Y-89389711D01*
X154639918Y-89307840D01*
X154620215Y-89282162D01*
X154601358Y-89249500D01*
X154601358Y-89249499D01*
X154580524Y-89213413D01*
X154580521Y-89213409D01*
X154580520Y-89213407D01*
X154468716Y-89101603D01*
X154468715Y-89101602D01*
X154464385Y-89097272D01*
X154464374Y-89097262D01*
X153183511Y-87816399D01*
X153150026Y-87755076D01*
X153147557Y-87719208D01*
X153150203Y-87684824D01*
X153122102Y-87525454D01*
X153055250Y-87378080D01*
X152953849Y-87251961D01*
X152925750Y-87228799D01*
X152925744Y-87228795D01*
X152925731Y-87228785D01*
X152651524Y-87036784D01*
X152590405Y-86993988D01*
X152590400Y-86993985D01*
X152590393Y-86993980D01*
X152559031Y-86975506D01*
X152542155Y-86969761D01*
X152542142Y-86969757D01*
X152405835Y-86923355D01*
X152369109Y-86920528D01*
X152357117Y-86917117D01*
X152337683Y-86904858D01*
X152316202Y-86896713D01*
X152307486Y-86885808D01*
X152298023Y-86879839D01*
X152291433Y-86865725D01*
X152278562Y-86849622D01*
X157245798Y-86849622D01*
X157245798Y-86849624D01*
X157245798Y-86849625D01*
X157258213Y-87010976D01*
X157310364Y-87164170D01*
X157328846Y-87195547D01*
X157477075Y-87407240D01*
X157499402Y-87473445D01*
X157499500Y-87478363D01*
X157499500Y-87874684D01*
X157490061Y-87922136D01*
X157430264Y-88066498D01*
X157430261Y-88066510D01*
X157399500Y-88221153D01*
X157399500Y-88378846D01*
X157430261Y-88533489D01*
X157430264Y-88533501D01*
X157490602Y-88679172D01*
X157490609Y-88679185D01*
X157578210Y-88810288D01*
X157578213Y-88810292D01*
X157689707Y-88921786D01*
X157689711Y-88921789D01*
X157820814Y-89009390D01*
X157820827Y-89009397D01*
X157966498Y-89069735D01*
X157966503Y-89069737D01*
X158104880Y-89097262D01*
X158121153Y-89100499D01*
X158121156Y-89100500D01*
X158121158Y-89100500D01*
X158278844Y-89100500D01*
X158278845Y-89100499D01*
X158433497Y-89069737D01*
X158579179Y-89009394D01*
X158710289Y-88921789D01*
X158821789Y-88810289D01*
X158909394Y-88679179D01*
X158969737Y-88533497D01*
X159000500Y-88378842D01*
X159000500Y-88221158D01*
X159000500Y-88221155D01*
X159000499Y-88221153D01*
X158991840Y-88177622D01*
X158969737Y-88066503D01*
X158953412Y-88027090D01*
X158909397Y-87920827D01*
X158909390Y-87920814D01*
X158821789Y-87789711D01*
X158821786Y-87789707D01*
X158736819Y-87704740D01*
X158722115Y-87677812D01*
X158705523Y-87651994D01*
X158704631Y-87645793D01*
X158703334Y-87643417D01*
X158700500Y-87617059D01*
X158700500Y-87573855D01*
X158720185Y-87506816D01*
X158745630Y-87478171D01*
X158751363Y-87473445D01*
X158763462Y-87463472D01*
X158864863Y-87337353D01*
X158874930Y-87315158D01*
X158920548Y-87262241D01*
X158978342Y-87242750D01*
X159001738Y-87240950D01*
X159145849Y-87191889D01*
X158970247Y-86941103D01*
X158948188Y-86879490D01*
X158947401Y-86869258D01*
X158895250Y-86716064D01*
X158880047Y-86690253D01*
X158876772Y-86684693D01*
X158876768Y-86684687D01*
X158798703Y-86573198D01*
X158783194Y-86551049D01*
X158742155Y-86492439D01*
X158742155Y-86492440D01*
X158713051Y-86450875D01*
X159237373Y-86450875D01*
X159237373Y-86450876D01*
X159555425Y-86905100D01*
X159650820Y-86786455D01*
X159717621Y-86639193D01*
X159745698Y-86479953D01*
X159733293Y-86318719D01*
X159681186Y-86165657D01*
X159681184Y-86165653D01*
X159670534Y-86147574D01*
X159237373Y-86450875D01*
X158713051Y-86450875D01*
X158607543Y-86300194D01*
X158584380Y-86272095D01*
X158584378Y-86272093D01*
X158584377Y-86272092D01*
X158584377Y-86272091D01*
X158458260Y-86170692D01*
X158448911Y-86166451D01*
X158398562Y-86124651D01*
X158222958Y-85873864D01*
X158127565Y-85992509D01*
X158127564Y-85992510D01*
X158117872Y-86013878D01*
X158072251Y-86066798D01*
X158014462Y-86086286D01*
X157995827Y-86087720D01*
X157990164Y-86088156D01*
X157836968Y-86140308D01*
X157805607Y-86158781D01*
X157805593Y-86158791D01*
X157470269Y-86393586D01*
X157470245Y-86393604D01*
X157442152Y-86416761D01*
X157340752Y-86542879D01*
X157340751Y-86542881D01*
X157273899Y-86690253D01*
X157245798Y-86849622D01*
X152278562Y-86849622D01*
X152278124Y-86849074D01*
X152268434Y-86827713D01*
X152173039Y-86709065D01*
X151997437Y-86959850D01*
X151947093Y-87001648D01*
X151937741Y-87005890D01*
X151937740Y-87005891D01*
X151811623Y-87107290D01*
X151811623Y-87107291D01*
X151788462Y-87135387D01*
X151788458Y-87135393D01*
X151653845Y-87327641D01*
X151653844Y-87327642D01*
X151653843Y-87327641D01*
X151519234Y-87519884D01*
X151519228Y-87519892D01*
X151500752Y-87551260D01*
X151448599Y-87704458D01*
X151448599Y-87704459D01*
X151447811Y-87714697D01*
X151425752Y-87776299D01*
X151250147Y-88027089D01*
X146939670Y-88027089D01*
X147651605Y-87315154D01*
X150650300Y-87315154D01*
X150678377Y-87474394D01*
X150745178Y-87621656D01*
X150840571Y-87740301D01*
X151158623Y-87286076D01*
X150725465Y-86982775D01*
X150725463Y-86982775D01*
X150714814Y-87000854D01*
X150714812Y-87000858D01*
X150662705Y-87153920D01*
X150650300Y-87315154D01*
X147651605Y-87315154D01*
X147938033Y-87028726D01*
X147999354Y-86995243D01*
X148069046Y-87000227D01*
X148096828Y-87014828D01*
X148101369Y-87018008D01*
X148101376Y-87018012D01*
X148133240Y-87036781D01*
X148133246Y-87036784D01*
X148288819Y-87089745D01*
X148288821Y-87089746D01*
X148288823Y-87089746D01*
X148288826Y-87089747D01*
X148452696Y-87102356D01*
X148614554Y-87073816D01*
X148764229Y-87005920D01*
X148892317Y-86902935D01*
X148915845Y-86874394D01*
X149126744Y-86573198D01*
X151012252Y-86573198D01*
X151445412Y-86876500D01*
X151763462Y-86422277D01*
X151763462Y-86422276D01*
X151619351Y-86373217D01*
X151619349Y-86373216D01*
X151458117Y-86360811D01*
X151298877Y-86388888D01*
X151151615Y-86455689D01*
X151025593Y-86557014D01*
X151012252Y-86573198D01*
X149126744Y-86573198D01*
X149163279Y-86521021D01*
X149182052Y-86489150D01*
X149235018Y-86333564D01*
X149236293Y-86316987D01*
X149240622Y-86303330D01*
X149252451Y-86285757D01*
X149259961Y-86265950D01*
X149272572Y-86255869D01*
X149279641Y-86245370D01*
X149292814Y-86239689D01*
X149302542Y-86231914D01*
X149302217Y-86231385D01*
X149306506Y-86228746D01*
X149307610Y-86227864D01*
X149308863Y-86227295D01*
X149436848Y-86124392D01*
X149436857Y-86124383D01*
X149438440Y-86122463D01*
X149220971Y-85970189D01*
X149179170Y-85919838D01*
X149151193Y-85858163D01*
X149151192Y-85858162D01*
X149151192Y-85858161D01*
X149048206Y-85730073D01*
X149019665Y-85706545D01*
X148647608Y-85446028D01*
X148641956Y-85438956D01*
X148633878Y-85434873D01*
X148620484Y-85412094D01*
X148603985Y-85391452D01*
X148603053Y-85382447D01*
X148598464Y-85374643D01*
X148599512Y-85348235D01*
X148596792Y-85321953D01*
X148600949Y-85312027D01*
X148601235Y-85304828D01*
X148617158Y-85273330D01*
X148646410Y-85231554D01*
X148700987Y-85187930D01*
X148770486Y-85180737D01*
X148819107Y-85201102D01*
X149191164Y-85461619D01*
X149223035Y-85480392D01*
X149223041Y-85480395D01*
X149378615Y-85533357D01*
X149378618Y-85533357D01*
X149378621Y-85533358D01*
X149446151Y-85538554D01*
X149507758Y-85560613D01*
X149725227Y-85712886D01*
X149726495Y-85710737D01*
X149726500Y-85710724D01*
X149768594Y-85587075D01*
X158632535Y-85587075D01*
X158632535Y-85587076D01*
X158950585Y-86041300D01*
X158950586Y-86041300D01*
X159383746Y-85737998D01*
X159370404Y-85721813D01*
X159244383Y-85620488D01*
X159097121Y-85553687D01*
X158937879Y-85525610D01*
X158776650Y-85538015D01*
X158632535Y-85587075D01*
X149768594Y-85587075D01*
X149773387Y-85572997D01*
X149782551Y-85534610D01*
X149795240Y-85512444D01*
X149804293Y-85488563D01*
X149812808Y-85481755D01*
X149817264Y-85473973D01*
X149832383Y-85466108D01*
X149847586Y-85453955D01*
X149847379Y-85453619D01*
X149850105Y-85451941D01*
X149851936Y-85450477D01*
X149854024Y-85449531D01*
X149982112Y-85346546D01*
X150005640Y-85318005D01*
X150253074Y-84964632D01*
X150271847Y-84932761D01*
X150271848Y-84932757D01*
X150271850Y-84932754D01*
X150324811Y-84777181D01*
X150324812Y-84777179D01*
X150324812Y-84777177D01*
X150324813Y-84777175D01*
X150337422Y-84613305D01*
X150308882Y-84451447D01*
X150240987Y-84301772D01*
X150240986Y-84301770D01*
X150239892Y-84299359D01*
X150230124Y-84230175D01*
X150259311Y-84166694D01*
X150265121Y-84160468D01*
X151166066Y-83259523D01*
X151227387Y-83226040D01*
X151297079Y-83231024D01*
X151353012Y-83272896D01*
X151356848Y-83278317D01*
X151378209Y-83310287D01*
X151378213Y-83310292D01*
X151489707Y-83421786D01*
X151489711Y-83421789D01*
X151620814Y-83509390D01*
X151620827Y-83509397D01*
X151695406Y-83540288D01*
X151766503Y-83569737D01*
X151921153Y-83600499D01*
X151921156Y-83600500D01*
X151921158Y-83600500D01*
X152078844Y-83600500D01*
X152078845Y-83600499D01*
X152233497Y-83569737D01*
X152346166Y-83523067D01*
X152379172Y-83509397D01*
X152379172Y-83509396D01*
X152379179Y-83509394D01*
X152379185Y-83509390D01*
X152510875Y-83421398D01*
X152577553Y-83400520D01*
X152579766Y-83400500D01*
X153475144Y-83400500D01*
X153475160Y-83400501D01*
X153482756Y-83400501D01*
X153640867Y-83400501D01*
X153640870Y-83400501D01*
X153793598Y-83359577D01*
X153868564Y-83316295D01*
X153878971Y-83310287D01*
X153930522Y-83280524D01*
X153930521Y-83280524D01*
X153930529Y-83280520D01*
X154042333Y-83168716D01*
X154042333Y-83168714D01*
X154052537Y-83158511D01*
X154052541Y-83158506D01*
X154584818Y-82626229D01*
X157089169Y-82626229D01*
X157294412Y-82919344D01*
X157333812Y-82964452D01*
X157452239Y-83045984D01*
X157588837Y-83090845D01*
X157588833Y-83090845D01*
X157732547Y-83095407D01*
X157871711Y-83059298D01*
X157871714Y-83059297D01*
X157924164Y-83030387D01*
X158938133Y-82320397D01*
X158473537Y-81656884D01*
X157089169Y-82626229D01*
X154584818Y-82626229D01*
X155479126Y-81731920D01*
X156532119Y-81731920D01*
X156568228Y-81871084D01*
X156568229Y-81871087D01*
X156597139Y-81923537D01*
X156597145Y-81923546D01*
X156802380Y-82216653D01*
X156802381Y-82216653D01*
X158011390Y-81370096D01*
X158883112Y-81370096D01*
X159347708Y-82033609D01*
X159347709Y-82033609D01*
X160361675Y-81323623D01*
X160361681Y-81323618D01*
X160406786Y-81284220D01*
X160488318Y-81165793D01*
X160533179Y-81029196D01*
X160537742Y-80885485D01*
X160501633Y-80746321D01*
X160501632Y-80746318D01*
X160472722Y-80693868D01*
X160472716Y-80693859D01*
X160267480Y-80400752D01*
X160267479Y-80400751D01*
X158883113Y-81370095D01*
X158883112Y-81370096D01*
X158011390Y-81370096D01*
X158114967Y-81297571D01*
X158186748Y-81247309D01*
X158186748Y-81247308D01*
X157722152Y-80583795D01*
X157722151Y-80583795D01*
X156708191Y-81293778D01*
X156708183Y-81293784D01*
X156663075Y-81333185D01*
X156581543Y-81451612D01*
X156536682Y-81588209D01*
X156532119Y-81731920D01*
X155479126Y-81731920D01*
X156129232Y-81081814D01*
X156190553Y-81048331D01*
X156220841Y-81045559D01*
X156298659Y-81048030D01*
X156437968Y-81011884D01*
X156490474Y-80982943D01*
X157470093Y-80297006D01*
X158131727Y-80297006D01*
X158131727Y-80297007D01*
X158596323Y-80960521D01*
X158596324Y-80960521D01*
X159980691Y-79991176D01*
X159775449Y-79698061D01*
X159736049Y-79652953D01*
X159617622Y-79571421D01*
X159481024Y-79526560D01*
X159481028Y-79526560D01*
X159337314Y-79521998D01*
X159198150Y-79558107D01*
X159198147Y-79558108D01*
X159145697Y-79587018D01*
X159145688Y-79587024D01*
X158131727Y-80297006D01*
X157470093Y-80297006D01*
X158928061Y-79276125D01*
X158973216Y-79236684D01*
X159054829Y-79118139D01*
X159099736Y-78981403D01*
X159104304Y-78837553D01*
X159068157Y-78698244D01*
X159063454Y-78689711D01*
X159039221Y-78645746D01*
X159039218Y-78645742D01*
X159039216Y-78645738D01*
X158341893Y-77649859D01*
X158302452Y-77604704D01*
X158302451Y-77604703D01*
X158302450Y-77604702D01*
X158183909Y-77523092D01*
X158183904Y-77523089D01*
X158038746Y-77475416D01*
X158039798Y-77472211D01*
X157991820Y-77448414D01*
X157955947Y-77388457D01*
X157954518Y-77352032D01*
X157952301Y-77351962D01*
X157952582Y-77343100D01*
X157952583Y-77343099D01*
X157957151Y-77199249D01*
X157921004Y-77059940D01*
X157917168Y-77052980D01*
X157892068Y-77007442D01*
X157892065Y-77007438D01*
X157892063Y-77007434D01*
X157194740Y-76011555D01*
X157155299Y-75966400D01*
X157155298Y-75966399D01*
X157155297Y-75966398D01*
X157036756Y-75884788D01*
X157036751Y-75884785D01*
X156900018Y-75839879D01*
X156900021Y-75839879D01*
X156838368Y-75837921D01*
X156756168Y-75835312D01*
X156756167Y-75835312D01*
X156756164Y-75835312D01*
X156616864Y-75871456D01*
X156616855Y-75871460D01*
X156564361Y-75900394D01*
X156564354Y-75900398D01*
X154994541Y-76999594D01*
X154975370Y-77006058D01*
X154958352Y-77016996D01*
X154931481Y-77020859D01*
X154928334Y-77021921D01*
X154923417Y-77022019D01*
X154695026Y-77022019D01*
X154627987Y-77002334D01*
X154582232Y-76949530D01*
X154572288Y-76880372D01*
X154601313Y-76816816D01*
X154623902Y-76796444D01*
X154633518Y-76789711D01*
X156346967Y-75589940D01*
X156392122Y-75550499D01*
X156473735Y-75431954D01*
X156518642Y-75295218D01*
X156523210Y-75151368D01*
X156487063Y-75012059D01*
X156487061Y-75012055D01*
X156458127Y-74959561D01*
X156458124Y-74959557D01*
X156458122Y-74959553D01*
X155760799Y-73963674D01*
X155721358Y-73918519D01*
X155721357Y-73918518D01*
X155721356Y-73918517D01*
X155602815Y-73836907D01*
X155602810Y-73836904D01*
X155466077Y-73791998D01*
X155466080Y-73791998D01*
X155404427Y-73790040D01*
X155322227Y-73787431D01*
X155322226Y-73787431D01*
X155322223Y-73787431D01*
X155182923Y-73823575D01*
X155182914Y-73823579D01*
X155130420Y-73852513D01*
X155130413Y-73852517D01*
X152692825Y-75559336D01*
X152647668Y-75598778D01*
X152566059Y-75717317D01*
X152566056Y-75717323D01*
X152521150Y-75854055D01*
X152516582Y-75997910D01*
X152552728Y-76137215D01*
X152552730Y-76137220D01*
X152581664Y-76189714D01*
X152581675Y-76189731D01*
X152717161Y-76383226D01*
X152727720Y-76414536D01*
X152739270Y-76445503D01*
X152738835Y-76447498D01*
X152739488Y-76449432D01*
X152731442Y-76481483D01*
X152724418Y-76513776D01*
X152722791Y-76515948D01*
X152722478Y-76517199D01*
X152703267Y-76542030D01*
X152616295Y-76629002D01*
X152554972Y-76662487D01*
X152485280Y-76657503D01*
X152459723Y-76644423D01*
X152379185Y-76590609D01*
X152379172Y-76590602D01*
X152233501Y-76530264D01*
X152233489Y-76530261D01*
X152078845Y-76499500D01*
X152078842Y-76499500D01*
X151921158Y-76499500D01*
X151921155Y-76499500D01*
X151766510Y-76530261D01*
X151766498Y-76530264D01*
X151620827Y-76590602D01*
X151620814Y-76590609D01*
X151489711Y-76678210D01*
X151489707Y-76678213D01*
X151378213Y-76789707D01*
X151378210Y-76789711D01*
X151290609Y-76920814D01*
X151290602Y-76920827D01*
X151230264Y-77066498D01*
X151230261Y-77066510D01*
X151199500Y-77221153D01*
X151199500Y-77378846D01*
X151230261Y-77533489D01*
X151230264Y-77533501D01*
X151290602Y-77679172D01*
X151290609Y-77679185D01*
X151378210Y-77810288D01*
X151378213Y-77810292D01*
X151489707Y-77921786D01*
X151489711Y-77921789D01*
X151620814Y-78009390D01*
X151620827Y-78009397D01*
X151746392Y-78061407D01*
X151766503Y-78069737D01*
X151921153Y-78100499D01*
X151921156Y-78100500D01*
X151921158Y-78100500D01*
X152078844Y-78100500D01*
X152078845Y-78100499D01*
X152233497Y-78069737D01*
X152379179Y-78009394D01*
X152434541Y-77972401D01*
X152501218Y-77951523D01*
X152568598Y-77970007D01*
X152591114Y-77987822D01*
X152594527Y-77991235D01*
X152706331Y-78103039D01*
X152706333Y-78103040D01*
X152706337Y-78103043D01*
X152843256Y-78182092D01*
X152843263Y-78182096D01*
X152995990Y-78223019D01*
X153940848Y-78223019D01*
X153947152Y-78224870D01*
X153953614Y-78223678D01*
X153980261Y-78234592D01*
X154007887Y-78242704D01*
X154013694Y-78248285D01*
X154018271Y-78250160D01*
X154042423Y-78275896D01*
X154151102Y-78431107D01*
X154173429Y-78497313D01*
X154156419Y-78565080D01*
X154137208Y-78589911D01*
X149279202Y-83447917D01*
X149217879Y-83481402D01*
X149148187Y-83476418D01*
X149136121Y-83470669D01*
X149136086Y-83470747D01*
X149130324Y-83468102D01*
X148990028Y-83420342D01*
X148942308Y-83390639D01*
X148359386Y-82807717D01*
X148359384Y-82807714D01*
X148240513Y-82688843D01*
X148240512Y-82688842D01*
X148153700Y-82638722D01*
X148153700Y-82638721D01*
X148153696Y-82638720D01*
X148103581Y-82609785D01*
X147950853Y-82568861D01*
X147950850Y-82568861D01*
X147890234Y-82568861D01*
X147823195Y-82549176D01*
X147819128Y-82546448D01*
X147298631Y-82181992D01*
X147298628Y-82181990D01*
X147266759Y-82163218D01*
X147266753Y-82163215D01*
X147126458Y-82115455D01*
X147078738Y-82085752D01*
X145731340Y-80738355D01*
X145731338Y-80738352D01*
X145612467Y-80619481D01*
X145612466Y-80619480D01*
X145525654Y-80569360D01*
X145525654Y-80569359D01*
X145525650Y-80569358D01*
X145475535Y-80540423D01*
X145322807Y-80499499D01*
X145164693Y-80499499D01*
X145157097Y-80499499D01*
X145157081Y-80499500D01*
X141530528Y-80499500D01*
X141372414Y-80499500D01*
X141219686Y-80540423D01*
X141219685Y-80540423D01*
X141219683Y-80540424D01*
X141219680Y-80540425D01*
X141169567Y-80569359D01*
X141169566Y-80569360D01*
X141144564Y-80583795D01*
X141082756Y-80619479D01*
X141082753Y-80619481D01*
X140619481Y-81082753D01*
X140619479Y-81082756D01*
X140605915Y-81106250D01*
X140579574Y-81151875D01*
X140540423Y-81219686D01*
X140499499Y-81372414D01*
X140499499Y-81372416D01*
X140499499Y-81540517D01*
X140499500Y-81540530D01*
X140499500Y-83702353D01*
X140499499Y-83702371D01*
X140499499Y-83868077D01*
X140499498Y-83868077D01*
X140540424Y-84020812D01*
X140540425Y-84020813D01*
X140557761Y-84050839D01*
X140557762Y-84050840D01*
X140619477Y-84157735D01*
X140619481Y-84157740D01*
X140738349Y-84276608D01*
X140738355Y-84276613D01*
X145063181Y-88601439D01*
X145096666Y-88662762D01*
X145099500Y-88689120D01*
X145099500Y-104382152D01*
X145079815Y-104449191D01*
X145027011Y-104494946D01*
X144999692Y-104503769D01*
X144866508Y-104530261D01*
X144866498Y-104530264D01*
X144720827Y-104590602D01*
X144720814Y-104590609D01*
X144589711Y-104678210D01*
X144589707Y-104678213D01*
X144478213Y-104789707D01*
X144478210Y-104789711D01*
X144390609Y-104920814D01*
X144390602Y-104920827D01*
X144330264Y-105066498D01*
X144330261Y-105066510D01*
X144299500Y-105221153D01*
X144299500Y-105378846D01*
X144330261Y-105533489D01*
X144330264Y-105533501D01*
X144390602Y-105679172D01*
X144390609Y-105679185D01*
X144478209Y-105810287D01*
X144478210Y-105810288D01*
X144478211Y-105810289D01*
X144543182Y-105875260D01*
X144576666Y-105936581D01*
X144579500Y-105962940D01*
X144579500Y-106618329D01*
X144578853Y-106620531D01*
X144579421Y-106622755D01*
X144569057Y-106653893D01*
X144559815Y-106685368D01*
X144558081Y-106686870D01*
X144557356Y-106689049D01*
X144531801Y-106709641D01*
X144507011Y-106731123D01*
X144504181Y-106731899D01*
X144502952Y-106732890D01*
X144468755Y-106741619D01*
X144465332Y-106741987D01*
X144396572Y-106729581D01*
X144364396Y-106706378D01*
X138086819Y-100428801D01*
X138053334Y-100367478D01*
X138050500Y-100341120D01*
X138050500Y-92770808D01*
X138070185Y-92703769D01*
X138086820Y-92683126D01*
X138118076Y-92651870D01*
X138118081Y-92651865D01*
X138201744Y-92510398D01*
X138247598Y-92352569D01*
X138250500Y-92315694D01*
X138250500Y-91159306D01*
X138247598Y-91122431D01*
X138201744Y-90964602D01*
X138118081Y-90823135D01*
X138118079Y-90823133D01*
X138118076Y-90823129D01*
X138086819Y-90791872D01*
X138072115Y-90764944D01*
X138055523Y-90739126D01*
X138054631Y-90732925D01*
X138053334Y-90730549D01*
X138050500Y-90704191D01*
X138050500Y-90495808D01*
X138070185Y-90428769D01*
X138086820Y-90408126D01*
X138118076Y-90376870D01*
X138118081Y-90376865D01*
X138201744Y-90235398D01*
X138247598Y-90077569D01*
X138250500Y-90040694D01*
X138250500Y-88884306D01*
X138247598Y-88847431D01*
X138247597Y-88847426D01*
X138199568Y-88682110D01*
X138201318Y-88681601D01*
X138193965Y-88622084D01*
X138206977Y-88583697D01*
X138209386Y-88579190D01*
X138209394Y-88579179D01*
X138211074Y-88575125D01*
X138243752Y-88496230D01*
X138269737Y-88433497D01*
X138300500Y-88278842D01*
X138300500Y-88121158D01*
X138300500Y-88121155D01*
X138300499Y-88121153D01*
X138296832Y-88102720D01*
X138269737Y-87966503D01*
X138250077Y-87919039D01*
X138209397Y-87820827D01*
X138209390Y-87820814D01*
X138121789Y-87689711D01*
X138121786Y-87689707D01*
X138010292Y-87578213D01*
X138010288Y-87578210D01*
X137879185Y-87490609D01*
X137879172Y-87490602D01*
X137733501Y-87430264D01*
X137733489Y-87430261D01*
X137578845Y-87399500D01*
X137578842Y-87399500D01*
X137421158Y-87399500D01*
X137421155Y-87399500D01*
X137266510Y-87430261D01*
X137266498Y-87430264D01*
X137120827Y-87490602D01*
X137120814Y-87490609D01*
X136989711Y-87578210D01*
X136989707Y-87578213D01*
X136878213Y-87689707D01*
X136874347Y-87694419D01*
X136872717Y-87693081D01*
X136826433Y-87731751D01*
X136757106Y-87740447D01*
X136694084Y-87710282D01*
X136689280Y-87705728D01*
X136660292Y-87676740D01*
X136660288Y-87676737D01*
X136529185Y-87589136D01*
X136529172Y-87589129D01*
X136383501Y-87528791D01*
X136383489Y-87528788D01*
X136228845Y-87498027D01*
X136228842Y-87498027D01*
X136217555Y-87498027D01*
X136150516Y-87478342D01*
X136104761Y-87425538D01*
X136095938Y-87398219D01*
X136069738Y-87266508D01*
X136069737Y-87266507D01*
X136069737Y-87266503D01*
X136052851Y-87225736D01*
X136009397Y-87120827D01*
X136009390Y-87120814D01*
X135921789Y-86989711D01*
X135921786Y-86989707D01*
X135810292Y-86878213D01*
X135810288Y-86878210D01*
X135679185Y-86790609D01*
X135679172Y-86790602D01*
X135533501Y-86730264D01*
X135533489Y-86730261D01*
X135378845Y-86699500D01*
X135378842Y-86699500D01*
X135221158Y-86699500D01*
X135221155Y-86699500D01*
X135066510Y-86730261D01*
X135066498Y-86730264D01*
X134920827Y-86790602D01*
X134920809Y-86790612D01*
X134806232Y-86867170D01*
X134739555Y-86888048D01*
X134672175Y-86869563D01*
X134625485Y-86817584D01*
X134613342Y-86764068D01*
X134613342Y-81511793D01*
X134613342Y-81501797D01*
X134613343Y-81501795D01*
X134613343Y-81476818D01*
X134633029Y-81409780D01*
X134633031Y-81409777D01*
X134635755Y-81405717D01*
X134917125Y-81003880D01*
X134946067Y-80951374D01*
X134982214Y-80812065D01*
X134978322Y-80689488D01*
X136550148Y-80689488D01*
X136550149Y-80689489D01*
X136694261Y-80738550D01*
X136717656Y-80740350D01*
X136782988Y-80765120D01*
X136821068Y-80812757D01*
X136831137Y-80834954D01*
X136831141Y-80834960D01*
X136932535Y-80961069D01*
X136932536Y-80961070D01*
X136932538Y-80961072D01*
X136960637Y-80984234D01*
X136960647Y-80984241D01*
X136960655Y-80984247D01*
X137025673Y-81029773D01*
X137295982Y-81219045D01*
X137295988Y-81219049D01*
X137295993Y-81219052D01*
X137327354Y-81237525D01*
X137327355Y-81237525D01*
X137327358Y-81237527D01*
X137480552Y-81289678D01*
X137641903Y-81302094D01*
X137801273Y-81273992D01*
X137948647Y-81207141D01*
X138017384Y-81151875D01*
X138074763Y-81105742D01*
X138074763Y-81105741D01*
X138074766Y-81105739D01*
X138097929Y-81077640D01*
X138114918Y-81053376D01*
X138169495Y-81009752D01*
X138216493Y-81000500D01*
X138479055Y-81000500D01*
X138479057Y-81000500D01*
X138631784Y-80959577D01*
X138768716Y-80880520D01*
X138880520Y-80768716D01*
X138959577Y-80631784D01*
X139000500Y-80479057D01*
X139000500Y-79882940D01*
X139020185Y-79815901D01*
X139036814Y-79795263D01*
X139121789Y-79710289D01*
X139209394Y-79579179D01*
X139212608Y-79571421D01*
X139240405Y-79504311D01*
X139269737Y-79433497D01*
X139300500Y-79278842D01*
X139300500Y-79121158D01*
X139300500Y-79121155D01*
X139300499Y-79121153D01*
X139292118Y-79079019D01*
X139269737Y-78966503D01*
X139243555Y-78903293D01*
X139209397Y-78820827D01*
X139209390Y-78820814D01*
X139121789Y-78689711D01*
X139121786Y-78689707D01*
X139010292Y-78578213D01*
X139010288Y-78578210D01*
X138879185Y-78490609D01*
X138879172Y-78490602D01*
X138733501Y-78430264D01*
X138733489Y-78430261D01*
X138578845Y-78399500D01*
X138578842Y-78399500D01*
X138421158Y-78399500D01*
X138421155Y-78399500D01*
X138266510Y-78430261D01*
X138266498Y-78430264D01*
X138120827Y-78490602D01*
X138120814Y-78490609D01*
X137989711Y-78578210D01*
X137989707Y-78578213D01*
X137878213Y-78689707D01*
X137878210Y-78689711D01*
X137790609Y-78820814D01*
X137790602Y-78820827D01*
X137730264Y-78966498D01*
X137730261Y-78966510D01*
X137699500Y-79121153D01*
X137699500Y-79278846D01*
X137699749Y-79280098D01*
X137699689Y-79280765D01*
X137700097Y-79284907D01*
X137699311Y-79284984D01*
X137693514Y-79349689D01*
X137650646Y-79404862D01*
X137584754Y-79428100D01*
X137516758Y-79412025D01*
X137481491Y-79381975D01*
X137473040Y-79371464D01*
X137297435Y-79622252D01*
X137247091Y-79664050D01*
X137237743Y-79668291D01*
X137237734Y-79668296D01*
X137111622Y-79769691D01*
X137111622Y-79769692D01*
X137088456Y-79797794D01*
X136953844Y-79990040D01*
X136953843Y-79990039D01*
X136819233Y-80182285D01*
X136819227Y-80182293D01*
X136800751Y-80213661D01*
X136748598Y-80366860D01*
X136748598Y-80366861D01*
X136747810Y-80377099D01*
X136725751Y-80438701D01*
X136550148Y-80689488D01*
X134978322Y-80689488D01*
X134977646Y-80668215D01*
X134932739Y-80531479D01*
X134910722Y-80499499D01*
X134851129Y-80412938D01*
X134851124Y-80412932D01*
X134805977Y-80373497D01*
X134805969Y-80373490D01*
X133451574Y-79425134D01*
X133347996Y-79352608D01*
X134009637Y-79352608D01*
X134009638Y-79352609D01*
X135023598Y-80062592D01*
X135023607Y-80062598D01*
X135076057Y-80091508D01*
X135076060Y-80091509D01*
X135215224Y-80127618D01*
X135358936Y-80123056D01*
X135495532Y-80078195D01*
X135613959Y-79996663D01*
X135653360Y-79951555D01*
X135653365Y-79951547D01*
X135729223Y-79843212D01*
X135783800Y-79799587D01*
X135853298Y-79792393D01*
X135915653Y-79823916D01*
X135951067Y-79884145D01*
X135954433Y-79923847D01*
X135950301Y-79977552D01*
X135978378Y-80136793D01*
X136045179Y-80284055D01*
X136140572Y-80402700D01*
X136458624Y-79948475D01*
X136458625Y-79948475D01*
X136026220Y-79645702D01*
X136016124Y-79647483D01*
X135981646Y-79675048D01*
X135912148Y-79682247D01*
X135863515Y-79661879D01*
X134474234Y-78689094D01*
X134474233Y-78689094D01*
X134009637Y-79352608D01*
X133347996Y-79352608D01*
X132368394Y-78666683D01*
X132368382Y-78666676D01*
X132340058Y-78651063D01*
X132315878Y-78637734D01*
X132176569Y-78601588D01*
X132176568Y-78601588D01*
X132032716Y-78606155D01*
X131895985Y-78651061D01*
X131895980Y-78651064D01*
X131777442Y-78732672D01*
X131777436Y-78732677D01*
X131738001Y-78777824D01*
X131737994Y-78777832D01*
X131040680Y-79773700D01*
X131040678Y-79773705D01*
X131011732Y-79826216D01*
X131011732Y-79826218D01*
X130975586Y-79965521D01*
X130975586Y-79965524D01*
X130975586Y-79965525D01*
X130980154Y-80109375D01*
X130980154Y-80109376D01*
X130980436Y-80118238D01*
X130977058Y-80118345D01*
X130971125Y-80171535D01*
X130927068Y-80225763D01*
X130893303Y-80239599D01*
X130893991Y-80241692D01*
X130748832Y-80289365D01*
X130748827Y-80289368D01*
X130630289Y-80370976D01*
X130630283Y-80370981D01*
X130590848Y-80416128D01*
X130590841Y-80416136D01*
X129893527Y-81412004D01*
X129893525Y-81412009D01*
X129864579Y-81464520D01*
X129864579Y-81464522D01*
X129828433Y-81603825D01*
X129833001Y-81747681D01*
X129877907Y-81884413D01*
X129877910Y-81884419D01*
X129959517Y-82002955D01*
X129959522Y-82002961D01*
X130004669Y-82042396D01*
X130004677Y-82042403D01*
X132442252Y-83749210D01*
X132442258Y-83749213D01*
X132442263Y-83749217D01*
X132494769Y-83778160D01*
X132506645Y-83781241D01*
X132530943Y-83795789D01*
X132556703Y-83807553D01*
X132560524Y-83813499D01*
X132566590Y-83817131D01*
X132579166Y-83842506D01*
X132594477Y-83866331D01*
X132595908Y-83876289D01*
X132597616Y-83879734D01*
X132599500Y-83901266D01*
X132599500Y-83920234D01*
X132579815Y-83987273D01*
X132578602Y-83989125D01*
X132490894Y-84120388D01*
X132437281Y-84165193D01*
X132367956Y-84173900D01*
X132304929Y-84143745D01*
X132285658Y-84121815D01*
X132270032Y-84099118D01*
X132270030Y-84099116D01*
X132224883Y-84059681D01*
X132224875Y-84059674D01*
X129787300Y-82352867D01*
X129787288Y-82352860D01*
X129758964Y-82337247D01*
X129734784Y-82323918D01*
X129595475Y-82287772D01*
X129595474Y-82287772D01*
X129451622Y-82292339D01*
X129314891Y-82337245D01*
X129314886Y-82337248D01*
X129196348Y-82418856D01*
X129196342Y-82418861D01*
X129156907Y-82464008D01*
X129156900Y-82464016D01*
X128459586Y-83459884D01*
X128459584Y-83459889D01*
X128430638Y-83512400D01*
X128430638Y-83512402D01*
X128394492Y-83651705D01*
X128399060Y-83795561D01*
X128443966Y-83932293D01*
X128443969Y-83932299D01*
X128525576Y-84050835D01*
X128525580Y-84050840D01*
X128570728Y-84090276D01*
X128570736Y-84090283D01*
X130923920Y-85737998D01*
X131008322Y-85797097D01*
X131060828Y-85826040D01*
X131200137Y-85862186D01*
X131277949Y-85859715D01*
X131345578Y-85877263D01*
X131369564Y-85895972D01*
X131737966Y-86264374D01*
X131737976Y-86264385D01*
X131742306Y-86268715D01*
X131742307Y-86268716D01*
X131854111Y-86380520D01*
X131854113Y-86380521D01*
X131854117Y-86380524D01*
X131975972Y-86450876D01*
X131991043Y-86459577D01*
X132101411Y-86489150D01*
X132101410Y-86489150D01*
X132105818Y-86490331D01*
X132143769Y-86500500D01*
X132143770Y-86500500D01*
X132220234Y-86500500D01*
X132287273Y-86520185D01*
X132289125Y-86521398D01*
X132420814Y-86609390D01*
X132420827Y-86609397D01*
X132566498Y-86669735D01*
X132566503Y-86669737D01*
X132716131Y-86699500D01*
X132721153Y-86700499D01*
X132721156Y-86700500D01*
X132721158Y-86700500D01*
X132878844Y-86700500D01*
X132878845Y-86700499D01*
X133033497Y-86669737D01*
X133179179Y-86609394D01*
X133179184Y-86609390D01*
X133179187Y-86609389D01*
X133219450Y-86582486D01*
X133286127Y-86561607D01*
X133353508Y-86580091D01*
X133400198Y-86632069D01*
X133412342Y-86685587D01*
X133412342Y-89687060D01*
X133392657Y-89754099D01*
X133376023Y-89774741D01*
X131419481Y-91731282D01*
X131419479Y-91731285D01*
X131369361Y-91818094D01*
X131369359Y-91818096D01*
X131340425Y-91868209D01*
X131340424Y-91868210D01*
X131340423Y-91868215D01*
X131299499Y-92020943D01*
X131299499Y-92020945D01*
X131299499Y-92179054D01*
X131299498Y-92179054D01*
X131340423Y-92331786D01*
X131352421Y-92352565D01*
X131352422Y-92352570D01*
X131352423Y-92352570D01*
X131419475Y-92468709D01*
X131419481Y-92468717D01*
X131531284Y-92580520D01*
X131618095Y-92630639D01*
X131618097Y-92630641D01*
X131654853Y-92651862D01*
X131668215Y-92659577D01*
X131820943Y-92700501D01*
X131820946Y-92700501D01*
X131986653Y-92700501D01*
X131986669Y-92700500D01*
X134879192Y-92700500D01*
X134946231Y-92720185D01*
X134966874Y-92736820D01*
X134998129Y-92768076D01*
X134998133Y-92768079D01*
X134998135Y-92768081D01*
X135139602Y-92851744D01*
X135181224Y-92863836D01*
X135297426Y-92897597D01*
X135297429Y-92897597D01*
X135297431Y-92897598D01*
X135334306Y-92900500D01*
X135334314Y-92900500D01*
X135765686Y-92900500D01*
X135765694Y-92900500D01*
X135802569Y-92897598D01*
X135802571Y-92897597D01*
X135802573Y-92897597D01*
X135844191Y-92885505D01*
X135960398Y-92851744D01*
X135961181Y-92851281D01*
X135962369Y-92850579D01*
X135964112Y-92850136D01*
X135967557Y-92848646D01*
X135967797Y-92849201D01*
X136030093Y-92833395D01*
X136082397Y-92848753D01*
X136082644Y-92848184D01*
X136087255Y-92850179D01*
X136088612Y-92850578D01*
X136089801Y-92851281D01*
X136089806Y-92851283D01*
X136247505Y-92897099D01*
X136247511Y-92897100D01*
X136249998Y-92897295D01*
X136250000Y-92897295D01*
X136250000Y-92631814D01*
X136267267Y-92568694D01*
X136301744Y-92510398D01*
X136347598Y-92352569D01*
X136350500Y-92315694D01*
X136350500Y-91861500D01*
X136353050Y-91852814D01*
X136351762Y-91843853D01*
X136362740Y-91819812D01*
X136370185Y-91794461D01*
X136377025Y-91788533D01*
X136380787Y-91780297D01*
X136403021Y-91766007D01*
X136422989Y-91748706D01*
X136433503Y-91746418D01*
X136439565Y-91742523D01*
X136474500Y-91737500D01*
X136525500Y-91737500D01*
X136592539Y-91757185D01*
X136638294Y-91809989D01*
X136649500Y-91861500D01*
X136649500Y-92315701D01*
X136652401Y-92352567D01*
X136652402Y-92352570D01*
X136698254Y-92510393D01*
X136698255Y-92510396D01*
X136698256Y-92510398D01*
X136732732Y-92568694D01*
X136750000Y-92631814D01*
X136750000Y-92897295D01*
X136763836Y-92910085D01*
X136784147Y-92914352D01*
X136794050Y-92924114D01*
X136806703Y-92929893D01*
X136818442Y-92948160D01*
X136833904Y-92963402D01*
X136837730Y-92978173D01*
X136844477Y-92988671D01*
X136849500Y-93023606D01*
X136849500Y-93214897D01*
X136829815Y-93281936D01*
X136777011Y-93327691D01*
X136761696Y-93330397D01*
X136750000Y-93341210D01*
X136750000Y-93996000D01*
X136730315Y-94063039D01*
X136677511Y-94108794D01*
X136626000Y-94120000D01*
X136500000Y-94120000D01*
X136500000Y-94175500D01*
X136480315Y-94242539D01*
X136427511Y-94288294D01*
X136376000Y-94299500D01*
X136265302Y-94299500D01*
X136229008Y-94302356D01*
X136229002Y-94302357D01*
X136073610Y-94347503D01*
X136073605Y-94347506D01*
X136064766Y-94352732D01*
X136001648Y-94370000D01*
X135695495Y-94370000D01*
X135681037Y-94389255D01*
X135681033Y-94390774D01*
X135643091Y-94449444D01*
X135579453Y-94478288D01*
X135562156Y-94479500D01*
X135149834Y-94479500D01*
X135082795Y-94459815D01*
X135080943Y-94458602D01*
X134979185Y-94390609D01*
X134979172Y-94390602D01*
X134833501Y-94330264D01*
X134833489Y-94330261D01*
X134678845Y-94299500D01*
X134678842Y-94299500D01*
X134521158Y-94299500D01*
X134521155Y-94299500D01*
X134366510Y-94330261D01*
X134366498Y-94330264D01*
X134220827Y-94390602D01*
X134220814Y-94390609D01*
X134089711Y-94478210D01*
X134089707Y-94478213D01*
X133978213Y-94589707D01*
X133978210Y-94589711D01*
X133890609Y-94720814D01*
X133890602Y-94720827D01*
X133830264Y-94866498D01*
X133830261Y-94866510D01*
X133799500Y-95021153D01*
X133799500Y-95178846D01*
X133830261Y-95333489D01*
X133830264Y-95333501D01*
X133890602Y-95479172D01*
X133890609Y-95479185D01*
X133978210Y-95610288D01*
X133978213Y-95610292D01*
X134089707Y-95721786D01*
X134089711Y-95721789D01*
X134220814Y-95809390D01*
X134220827Y-95809397D01*
X134366498Y-95869735D01*
X134366503Y-95869737D01*
X134521153Y-95900499D01*
X134521156Y-95900500D01*
X134521158Y-95900500D01*
X134678844Y-95900500D01*
X134678845Y-95900499D01*
X134833497Y-95869737D01*
X134946166Y-95823067D01*
X134979172Y-95809397D01*
X134979172Y-95809396D01*
X134979179Y-95809394D01*
X135110289Y-95721789D01*
X135110292Y-95721786D01*
X135115260Y-95716819D01*
X135176583Y-95683334D01*
X135202941Y-95680500D01*
X135833333Y-95680500D01*
X135900372Y-95700185D01*
X135921014Y-95716819D01*
X135934307Y-95730112D01*
X135934311Y-95730115D01*
X135934313Y-95730117D01*
X136073605Y-95812494D01*
X136114587Y-95824400D01*
X136229002Y-95857642D01*
X136229005Y-95857642D01*
X136229007Y-95857643D01*
X136265310Y-95860500D01*
X136265318Y-95860500D01*
X136725500Y-95860500D01*
X136792539Y-95880185D01*
X136838294Y-95932989D01*
X136849500Y-95984500D01*
X136849500Y-100554548D01*
X136849499Y-100554566D01*
X136849499Y-100720272D01*
X136849498Y-100720272D01*
X136890423Y-100873004D01*
X136890424Y-100873005D01*
X136918101Y-100920943D01*
X136969480Y-101009934D01*
X136969482Y-101009936D01*
X137088349Y-101128803D01*
X137088355Y-101128808D01*
X143988181Y-108028635D01*
X143989336Y-108030751D01*
X143991409Y-108031986D01*
X144005998Y-108061265D01*
X144021666Y-108089958D01*
X144021494Y-108092362D01*
X144022570Y-108094522D01*
X144024500Y-108116316D01*
X144024500Y-108337120D01*
X144004815Y-108404159D01*
X143952011Y-108449914D01*
X143882853Y-108459858D01*
X143819297Y-108430833D01*
X143812819Y-108424801D01*
X143807499Y-108419481D01*
X143807498Y-108419480D01*
X143720686Y-108369360D01*
X143720686Y-108369359D01*
X143720682Y-108369358D01*
X143670567Y-108340423D01*
X143517839Y-108299499D01*
X143359725Y-108299499D01*
X143352129Y-108299499D01*
X143352113Y-108299500D01*
X141979766Y-108299500D01*
X141912727Y-108279815D01*
X141910875Y-108278602D01*
X141779185Y-108190609D01*
X141779172Y-108190602D01*
X141633501Y-108130264D01*
X141633489Y-108130261D01*
X141478845Y-108099500D01*
X141478842Y-108099500D01*
X141321158Y-108099500D01*
X141321155Y-108099500D01*
X141166510Y-108130261D01*
X141166498Y-108130264D01*
X141020827Y-108190602D01*
X141020814Y-108190609D01*
X140893391Y-108275751D01*
X140826713Y-108296629D01*
X140759333Y-108278144D01*
X140712643Y-108226165D01*
X140700500Y-108172649D01*
X140700500Y-108121155D01*
X140700499Y-108121153D01*
X140669738Y-107966510D01*
X140669737Y-107966503D01*
X140669735Y-107966498D01*
X140609397Y-107820827D01*
X140609390Y-107820814D01*
X140521789Y-107689711D01*
X140521786Y-107689707D01*
X140410292Y-107578213D01*
X140410288Y-107578210D01*
X140279185Y-107490609D01*
X140279172Y-107490602D01*
X140133501Y-107430264D01*
X140133489Y-107430261D01*
X139978845Y-107399500D01*
X139978842Y-107399500D01*
X139821158Y-107399500D01*
X139821155Y-107399500D01*
X139666510Y-107430261D01*
X139666498Y-107430264D01*
X139520827Y-107490602D01*
X139520814Y-107490609D01*
X139389711Y-107578210D01*
X139389707Y-107578213D01*
X139278213Y-107689707D01*
X139278210Y-107689711D01*
X139190609Y-107820814D01*
X139190602Y-107820827D01*
X139130264Y-107966498D01*
X139130261Y-107966510D01*
X139099500Y-108121153D01*
X139099500Y-108278846D01*
X139130261Y-108433489D01*
X139130264Y-108433501D01*
X139190602Y-108579172D01*
X139190609Y-108579185D01*
X139278602Y-108710874D01*
X139299480Y-108777551D01*
X139299500Y-108779765D01*
X139299500Y-109233333D01*
X139279815Y-109300372D01*
X139263181Y-109321014D01*
X139219887Y-109364307D01*
X139219881Y-109364315D01*
X139137505Y-109503606D01*
X139137504Y-109503609D01*
X139092357Y-109659002D01*
X139092356Y-109659008D01*
X139089500Y-109695302D01*
X139089500Y-110104697D01*
X139092356Y-110140991D01*
X139092357Y-110140997D01*
X139137504Y-110296390D01*
X139137507Y-110296397D01*
X139149910Y-110317370D01*
X139167093Y-110385094D01*
X139149912Y-110443608D01*
X139137968Y-110463804D01*
X139095496Y-110610000D01*
X139401648Y-110610000D01*
X139464766Y-110627267D01*
X139473605Y-110632494D01*
X139473608Y-110632494D01*
X139473610Y-110632496D01*
X139629002Y-110677642D01*
X139629005Y-110677642D01*
X139629007Y-110677643D01*
X139665310Y-110680500D01*
X139665318Y-110680500D01*
X140134682Y-110680500D01*
X140134690Y-110680500D01*
X140170993Y-110677643D01*
X140170995Y-110677642D01*
X140170997Y-110677642D01*
X140326389Y-110632496D01*
X140326389Y-110632495D01*
X140326395Y-110632494D01*
X140335233Y-110627267D01*
X140398352Y-110610000D01*
X140704504Y-110610000D01*
X140662031Y-110463803D01*
X140650090Y-110443613D01*
X140632906Y-110375889D01*
X140650089Y-110317369D01*
X140662494Y-110296395D01*
X140707643Y-110140993D01*
X140710500Y-110104690D01*
X140710500Y-109695310D01*
X140707643Y-109659007D01*
X140707642Y-109659002D01*
X140706505Y-109652777D01*
X140709281Y-109652269D01*
X140709422Y-109594672D01*
X140747340Y-109535987D01*
X140810966Y-109507117D01*
X140880100Y-109517230D01*
X140897204Y-109526796D01*
X141020814Y-109609390D01*
X141020827Y-109609397D01*
X141166498Y-109669735D01*
X141166503Y-109669737D01*
X141321153Y-109700499D01*
X141321156Y-109700500D01*
X141321158Y-109700500D01*
X141478844Y-109700500D01*
X141478845Y-109700499D01*
X141633497Y-109669737D01*
X141779179Y-109609394D01*
X141801212Y-109594672D01*
X141910875Y-109521398D01*
X141977553Y-109500520D01*
X141979766Y-109500500D01*
X143138685Y-109500500D01*
X143205724Y-109520185D01*
X143226366Y-109536819D01*
X144093945Y-110404398D01*
X144127430Y-110465721D01*
X144122446Y-110535413D01*
X144119875Y-110541764D01*
X144114126Y-110554907D01*
X144081204Y-110598887D01*
X144030909Y-110733735D01*
X144029274Y-110748933D01*
X144021635Y-110766403D01*
X144010940Y-110779154D01*
X144004571Y-110794530D01*
X143988953Y-110805372D01*
X143976738Y-110819938D01*
X143960849Y-110824883D01*
X143947177Y-110834375D01*
X143912089Y-110840059D01*
X143910025Y-110840702D01*
X143909321Y-110840507D01*
X143908024Y-110840718D01*
X142825339Y-110840718D01*
X142667225Y-110840718D01*
X142514497Y-110881641D01*
X142514496Y-110881641D01*
X142514494Y-110881642D01*
X142514491Y-110881643D01*
X142464378Y-110910577D01*
X142464377Y-110910578D01*
X142446518Y-110920889D01*
X142377567Y-110960697D01*
X142377564Y-110960699D01*
X142265760Y-111072504D01*
X141134531Y-112203732D01*
X141073208Y-112237217D01*
X141037125Y-112239669D01*
X141003209Y-112237000D01*
X141003194Y-112237000D01*
X140571806Y-112237000D01*
X140571798Y-112237000D01*
X140534932Y-112239901D01*
X140534926Y-112239902D01*
X140377107Y-112285754D01*
X140377094Y-112285759D01*
X140375120Y-112286927D01*
X140373372Y-112287370D01*
X140369941Y-112288855D01*
X140369701Y-112288301D01*
X140307395Y-112304103D01*
X140255101Y-112288748D01*
X140254856Y-112289316D01*
X140250258Y-112287326D01*
X140248898Y-112286927D01*
X140247703Y-112286220D01*
X140247693Y-112286216D01*
X140089994Y-112240400D01*
X140089997Y-112240400D01*
X140087500Y-112240203D01*
X140087500Y-112505684D01*
X140070233Y-112568804D01*
X140035754Y-112627105D01*
X140035754Y-112627106D01*
X139989902Y-112784926D01*
X139989901Y-112784932D01*
X139987000Y-112821798D01*
X139987000Y-113276000D01*
X139984449Y-113284685D01*
X139985738Y-113293647D01*
X139974759Y-113317687D01*
X139967315Y-113343039D01*
X139960474Y-113348966D01*
X139956713Y-113357203D01*
X139934478Y-113371492D01*
X139914511Y-113388794D01*
X139903996Y-113391081D01*
X139897935Y-113394977D01*
X139863000Y-113400000D01*
X139812000Y-113400000D01*
X139744961Y-113380315D01*
X139699206Y-113327511D01*
X139688000Y-113276000D01*
X139688000Y-112821813D01*
X139687999Y-112821798D01*
X139687875Y-112820225D01*
X139685098Y-112784931D01*
X139662015Y-112705481D01*
X139639245Y-112627106D01*
X139639245Y-112627105D01*
X139639244Y-112627103D01*
X139639244Y-112627102D01*
X139604767Y-112568804D01*
X139587500Y-112505684D01*
X139587500Y-112240203D01*
X139585004Y-112240400D01*
X139427306Y-112286216D01*
X139427291Y-112286222D01*
X139426099Y-112286928D01*
X139425043Y-112287195D01*
X139420141Y-112289317D01*
X139419798Y-112288525D01*
X139358373Y-112304103D01*
X139305210Y-112288492D01*
X139305054Y-112288853D01*
X139302130Y-112287587D01*
X139299877Y-112286926D01*
X139297899Y-112285756D01*
X139297893Y-112285754D01*
X139140073Y-112239902D01*
X139140067Y-112239901D01*
X139103201Y-112237000D01*
X139103194Y-112237000D01*
X138671806Y-112237000D01*
X138671798Y-112237000D01*
X138634932Y-112239901D01*
X138634926Y-112239902D01*
X138477106Y-112285754D01*
X138477103Y-112285755D01*
X138335637Y-112369417D01*
X138335629Y-112369423D01*
X138219423Y-112485629D01*
X138219417Y-112485637D01*
X138135755Y-112627103D01*
X138135754Y-112627106D01*
X138089902Y-112784926D01*
X138089901Y-112784932D01*
X138087000Y-112821798D01*
X138087000Y-113978201D01*
X138089901Y-114015067D01*
X138089902Y-114015073D01*
X138135754Y-114172893D01*
X138135755Y-114172896D01*
X138219417Y-114314362D01*
X138219423Y-114314370D01*
X138250680Y-114345626D01*
X138265385Y-114372556D01*
X138281977Y-114398373D01*
X138282868Y-114404571D01*
X138284166Y-114406948D01*
X138287000Y-114433308D01*
X138287000Y-114641691D01*
X138267315Y-114708730D01*
X138250681Y-114729372D01*
X138219423Y-114760629D01*
X138219417Y-114760637D01*
X138135755Y-114902103D01*
X138135754Y-114902106D01*
X138089902Y-115059926D01*
X138089901Y-115059932D01*
X138087000Y-115096798D01*
X138087000Y-115574903D01*
X138067315Y-115641942D01*
X138050681Y-115662584D01*
X136216965Y-117496300D01*
X136155642Y-117529785D01*
X136129284Y-117532619D01*
X123290977Y-117532619D01*
X123223938Y-117512934D01*
X123178183Y-117460130D01*
X123168239Y-117390972D01*
X123197264Y-117327416D01*
X123203296Y-117320938D01*
X124988958Y-115535277D01*
X126912416Y-113611819D01*
X126973739Y-113578334D01*
X127000097Y-113575500D01*
X127331613Y-113575500D01*
X127331616Y-113575500D01*
X127402196Y-113569086D01*
X127564606Y-113518478D01*
X127710185Y-113430472D01*
X127812673Y-113327983D01*
X127873994Y-113294499D01*
X127943685Y-113299483D01*
X127988034Y-113327984D01*
X128090122Y-113430072D01*
X128235604Y-113518019D01*
X128235603Y-113518019D01*
X128397894Y-113568590D01*
X128397893Y-113568590D01*
X128468408Y-113574998D01*
X128468426Y-113574999D01*
X128975000Y-113574999D01*
X128981581Y-113574999D01*
X129052102Y-113568591D01*
X129052107Y-113568590D01*
X129214396Y-113518018D01*
X129359877Y-113430072D01*
X129480072Y-113309877D01*
X129568019Y-113164395D01*
X129618590Y-113002106D01*
X129625000Y-112931572D01*
X129625000Y-112850000D01*
X128975000Y-112850000D01*
X128975000Y-113574999D01*
X128468426Y-113574999D01*
X128474999Y-113574998D01*
X128475000Y-113574998D01*
X128475000Y-112350000D01*
X128975000Y-112350000D01*
X129624999Y-112350000D01*
X129624999Y-112268417D01*
X129618591Y-112197897D01*
X129618590Y-112197892D01*
X129568018Y-112035603D01*
X129480072Y-111890122D01*
X129359877Y-111769927D01*
X129214395Y-111681980D01*
X129214396Y-111681980D01*
X129052105Y-111631409D01*
X129052106Y-111631409D01*
X128981572Y-111625000D01*
X128975000Y-111625000D01*
X128975000Y-112350000D01*
X128475000Y-112350000D01*
X128475000Y-111625000D01*
X128474999Y-111624999D01*
X128468436Y-111625000D01*
X128468417Y-111625001D01*
X128397897Y-111631408D01*
X128397892Y-111631409D01*
X128235603Y-111681981D01*
X128090122Y-111769927D01*
X128090121Y-111769928D01*
X127988035Y-111872015D01*
X127926712Y-111905500D01*
X127857020Y-111900516D01*
X127812673Y-111872015D01*
X127710188Y-111769530D01*
X127669329Y-111744830D01*
X127564606Y-111681522D01*
X127402196Y-111630914D01*
X127402194Y-111630913D01*
X127402192Y-111630913D01*
X127352778Y-111626423D01*
X127331616Y-111624500D01*
X126818384Y-111624500D01*
X126799145Y-111626248D01*
X126747807Y-111630913D01*
X126585393Y-111681522D01*
X126439811Y-111769530D01*
X126319530Y-111889811D01*
X126231522Y-112035393D01*
X126180913Y-112197807D01*
X126178734Y-112221789D01*
X126174666Y-112266563D01*
X126174500Y-112268386D01*
X126174500Y-112599903D01*
X126154815Y-112666942D01*
X126138181Y-112687584D01*
X122329465Y-116496300D01*
X122268142Y-116529785D01*
X122241784Y-116532619D01*
X120134851Y-116532619D01*
X120132648Y-116531972D01*
X120130423Y-116532540D01*
X120099281Y-116522174D01*
X120067812Y-116512934D01*
X120066309Y-116511199D01*
X120064129Y-116510474D01*
X120043533Y-116484914D01*
X120022057Y-116460130D01*
X120021280Y-116457299D01*
X120020289Y-116456069D01*
X120011561Y-116421871D01*
X120007224Y-116381523D01*
X120007225Y-116355015D01*
X120012499Y-116305963D01*
X120012500Y-116305946D01*
X120012500Y-116233119D01*
X120012448Y-116233067D01*
X119945585Y-116213434D01*
X119926248Y-116198087D01*
X119919227Y-116191271D01*
X119870046Y-116125573D01*
X119789290Y-116065119D01*
X119783592Y-116059587D01*
X119770151Y-116035814D01*
X119753786Y-116013952D01*
X119753205Y-116005841D01*
X119749205Y-115998765D01*
X119750750Y-115971499D01*
X119748802Y-115944260D01*
X119752697Y-115937125D01*
X119753158Y-115929007D01*
X119769200Y-115906903D01*
X119782287Y-115882937D01*
X119793894Y-115872879D01*
X119794198Y-115872461D01*
X119794523Y-115872334D01*
X119795651Y-115871356D01*
X119870046Y-115815665D01*
X119870048Y-115815661D01*
X119875932Y-115809779D01*
X119931515Y-115777687D01*
X120062102Y-115742696D01*
X120135187Y-115700500D01*
X120199033Y-115663639D01*
X120310837Y-115551835D01*
X120310837Y-115551833D01*
X120321041Y-115541630D01*
X120321044Y-115541625D01*
X121630253Y-114232419D01*
X121691576Y-114198934D01*
X121717934Y-114196100D01*
X121832518Y-114196100D01*
X121832526Y-114196100D01*
X121868829Y-114193243D01*
X121868831Y-114193242D01*
X121868833Y-114193242D01*
X121938873Y-114172893D01*
X122024231Y-114148094D01*
X122045205Y-114135689D01*
X122112924Y-114118506D01*
X122171449Y-114135690D01*
X122191639Y-114147631D01*
X122337836Y-114190104D01*
X122337836Y-114190103D01*
X122837836Y-114190103D01*
X122984031Y-114147631D01*
X123123210Y-114065321D01*
X123123219Y-114065314D01*
X123237550Y-113950983D01*
X123237557Y-113950974D01*
X123319867Y-113811795D01*
X123319869Y-113811790D01*
X123364980Y-113656518D01*
X123364981Y-113656512D01*
X123366626Y-113635600D01*
X122837836Y-113635600D01*
X122837836Y-114190103D01*
X122337836Y-114190103D01*
X122337836Y-113883952D01*
X122355103Y-113820833D01*
X122360330Y-113811995D01*
X122376396Y-113756698D01*
X122405478Y-113656597D01*
X122405479Y-113656591D01*
X122407131Y-113635600D01*
X122408336Y-113620290D01*
X122408336Y-113150910D01*
X122405479Y-113114607D01*
X122391503Y-113066503D01*
X122360331Y-112959208D01*
X122360328Y-112959200D01*
X122355102Y-112950363D01*
X122337836Y-112887245D01*
X122337836Y-112581094D01*
X122837836Y-112581094D01*
X122837836Y-113135600D01*
X123366626Y-113135600D01*
X123364981Y-113114689D01*
X123319867Y-112959404D01*
X123237557Y-112820225D01*
X123237550Y-112820216D01*
X123123219Y-112705885D01*
X123123210Y-112705878D01*
X122984029Y-112623567D01*
X122984026Y-112623565D01*
X122837837Y-112581093D01*
X122837836Y-112581094D01*
X122337836Y-112581094D01*
X122337834Y-112581093D01*
X122191645Y-112623565D01*
X122191642Y-112623567D01*
X122171444Y-112635512D01*
X122103720Y-112652692D01*
X122045206Y-112635510D01*
X122024233Y-112623107D01*
X122024226Y-112623104D01*
X121868833Y-112577957D01*
X121868827Y-112577956D01*
X121832533Y-112575100D01*
X121832526Y-112575100D01*
X121423146Y-112575100D01*
X121423138Y-112575100D01*
X121386844Y-112577956D01*
X121386838Y-112577957D01*
X121231445Y-112623104D01*
X121231442Y-112623105D01*
X121092151Y-112705481D01*
X121092143Y-112705487D01*
X120977723Y-112819907D01*
X120977717Y-112819915D01*
X120895341Y-112959206D01*
X120895340Y-112959209D01*
X120850193Y-113114602D01*
X120850192Y-113114608D01*
X120847336Y-113150902D01*
X120847336Y-113265502D01*
X120827651Y-113332541D01*
X120811017Y-113353183D01*
X120124526Y-114039673D01*
X120063203Y-114073158D01*
X119993511Y-114068174D01*
X119937578Y-114026302D01*
X119913442Y-113964141D01*
X119913000Y-113959651D01*
X119883290Y-113810289D01*
X119872630Y-113756699D01*
X119793441Y-113565521D01*
X119678477Y-113393464D01*
X119678475Y-113393461D01*
X119532157Y-113247143D01*
X119388143Y-113150917D01*
X119360098Y-113132178D01*
X119335253Y-113121887D01*
X119168920Y-113052989D01*
X119168912Y-113052987D01*
X118965969Y-113012619D01*
X118965965Y-113012619D01*
X117859035Y-113012619D01*
X117859030Y-113012619D01*
X117656087Y-113052987D01*
X117656079Y-113052989D01*
X117464903Y-113132177D01*
X117292842Y-113247143D01*
X117146524Y-113393461D01*
X117031558Y-113565522D01*
X116952370Y-113756698D01*
X116952368Y-113756706D01*
X116912000Y-113959649D01*
X116912000Y-114166588D01*
X116952368Y-114369531D01*
X116952370Y-114369539D01*
X117031558Y-114560715D01*
X117146524Y-114732776D01*
X117292842Y-114879094D01*
X117292845Y-114879096D01*
X117379687Y-114937122D01*
X117424491Y-114990732D01*
X117433200Y-115060057D01*
X117405883Y-115117151D01*
X117406928Y-115117953D01*
X117403135Y-115122895D01*
X117403045Y-115123085D01*
X117402757Y-115123388D01*
X117401979Y-115124402D01*
X117322926Y-115261328D01*
X117322923Y-115261335D01*
X117282000Y-115414062D01*
X117282000Y-115572176D01*
X117316385Y-115700500D01*
X117322923Y-115724902D01*
X117322926Y-115724909D01*
X117401975Y-115861828D01*
X117401979Y-115861833D01*
X117401980Y-115861835D01*
X117513784Y-115973639D01*
X117513786Y-115973640D01*
X117513790Y-115973643D01*
X117609273Y-116028769D01*
X117650716Y-116052696D01*
X117803443Y-116093619D01*
X117803454Y-116093619D01*
X117804680Y-116093781D01*
X117805649Y-116094209D01*
X117811293Y-116095722D01*
X117811057Y-116096601D01*
X117835130Y-116107250D01*
X117865942Y-116119877D01*
X117866957Y-116121328D01*
X117868578Y-116122045D01*
X117886912Y-116149838D01*
X117906006Y-116177118D01*
X117906369Y-116179332D01*
X117907052Y-116180368D01*
X117912403Y-116211828D01*
X117918388Y-116363380D01*
X117917775Y-116365820D01*
X117917775Y-116381525D01*
X117912000Y-116435247D01*
X117912000Y-116830988D01*
X117912001Y-116830997D01*
X117916179Y-116869864D01*
X117916801Y-116887789D01*
X117916638Y-116892099D01*
X117912000Y-116935246D01*
X117912000Y-117015094D01*
X117911912Y-117017428D01*
X117901522Y-117048435D01*
X117892315Y-117079794D01*
X117890406Y-117081613D01*
X117889715Y-117083678D01*
X117880410Y-117091145D01*
X117850001Y-117120142D01*
X117793784Y-117152599D01*
X117793781Y-117152601D01*
X117631979Y-117314403D01*
X117618645Y-117337500D01*
X117592596Y-117382619D01*
X117552923Y-117451334D01*
X117511999Y-117604062D01*
X117511999Y-117604064D01*
X117511999Y-117772165D01*
X117512000Y-117772178D01*
X117512000Y-117975500D01*
X117492315Y-118042539D01*
X117439511Y-118088294D01*
X117388000Y-118099500D01*
X117321155Y-118099500D01*
X117166510Y-118130261D01*
X117166498Y-118130264D01*
X117020827Y-118190602D01*
X117020814Y-118190609D01*
X116889711Y-118278210D01*
X116889707Y-118278213D01*
X116778213Y-118389707D01*
X116778210Y-118389711D01*
X116690609Y-118520814D01*
X116690602Y-118520827D01*
X116630264Y-118666498D01*
X116630261Y-118666510D01*
X116599500Y-118821153D01*
X112388083Y-118821153D01*
X112315348Y-118355181D01*
X112314603Y-118349576D01*
X112302003Y-118234697D01*
X112093689Y-116335375D01*
X112093214Y-116329940D01*
X111958903Y-114256866D01*
X111958674Y-114251532D01*
X111952828Y-113976508D01*
X112802000Y-113976508D01*
X112802000Y-114149730D01*
X112806511Y-114178211D01*
X112828075Y-114314365D01*
X112829098Y-114320820D01*
X112882627Y-114485564D01*
X112961268Y-114639907D01*
X113063086Y-114780047D01*
X113185572Y-114902533D01*
X113325712Y-115004351D01*
X113480055Y-115082992D01*
X113644799Y-115136521D01*
X113815889Y-115163619D01*
X113815890Y-115163619D01*
X114589110Y-115163619D01*
X114589111Y-115163619D01*
X114760201Y-115136521D01*
X114924945Y-115082992D01*
X115079288Y-115004351D01*
X115219428Y-114902533D01*
X115341914Y-114780047D01*
X115443732Y-114639907D01*
X115522373Y-114485564D01*
X115575902Y-114320820D01*
X115603000Y-114149730D01*
X115603000Y-113976508D01*
X115575902Y-113805418D01*
X115522373Y-113640674D01*
X115443732Y-113486331D01*
X115341914Y-113346191D01*
X115219428Y-113223705D01*
X115079288Y-113121887D01*
X114924945Y-113043246D01*
X114760201Y-112989717D01*
X114760199Y-112989716D01*
X114760198Y-112989716D01*
X114628771Y-112968900D01*
X114589111Y-112962619D01*
X113815889Y-112962619D01*
X113776228Y-112968900D01*
X113644802Y-112989716D01*
X113480052Y-113043247D01*
X113325711Y-113121887D01*
X113248215Y-113178192D01*
X113185572Y-113223705D01*
X113185570Y-113223707D01*
X113185569Y-113223707D01*
X113063088Y-113346188D01*
X113063088Y-113346189D01*
X113063086Y-113346191D01*
X113028742Y-113393461D01*
X112961268Y-113486330D01*
X112882628Y-113640671D01*
X112829097Y-113805421D01*
X112816659Y-113883952D01*
X112802000Y-113976508D01*
X111952828Y-113976508D01*
X111924144Y-112627102D01*
X111913411Y-112122194D01*
X111913484Y-112114566D01*
X111953966Y-111110000D01*
X139095496Y-111110000D01*
X139137968Y-111256195D01*
X139220278Y-111395374D01*
X139220285Y-111395383D01*
X139334616Y-111509714D01*
X139334625Y-111509721D01*
X139473804Y-111592031D01*
X139629089Y-111637145D01*
X139650000Y-111638789D01*
X140150000Y-111638789D01*
X140170910Y-111637145D01*
X140326195Y-111592031D01*
X140465374Y-111509721D01*
X140465383Y-111509714D01*
X140579714Y-111395383D01*
X140579721Y-111395374D01*
X140662031Y-111256195D01*
X140704504Y-111110000D01*
X140150000Y-111110000D01*
X140150000Y-111638789D01*
X139650000Y-111638789D01*
X139650000Y-111110000D01*
X139095496Y-111110000D01*
X111953966Y-111110000D01*
X112090402Y-107724358D01*
X112091121Y-107715120D01*
X112093353Y-107695810D01*
X112609731Y-103227312D01*
X112610997Y-103218900D01*
X112617025Y-103186451D01*
X113453383Y-98684494D01*
X113455091Y-98676712D01*
X114603133Y-94148817D01*
X114605272Y-94141373D01*
X114617128Y-94104470D01*
X114692453Y-93870000D01*
X135695496Y-93870000D01*
X136250000Y-93870000D01*
X136250000Y-93341210D01*
X136249999Y-93341209D01*
X136229087Y-93342854D01*
X136229081Y-93342855D01*
X136073809Y-93387966D01*
X136073804Y-93387968D01*
X135934625Y-93470278D01*
X135934616Y-93470285D01*
X135820285Y-93584616D01*
X135820278Y-93584625D01*
X135737968Y-93723804D01*
X135695496Y-93870000D01*
X114692453Y-93870000D01*
X116040727Y-89673128D01*
X116043297Y-89665908D01*
X117747889Y-85310282D01*
X117750971Y-85303088D01*
X119549942Y-81448185D01*
X119596129Y-81395761D01*
X119663329Y-81376629D01*
X119730204Y-81396865D01*
X119771792Y-81442409D01*
X119804382Y-81503700D01*
X119804388Y-81503709D01*
X119908625Y-81642037D01*
X119908632Y-81642046D01*
X120033232Y-81762371D01*
X120033234Y-81762373D01*
X120033238Y-81762376D01*
X121731521Y-82951529D01*
X121887213Y-83027465D01*
X122052866Y-83078110D01*
X122224403Y-83102218D01*
X122397600Y-83099195D01*
X122568189Y-83069115D01*
X122731975Y-83012720D01*
X122884921Y-82931396D01*
X123023263Y-82827149D01*
X123143594Y-82702543D01*
X123242950Y-82560648D01*
X123318886Y-82404957D01*
X123369531Y-82239303D01*
X123393639Y-82067766D01*
X123390616Y-81894570D01*
X123360537Y-81723980D01*
X123304141Y-81560195D01*
X123288368Y-81530531D01*
X123222816Y-81407246D01*
X123222813Y-81407242D01*
X123118576Y-81268914D01*
X123118569Y-81268905D01*
X122993969Y-81148580D01*
X122993965Y-81148577D01*
X122993964Y-81148576D01*
X121295681Y-79959423D01*
X121139989Y-79883488D01*
X120974336Y-79832843D01*
X120974334Y-79832842D01*
X120974332Y-79832842D01*
X120848019Y-79815089D01*
X120802799Y-79808734D01*
X120802792Y-79808734D01*
X120802791Y-79808734D01*
X120634929Y-79811664D01*
X120567556Y-79793152D01*
X120520887Y-79741155D01*
X120509738Y-79672181D01*
X120524153Y-79627854D01*
X120547343Y-79585756D01*
X121466195Y-77917696D01*
X132410029Y-77917696D01*
X132414592Y-78061407D01*
X132459453Y-78198004D01*
X132540985Y-78316431D01*
X132586093Y-78355832D01*
X132586101Y-78355837D01*
X133600061Y-79065820D01*
X133600062Y-79065820D01*
X134064658Y-78402307D01*
X134064658Y-78402306D01*
X133992877Y-78352045D01*
X133889299Y-78279519D01*
X134761022Y-78279519D01*
X134761023Y-78279520D01*
X136143643Y-79247641D01*
X136153727Y-79245863D01*
X136188222Y-79218290D01*
X136257720Y-79211095D01*
X136306346Y-79231462D01*
X136745412Y-79538900D01*
X136745413Y-79538900D01*
X137063463Y-79084676D01*
X137063463Y-79084675D01*
X136919352Y-79035616D01*
X136919350Y-79035615D01*
X136758118Y-79023210D01*
X136598877Y-79051288D01*
X136598872Y-79051289D01*
X136537741Y-79079019D01*
X136468558Y-79088786D01*
X136405076Y-79059599D01*
X136367452Y-79000725D01*
X136367630Y-78930856D01*
X136377928Y-78906225D01*
X136379544Y-78903293D01*
X136415652Y-78764131D01*
X136411089Y-78620420D01*
X136366228Y-78483823D01*
X136284696Y-78365396D01*
X136239588Y-78325995D01*
X136239580Y-78325990D01*
X135225619Y-77616006D01*
X135225618Y-77616006D01*
X134761022Y-78279519D01*
X133889299Y-78279519D01*
X132680291Y-77432962D01*
X132680290Y-77432962D01*
X132475055Y-77726070D01*
X132475049Y-77726079D01*
X132446139Y-77778529D01*
X132446138Y-77778532D01*
X132410029Y-77917696D01*
X121466195Y-77917696D01*
X121897607Y-77134522D01*
X121902204Y-77126849D01*
X121927367Y-77088080D01*
X121969356Y-77023386D01*
X132967080Y-77023386D01*
X134351447Y-77992731D01*
X134816043Y-77329218D01*
X134816042Y-77329217D01*
X133802083Y-76619235D01*
X133802074Y-76619229D01*
X133749624Y-76590319D01*
X133749621Y-76590318D01*
X133610457Y-76554209D01*
X133466745Y-76558771D01*
X133330149Y-76603632D01*
X133211722Y-76685164D01*
X133172322Y-76730272D01*
X132967080Y-77023386D01*
X121969356Y-77023386D01*
X124303411Y-73427259D01*
X124309113Y-73419199D01*
X126814614Y-70161957D01*
X126871089Y-70120823D01*
X126940840Y-70116751D01*
X127001720Y-70151035D01*
X127034400Y-70212791D01*
X127035692Y-70254819D01*
X127032699Y-70276115D01*
X127032698Y-70276131D01*
X127035720Y-70449319D01*
X127065801Y-70619910D01*
X127065803Y-70619919D01*
X127122193Y-70783689D01*
X127122200Y-70783704D01*
X127203520Y-70936643D01*
X127203523Y-70936647D01*
X127307760Y-71074975D01*
X127307767Y-71074984D01*
X127432367Y-71195309D01*
X127432369Y-71195311D01*
X127432373Y-71195314D01*
X129130656Y-72384467D01*
X129286348Y-72460403D01*
X129452001Y-72511048D01*
X129623538Y-72535156D01*
X129796735Y-72532133D01*
X129967324Y-72502053D01*
X130131110Y-72445658D01*
X130284056Y-72364334D01*
X130422398Y-72260087D01*
X130542729Y-72135481D01*
X130642085Y-71993586D01*
X130718021Y-71837895D01*
X130768666Y-71672241D01*
X130792774Y-71500704D01*
X130789751Y-71327508D01*
X130759672Y-71156918D01*
X130703276Y-70993133D01*
X130673239Y-70936643D01*
X130621951Y-70840184D01*
X130621948Y-70840180D01*
X130517711Y-70701852D01*
X130517704Y-70701843D01*
X130393104Y-70581518D01*
X130393100Y-70581515D01*
X130393099Y-70581514D01*
X128694816Y-69392361D01*
X128539124Y-69316426D01*
X128373471Y-69265781D01*
X128373469Y-69265780D01*
X128373467Y-69265780D01*
X128247154Y-69248027D01*
X128201934Y-69241672D01*
X128201927Y-69241672D01*
X128201926Y-69241672D01*
X128028738Y-69244694D01*
X128028735Y-69244695D01*
X127931290Y-69261877D01*
X127861851Y-69254133D01*
X127807622Y-69210076D01*
X127785820Y-69143695D01*
X127803368Y-69076064D01*
X127818711Y-69055581D01*
X129686349Y-67035936D01*
X129693034Y-67029241D01*
X131137278Y-65689990D01*
X131142515Y-65685402D01*
X132309981Y-64719437D01*
X141824500Y-64719437D01*
X141824500Y-65080562D01*
X141859896Y-65439957D01*
X141930344Y-65794130D01*
X141930347Y-65794141D01*
X142035181Y-66139733D01*
X142173381Y-66473376D01*
X142173383Y-66473381D01*
X142343609Y-66791852D01*
X142343620Y-66791870D01*
X142544244Y-67092125D01*
X142544254Y-67092139D01*
X142773354Y-67371297D01*
X143028702Y-67626645D01*
X143028707Y-67626649D01*
X143028708Y-67626650D01*
X143307866Y-67855750D01*
X143608136Y-68056384D01*
X143608145Y-68056389D01*
X143608147Y-68056390D01*
X143926618Y-68226616D01*
X143926620Y-68226616D01*
X143926626Y-68226620D01*
X144260268Y-68364819D01*
X144605849Y-68469650D01*
X144605855Y-68469651D01*
X144605858Y-68469652D01*
X144605869Y-68469655D01*
X144960042Y-68540103D01*
X145319434Y-68575500D01*
X145319437Y-68575500D01*
X145680563Y-68575500D01*
X145680566Y-68575500D01*
X146039958Y-68540103D01*
X146108904Y-68526388D01*
X146394130Y-68469655D01*
X146394141Y-68469652D01*
X146394141Y-68469651D01*
X146394151Y-68469650D01*
X146739732Y-68364819D01*
X147073374Y-68226620D01*
X147391864Y-68056384D01*
X147692134Y-67855750D01*
X147971292Y-67626650D01*
X148226650Y-67371292D01*
X148455750Y-67092134D01*
X148656384Y-66791864D01*
X148826620Y-66473374D01*
X148964819Y-66139732D01*
X149069650Y-65794151D01*
X149069652Y-65794141D01*
X149069655Y-65794130D01*
X149140103Y-65439957D01*
X149175500Y-65080562D01*
X149175500Y-64719437D01*
X149165790Y-64620853D01*
X149140103Y-64360042D01*
X149133970Y-64329207D01*
X149069655Y-64005869D01*
X149069652Y-64005858D01*
X149069651Y-64005855D01*
X149069650Y-64005849D01*
X148964819Y-63660268D01*
X148826620Y-63326626D01*
X148656384Y-63008136D01*
X148455750Y-62707866D01*
X148226650Y-62428708D01*
X148226649Y-62428707D01*
X148226645Y-62428702D01*
X147971297Y-62173354D01*
X147692139Y-61944254D01*
X147692138Y-61944253D01*
X147692134Y-61944250D01*
X147391864Y-61743616D01*
X147391859Y-61743613D01*
X147391852Y-61743609D01*
X147073381Y-61573383D01*
X147073376Y-61573381D01*
X146739733Y-61435181D01*
X146394141Y-61330347D01*
X146394130Y-61330344D01*
X146039957Y-61259896D01*
X145769279Y-61233237D01*
X145680566Y-61224500D01*
X145319434Y-61224500D01*
X145237465Y-61232573D01*
X144960042Y-61259896D01*
X144605869Y-61330344D01*
X144605858Y-61330347D01*
X144260266Y-61435181D01*
X143926623Y-61573381D01*
X143926618Y-61573383D01*
X143608147Y-61743609D01*
X143608129Y-61743620D01*
X143307874Y-61944244D01*
X143307860Y-61944254D01*
X143028702Y-62173354D01*
X142773354Y-62428702D01*
X142544254Y-62707860D01*
X142544244Y-62707874D01*
X142343620Y-63008129D01*
X142343609Y-63008147D01*
X142173383Y-63326618D01*
X142173381Y-63326623D01*
X142035181Y-63660266D01*
X141930347Y-64005858D01*
X141930344Y-64005869D01*
X141859896Y-64360042D01*
X141824500Y-64719437D01*
X132309981Y-64719437D01*
X132625310Y-64458533D01*
X132631251Y-64453916D01*
X134148424Y-63347556D01*
X134155163Y-63342977D01*
X135704270Y-62363605D01*
X135711922Y-62359144D01*
X137290511Y-61513193D01*
X137299142Y-61508990D01*
X138904908Y-60802766D01*
X138914524Y-60799007D01*
X140545210Y-60238799D01*
X140555770Y-60235689D01*
X142209159Y-59827765D01*
X142220576Y-59825511D01*
X143894678Y-59576115D01*
X143906735Y-59574919D01*
X145599710Y-59490365D01*
X145612053Y-59490365D01*
X147301972Y-59574913D01*
G37*
%TD.AperFunction*%
%TD*%
M02*
