%TF.GenerationSoftware,KiCad,Pcbnew,10.0.1*%
%TF.CreationDate,2026-06-14T09:23:58+08:00*%
%TF.ProjectId,USB_HUB,5553425f-4855-4422-9e6b-696361645f70,rev?*%
%TF.SameCoordinates,Original*%
%TF.FileFunction,Profile,NP*%
%FSLAX46Y46*%
G04 Gerber Fmt 4.6, Leading zero omitted, Abs format (unit mm)*
G04 Created by KiCad (PCBNEW 10.0.1) date 2026-06-14 09:23:58*
%MOMM*%
%LPD*%
G01*
G04 APERTURE LIST*
%TA.AperFunction,Profile*%
%ADD10C,0.145987*%
%TD*%
%TA.AperFunction,Profile*%
%ADD11C,0.050000*%
%TD*%
G04 APERTURE END LIST*
D10*
X147315586Y-59500000D02*
X149000000Y-59752216D01*
X150657220Y-60164515D01*
X152285344Y-60730305D01*
X153882473Y-61442991D01*
X155446705Y-62295979D01*
X156976140Y-63282675D01*
X158468876Y-64396485D01*
X159923015Y-65630815D01*
X161336654Y-66979071D01*
X162707893Y-68434659D01*
X164034831Y-69990985D01*
X165315569Y-71641455D01*
X166548204Y-73379475D01*
X167730837Y-75198451D01*
X168861567Y-77091788D01*
X169938493Y-79052894D01*
X170959714Y-81075173D01*
X171923331Y-83152032D01*
X172827441Y-85276877D01*
X173670146Y-87443113D01*
X174449543Y-89644147D01*
X175163732Y-91873385D01*
X175810813Y-94124233D01*
X176388885Y-96390096D01*
X176896047Y-98664381D01*
X177330399Y-100940493D01*
X177690040Y-103211839D01*
X177973069Y-105471824D01*
X178177586Y-107713855D01*
X178301690Y-109931338D01*
X178343481Y-112117677D01*
X178302429Y-114257459D01*
X178180480Y-116339229D01*
X177979438Y-118362336D01*
X177701110Y-120326130D01*
X177347303Y-122229961D01*
X176919823Y-124073178D01*
X176420475Y-125855132D01*
X175851068Y-127575171D01*
X175213406Y-129232645D01*
X174509295Y-130826903D01*
X173740544Y-132357297D01*
X172908957Y-133823174D01*
X172016341Y-135223885D01*
X171064502Y-136558779D01*
X170055246Y-137827207D01*
X168990381Y-139028516D01*
X167871712Y-140162058D01*
X166701045Y-141227182D01*
X165480187Y-142223237D01*
X164210944Y-143149572D01*
X162895122Y-144005539D01*
X161534528Y-144790486D01*
X160130969Y-145503762D01*
X158686249Y-146144718D01*
X157202176Y-146712703D01*
X155680556Y-147207067D01*
X154123195Y-147627159D01*
X152531900Y-147972329D01*
X150908477Y-148241926D01*
X149254732Y-148435300D01*
X147572471Y-148551802D01*
X145863501Y-148590779D01*
X144150097Y-148551801D01*
X142454911Y-148435299D01*
X140780316Y-148241923D01*
X139128684Y-147972325D01*
X137502387Y-147627154D01*
X135903799Y-147207062D01*
X134335290Y-146712698D01*
X132799234Y-146144712D01*
X131298003Y-145503756D01*
X129833969Y-144790479D01*
X128409504Y-144005532D01*
X127026982Y-143149565D01*
X125688774Y-142223229D01*
X124397253Y-141227174D01*
X123154790Y-140162050D01*
X121963760Y-139028508D01*
X120826533Y-137827199D01*
X119745482Y-136558771D01*
X118722980Y-135223877D01*
X117761399Y-133823167D01*
X116863111Y-132357290D01*
X116030489Y-130826897D01*
X115265904Y-129232638D01*
X114571731Y-127575164D01*
X113950340Y-125855126D01*
X113404104Y-124073173D01*
X112935395Y-122229957D01*
X112546587Y-120326127D01*
X112240050Y-118362333D01*
X112018159Y-116339227D01*
X111883284Y-114257458D01*
X111837798Y-112117677D01*
X112015265Y-107713856D01*
X112535517Y-103211841D01*
X113380329Y-98664383D01*
X114531478Y-94124236D01*
X115970738Y-89644151D01*
X117679886Y-85276881D01*
X119640698Y-81075177D01*
X121834950Y-77091792D01*
X124244416Y-73379479D01*
X126850874Y-69990989D01*
X129636099Y-66979074D01*
X131090053Y-65630818D01*
X132581866Y-64396488D01*
X134109258Y-63282677D01*
X135669951Y-62295981D01*
X137261669Y-61442993D01*
X138882131Y-60730306D01*
X140529062Y-60164516D01*
X142200181Y-59752217D01*
X143893212Y-59500001D01*
X145605877Y-59414463D01*
X147315586Y-59500000D01*
D11*
X132300000Y-129800000D02*
G75*
G02*
X125100000Y-129800000I-3600000J0D01*
G01*
X125100000Y-129800000D02*
G75*
G02*
X132300000Y-129800000I3600000J0D01*
G01*
X149100000Y-64900000D02*
G75*
G02*
X141900000Y-64900000I-3600000J0D01*
G01*
X141900000Y-64900000D02*
G75*
G02*
X149100000Y-64900000I3600000J0D01*
G01*
X165100000Y-129800000D02*
G75*
G02*
X157900000Y-129800000I-3600000J0D01*
G01*
X157900000Y-129800000D02*
G75*
G02*
X165100000Y-129800000I3600000J0D01*
G01*
M02*
